<?xml version="1.0" encoding="UTF-8" standalone="no"?>
<!DOCTYPE svg PUBLIC "-//W3C//DTD SVG 1.1//EN" "http://www.w3.org/Graphics/SVG/1.1/DTD/svg11.dtd">
<svg xmlns="http://www.w3.org/2000/svg" xmlns:xlink="http://www.w3.org/1999/xlink" version="1.1" width="30pt" height="30pt" viewBox="0 0 30 30">
<g enable-background="new">
<clipPath id="cp0">
<path transform="matrix(1,0,0,-1,0,30)" d="M 13.1175 27.37432 C 13.32336 27.66842 13.72866 27.73994 14.02275 27.53407 L 17.23928 25.2825 C 17.30145 25.23898 17.35552 25.18492 17.39903 25.12275 C 17.6049 24.82866 17.53338 24.42336 17.23928 24.2175 L 14.02275 21.96593 C 13.9135 21.88945 13.78336 21.84843 13.65 21.84843 C 13.29101 21.84843 13 22.13944 13 22.49843 L 12.99942 24.12013 C 8.805207 23.20432 5.665 19.46888 5.665 15 C 5.665 9.844422 9.844422 5.665 15 5.665 C 20.15558 5.665 24.335 9.844422 24.335 15 C 24.335 18.13606 22.77767 21.00744 20.22915 22.73414 C 19.9251 22.94014 19.84561 23.35363 20.05162 23.65768 C 20.25762 23.96173 20.67111 24.04122 20.97516 23.83521 C 23.88515 21.86361 25.665 18.58194 25.665 15 C 25.665 9.109883 20.89012 4.335 15 4.335 C 9.109883 4.335 4.335 9.109883 4.335 15 C 4.335 20.20639 8.065677 24.54143 12.99961 25.4777 L 13 27.00157 C 13 27.13494 13.04102 27.26507 13.1175 27.37432 Z M 19.23357 18.6853 C 19.54485 18.6853 19.80425 18.45703 19.80425 18.10425 C 19.80425 17.75146 19.54485 17.50244 19.23357 17.50244 L 16.13115 17.50244 L 15.95476 15.26123 C 16.25566 15.72815 16.91973 16.0083 17.54229 16.0083 C 19.01567 16.0083 20.0429 14.91882 20.0429 13.39355 C 20.0429 11.72302 18.91191 10.61279 17.1895 10.61279 C 15.93401 10.61279 15.02092 11.33911 14.74077 12.08618 C 14.68889 12.22107 14.65776 12.35596 14.65776 12.50122 C 14.65776 12.854 14.89641 13.10303 15.23882 13.10303 C 15.49822 13.10303 15.68499 12.95776 15.84063 12.68799 C 16.1104 12.14844 16.6292 11.79565 17.25176 11.79565 C 18.10259 11.79565 18.7459 12.45972 18.7459 13.3728 C 18.7459 14.27551 18.20635 14.86694 17.39702 14.86694 C 16.98198 14.86694 16.6707 14.72168 16.26604 14.35852 C 15.97551 14.13025 15.83025 14.06799 15.48784 14.06799 C 15.0313 14.06799 14.76152 14.31702 14.80303 14.83582 L 15.0313 17.8241 C 15.0728 18.37402 15.37371 18.6853 15.92363 18.6853 L 19.23357 18.6853 Z M 11.84587 18.80981 C 12.31279 18.80981 12.57219 18.52966 12.57219 18.00049 L 12.57219 11.45325 C 12.57219 11.01746 12.32317 10.7373 11.91851 10.7373 C 11.52422 10.7373 11.2752 11.02783 11.2752 11.45325 L 11.2752 17.18079 L 10.29985 16.46484 C 10.11309 16.3092 10.00933 16.2677 9.801807 16.2677 C 9.469775 16.2677 9.2 16.55823 9.2 16.90063 C 9.2 17.13928 9.314136 17.32605 9.552783 17.50244 L 10.97429 18.46741 C 11.34783 18.71643 11.55535 18.80981 11.84587 18.80981 Z "/>
</clipPath>
<g clip-path="url(#cp0)">
<path transform="matrix(1,0,0,-1,0,30)" d="M -.665 32.65163 L 30.665 32.65163 L 30.665 -.665 L -.665 -.665 Z "/>
</g>
</g>
</svg>
