<?xml version="1.0" encoding="UTF-8" standalone="no"?>
<!DOCTYPE svg PUBLIC "-//W3C//DTD SVG 1.1//EN" "http://www.w3.org/Graphics/SVG/1.1/DTD/svg11.dtd">
<svg xmlns="http://www.w3.org/2000/svg" xmlns:xlink="http://www.w3.org/1999/xlink" version="1.1" width="30pt" height="30pt" viewBox="0 0 30 30">
<g enable-background="new">
<clipPath id="cp0">
<path transform="matrix(1,0,0,-1,0,30)" d="M 25 14.665 C 25.87116 14.665 26.58605 13.99596 26.65889 13.14366 L 26.665 13 L 26.665 7 C 26.665 6.128843 25.99596 5.41395 25.14366 5.341112 L 25 5.335 L 15 5.335 C 14.12884 5.335 13.41395 6.004043 13.34111 6.856337 L 13.335 7 L 13.335 13 C 13.335 13.87116 14.00404 14.58605 14.85634 14.65889 L 15 14.665 L 25 14.665 Z M 25 13.335 L 15 13.335 C 14.83811 13.335 14.70304 13.22017 14.67181 13.06751 L 14.665 13 L 14.665 7 C 14.665 6.838112 14.77983 6.703044 14.93249 6.671806 L 15 6.665 L 25 6.665 C 25.16189 6.665 25.29696 6.779832 25.32819 6.932486 L 25.335 7 L 25.335 13 C 25.335 13.18502 25.18502 13.335 25 13.335 Z M 21 23.665 C 22.47184 23.665 23.665 22.47184 23.665 21 L 23.665 17 C 23.665 16.63273 23.36727 16.335 23 16.335 C 22.63273 16.335 22.335 16.63273 22.335 17 L 22.335 21 C 22.335 21.7373 21.7373 22.335 21 22.335 L 7 22.335 C 6.2627 22.335 5.665 21.7373 5.665 21 L 5.665 13 C 5.665 12.2627 6.2627 11.665 7 11.665 L 11 11.665 C 11.36727 11.665 11.665 11.36727 11.665 11 C 11.665 10.63273 11.36727 10.335 11 10.335 L 7 10.335 C 5.528161 10.335 4.335 11.52816 4.335 13 L 4.335 21 C 4.335 22.47184 5.528161 23.665 7 23.665 L 21 23.665 Z M 11.40173 20.65779 L 11.5 20.665 C 11.83388 20.665 12.11029 20.41894 12.15779 20.09827 L 12.165 20 L 12.165 16.5 C 12.165 16.16612 11.91894 15.88971 11.59827 15.84221 L 11.5 15.835 L 8 15.835 C 7.632731 15.835 7.335 16.13273 7.335 16.5 C 7.335 16.83388 7.581058 17.11029 7.901731 17.15779 L 8 17.165 L 9.894 17.165 L 7.529774 19.52977 C 7.270075 19.78947 7.270075 20.21053 7.529774 20.47023 C 7.763503 20.70395 8.12793 20.72733 8.387798 20.54034 L 8.470226 20.47023 L 10.834 18.107 L 10.835 20 C 10.835 20.33388 11.08106 20.61029 11.40173 20.65779 L 11.5 20.665 L 11.40173 20.65779 Z "/>
</clipPath>
<g clip-path="url(#cp0)">
<path transform="matrix(1,0,0,-1,0,30)" d="M -.665 28.665 L 31.665 28.665 L 31.665 .335 L -.665 .335 Z "/>
</g>
</g>
</svg>
