<?xml version="1.0" encoding="UTF-8" standalone="no"?>
<!DOCTYPE svg PUBLIC "-//W3C//DTD SVG 1.1//EN" "http://www.w3.org/Graphics/SVG/1.1/DTD/svg11.dtd">
<svg xmlns="http://www.w3.org/2000/svg" xmlns:xlink="http://www.w3.org/1999/xlink" version="1.1" width="30pt" height="30pt" viewBox="0 0 30 30">
<g enable-background="new">
<clipPath id="cp0">
<path transform="matrix(1,0,0,-1,0,30)" d="M 20 25.835 C 23.22258 25.835 25.835 23.22258 25.835 20 L 25.835 14.9339 C 25.835 14.08527 25.71273 13.24108 25.47197 12.42734 C 24.87544 10.41111 23.91502 8.734156 22.59043 7.409566 C 21.26583 6.084959 19.58885 5.124535 17.57258 4.528005 C 16.75884 4.287255 15.91467 4.165 15.06607 4.165 L 10 4.165 C 6.777418 4.165 4.165 6.777418 4.165 10 L 4.165 20 C 4.165 23.22258 6.777418 25.835 10 25.835 L 20 25.835 Z M 20 24.165 L 10 24.165 C 7.699734 24.165 5.835 22.30027 5.835 20 L 5.835 10 C 5.835 7.699734 7.699734 5.835 10 5.835 L 15 5.835 C 15.60052 5.835 16.09491 6.289361 16.15816 6.87306 L 16.165 7 L 16.16606 9.264203 C 15.78362 9.19841 15.39389 9.165 15 9.165 C 12.96467 9.165 11.07334 10.06098 9.783136 11.58375 C 9.485025 11.93559 9.528585 12.46249 9.880432 12.7606 C 10.23228 13.05871 10.75917 13.01515 11.05728 12.66331 C 12.03347 11.51117 13.46079 10.835 15 10.835 C 15.44324 10.835 15.87831 10.89065 16.29827 10.99932 C 16.72119 12.57297 18.11862 13.74465 19.80265 13.83001 L 20 13.835 L 23 13.835 C 23.60052 13.835 24.09491 14.28936 24.15816 14.87306 L 24.165 15 L 24.165 20 C 24.165 22.30027 22.30027 24.165 20 24.165 Z M 23.65569 12.24089 L 23.50959 12.21068 C 23.39938 12.19067 23.28695 12.17704 23.1727 12.17017 L 23 12.165 L 20 12.165 C 18.85629 12.165 17.91972 11.27815 17.84044 10.15462 L 17.835 10 L 17.835 7 C 17.835 6.774405 17.80865 6.554965 17.75886 6.344588 C 19.21874 6.864782 20.43269 7.61356 21.40957 8.590434 C 22.38643 9.567296 23.1352 10.78123 23.65569 12.24089 Z M 12 19.25 C 12.70416 19.25 13.25 18.5677 13.25 17.75 C 13.25 16.9323 12.70416 16.25 12 16.25 C 11.29584 16.25 10.75 16.9323 10.75 17.75 C 10.75 18.5677 11.29584 19.25 12 19.25 Z M 18 19.25 C 18.70416 19.25 19.25 18.5677 19.25 17.75 C 19.25 16.9323 18.70416 16.25 18 16.25 C 17.29584 16.25 16.75 16.9323 16.75 17.75 C 16.75 18.5677 17.29584 19.25 18 19.25 Z "/>
</clipPath>
<g clip-path="url(#cp0)">
<path transform="matrix(1,0,0,-1,0,30)" d="M -.835 30.835 L 30.835 30.835 L 30.835 -.835 L -.835 -.835 Z "/>
</g>
</g>
</svg>
