<?xml version="1.0" encoding="UTF-8" standalone="no"?>
<!DOCTYPE svg PUBLIC "-//W3C//DTD SVG 1.1//EN" "http://www.w3.org/Graphics/SVG/1.1/DTD/svg11.dtd">
<svg xmlns="http://www.w3.org/2000/svg" xmlns:xlink="http://www.w3.org/1999/xlink" version="1.1" width="30pt" height="30pt" viewBox="0 0 30 30">
<g enable-background="new">
<clipPath id="cp0">
<path transform="matrix(1,0,0,-1,0,30)" d="M 14 25.36378 C 14.87116 25.36378 15.58605 24.69474 15.65889 23.84244 L 15.665 23.69878 L 15.665 6.301219 C 15.665 5.879487 15.50496 5.473468 15.21721 5.165159 C 14.62669 4.532458 13.65866 4.463058 12.98637 4.980174 L 12.86394 5.084012 L 7.334413 10.2449 C 7.287889 10.28833 7.230307 10.31729 7.168626 10.32906 L 7.105837 10.335 L 5 10.335 C 3.58477 10.335 2.427194 11.43814 2.340243 12.83146 L 2.335 13 L 2.335 17 C 2.335 18.41523 3.438145 19.57281 4.831461 19.65976 L 5 19.665 L 7.105837 19.665 C 7.169477 19.665 7.231338 19.68311 7.284461 19.71659 L 7.334413 19.7551 L 12.86394 24.91599 C 13.17225 25.20374 13.57827 25.36378 14 25.36378 Z M 14 24.03378 C 13.93636 24.03378 13.8745 24.01567 13.82138 23.98219 L 13.77142 23.94368 L 8.241897 18.78279 C 7.972126 18.53101 7.627547 18.37701 7.26309 18.34244 L 7.105837 18.335 L 5 18.335 C 4.30607 18.335 3.735801 17.80555 3.671111 17.12857 L 3.665 17 L 3.665 13 C 3.665 12.30607 4.19445 11.7358 4.871431 11.67111 L 5 11.665 L 7.105837 11.665 C 7.474852 11.665 7.831837 11.54247 8.121861 11.31907 L 8.241897 11.21721 L 13.77142 6.056315 C 13.90668 5.930076 14.11866 5.937386 14.2449 6.072642 C 14.28833 6.119166 14.31729 6.176749 14.32906 6.23843 L 14.335 6.301219 L 14.335 23.69878 C 14.335 23.8838 14.18502 24.03378 14 24.03378 Z M 24.70343 22.33168 C 25.9819 20.12106 26.665 17.60956 26.665 15 C 26.665 12.38821 25.98073 9.874674 24.7002 7.662731 C 24.51619 7.344883 24.10935 7.236384 23.7915 7.420393 C 23.47366 7.604402 23.36516 8.011237 23.54917 8.329086 C 24.71324 10.33986 25.335 12.62379 25.335 15 C 25.335 17.37419 24.7143 19.65627 23.5521 21.66584 C 23.36824 21.98377 23.47691 22.39055 23.79484 22.57442 C 24.11277 22.75829 24.51956 22.64961 24.70343 22.33168 Z M 20.65978 19.29639 C 21.3178 17.97246 21.665 16.51033 21.665 15 C 21.665 13.48784 21.31695 12.024 20.6574 10.69884 C 20.49376 10.37004 20.09455 10.23616 19.76576 10.3998 C 19.43696 10.56345 19.30308 10.96265 19.46673 11.29145 C 20.03515 12.43352 20.335 13.69465 20.335 15 C 20.335 16.30377 20.03588 17.56343 19.46877 18.70444 C 19.30531 19.03332 19.43941 19.43245 19.7683 19.59592 C 20.09718 19.75938 20.49631 19.62528 20.65978 19.29639 Z "/>
</clipPath>
<g clip-path="url(#cp0)">
<path transform="matrix(1,0,0,-1,0,30)" d="M -2.665 30.36378 L 31.665 30.36378 L 31.665 -.3637872 L -2.665 -.3637872 Z "/>
</g>
</g>
</svg>
