<?xml version="1.0" encoding="UTF-8" standalone="no"?>
<!DOCTYPE svg PUBLIC "-//W3C//DTD SVG 1.1//EN" "http://www.w3.org/Graphics/SVG/1.1/DTD/svg11.dtd">
<svg xmlns="http://www.w3.org/2000/svg" xmlns:xlink="http://www.w3.org/1999/xlink" version="1.1" width="30pt" height="30pt" viewBox="0 0 30 30">
<g enable-background="new">
<clipPath id="cp0">
<path transform="matrix(1,0,0,-1,0,30)" d="M 5.387798 23.54034 L 5.470226 23.47023 L 23.47023 5.470226 C 23.72992 5.210527 23.72992 4.789473 23.47023 4.529774 C 23.2365 4.296045 22.87207 4.272672 22.6122 4.459655 L 22.52977 4.529774 L 4.529774 22.52977 C 4.270075 22.78947 4.270075 23.21053 4.529774 23.47023 C 4.763503 23.70395 5.12793 23.72733 5.387798 23.54034 Z M 7 17.665 C 7.333881 17.665 7.610292 17.41894 7.65779 17.09827 L 7.665 17 L 7.665 13 C 7.665 12.30607 8.19445 11.7358 8.871431 11.67111 L 9 11.665 L 11.10584 11.665 C 11.47485 11.665 11.83184 11.54247 12.12186 11.31907 L 12.2419 11.21721 L 17.77142 6.056315 C 17.88736 5.94811 18.05966 5.938023 18.18602 6.022525 L 18.2449 6.072642 C 18.4955 6.341137 18.9163 6.355647 19.1848 6.105052 C 19.45329 5.854458 19.4678 5.433653 19.21721 5.165159 C 18.62669 4.532458 17.65866 4.463058 16.98637 4.980174 L 16.86394 5.084012 L 11.33441 10.2449 C 11.28789 10.28833 11.23031 10.31729 11.16863 10.32906 L 11.10584 10.335 L 9 10.335 C 7.58477 10.335 6.427194 11.43814 6.340243 12.83146 L 6.335 13 L 6.335 17 C 6.335 17.36727 6.632731 17.665 7 17.665 Z M 18 25.36378 C 18.87116 25.36378 19.58605 24.69474 19.65889 23.84244 L 19.665 23.69878 L 19.665 13 C 19.665 12.63273 19.36727 12.335 19 12.335 C 18.66612 12.335 18.38971 12.58106 18.34221 12.90173 L 18.335 13 L 18.335 23.69878 C 18.335 23.8838 18.18502 24.03378 18 24.03378 C 17.91515 24.03378 17.83346 24.00158 17.77142 23.94368 L 12.68162 19.13159 C 12.41477 18.87924 11.99388 18.89099 11.74153 19.15783 C 11.48918 19.42468 11.50093 19.84557 11.76778 20.09792 L 15.31284 23.45887 C 15.88286 23.99706 16.39584 24.47909 16.86394 24.91599 C 17.17225 25.20374 17.57827 25.36378 18 25.36378 Z "/>
</clipPath>
<g clip-path="url(#cp0)">
<path transform="matrix(1,0,0,-1,0,30)" d="M -.665 30.36378 L 28.665 30.36378 L 28.665 -.665 L -.665 -.665 Z "/>
</g>
</g>
</svg>
