<?xml version="1.0" encoding="UTF-8" standalone="no"?>
<!DOCTYPE svg PUBLIC "-//W3C//DTD SVG 1.1//EN" "http://www.w3.org/Graphics/SVG/1.1/DTD/svg11.dtd">
<svg xmlns="http://www.w3.org/2000/svg" xmlns:xlink="http://www.w3.org/1999/xlink" version="1.1" width="24pt" height="24pt" viewBox="0 0 24 24">
<g enable-background="new">
<clipPath id="cp0">
<path transform="matrix(1,0,0,-1,0,24)" d="M 5.489561 13.14194 L 6.408241 14.05241 C 6.913936 14.54523 7.52077 14.67053 8.102319 14.43665 C 8.161317 14.67888 8.287741 14.91276 8.473162 15.155 C 9.551978 16.51653 10.47066 18.44607 10.92578 20.5176 C 11.02692 21.00207 11.22077 21.36125 11.47362 21.61184 C 12.03831 22.17149 12.86428 22.11302 13.47112 21.51996 L 20.25586 14.79582 C 21.22511 13.83523 21.25039 12.74099 20.31485 11.82217 L 16.39572 7.921335 C 16.12601 7.645687 15.78046 7.436863 15.40961 7.344981 C 15.8226 6.685097 15.72989 5.966742 15.15677 5.382035 L 14.25494 4.463209 C 13.53854 3.753207 12.60301 3.794972 11.83603 4.546738 L 10.15038 6.192272 C 9.602548 5.348623 8.936716 3.703089 8.136032 2.909558 C 6.897079 1.681673 5.228285 1.698378 3.955619 2.951323 C 2.691382 4.21262 2.682954 5.866506 3.921906 7.094392 C 4.714162 7.87957 6.374528 8.547807 7.234209 9.09075 L 5.582272 10.74464 C 4.806873 11.50476 4.764732 12.44028 5.489561 13.14194 Z M 15.21576 8.614631 L 19.27818 12.64911 C 19.64059 13.00829 19.63217 13.44264 19.22761 13.84359 L 18.6292 14.42829 C 17.60096 13.55123 15.07248 11.75534 14.65107 12.17299 C 14.51622 12.30664 14.62579 12.42358 14.71007 12.50711 C 15.56975 13.35911 16.69071 14.74571 16.90984 16.14065 L 12.81371 20.19184 C 12.62829 20.38395 12.44287 20.34219 12.30802 20.20019 C 12.23216 20.12501 12.19002 20.04148 12.15631 19.94125 C 11.58319 17.81124 10.61394 15.89841 9.636261 14.50347 C 9.164279 13.82688 9.315987 13.47605 9.644689 13.15864 L 9.636261 13.15029 L 14.17066 8.656396 L 14.17909 8.656396 C 14.53307 8.297218 14.86178 8.27216 15.21576 8.614631 Z M 6.627375 12.3484 C 6.366099 12.08946 6.374528 11.73864 6.644232 11.4797 L 8.759723 9.391456 C 9.071568 9.099103 8.945144 8.764984 8.557445 8.464278 C 7.672478 7.854511 5.464276 6.818744 4.857442 6.217331 C 4.141041 5.507329 4.132613 4.546738 4.849014 3.836737 C 5.565415 3.126735 6.526236 3.143441 7.251066 3.84509 C 7.866328 4.446503 8.903003 6.634979 9.518265 7.503687 C 9.821682 7.896276 10.15881 8.013218 10.4538 7.712511 L 12.57772 5.615918 C 12.84742 5.34027 13.18455 5.331917 13.45426 5.599212 L 14.01052 6.175566 C 14.2718 6.434508 14.26337 6.75192 14.00209 7.027568 L 8.085463 12.8997 C 7.815759 13.17535 7.4702 13.167 7.208924 12.91641 L 6.627375 12.3484 Z "/>
</clipPath>
<g clip-path="url(#cp0)">
<path transform="matrix(1,0,0,-1,0,24)" d="M -2 27 L 26 27 L 26 -3 L -2 -3 Z "/>
</g>
</g>
</svg>
