<?xml version="1.0" encoding="UTF-8" standalone="no"?>
<!DOCTYPE svg PUBLIC "-//W3C//DTD SVG 1.1//EN" "http://www.w3.org/Graphics/SVG/1.1/DTD/svg11.dtd">
<svg xmlns="http://www.w3.org/2000/svg" xmlns:xlink="http://www.w3.org/1999/xlink" version="1.1" width="24pt" height="24pt" viewBox="0 0 24 24">
<g enable-background="new">
<clipPath id="cp0">
<path transform="matrix(1,0,0,-1,0,24)" d="M 8.171573 20.665 C 8.81412 20.665 9.432743 20.43295 9.915405 20.01527 L 10.05601 19.88444 L 10.88444 19.05601 C 11.09903 18.84142 11.37917 18.70743 11.67779 18.67352 L 11.82843 18.665 L 18 18.665 C 19.41523 18.665 20.57281 17.56186 20.65976 16.16854 L 20.665 16 L 20.665 7 C 20.665 5.58477 19.56186 4.427194 18.16854 4.340243 L 18 4.335 L 6 4.335 C 4.58477 4.335 3.427194 5.438145 3.340243 6.831461 L 3.335 7 L 3.335 8.5 C 3.335 8.867269 3.632731 9.165 4 9.165 C 4.333881 9.165 4.610292 8.918942 4.65779 8.598269 L 4.665 8.5 L 4.665 7 C 4.665 6.30607 5.19445 5.735801 5.871431 5.671111 L 6 5.665 L 18 5.665 C 18.69393 5.665 19.2642 6.19445 19.32889 6.871431 L 19.335 7 L 19.335 16 C 19.335 16.69393 18.80555 17.2642 18.12857 17.32889 L 18 17.335 L 11.82843 17.335 C 11.18588 17.335 10.56726 17.56705 10.0846 17.98473 L 9.943988 18.11556 L 9.11556 18.94399 C 8.900965 19.15858 8.620834 19.29257 8.322209 19.32648 L 8.171573 19.335 L 6 19.335 C 5.30607 19.335 4.735801 18.80555 4.671111 18.12857 L 4.665 18 L 4.665 14.5 C 4.665 14.13273 4.367269 13.835 4 13.835 C 3.666119 13.835 3.389708 14.08106 3.34221 14.40173 L 3.335 14.5 L 3.335 18 C 3.335 19.41523 4.438145 20.57281 5.831461 20.65976 L 6 20.665 L 8.171573 20.665 Z M 10.8878 15.04034 L 10.97023 14.97023 L 13.97023 11.97023 C 14.20395 11.7365 14.22733 11.37207 14.04034 11.1122 L 13.97023 11.02977 L 10.97023 8.029774 C 10.71053 7.770075 10.28947 7.770075 10.02977 8.029774 C 9.796045 8.263503 9.772672 8.62793 9.959655 8.887798 L 10.02977 8.970226 L 11.893 10.835 L 2 10.835 C 1.632731 10.835 1.335 11.13273 1.335 11.5 C 1.335 11.83388 1.581058 12.11029 1.901731 12.15779 L 2 12.165 L 11.893 12.165 L 10.02977 14.02977 C 9.796045 14.2635 9.772672 14.62793 9.959655 14.8878 L 10.02977 14.97023 C 10.2635 15.20395 10.62793 15.22733 10.8878 15.04034 Z "/>
</clipPath>
<g clip-path="url(#cp0)">
<path transform="matrix(1,0,0,-1,0,24)" d="M -3.665 25.665 L 25.665 25.665 L 25.665 -.665 L -3.665 -.665 Z "/>
</g>
</g>
</svg>
