<?xml version="1.0" encoding="UTF-8" standalone="no"?>
<!DOCTYPE svg PUBLIC "-//W3C//DTD SVG 1.1//EN" "http://www.w3.org/Graphics/SVG/1.1/DTD/svg11.dtd">
<svg xmlns="http://www.w3.org/2000/svg" xmlns:xlink="http://www.w3.org/1999/xlink" version="1.1" width="24pt" height="24pt" viewBox="0 0 24 24">
<g enable-background="new">
<clipPath id="cp0">
<path transform="matrix(1,0,0,-1,0,24)" d="M 11.5 3.335 C 7.897341 3.335 4.962295 6.193393 4.839031 9.766013 L 4.835 10 L 4.835 15.75 C 4.835 16.80763 5.692375 17.665 6.75 17.665 C 6.954012 17.665 7.150572 17.6331 7.334965 17.57401 L 7.335 17.75 C 7.335 18.80763 8.192375 19.665 9.25 19.665 C 9.513941 19.665 9.76541 19.6116 9.994195 19.51502 C 10.28918 20.19187 10.96434 20.665 11.75 20.665 C 12.53578 20.665 13.21103 20.19173 13.50623 19.51468 C 13.73407 19.61149 13.98579 19.665 14.25 19.665 C 15.25726 19.665 16.08289 18.88734 16.15924 17.89966 L 16.165 17.75 L 16.165 12.818 L 16.40521 13.2974 C 16.82242 14.13182 17.80562 14.49615 18.65687 14.15774 L 18.7974 14.09479 C 19.62869 13.67915 20.01096 12.71371 19.71011 11.85097 L 19.65361 11.70825 L 17.52917 6.928258 C 16.55803 4.743193 14.39116 3.335 12 3.335 L 11.5 3.335 Z M 11.75 19.335 C 11.45922 19.335 11.21799 19.12285 11.17266 18.84489 L 11.165 18.75 L 11.165 12.5 C 11.165 12.13273 10.86727 11.835 10.5 11.835 C 10.16612 11.835 9.889708 12.08106 9.84221 12.40173 L 9.835 12.5 L 9.835 17.75 C 9.835 18.07309 9.573087 18.335 9.25 18.335 C 8.959222 18.335 8.717994 18.12285 8.672657 17.84489 L 8.665 17.75 L 8.665 12 C 8.665 11.63273 8.367269 11.335 8 11.335 C 7.666119 11.335 7.389708 11.58106 7.34221 11.90173 L 7.335 12 L 7.335 15.75 C 7.335 16.07309 7.073087 16.335 6.75 16.335 C 6.459222 16.335 6.217994 16.12285 6.172657 15.84489 L 6.165 15.75 L 6.165 10 C 6.165 7.127222 8.435626 4.784777 11.28009 4.66945 L 11.5 4.665 L 12 4.665 C 13.79093 4.665 15.4206 5.677523 16.21845 7.266792 L 16.3138 7.468423 L 18.43824 12.24841 C 18.54789 12.49513 18.44409 12.78446 18.2026 12.90521 C 18.00368 13.00467 17.76656 12.94405 17.63774 12.77218 L 17.59479 12.7026 L 16.09479 9.702603 C 15.79666 9.106344 14.92802 9.278072 14.8419 9.898376 L 14.835 10 L 14.835 17.75 C 14.835 18.07309 14.57309 18.335 14.25 18.335 C 13.95922 18.335 13.71799 18.12285 13.67266 17.84489 L 13.665 17.75 L 13.665 12.5 C 13.665 12.13273 13.36727 11.835 13 11.835 C 12.66612 11.835 12.38971 12.08106 12.34221 12.40173 L 12.335 12.5 L 12.335 18.75 C 12.335 19.07309 12.07309 19.335 11.75 19.335 Z "/>
</clipPath>
<g clip-path="url(#cp0)">
<path transform="matrix(1,0,0,-1,0,24)" d="M -.165 25.665 L 24.81214 25.665 L 24.81214 -1.665 L -.165 -1.665 Z "/>
</g>
</g>
</svg>
