<?xml version="1.0" encoding="UTF-8" standalone="no"?>
<!DOCTYPE svg PUBLIC "-//W3C//DTD SVG 1.1//EN" "http://www.w3.org/Graphics/SVG/1.1/DTD/svg11.dtd">
<svg xmlns="http://www.w3.org/2000/svg" xmlns:xlink="http://www.w3.org/1999/xlink" version="1.1" width="24pt" height="24pt" viewBox="0 0 24 24">
<g enable-background="new">
<clipPath id="cp0">
<path transform="matrix(1,0,0,-1,0,24)" d="M 12 21.665 C 12.33388 21.665 12.61029 21.41894 12.65779 21.09827 L 12.665 21 L 12.665 19.665 L 13.5 19.665 C 16.55593 19.665 19.04671 17.24529 19.16091 14.2173 L 19.165 14 L 19.16555 12.65994 C 20.50449 12.57788 21.57616 11.50718 21.65975 10.16866 L 21.665 10 L 21.665 7 L 21.65779 6.901731 C 21.61029 6.581058 21.33388 6.335 21 6.335 C 20.66612 6.335 20.38971 6.581058 20.34221 6.901731 L 20.335 7 L 20.335 10 L 20.32889 10.12857 C 20.26942 10.75092 19.78268 11.24858 19.16539 11.32486 L 19.165 7 C 19.165 5.041171 17.62828 3.441262 15.69464 3.34008 L 15.5 3.335 L 8.5 3.335 C 6.541171 3.335 4.941262 4.871721 4.84008 6.805356 L 4.835 7 L 4.835623 11.32498 C 4.217851 11.24913 3.730613 10.75126 3.671111 10.12857 L 3.665 10 L 3.665 7 C 3.665 6.632731 3.367269 6.335 3 6.335 C 2.666119 6.335 2.389708 6.581058 2.34221 6.901731 L 2.335 7 L 2.335 10 C 2.335 11.41657 3.440234 12.575 4.835419 12.66 L 4.835 14 C 4.835 17.05593 7.254711 19.54671 10.2827 19.66091 L 10.5 19.665 L 11.335 19.665 L 11.335 21 C 11.335 21.36727 11.63273 21.665 12 21.665 Z M 16.66854 10.34024 L 16.5 10.335 L 7.5 10.335 C 7.013489 10.335 6.557427 10.46537 6.16484 10.69307 L 6.165 7 C 6.165 5.764148 7.125112 4.752542 8.340132 4.670387 L 8.5 4.665 L 15.5 4.665 C 16.73585 4.665 17.74746 5.625112 17.82961 6.840132 L 17.835 7 L 17.83615 10.69365 C 17.48901 10.4921 17.09219 10.36668 16.66854 10.34024 Z M 13.5 18.335 L 10.5 18.335 C 8.176262 18.335 6.27956 16.50664 6.169999 14.21003 L 6.165 14 L 6.165 13 C 6.165 12.30607 6.69445 11.7358 7.371431 11.67111 L 7.5 11.665 L 16.5 11.665 C 17.19393 11.665 17.7642 12.19445 17.82889 12.87143 L 17.835 13 L 17.835 14 C 17.835 16.32374 16.00664 18.22044 13.71003 18.33 L 13.5 18.335 Z M 9.5 15.5 C 10.05228 15.5 10.5 15.05228 10.5 14.5 C 10.5 13.94772 10.05228 13.5 9.5 13.5 C 8.947715 13.5 8.5 13.94772 8.5 14.5 C 8.5 15.05228 8.947715 15.5 9.5 15.5 Z M 14.5 15.5 C 15.05228 15.5 15.5 15.05228 15.5 14.5 C 15.5 13.94772 15.05228 13.5 14.5 13.5 C 13.94772 13.5 13.5 13.94772 13.5 14.5 C 13.5 15.05228 13.94772 15.5 14.5 15.5 Z "/>
</clipPath>
<g clip-path="url(#cp0)">
<path transform="matrix(1,0,0,-1,0,24)" d="M -2.665 26.665 L 26.665 26.665 L 26.665 -1.665 L -2.665 -1.665 Z "/>
</g>
</g>
</svg>
