<?xml version="1.0" encoding="UTF-8" standalone="no"?>
<!DOCTYPE svg PUBLIC "-//W3C//DTD SVG 1.1//EN" "http://www.w3.org/Graphics/SVG/1.1/DTD/svg11.dtd">
<svg xmlns="http://www.w3.org/2000/svg" xmlns:xlink="http://www.w3.org/1999/xlink" version="1.1" width="24pt" height="24pt" viewBox="0 0 24 24">
<g enable-background="new">
<clipPath id="cp0">
<path transform="matrix(1,0,0,-1,0,24)" d="M 11.665 6 C 11.665 4.528161 10.47184 3.335 9 3.335 C 7.58477 3.335 6.427194 4.438145 6.340243 5.831461 L 6.335 6 L 6.33386 8.500455 C 4.601176 9.004794 3.335 10.60453 3.335 12.5 C 3.335 14.73056 5.088432 16.55159 7.292124 16.6599 L 7.5 16.665 L 11.70406 16.665 C 11.72554 16.665 11.74656 16.67012 11.76543 16.67975 L 11.79192 16.6975 L 16.58627 20.80695 C 16.92429 21.09668 17.3548 21.25594 17.8 21.25594 C 18.78096 21.25594 19.58504 20.49858 19.65939 19.53668 L 19.665 19.39094 L 19.665 5.609065 C 19.665 5.163868 19.50574 4.733357 19.21601 4.395339 C 18.58097 3.654456 17.49085 3.534178 16.71291 4.093524 L 16.58627 4.193051 L 11.79192 8.3025 C 11.77561 8.316481 11.75632 8.326265 11.73572 8.331235 L 11.664 8.335935 L 11.665 6 Z M 7.665 6 C 7.665 5.2627 8.2627 4.665 9 4.665 C 9.69393 4.665 10.2642 5.19445 10.32889 5.871431 L 10.335 6 L 10.334 8.335935 L 7.664 8.335935 L 7.665 6 Z M 17.8 19.92594 C 17.70422 19.92594 17.6108 19.90024 17.52918 19.85233 L 17.45183 19.79714 L 12.65747 15.68769 C 12.42988 15.49261 12.14891 15.37283 11.85305 15.34259 L 11.70406 15.335 L 7.5 15.335 C 5.934273 15.335 4.665 14.06573 4.665 12.5 C 4.665 10.99226 5.841994 9.759427 7.3273 9.670174 L 7.5 9.665 L 11.70406 9.665 C 12.00381 9.665 12.29509 9.57309 12.53941 9.403508 L 12.65747 9.312311 L 17.45183 5.202862 C 17.67617 5.010572 18.01391 5.036552 18.2062 5.260891 C 18.26854 5.333615 18.30982 5.421264 18.32656 5.514421 L 18.335 5.609065 L 18.335 19.39094 C 18.335 19.68641 18.09547 19.92594 17.8 19.92594 Z "/>
</clipPath>
<g clip-path="url(#cp0)">
<path transform="matrix(1,0,0,-1,0,24)" d="M -1.665 26.25594 L 24.665 26.25594 L 24.665 -1.665 L -1.665 -1.665 Z "/>
</g>
</g>
</svg>
