<?xml version="1.0" encoding="UTF-8" standalone="no"?>
<!DOCTYPE svg PUBLIC "-//W3C//DTD SVG 1.1//EN" "http://www.w3.org/Graphics/SVG/1.1/DTD/svg11.dtd">
<svg xmlns="http://www.w3.org/2000/svg" xmlns:xlink="http://www.w3.org/1999/xlink" version="1.1" width="24pt" height="24pt" viewBox="0 0 24 24">
<g enable-background="new">
<clipPath id="cp0">
<path transform="matrix(1,0,0,-1,0,24)" d="M 20.665 7 C 20.665 5.58477 19.56186 4.427194 18.16854 4.340243 L 18 4.335 L 6 4.335 C 4.58477 4.335 3.427194 5.438145 3.340243 6.831461 L 3.335 7 L 3.335 17 C 3.335 18.41523 4.438145 19.57281 5.831461 19.65976 L 6 19.665 L 8.171573 19.665 C 8.81412 19.665 9.432743 19.43295 9.915405 19.01527 L 10.05601 18.88444 L 10.88444 18.05601 C 11.09903 17.84142 11.37917 17.70743 11.67779 17.67352 L 11.82843 17.665 L 18 17.665 C 19.41523 17.665 20.57281 16.56186 20.65976 15.16854 L 20.665 15 L 20.665 7 Z M 19.335 13.335 L 4.665 13.335 L 4.665 7 C 4.665 6.352332 5.12621 5.812386 5.738115 5.690677 L 5.871431 5.671111 L 6 5.665 L 18 5.665 C 18.69393 5.665 19.2642 6.19445 19.32889 6.871431 L 19.335 7 L 19.335 13.335 Z M 8.171573 18.335 L 6 18.335 C 5.30607 18.335 4.735801 17.80555 4.671111 17.12857 L 4.665 17 L 4.664 14.666 L 19.334 14.666 L 19.335 15 C 19.335 15.69393 18.80555 16.2642 18.12857 16.32889 L 18 16.335 L 11.82843 16.335 C 11.18588 16.335 10.56726 16.56705 10.0846 16.98473 L 9.943988 17.11556 L 9.11556 17.94399 C 8.900965 18.15858 8.620834 18.29257 8.322209 18.32648 L 8.171573 18.335 Z "/>
</clipPath>
<g clip-path="url(#cp0)">
<path transform="matrix(1,0,0,-1,0,24)" d="M -1.665 24.665 L 25.665 24.665 L 25.665 -.665 L -1.665 -.665 Z "/>
</g>
</g>
</svg>
