<?xml version="1.0" encoding="UTF-8" standalone="no"?>
<!DOCTYPE svg PUBLIC "-//W3C//DTD SVG 1.1//EN" "http://www.w3.org/Graphics/SVG/1.1/DTD/svg11.dtd">
<svg xmlns="http://www.w3.org/2000/svg" xmlns:xlink="http://www.w3.org/1999/xlink" version="1.1" width="24pt" height="24pt" viewBox="0 0 24 24">
<g enable-background="new">
<clipPath id="cp0">
<path transform="matrix(1,0,0,-1,0,24)" d="M 15 11.665 C 18.82709 11.665 21.30448 10.15384 22.26183 7.159337 C 22.62599 6.020417 21.99788 4.801944 20.85895 4.437824 C 20.6991 4.386721 20.53404 4.354434 20.3671 4.341484 L 20.19966 4.335 L 9.800394 4.335 C 8.60467 4.335 7.635334 5.304273 7.635334 6.5 C 7.635334 6.723753 7.67002 6.946155 7.738156 7.159282 C 8.695504 10.15383 11.1729 11.665 15 11.665 Z M 7.2 11.665 C 7.495431 11.665 7.780911 11.6536 8.056464 11.63071 C 8.422472 11.6003 8.694533 11.27894 8.664128 10.91294 C 8.633723 10.54693 8.312366 10.27487 7.946358 10.30527 C 7.708124 10.32506 7.45933 10.335 7.2 10.335 C 4.687116 10.335 3.199954 9.424189 2.576265 7.570149 C 2.551395 7.496217 2.538635 7.418095 2.538635 7.339286 C 2.538635 6.995349 2.773439 6.719491 3.069011 6.672177 L 3.159332 6.665 L 6 6.665 C 6.367269 6.665 6.665 6.367269 6.665 6 C 6.665 5.666119 6.418942 5.389708 6.098269 5.34221 L 6 5.335 L 3.159332 5.335 C 2.075782 5.335 1.208635 6.238295 1.208635 7.339286 C 1.208635 7.562116 1.244788 7.783466 1.315679 7.994203 C 2.135268 10.43059 4.150791 11.665 7.2 11.665 Z M 15 10.335 C 11.71267 10.335 9.771115 9.150688 9.004992 6.754279 C 8.978712 6.672078 8.965334 6.5863 8.965334 6.5 C 8.965334 6.0743 9.283881 5.723028 9.695621 5.671506 L 9.800368 5.665 L 20.19966 5.665 C 20.28596 5.665 20.37174 5.678378 20.45394 5.704658 C 20.89321 5.845094 21.13546 6.31503 20.995 6.754304 C 20.22887 9.150696 18.28732 10.335 15 10.335 Z M 7.2 19.065 C 8.892753 19.065 10.265 17.69275 10.265 16 C 10.265 14.30725 8.892753 12.935 7.2 12.935 C 5.507247 12.935 4.135 14.30725 4.135 16 C 4.135 17.69275 5.507247 19.065 7.2 19.065 Z M 15 20.665 C 17.02412 20.665 18.665 19.02412 18.665 17 C 18.665 14.97588 17.02412 13.335 15 13.335 C 12.97588 13.335 11.335 14.97588 11.335 17 C 11.335 19.02412 12.97588 20.665 15 20.665 Z M 7.2 17.735 C 6.241786 17.735 5.465 16.95821 5.465 16 C 5.465 15.04179 6.241786 14.265 7.2 14.265 C 8.158214 14.265 8.935 15.04179 8.935 16 C 8.935 16.95821 8.158214 17.735 7.2 17.735 Z M 15 19.335 C 13.71042 19.335 12.665 18.28958 12.665 17 C 12.665 15.71042 13.71042 14.665 15 14.665 C 16.28958 14.665 17.335 15.71042 17.335 17 C 17.335 18.28958 16.28958 19.335 15 19.335 Z "/>
</clipPath>
<g clip-path="url(#cp0)">
<path transform="matrix(1,0,0,-1,0,24)" d="M -3.791365 25.665 L 27.36526 25.665 L 27.36526 -.665 L -3.791365 -.665 Z "/>
</g>
</g>
</svg>
