<?xml version="1.0" encoding="UTF-8" standalone="no"?>
<!DOCTYPE svg PUBLIC "-//W3C//DTD SVG 1.1//EN" "http://www.w3.org/Graphics/SVG/1.1/DTD/svg11.dtd">
<svg xmlns="http://www.w3.org/2000/svg" xmlns:xlink="http://www.w3.org/1999/xlink" version="1.1" width="24pt" height="24pt" viewBox="0 0 24 24">
<g enable-background="new">
<clipPath id="cp0">
<path transform="matrix(1,0,0,-1,0,24)" d="M 19.89455 12.665 L 18.02977 14.52977 C 17.77008 14.78947 17.77008 15.21053 18.02977 15.47023 C 18.28947 15.72992 18.71053 15.72992 18.97023 15.47023 L 21.97023 12.47023 C 22.22992 12.21053 22.22992 11.78947 21.97023 11.52977 L 18.97023 8.529774 C 18.71053 8.270075 18.28947 8.270075 18.02977 8.529774 C 17.77008 8.789473 17.77008 9.210527 18.02977 9.470226 L 19.89455 11.335 L 10.5 11.335 C 10.13273 11.335 9.835 11.63273 9.835 12 C 9.835 12.36727 10.13273 12.665 10.5 12.665 L 19.89455 12.665 Z M 15.335 9 C 15.335 9.367269 15.63273 9.665 16 9.665 C 16.36727 9.665 16.665 9.367269 16.665 9 L 16.665 7 C 16.665 5.528161 15.47184 4.335 14 4.335 L 6 4.335 C 4.528161 4.335 3.335 5.528161 3.335 7 L 3.335 17 C 3.335 18.47184 4.528161 19.665 6 19.665 L 14 19.665 C 15.47184 19.665 16.665 18.47184 16.665 17 L 16.665 15 C 16.665 14.63273 16.36727 14.335 16 14.335 C 15.63273 14.335 15.335 14.63273 15.335 15 L 15.335 17 C 15.335 17.7373 14.7373 18.335 14 18.335 L 6 18.335 C 5.2627 18.335 4.665 17.7373 4.665 17 L 4.665 7 C 4.665 6.2627 5.2627 5.665 6 5.665 L 14 5.665 C 14.7373 5.665 15.335 6.2627 15.335 7 L 15.335 9 Z "/>
</clipPath>
<g clip-path="url(#cp0)">
<path transform="matrix(1,0,0,-1,0,24)" d="M -1.665 24.665 L 27.165 24.665 L 27.165 -.665 L -1.665 -.665 Z "/>
</g>
</g>
</svg>
