<?xml version="1.0" encoding="UTF-8" standalone="no"?>
<!DOCTYPE svg PUBLIC "-//W3C//DTD SVG 1.1//EN" "http://www.w3.org/Graphics/SVG/1.1/DTD/svg11.dtd">
<svg xmlns="http://www.w3.org/2000/svg" xmlns:xlink="http://www.w3.org/1999/xlink" version="1.1" width="24pt" height="24pt" viewBox="0 0 24 24">
<g enable-background="new">
<clipPath id="cp0">
<path transform="matrix(1,0,0,-1,0,24)" d="M 12.665 11 C 12.665 10.63273 12.36727 10.335 12 10.335 C 11.63273 10.335 11.335 10.63273 11.335 11 L 11.335 15.5 C 11.335 15.86727 11.63273 16.165 12 16.165 C 12.36727 16.165 12.665 15.86727 12.665 15.5 L 12.665 11 Z M 12 7.5 C 11.44772 7.5 11 7.947715 11 8.5 C 11 9.052285 11.44772 9.5 12 9.5 C 12.55228 9.5 13 9.052285 13 8.5 C 13 7.947715 12.55228 7.5 12 7.5 Z M 12 3.335 C 7.214453 3.335 3.335 7.214453 3.335 12 C 3.335 16.78555 7.214453 20.665 12 20.665 C 16.78555 20.665 20.665 16.78555 20.665 12 C 20.665 7.214453 16.78555 3.335 12 3.335 Z M 12 4.665 C 16.05101 4.665 19.335 7.948991 19.335 12 C 19.335 16.05101 16.05101 19.335 12 19.335 C 7.948991 19.335 4.665 16.05101 4.665 12 C 4.665 7.948991 7.948991 4.665 12 4.665 Z "/>
</clipPath>
<g clip-path="url(#cp0)">
<path transform="matrix(1,0,0,-1,0,24)" d="M -1.665 25.665 L 25.665 25.665 L 25.665 -1.665 L -1.665 -1.665 Z "/>
</g>
</g>
</svg>
