<?xml version="1.0" encoding="UTF-8" standalone="no"?>
<!DOCTYPE svg PUBLIC "-//W3C//DTD SVG 1.1//EN" "http://www.w3.org/Graphics/SVG/1.1/DTD/svg11.dtd">
<svg xmlns="http://www.w3.org/2000/svg" xmlns:xlink="http://www.w3.org/1999/xlink" version="1.1" width="24pt" height="24pt" viewBox="0 0 24 24">
<g enable-background="new">
<clipPath id="cp0">
<path transform="matrix(1,0,0,-1,0,24)" d="M 12 13.335 C 9.975876 13.335 8.335 14.97588 8.335 17 C 8.335 19.02412 9.975876 20.665 12 20.665 C 14.02412 20.665 15.665 19.02412 15.665 17 C 15.665 14.97588 14.02412 13.335 12 13.335 Z M 12 14.665 C 13.28958 14.665 14.335 15.71042 14.335 17 C 14.335 18.28958 13.28958 19.335 12 19.335 C 10.71042 19.335 9.665 18.28958 9.665 17 C 9.665 15.71042 10.71042 14.665 12 14.665 Z M 12 11.665 C 15.82709 11.665 18.30448 10.15384 19.26183 7.159337 C 19.62599 6.020417 18.99788 4.801944 17.85895 4.437824 C 17.64582 4.369687 17.42341 4.335 17.19966 4.335 L 6.800394 4.335 C 5.60467 4.335 4.635334 5.304273 4.635334 6.5 C 4.635334 6.723753 4.67002 6.946155 4.738156 7.159282 C 5.695504 10.15383 8.172901 11.665 12 11.665 Z M 12 10.335 C 8.712669 10.335 6.771115 9.150688 6.004992 6.754279 C 5.978712 6.672078 5.965334 6.5863 5.965334 6.5 C 5.965334 6.038826 6.339184 5.665 6.800368 5.665 L 17.19966 5.665 C 17.28596 5.665 17.37174 5.678378 17.45394 5.704658 C 17.89321 5.845094 18.13546 6.31503 17.995 6.754304 C 17.22887 9.150696 15.28732 10.335 12 10.335 Z "/>
</clipPath>
<g clip-path="url(#cp0)">
<path transform="matrix(1,0,0,-1,0,24)" d="M -.3646655 25.665 L 24.36526 25.665 L 24.36526 -.665 L -.3646655 -.665 Z "/>
</g>
</g>
</svg>
