<?xml version="1.0" encoding="UTF-8" standalone="no"?>
<!DOCTYPE svg PUBLIC "-//W3C//DTD SVG 1.1//EN" "http://www.w3.org/Graphics/SVG/1.1/DTD/svg11.dtd">
<svg xmlns="http://www.w3.org/2000/svg" xmlns:xlink="http://www.w3.org/1999/xlink" version="1.1" width="24pt" height="24pt" viewBox="0 0 24 24">
<g enable-background="new">
<clipPath id="cp0">
<path transform="matrix(1,0,0,-1,0,24)" d="M 5 8 C 5.552285 8 6 7.552285 6 7 C 6 6.447715 5.552285 6 5 6 C 4.447715 6 4 6.447715 4 7 C 4 7.552285 4.447715 8 5 8 Z M 19.5 7.665 C 19.86727 7.665 20.165 7.367269 20.165 7 C 20.165 6.666119 19.91894 6.389708 19.59827 6.34221 L 19.5 6.335 L 8.5 6.335 C 8.132731 6.335 7.835 6.632731 7.835 7 C 7.835 7.333881 8.081058 7.610292 8.401731 7.65779 L 8.5 7.665 L 19.5 7.665 Z M 5 13 C 5.552285 13 6 12.55228 6 12 C 6 11.44772 5.552285 11 5 11 C 4.447715 11 4 11.44772 4 12 C 4 12.55228 4.447715 13 5 13 Z M 19.5 12.665 C 19.86727 12.665 20.165 12.36727 20.165 12 C 20.165 11.66612 19.91894 11.38971 19.59827 11.34221 L 19.5 11.335 L 8.5 11.335 C 8.132731 11.335 7.835 11.63273 7.835 12 C 7.835 12.33388 8.081058 12.61029 8.401731 12.65779 L 8.5 12.665 L 19.5 12.665 Z M 5 18 C 5.552285 18 6 17.55228 6 17 C 6 16.44772 5.552285 16 5 16 C 4.447715 16 4 16.44772 4 17 C 4 17.55228 4.447715 18 5 18 Z M 19.5 17.665 C 19.86727 17.665 20.165 17.36727 20.165 17 C 20.165 16.66612 19.91894 16.38971 19.59827 16.34221 L 19.5 16.335 L 8.5 16.335 C 8.132731 16.335 7.835 16.63273 7.835 17 C 7.835 17.33388 8.081058 17.61029 8.401731 17.65779 L 8.5 17.665 L 19.5 17.665 Z "/>
</clipPath>
<g clip-path="url(#cp0)">
<path transform="matrix(1,0,0,-1,0,24)" d="M -1 23 L 25.165 23 L 25.165 1 L -1 1 Z "/>
</g>
</g>
</svg>
