<?xml version="1.0" encoding="UTF-8" standalone="no"?>
<!DOCTYPE svg PUBLIC "-//W3C//DTD SVG 1.1//EN" "http://www.w3.org/Graphics/SVG/1.1/DTD/svg11.dtd">
<svg xmlns="http://www.w3.org/2000/svg" xmlns:xlink="http://www.w3.org/1999/xlink" version="1.1" width="24pt" height="24pt" viewBox="0 0 24 24">
<g enable-background="new">
<clipPath id="cp0">
<path transform="matrix(1,0,0,-1,0,24)" d="M 19.665 15.47311 L 19.665 7 C 19.665 5.528161 18.47184 4.335 17 4.335 L 7 4.335 C 5.528161 4.335 4.335 5.528161 4.335 7 L 4.335 15.47311 C 3.74642 15.72981 3.335 16.31686 3.335 17 L 3.335 19 C 3.335 19.91955 4.080446 20.665 5 20.665 L 19 20.665 C 19.91955 20.665 20.665 19.91955 20.665 19 L 20.665 17 C 20.665 16.31686 20.25358 15.72981 19.665 15.47311 Z M 18.335 15.335 L 5.665 15.335 L 5.665 7 C 5.665 6.2627 6.2627 5.665 7 5.665 L 17 5.665 C 17.7373 5.665 18.335 6.2627 18.335 7 L 18.335 15.335 Z M 5 19.335 C 4.814985 19.335 4.665 19.18502 4.665 19 L 4.665 17 C 4.665 16.81498 4.814985 16.665 5 16.665 L 19 16.665 C 19.18502 16.665 19.335 16.81498 19.335 17 L 19.335 19 C 19.335 19.18502 19.18502 19.335 19 19.335 L 5 19.335 Z M 9 12.335 C 8.632731 12.335 8.335 12.63273 8.335 13 C 8.335 13.36727 8.632731 13.665 9 13.665 L 15 13.665 C 15.36727 13.665 15.665 13.36727 15.665 13 C 15.665 12.63273 15.36727 12.335 15 12.335 L 9 12.335 Z "/>
</clipPath>
<g clip-path="url(#cp0)">
<path transform="matrix(1,0,0,-1,0,24)" d="M -1.665 25.665 L 25.665 25.665 L 25.665 -.665 L -1.665 -.665 Z "/>
</g>
</g>
</svg>
