<?xml version="1.0" encoding="UTF-8" standalone="no"?>
<!DOCTYPE svg PUBLIC "-//W3C//DTD SVG 1.1//EN" "http://www.w3.org/Graphics/SVG/1.1/DTD/svg11.dtd">
<svg xmlns="http://www.w3.org/2000/svg" xmlns:xlink="http://www.w3.org/1999/xlink" version="1.1" width="24pt" height="24pt" viewBox="0 0 24 24">
<g enable-background="new">
<clipPath id="cp0">
<path transform="matrix(1,0,0,-1,0,24)" d="M 3.529774 19.47023 C 3.789473 19.72992 4.210527 19.72992 4.470226 19.47023 L 20.47023 3.470226 C 20.72992 3.210527 20.72992 2.789473 20.47023 2.529774 C 20.21053 2.270075 19.78947 2.270075 19.52977 2.529774 L 3.529774 18.52977 C 3.270075 18.78947 3.270075 19.21053 3.529774 19.47023 Z M 5.790562 15.08762 L 7.021562 13.85662 L 4.130105 13.61159 L 7.991268 10.27593 C 8.228926 10.07062 8.347851 9.763144 8.314821 9.455727 L 8.295246 9.340648 L 7.1352 4.381783 L 11.5101 7.014982 C 11.77383 7.17372 12.09543 7.193562 12.37362 7.074509 L 12.4899 7.014982 L 15.93756 4.940619 L 17.93934 2.93934 L 18.03542 2.851795 C 17.76727 2.636103 17.39546 2.578825 17.06962 2.717143 L 16.94987 2.778253 L 12 5.757521 L 7.050129 2.778253 C 6.838145 2.650663 6.584748 2.610808 6.343833 2.667167 C 5.869447 2.778142 5.562002 3.226703 5.616189 3.699254 L 5.635202 3.808588 L 6.947847 9.419766 L 2.577569 13.19525 C 2.389775 13.35749 2.27292 13.58677 2.251998 13.83405 C 2.210926 14.31951 2.542507 14.75054 3.008671 14.84505 L 3.118528 14.86076 L 5.790562 15.08762 Z M 12.82509 20.74243 L 12.87431 20.64296 L 15.1248 15.3478 L 20.88147 14.86076 C 21.12876 14.83984 21.35804 14.72298 21.52027 14.53519 C 21.83688 14.1687 21.82391 13.62934 21.50777 13.27876 L 21.42243 13.19525 L 17.05215 9.419766 L 17.46356 7.658619 L 15.68794 9.432672 C 15.65136 9.709287 15.73853 9.988019 15.92524 10.19435 L 16.00873 10.27593 L 19.8699 13.61159 L 14.78454 14.04184 C 14.47268 14.06822 14.19652 14.24601 14.04228 14.51278 L 13.99032 14.61687 L 12 19.29987 L 10.15756 14.96462 L 9.142562 15.97962 L 11.12569 20.64296 C 11.20585 20.83157 11.34435 20.98815 11.51927 21.09076 L 11.62841 21.14569 C 12.07679 21.33625 12.58978 21.15579 12.82509 20.74243 Z "/>
</clipPath>
<g clip-path="url(#cp0)">
<path transform="matrix(1,0,0,-1,0,24)" d="M -2.751438 26.22162 L 26.7514 26.22162 L 26.7514 -2.665 L -2.751438 -2.665 Z "/>
</g>
</g>
</svg>
