<?xml version="1.0" encoding="UTF-8" standalone="no"?>
<!DOCTYPE svg PUBLIC "-//W3C//DTD SVG 1.1//EN" "http://www.w3.org/Graphics/SVG/1.1/DTD/svg11.dtd">
<svg xmlns="http://www.w3.org/2000/svg" xmlns:xlink="http://www.w3.org/1999/xlink" version="1.1" width="24pt" height="24pt" viewBox="0 0 24 24">
<g enable-background="new">
<clipPath id="cp0">
<path transform="matrix(1,0,0,-1,0,24)" d="M 14.12435 10.23126 C 14.66952 10.76371 15.14647 11.03226 15.72816 11.03226 C 16.18896 11.03226 16.64135 10.85272 17.16645 10.49559 L 19.80576 8.61834 C 20.3773 8.214155 20.665 7.612955 20.665 6.938072 C 20.665 6.192185 20.32942 5.44609 19.7493 4.801359 C 18.85579 3.821072 17.71296 3.335 16.38403 3.335 C 13.84975 3.335 10.72389 5.127028 7.905559 7.94081 C 5.103718 10.73813 3.335 13.8296 3.335 16.36403 C 3.335 17.6757 3.803812 18.82666 4.742463 19.72508 C 5.355877 20.32694 6.114121 20.665 6.873786 20.665 C 7.570048 20.665 8.183662 20.37016 8.606771 19.79073 L 10.46413 17.17737 C 10.82326 16.66671 11.00804 16.20976 11.00804 15.74367 C 11.00804 15.16202 10.73886 14.68547 10.20993 14.14571 L 9.690111 13.60467 C 9.919642 13.17243 10.62256 12.33753 11.46637 11.49506 C 12.33093 10.64062 13.18138 9.926211 13.56931 9.714877 C 13.57688 9.711442 13.58384 9.708325 13.59021 9.7055 L 14.12435 10.23126 Z M 8.84525 8.882022 C 11.43816 6.293306 14.27843 4.665 16.38403 4.665 C 17.34524 4.665 18.12945 4.998541 18.76347 5.694122 C 19.13578 6.107905 19.335 6.55084 19.335 6.938072 C 19.335 7.195726 19.24346 7.38702 19.03635 7.533485 L 16.40717 9.403719 C 16.09433 9.616374 15.87793 9.702259 15.72816 9.702259 C 15.56855 9.702259 15.37413 9.59279 15.05549 9.281593 L 14.44611 8.68179 C 14.22967 8.465699 13.94157 8.34954 13.64833 8.34954 C 13.4136 8.34954 13.24457 8.401701 12.97847 8.524206 C 12.40681 8.832969 11.48094 9.610734 10.52908 10.55147 C 9.581264 11.49775 8.803166 12.42399 8.50811 12.99511 C 8.398334 13.19604 8.331764 13.42036 8.331764 13.65859 C 8.331764 13.95131 8.437721 14.2297 8.6466 14.43803 L 9.255324 15.07177 C 9.568603 15.39149 9.678042 15.58524 9.678042 15.74367 C 9.678042 15.89251 9.591835 16.10569 9.378127 16.40959 L 7.527702 19.01328 C 7.36673 19.23368 7.155878 19.335 6.873786 19.335 C 6.478582 19.335 6.048514 19.14326 5.668035 18.77001 C 4.991647 18.12257 4.665 17.32063 4.665 16.36403 C 4.665 14.25786 6.269246 11.45386 8.84525 8.882022 Z "/>
</clipPath>
<g clip-path="url(#cp0)">
<path transform="matrix(1,0,0,-1,0,24)" d="M -1.665 25.665 L 25.665 25.665 L 25.665 -1.665 L -1.665 -1.665 Z "/>
</g>
</g>
</svg>
