<?xml version="1.0" encoding="UTF-8" standalone="no"?>
<!DOCTYPE svg PUBLIC "-//W3C//DTD SVG 1.1//EN" "http://www.w3.org/Graphics/SVG/1.1/DTD/svg11.dtd">
<svg xmlns="http://www.w3.org/2000/svg" xmlns:xlink="http://www.w3.org/1999/xlink" version="1.1" width="24pt" height="24pt" viewBox="0 0 24 24">
<g enable-background="new">
<clipPath id="cp0">
<path transform="matrix(1,0,0,-1,0,24)" d="M 11.335 13.05862 L 11.335 17 C 11.335 17.36727 11.63273 17.665 12 17.665 C 12.36727 17.665 12.665 17.36727 12.665 17 L 12.665 13.05862 C 13.01646 12.83738 13.25 12.44597 13.25 12 C 13.25 11.30964 12.69036 10.75 12 10.75 C 11.30964 10.75 10.75 11.30964 10.75 12 C 10.75 12.44597 10.98354 12.83738 11.335 13.05862 Z M 11.335 20.13831 L 11.335 21.5 C 11.335 21.86727 11.63273 22.165 12 22.165 C 12.36727 22.165 12.665 21.86727 12.665 21.5 L 12.665 20.13831 C 14.42 19.99685 16.0183 19.30042 17.28424 18.22469 L 18.02977 18.97023 C 18.28947 19.22992 18.71053 19.22992 18.97023 18.97023 C 19.22992 18.71053 19.22992 18.28947 18.97023 18.02977 L 18.22469 17.28424 C 19.43487 15.86009 20.165 14.01531 20.165 12 C 20.165 7.490595 16.5094 3.835 12 3.835 C 7.490595 3.835 3.835 7.490595 3.835 12 C 3.835 16.28552 7.136616 19.79991 11.335 20.13831 Z M 12 5.165 C 15.77487 5.165 18.835 8.225134 18.835 12 C 18.835 15.77487 15.77487 18.835 12 18.835 C 8.225134 18.835 5.165 15.77487 5.165 12 C 5.165 8.225134 8.225134 5.165 12 5.165 Z "/>
</clipPath>
<g clip-path="url(#cp0)">
<path transform="matrix(1,0,0,-1,0,24)" d="M -1.165 27.165 L 25.165 27.165 L 25.165 -1.165 L -1.165 -1.165 Z "/>
</g>
</g>
</svg>
