<?xml version="1.0" encoding="UTF-8" standalone="no"?>
<!DOCTYPE svg PUBLIC "-//W3C//DTD SVG 1.1//EN" "http://www.w3.org/Graphics/SVG/1.1/DTD/svg11.dtd">
<svg xmlns="http://www.w3.org/2000/svg" xmlns:xlink="http://www.w3.org/1999/xlink" version="1.1" width="24pt" height="24pt" viewBox="0 0 24 24">
<g enable-background="new">
<clipPath id="cp0">
<path transform="matrix(1,0,0,-1,0,24)" d="M 11.53033 10.46967 C 11.36081 10.30015 10.82076 10.02657 9.910162 9.648922 C 9.861164 9.628601 9.806095 9.6286 9.757096 9.648921 C 9.655178 9.691189 9.606822 9.808075 9.64909 9.909993 L 9.648886 9.910078 C 10.02655 10.82072 10.30015 11.36081 10.46967 11.53033 L 18.32825 19.38891 C 18.40635 19.46701 18.53299 19.46701 18.61109 19.38891 L 19.38891 18.61109 C 19.46701 18.53299 19.46701 18.40635 19.38891 18.32825 L 11.53033 10.46967 Z M 20.14191 19.08125 C 20.06391 19.00325 19.93749 19.00313 19.85934 19.08098 L 19.08004 19.85732 L 19.07977 19.85759 C 19.00166 19.93569 19.00166 20.06232 19.07977 20.14043 L 19.46967 20.53033 C 19.76256 20.82322 20.23744 20.82322 20.53033 20.53033 C 20.82322 20.23744 20.82322 19.76256 20.53033 19.46967 L 20.14191 19.08125 Z M 18.335 15 C 18.335 15.36727 18.63273 15.665 19 15.665 C 19.36727 15.665 19.665 15.36727 19.665 15 L 19.665 7 C 19.665 5.528161 18.47184 4.335 17 4.335 L 7 4.335 C 5.528161 4.335 4.335 5.528161 4.335 7 L 4.335 17 C 4.335 18.47184 5.528161 19.665 7 19.665 L 15 19.665 C 15.36727 19.665 15.665 19.36727 15.665 19 C 15.665 18.63273 15.36727 18.335 15 18.335 L 7 18.335 C 6.2627 18.335 5.665 17.7373 5.665 17 L 5.665 7 C 5.665 6.2627 6.2627 5.665 7 5.665 L 17 5.665 C 17.7373 5.665 18.335 6.2627 18.335 7 L 18.335 15 Z "/>
</clipPath>
<g clip-path="url(#cp0)">
<path transform="matrix(1,0,0,-1,0,24)" d="M -.665 25.75 L 25.75 25.75 L 25.75 -.665 L -.665 -.665 Z "/>
</g>
</g>
</svg>
