<?xml version="1.0" encoding="UTF-8" standalone="no"?>
<!DOCTYPE svg PUBLIC "-//W3C//DTD SVG 1.1//EN" "http://www.w3.org/Graphics/SVG/1.1/DTD/svg11.dtd">
<svg xmlns="http://www.w3.org/2000/svg" xmlns:xlink="http://www.w3.org/1999/xlink" version="1.1" width="24pt" height="24pt" viewBox="0 0 24 24">
<g enable-background="new">
<clipPath id="cp0">
<path transform="matrix(1,0,0,-1,0,24)" d="M 12.335 18.34588 C 12.335 18.9893 12.85659 19.51088 13.5 19.51088 C 13.79598 19.51088 14.08086 19.39823 14.29679 19.19579 L 21.06573 12.84991 C 21.53513 12.40986 21.55891 11.6726 21.11885 11.20321 C 21.09287 11.17608 21.09287 11.17608 21.06573 11.15009 L 14.29679 4.804205 C 13.8274 4.364149 13.09014 4.387932 12.65009 4.857325 C 12.44766 5.073253 12.335 5.358136 12.335 5.654116 L 12.335 8.322402 C 8.938979 8.191037 6.664238 7.032604 5.426861 4.862458 C 5.421191 4.852515 5.415304 4.842774 5.409209 4.833237 C 5.164903 4.440946 4.652053 4.308738 4.247072 4.539651 C 3.980851 4.691445 3.814847 4.972797 3.810705 5.279225 C 3.721797 11.85795 6.615793 15.3999 12.335 15.65068 L 12.335 18.34588 Z M 13.665 17.96503 L 13.665 15 C 13.665 14.63273 13.36727 14.335 13 14.335 C 8.077738 14.335 5.51514 11.89363 5.177204 6.793109 C 6.869555 8.711263 9.496613 9.665 13 9.665 C 13.36727 9.665 13.665 9.367269 13.665 9 L 13.665 6.034974 L 20.02769 12 L 13.665 17.96503 Z M 5.139712 5.790061 C 5.139403 5.760167 5.139162 5.730193 5.138987 5.700137 L 5.057211 5.556717 C 5.018304 5.61261 4.96699 5.660174 4.905851 5.695035 C 4.686779 5.819945 4.409031 5.747327 4.27851 5.533546 C 4.458353 5.831294 4.832305 5.93985 5.139712 5.790061 Z "/>
</clipPath>
<g clip-path="url(#cp0)">
<path transform="matrix(1,0,0,-1,0,24)" d="M -1.191283 24.51088 L 26.43395 24.51088 L 26.43395 -.5740379 L -1.191283 -.5740379 Z "/>
</g>
</g>
</svg>
