<?xml version="1.0" encoding="UTF-8" standalone="no"?>
<!DOCTYPE svg PUBLIC "-//W3C//DTD SVG 1.1//EN" "http://www.w3.org/Graphics/SVG/1.1/DTD/svg11.dtd">
<svg xmlns="http://www.w3.org/2000/svg" xmlns:xlink="http://www.w3.org/1999/xlink" version="1.1" width="24pt" height="24pt" viewBox="0 0 24 24">
<g enable-background="new">
<clipPath id="cp0">
<path transform="matrix(1,0,0,-1,0,24)" d="M 11.335 13.89455 L 9.470226 12.02977 C 9.210527 11.77008 8.789473 11.77008 8.529774 12.02977 C 8.270075 12.28947 8.270075 12.71053 8.529774 12.97023 L 11.52977 15.97023 C 11.78947 16.22992 12.21053 16.22992 12.47023 15.97023 L 15.47023 12.97023 C 15.72992 12.71053 15.72992 12.28947 15.47023 12.02977 C 15.21053 11.77008 14.78947 11.77008 14.52977 12.02977 L 12.665 13.89455 L 12.665 8.5 C 12.665 8.132731 12.36727 7.835 12 7.835 C 11.63273 7.835 11.335 8.132731 11.335 8.5 L 11.335 13.89455 Z M 9.909065 3.436033 C 8.939894 3.1223 7.88634 3.558697 7.422876 4.465846 L 6.532614 6.208376 C 6.461342 6.347879 6.347879 6.461342 6.208376 6.532614 L 4.465846 7.422876 C 3.558697 7.88634 3.1223 8.939894 3.436033 9.909065 L 4.038678 11.77073 C 4.086924 11.91977 4.086924 12.08023 4.038678 12.22927 L 3.436033 14.09094 C 3.1223 15.06011 3.558697 16.11366 4.465846 16.57712 L 6.208376 17.46739 C 6.347879 17.53866 6.461342 17.65212 6.532614 17.79162 L 7.422876 19.53415 C 7.88634 20.4413 8.939894 20.8777 9.909065 20.56397 L 11.77073 19.96132 C 11.91977 19.91308 12.08023 19.91308 12.22927 19.96132 L 14.09094 20.56397 C 15.06011 20.8777 16.11366 20.4413 16.57712 19.53415 L 17.46739 17.79162 C 17.53866 17.65212 17.65212 17.53866 17.79162 17.46739 L 19.53415 16.57712 C 20.4413 16.11366 20.8777 15.06011 20.56397 14.09094 L 19.96132 12.22927 C 19.91308 12.08023 19.91308 11.91977 19.96132 11.77073 L 20.56397 9.909065 C 20.8777 8.939894 20.4413 7.88634 19.53415 7.422876 L 17.79162 6.532614 C 17.65212 6.461342 17.53866 6.347879 17.46739 6.208376 L 16.57712 4.465846 C 16.11366 3.558697 15.06011 3.1223 14.09094 3.436033 L 12.22927 4.038678 C 12.08023 4.086924 11.91977 4.086924 11.77073 4.038678 L 9.909065 3.436033 Z M 12.63888 5.304031 L 14.50055 4.701386 C 14.84835 4.588799 15.22643 4.745406 15.39275 5.070947 L 16.28301 6.813478 C 16.48161 7.202212 16.79779 7.518387 17.18652 7.716992 L 18.92905 8.607254 C 19.25459 8.773574 19.4112 9.151655 19.29861 9.499453 L 18.69597 11.36112 C 18.56153 11.77643 18.56153 12.22357 18.69597 12.63888 L 19.29861 14.50055 C 19.4112 14.84835 19.25459 15.22643 18.92905 15.39275 L 17.18652 16.28301 C 16.79779 16.48161 16.48161 16.79779 16.28301 17.18652 L 15.39275 18.92905 C 15.22643 19.25459 14.84835 19.4112 14.50055 19.29861 L 12.63888 18.69597 C 12.22357 18.56153 11.77643 18.56153 11.36112 18.69597 L 9.499453 19.29861 C 9.151655 19.4112 8.773574 19.25459 8.607254 18.92905 L 7.716992 17.18652 C 7.518387 16.79779 7.202212 16.48161 6.813478 16.28301 L 5.070947 15.39275 C 4.745406 15.22643 4.588799 14.84835 4.701386 14.50055 L 5.304031 12.63888 C 5.438473 12.22357 5.438473 11.77643 5.304031 11.36112 L 4.701386 9.499453 C 4.588799 9.151655 4.745406 8.773574 5.070947 8.607254 L 6.813478 7.716992 C 7.202212 7.518387 7.518387 7.202212 7.716992 6.813478 L 8.607254 5.070947 C 8.773574 4.745406 9.151655 4.588799 9.499453 4.701386 L 11.36112 5.304031 C 11.77643 5.438473 12.22357 5.438473 12.63888 5.304031 Z "/>
</clipPath>
<g clip-path="url(#cp0)">
<path transform="matrix(1,0,0,-1,0,24)" d="M -1.665095 25.6651 L 25.6651 25.6651 L 25.6651 -1.665095 L -1.665095 -1.665095 Z "/>
</g>
</g>
</svg>
