<?xml version="1.0" encoding="UTF-8" standalone="no"?>
<!DOCTYPE svg PUBLIC "-//W3C//DTD SVG 1.1//EN" "http://www.w3.org/Graphics/SVG/1.1/DTD/svg11.dtd">
<svg xmlns="http://www.w3.org/2000/svg" xmlns:xlink="http://www.w3.org/1999/xlink" version="1.1" width="24pt" height="24pt" viewBox="0 0 24 24">
<g enable-background="new">
<clipPath id="cp0">
<path transform="matrix(1,0,0,-1,0,24)" d="M 20.335 15.335 L 16.5 15.335 C 15.3043 15.335 14.335 16.3043 14.335 17.5 L 14.335 21.335 L 10.5 21.335 C 10.03884 21.335 9.665 20.96116 9.665 20.5 C 9.665 20.13273 9.367269 19.835 9 19.835 C 8.632731 19.835 8.335 20.13273 8.335 20.5 C 8.335 21.6957 9.304304 22.665 10.5 22.665 L 14.58579 22.665 C 15.02737 22.665 15.45087 22.48958 15.76312 22.17733 L 21.17733 16.76312 C 21.48958 16.45087 21.665 16.02737 21.665 15.58579 L 21.665 8.5 C 21.665 7.304304 20.6957 6.335 19.5 6.335 L 18.5 6.335 C 18.13273 6.335 17.835 6.632731 17.835 7 C 17.835 7.367269 18.13273 7.665 18.5 7.665 L 19.5 7.665 C 19.96116 7.665 20.335 8.038842 20.335 8.5 L 20.335 15.335 Z M 19.39455 16.665 L 15.665 20.39455 L 15.665 17.5 C 15.665 17.03884 16.03884 16.665 16.5 16.665 L 19.39455 16.665 Z M 9.335 17.335 L 5.5 17.335 C 5.038842 17.335 4.665 16.96116 4.665 16.5 L 4.665 4.5 C 4.665 4.038842 5.038842 3.665 5.5 3.665 L 14.5 3.665 C 14.96116 3.665 15.335 4.038842 15.335 4.5 L 15.335 11.335 L 11.5 11.335 C 10.3043 11.335 9.335 12.3043 9.335 13.5 L 9.335 17.335 Z M 10.665 16.39455 L 10.665 13.5 C 10.665 13.03884 11.03884 12.665 11.5 12.665 L 14.39455 12.665 L 10.665 16.39455 Z M 3.335 16.5 C 3.335 17.6957 4.304304 18.665 5.5 18.665 L 9.585786 18.665 C 10.02737 18.665 10.45087 18.48958 10.76312 18.17733 L 16.17733 12.76312 C 16.48958 12.45087 16.665 12.02737 16.665 11.58579 L 16.665 4.5 C 16.665 3.304304 15.6957 2.335 14.5 2.335 L 5.5 2.335 C 4.304304 2.335 3.335 3.304304 3.335 4.5 L 3.335 16.5 Z "/>
</clipPath>
<g clip-path="url(#cp0)">
<path transform="matrix(1,0,0,-1,0,24)" d="M -1.665 27.665 L 26.665 27.665 L 26.665 -2.665 L -1.665 -2.665 Z "/>
</g>
</g>
</svg>
