<?xml version="1.0" encoding="UTF-8" standalone="no"?>
<!DOCTYPE svg PUBLIC "-//W3C//DTD SVG 1.1//EN" "http://www.w3.org/Graphics/SVG/1.1/DTD/svg11.dtd">
<svg xmlns="http://www.w3.org/2000/svg" xmlns:xlink="http://www.w3.org/1999/xlink" version="1.1" width="24pt" height="24pt" viewBox="0 0 24 24">
<g enable-background="new">
<clipPath id="cp0">
<path transform="matrix(1,0,0,-1,0,24)" d="M 11.665 15.65068 C 17.38421 15.3999 20.2782 11.85795 20.18929 5.279225 C 20.18515 4.972797 20.01915 4.691445 19.75293 4.539651 C 19.34795 4.308738 18.8351 4.440946 18.59079 4.833237 C 18.5847 4.842774 18.57881 4.852515 18.57314 4.862458 C 17.33576 7.032604 15.06102 8.191037 11.665 8.322402 L 11.665 5.654116 C 11.665 5.358136 11.55234 5.073253 11.34991 4.857325 C 10.90986 4.387932 10.1726 4.364149 9.703209 4.804205 L 2.934266 11.15009 C 2.907135 11.17608 2.907135 11.17608 2.881146 11.20321 C 2.44109 11.6726 2.464873 12.40986 2.934266 12.84991 L 9.703209 19.19579 C 9.919137 19.39823 10.20402 19.51088 10.5 19.51088 C 11.14341 19.51088 11.665 18.9893 11.665 18.34588 L 11.665 15.65068 Z M 19.72 5.536155 C 19.59097 5.747327 19.31322 5.819945 19.09415 5.695035 C 19.03301 5.660174 18.9817 5.61261 18.94279 5.556717 L 18.86101 5.700137 C 18.86084 5.730193 18.8606 5.760167 18.86029 5.790061 C 19.16769 5.93985 19.54165 5.831294 19.72 5.536155 Z M 11 14.335 C 10.63273 14.335 10.335 14.63273 10.335 15 L 10.335 17.96503 L 3.972306 12 L 10.335 6.034974 L 10.335 9 C 10.335 9.367269 10.63273 9.665 11 9.665 C 14.50339 9.665 17.13044 8.711263 18.8228 6.793109 C 18.48486 11.89363 15.92226 14.335 11 14.335 Z "/>
</clipPath>
<g clip-path="url(#cp0)">
<path transform="matrix(1,0,0,-1,0,24)" d="M -2.433947 24.51088 L 25.19128 24.51088 L 25.19128 -.5740379 L -2.433947 -.5740379 Z "/>
</g>
</g>
</svg>
