<?xml version="1.0" encoding="UTF-8" standalone="no"?>
<!DOCTYPE svg PUBLIC "-//W3C//DTD SVG 1.1//EN" "http://www.w3.org/Graphics/SVG/1.1/DTD/svg11.dtd">
<svg xmlns="http://www.w3.org/2000/svg" xmlns:xlink="http://www.w3.org/1999/xlink" version="1.1" width="24pt" height="24pt" viewBox="0 0 24 24">
<g enable-background="new">
<clipPath id="cp0">
<path transform="matrix(1,0,0,-1,0,24)" d="M 12 21.665 C 16.23326 21.665 19.665 18.23326 19.665 14 C 19.665 11.46683 18.35207 9.383584 15.79967 7.784745 L 15.52146 7.615296 L 15.29 7.483 L 15.29 5.25 C 15.29 4.025253 14.3783 3.013445 13.19655 2.856219 L 13.03379 2.840137 L 12.875 2.835 L 11.125 2.835 C 9.844583 2.835 8.796903 3.831464 8.715137 5.091213 L 8.71 5.25 L 8.71 7.482 L 8.478757 7.614869 C 5.932104 9.121975 4.535582 11.08197 4.35507 13.46378 L 4.340021 13.73016 L 4.335 14 C 4.335 18.23326 7.766737 21.665 12 21.665 Z M 13.96 5.461 L 10.039 5.461 L 10.04 5.25 C 10.04 4.69072 10.46316 4.230274 11.00678 4.171367 L 11.125 4.165 L 12.875 4.165 C 13.43428 4.165 13.89473 4.588161 13.95363 5.131777 L 13.96 5.25 L 13.96 5.461 Z M 12 20.335 C 8.501276 20.335 5.665 17.49872 5.665 14 C 5.665 11.73122 6.972234 9.901092 9.686415 8.462576 C 9.872884 8.363747 9.999469 8.183542 10.03183 7.979022 L 10.04 7.875 L 10.039 6.791 L 13.96 6.791 L 13.96 7.875 C 13.96 8.085952 14.05986 8.282119 14.22531 8.406498 L 14.31333 8.462442 C 17.02768 9.902541 18.335 11.73279 18.335 14 C 18.335 17.49872 15.49872 20.335 12 20.335 Z M 15.17358 14.37588 C 15.36041 14.1032 15.31647 13.74068 15.08494 13.51957 L 15.00088 13.45142 L 12.664 11.851 L 12.665 9.625 C 12.665 9.257731 12.36727 8.96 12 8.96 C 11.66612 8.96 11.38971 9.206058 11.34221 9.526731 L 11.335 9.625 L 11.335 11.852 L 8.999121 13.45142 C 8.696149 13.65901 8.618828 14.07291 8.82642 14.37588 C 9.013253 14.64855 9.367191 14.73845 9.656977 14.60237 L 9.750879 14.54858 L 12 13.007 L 14.24912 14.54858 C 14.55209 14.75617 14.96599 14.67885 15.17358 14.37588 Z "/>
</clipPath>
<g clip-path="url(#cp0)">
<path transform="matrix(1,0,0,-1,0,24)" d="M -.665 26.665 L 24.665 26.665 L 24.665 -2.165 L -.665 -2.165 Z "/>
</g>
</g>
</svg>
