<?xml version="1.0" encoding="UTF-8" standalone="no"?>
<!DOCTYPE svg PUBLIC "-//W3C//DTD SVG 1.1//EN" "http://www.w3.org/Graphics/SVG/1.1/DTD/svg11.dtd">
<svg xmlns="http://www.w3.org/2000/svg" xmlns:xlink="http://www.w3.org/1999/xlink" version="1.1" width="24pt" height="24pt" viewBox="0 0 24 24">
<g enable-background="new">
<clipPath id="cp0">
<path transform="matrix(1,0,0,-1,0,24)" d="M 11.335 19.39455 L 7.470226 15.52977 C 7.210527 15.27008 6.789473 15.27008 6.529774 15.52977 C 6.270075 15.78947 6.270075 16.21053 6.529774 16.47023 L 11.52977 21.47023 C 11.78947 21.72992 12.21053 21.72992 12.47023 21.47023 L 17.47023 16.47023 C 17.72992 16.21053 17.72992 15.78947 17.47023 15.52977 C 17.21053 15.27008 16.78947 15.27008 16.52977 15.52977 L 12.665 19.39455 L 12.665 14.5 C 12.665 14.13273 12.36727 13.835 12 13.835 C 11.63273 13.835 11.335 14.13273 11.335 14.5 L 11.335 19.39455 Z M 4 11.335 C 3.632731 11.335 3.335 11.63273 3.335 12 C 3.335 12.36727 3.632731 12.665 4 12.665 L 20 12.665 C 20.36727 12.665 20.665 12.36727 20.665 12 C 20.665 11.63273 20.36727 11.335 20 11.335 L 4 11.335 Z M 12.665 4 C 12.665 3.632731 12.36727 3.335 12 3.335 C 11.63273 3.335 11.335 3.632731 11.335 4 L 11.335 9.5 C 11.335 9.867269 11.63273 10.165 12 10.165 C 12.36727 10.165 12.665 9.867269 12.665 9.5 L 12.665 4 Z "/>
</clipPath>
<g clip-path="url(#cp0)">
<path transform="matrix(1,0,0,-1,0,24)" d="M -1.665 26.665 L 25.665 26.665 L 25.665 -1.665 L -1.665 -1.665 Z "/>
</g>
</g>
</svg>
