<?xml version="1.0" encoding="UTF-8" standalone="no"?>
<!DOCTYPE svg PUBLIC "-//W3C//DTD SVG 1.1//EN" "http://www.w3.org/Graphics/SVG/1.1/DTD/svg11.dtd">
<svg xmlns="http://www.w3.org/2000/svg" xmlns:xlink="http://www.w3.org/1999/xlink" version="1.1" width="24pt" height="24pt" viewBox="0 0 24 24">
<g enable-background="new">
<clipPath id="cp0">
<path transform="matrix(1,0,0,-1,0,24)" d="M 5.380806 17.335 L 4.5 17.335 C 4.132731 17.335 3.835 17.63273 3.835 18 C 3.835 18.36727 4.132731 18.665 4.5 18.665 L 8.335 18.665 L 8.335 19.5 C 8.335 20.6957 9.304304 21.665 10.5 21.665 L 13.5 21.665 C 14.6957 21.665 15.665 20.6957 15.665 19.5 L 15.665 18.665 L 19.5 18.665 C 19.86727 18.665 20.165 18.36727 20.165 18 C 20.165 17.63273 19.86727 17.335 19.5 17.335 L 18.61919 17.335 L 17.79599 5.810127 C 17.69637 4.415518 16.53592 3.335 15.13776 3.335 L 8.862238 3.335 C 7.464076 3.335 6.303626 4.415518 6.204011 5.810127 L 5.380806 17.335 Z M 6.714194 17.335 L 7.530631 5.904885 C 7.580532 5.206272 8.161846 4.665 8.862238 4.665 L 15.13776 4.665 C 15.83815 4.665 16.41947 5.206272 16.46937 5.904885 L 17.28581 17.335 L 6.714194 17.335 Z M 9.665 18.665 L 14.335 18.665 L 14.335 19.5 C 14.335 19.96116 13.96116 20.335 13.5 20.335 L 10.5 20.335 C 10.03884 20.335 9.665 19.96116 9.665 19.5 L 9.665 18.665 Z M 11.4 15 C 11.4 15.33137 11.66863 15.6 12 15.6 C 12.33137 15.6 12.6 15.33137 12.6 15 L 12.6 7 C 12.6 6.668629 12.33137 6.4 12 6.4 C 11.66863 6.4 11.4 6.668629 11.4 7 L 11.4 15 Z M 14.40117 15.03743 C 14.42184 15.36815 14.7067 15.6195 15.03743 15.59883 C 15.36815 15.57816 15.6195 15.2933 15.59883 14.96257 L 15.09883 6.962573 C 15.07816 6.631847 14.7933 6.380498 14.46257 6.401168 C 14.13185 6.421839 13.8805 6.706701 13.90117 7.037427 L 14.40117 15.03743 Z M 8.401168 14.96257 C 8.380498 15.2933 8.631847 15.57816 8.962573 15.59883 C 9.293299 15.6195 9.578161 15.36815 9.598832 15.03743 L 10.09883 7.037427 C 10.1195 6.706701 9.868153 6.421839 9.537427 6.401168 C 9.206701 6.380498 8.921839 6.631847 8.901168 6.962573 L 8.401168 14.96257 Z "/>
</clipPath>
<g clip-path="url(#cp0)">
<path transform="matrix(1,0,0,-1,0,24)" d="M -1.165 26.665 L 25.165 26.665 L 25.165 -1.665 L -1.165 -1.665 Z "/>
</g>
</g>
</svg>
