<?xml version="1.0" encoding="UTF-8" standalone="no"?>
<!DOCTYPE svg PUBLIC "-//W3C//DTD SVG 1.1//EN" "http://www.w3.org/Graphics/SVG/1.1/DTD/svg11.dtd">
<svg xmlns="http://www.w3.org/2000/svg" xmlns:xlink="http://www.w3.org/1999/xlink" version="1.1" width="24pt" height="24pt" viewBox="0 0 24 24">
<g enable-background="new">
<clipPath id="cp0">
<path transform="matrix(1,0,0,-1,0,24)" d="M 12 11.665 C 15.82709 11.665 18.30448 10.15384 19.26183 7.159337 C 19.62599 6.020417 18.99788 4.801944 17.85895 4.437824 C 17.6991 4.386721 17.53404 4.354434 17.3671 4.341484 L 17.19966 4.335 L 6.800394 4.335 C 5.60467 4.335 4.635334 5.304273 4.635334 6.5 C 4.635334 6.723753 4.67002 6.946155 4.738156 7.159282 C 5.695504 10.15383 8.172901 11.665 12 11.665 Z M 5.640911 10.90498 C 5.743897 10.55244 5.541598 10.18317 5.189063 10.08019 C 3.868279 9.694345 3.015134 8.874774 2.576265 7.570149 C 2.551395 7.496217 2.538635 7.418095 2.538635 7.339286 C 2.538635 6.995349 2.773439 6.719491 3.069011 6.672177 L 3.159332 6.665 C 3.526601 6.665 3.824332 6.367269 3.824332 6 C 3.824332 5.632731 3.526601 5.335 3.159332 5.335 C 2.075782 5.335 1.208635 6.238295 1.208635 7.339286 C 1.208635 7.562116 1.244788 7.783466 1.315679 7.994203 C 1.893211 9.711033 3.077811 10.84902 4.816118 11.35683 C 5.168653 11.45981 5.537925 11.25751 5.640911 10.90498 Z M 18.35909 10.90498 C 18.46207 11.25751 18.83135 11.45981 19.18388 11.35683 C 20.92219 10.84902 22.10679 9.711033 22.68432 7.994203 C 22.75521 7.783466 22.79136 7.562116 22.79136 7.339286 C 22.79136 6.238295 21.92422 5.335 20.84067 5.335 C 20.4734 5.335 20.17567 5.632731 20.17567 6 C 20.17567 6.333881 20.42173 6.610292 20.7424 6.65779 L 20.93099 6.672177 C 21.22656 6.719491 21.46136 6.995349 21.46136 7.339286 C 21.46136 7.418095 21.44861 7.496217 21.42373 7.570149 C 20.98487 8.874774 20.13172 9.694345 18.81094 10.08019 C 18.4584 10.18317 18.2561 10.55244 18.35909 10.90498 Z M 12 10.335 C 8.712669 10.335 6.771115 9.150688 6.004992 6.754279 C 5.978712 6.672078 5.965334 6.5863 5.965334 6.5 C 5.965334 6.0743 6.283881 5.723028 6.695621 5.671506 L 6.800368 5.665 L 17.19966 5.665 C 17.28596 5.665 17.37174 5.678378 17.45394 5.704658 C 17.89321 5.845094 18.13546 6.31503 17.995 6.754304 C 17.22887 9.150696 15.28732 10.335 12 10.335 Z M 7.542897 18.46616 C 7.590853 18.10203 7.334547 17.76798 6.970422 17.72002 C 6.113755 17.6072 5.465 16.87292 5.465 16 C 5.465 15.04179 6.241786 14.265 7.2 14.265 C 7.314873 14.265 7.427946 14.27607 7.538313 14.29784 C 7.898642 14.3689 8.248351 14.13439 8.319409 13.77406 C 8.390467 13.41373 8.155966 13.06403 7.795637 12.99297 C 7.600628 12.95451 7.401377 12.935 7.2 12.935 C 5.507247 12.935 4.135 14.30725 4.135 16 C 4.135 17.54246 5.280481 18.83894 6.796759 19.03863 C 7.160884 19.08659 7.494941 18.83028 7.542897 18.46616 Z M 17.10487 19.04432 L 17.20324 19.03863 C 18.71952 18.83894 19.865 17.54246 19.865 16 C 19.865 14.30725 18.49275 12.935 16.8 12.935 C 16.59862 12.935 16.39937 12.95451 16.20436 12.99297 C 15.84403 13.06403 15.60953 13.41373 15.68059 13.77406 C 15.75165 14.13439 16.10136 14.3689 16.46169 14.29784 C 16.57205 14.27607 16.68513 14.265 16.8 14.265 C 17.75821 14.265 18.535 15.04179 18.535 16 C 18.535 16.87292 17.88625 17.6072 17.02958 17.72002 C 16.66545 17.76798 16.40915 18.10203 16.4571 18.46616 C 16.5007 18.79718 16.78074 19.0391 17.10487 19.04432 Z M 12 20.665 C 14.02412 20.665 15.665 19.02412 15.665 17 C 15.665 14.97588 14.02412 13.335 12 13.335 C 9.975876 13.335 8.335 14.97588 8.335 17 C 8.335 19.02412 9.975876 20.665 12 20.665 Z M 12 19.335 C 10.71042 19.335 9.665 18.28958 9.665 17 C 9.665 15.71042 10.71042 14.665 12 14.665 C 13.28958 14.665 14.335 15.71042 14.335 17 C 14.335 18.28958 13.28958 19.335 12 19.335 Z "/>
</clipPath>
<g clip-path="url(#cp0)">
<path transform="matrix(1,0,0,-1,0,24)" d="M -3.791365 25.665 L 27.79136 25.665 L 27.79136 -.665 L -3.791365 -.665 Z "/>
</g>
</g>
</svg>
