<?xml version="1.0" encoding="UTF-8" standalone="no"?>
<!DOCTYPE svg PUBLIC "-//W3C//DTD SVG 1.1//EN" "http://www.w3.org/Graphics/SVG/1.1/DTD/svg11.dtd">
<svg xmlns="http://www.w3.org/2000/svg" xmlns:xlink="http://www.w3.org/1999/xlink" version="1.1" width="24pt" height="24pt" viewBox="0 0 24 24">
<g enable-background="new">
<clipPath id="cp0">
<path transform="matrix(1,0,0,-1,0,24)" d="M 12 3.335 C 7.214453 3.335 3.335 7.214453 3.335 12 C 3.335 16.78555 7.214453 20.665 12 20.665 C 16.78555 20.665 20.665 16.78555 20.665 12 C 20.665 7.214453 16.78555 3.335 12 3.335 Z M 12 4.665 C 16.05101 4.665 19.335 7.948991 19.335 12 C 19.335 16.05101 16.05101 19.335 12 19.335 C 7.948991 19.335 4.665 16.05101 4.665 12 C 4.665 7.948991 7.948991 4.665 12 4.665 Z M 9.559819 7.373567 C 8.714615 7.011337 7.735797 7.402864 7.373567 8.248068 C 7.194069 8.666896 7.194069 9.14099 7.373567 9.559819 L 9.073633 13.52664 C 9.343196 14.15562 9.84438 14.6568 10.47336 14.92637 L 14.44018 16.62643 C 15.28538 16.98866 16.2642 16.59714 16.62643 15.75193 C 16.80593 15.3331 16.80593 14.85901 16.62643 14.44018 L 14.92637 10.47336 C 14.6568 9.84438 14.15562 9.343196 13.52664 9.073633 L 9.559819 7.373567 Z M 13.7039 10.99727 L 15.40397 14.96409 C 15.44009 15.04836 15.44009 15.14375 15.40397 15.22802 C 15.33109 15.39808 15.13415 15.47685 14.96409 15.40397 L 10.99727 13.7039 C 10.68219 13.56887 10.43113 13.31781 10.2961 13.00273 L 8.59603 9.035906 C 8.559914 8.951637 8.559914 8.856249 8.59603 8.77198 C 8.668911 8.601924 8.86585 8.523149 9.035906 8.59603 L 13.00273 10.2961 C 13.31781 10.43113 13.56887 10.68219 13.7039 10.99727 Z M 12 11 C 11.44772 11 11 11.44772 11 12 C 11 12.55228 11.44772 13 12 13 C 12.55228 13 13 12.55228 13 12 C 13 11.44772 12.55228 11 12 11 Z "/>
</clipPath>
<g clip-path="url(#cp0)">
<path transform="matrix(1,0,0,-1,0,24)" d="M -1.665 25.665 L 25.665 25.665 L 25.665 -1.665 L -1.665 -1.665 Z "/>
</g>
</g>
</svg>
