<?xml version="1.0" encoding="UTF-8" standalone="no"?>
<!DOCTYPE svg PUBLIC "-//W3C//DTD SVG 1.1//EN" "http://www.w3.org/Graphics/SVG/1.1/DTD/svg11.dtd">
<svg xmlns="http://www.w3.org/2000/svg" xmlns:xlink="http://www.w3.org/1999/xlink" version="1.1" width="24pt" height="24pt" viewBox="0 0 24 24">
<g enable-background="new">
<clipPath id="cp0">
<path transform="matrix(1,0,0,-1,0,24)" d="M 12 5.757521 L 7.050129 2.778253 C 6.838145 2.650663 6.584748 2.610808 6.343833 2.667167 C 5.832956 2.786678 5.515691 3.29771 5.635202 3.808588 L 6.947847 9.419766 L 2.577569 13.19525 C 2.389775 13.35749 2.27292 13.58677 2.251998 13.83405 C 2.207767 14.35685 2.595725 14.81653 3.118528 14.86076 L 8.8752 15.3478 L 11.12569 20.64296 C 11.22188 20.86929 11.40208 21.0495 11.62841 21.14569 C 12.11128 21.35091 12.66909 21.12583 12.87431 20.64296 L 15.1248 15.3478 L 20.88147 14.86076 C 21.12876 14.83984 21.35804 14.72298 21.52027 14.53519 C 21.86327 14.13816 21.81946 13.53825 21.42243 13.19525 L 17.05215 9.419766 L 18.3648 3.808588 C 18.42116 3.567673 18.3813 3.314276 18.25371 3.102292 C 17.98315 2.652766 17.3994 2.507689 16.94987 2.778253 L 12 5.757521 Z M 11.5101 7.014982 C 11.81151 7.196396 12.18849 7.196396 12.4899 7.014982 L 16.8648 4.381783 L 15.70475 9.340648 C 15.62427 9.684679 15.74137 10.04495 16.00873 10.27593 L 19.8699 13.61159 L 14.78454 14.04184 C 14.43369 14.07152 14.12804 14.29282 13.99032 14.61687 L 12 19.29987 L 10.00968 14.61687 C 9.87196 14.29282 9.566307 14.07152 9.21546 14.04184 L 4.130105 13.61159 L 7.991268 10.27593 C 8.258633 10.04495 8.375727 9.684679 8.295246 9.340648 L 7.1352 4.381783 L 11.5101 7.014982 Z "/>
</clipPath>
<g clip-path="url(#cp0)">
<path transform="matrix(1,0,0,-1,0,24)" d="M -2.751438 26.22162 L 26.7514 26.22162 L 26.7514 -2.35795 L -2.751438 -2.35795 Z "/>
</g>
</g>
</svg>
