<?xml version="1.0" encoding="UTF-8" standalone="no"?>
<!DOCTYPE svg PUBLIC "-//W3C//DTD SVG 1.1//EN" "http://www.w3.org/Graphics/SVG/1.1/DTD/svg11.dtd">
<svg xmlns="http://www.w3.org/2000/svg" xmlns:xlink="http://www.w3.org/1999/xlink" version="1.1" width="24pt" height="24pt" viewBox="0 0 24 24">
<g enable-background="new">
<clipPath id="cp0">
<path transform="matrix(1,0,0,-1,0,24)" d="M 11.27165 16.32713 C 11.01195 16.06743 10.59089 16.06743 10.33119 16.32713 C 10.07149 16.58683 10.07149 17.00789 10.33119 17.26759 L 12.33119 19.26759 C 14.24775 21.18414 17.35509 21.18414 19.27165 19.26759 C 21.1882 17.35103 21.1882 14.24369 19.27165 12.32713 L 17.27165 10.32713 C 15.35509 8.41058 12.24775 8.41058 10.33119 10.32713 C 10.08049 10.57784 9.859589 10.85206 9.670675 11.14583 C 9.472021 11.45473 9.561399 11.86619 9.870306 12.06485 C 10.17921 12.2635 10.59067 12.17412 10.78933 11.86521 C 10.92698 11.65116 11.08817 11.45106 11.27165 11.26759 C 12.6688 9.87043 14.93404 9.87043 16.33119 11.26759 L 18.33119 13.26759 C 19.72835 14.66474 19.72835 16.92998 18.33119 18.32713 C 16.93404 19.72429 14.6688 19.72429 13.27165 18.32713 L 11.27165 16.32713 Z M 12.73233 7.667585 C 12.99203 7.927284 13.41309 7.927284 13.67279 7.667585 C 13.93248 7.407887 13.93248 6.986832 13.67279 6.727133 L 11.67279 4.727133 C 9.756233 2.81058 6.648887 2.81058 4.732334 4.727133 C 2.815781 6.643686 2.815781 9.751032 4.732334 11.66759 L 6.732334 13.66759 C 8.648887 15.58414 11.75623 15.58414 13.67279 13.66759 C 13.92349 13.41688 14.14439 13.14266 14.3333 12.84889 C 14.53196 12.53999 14.44258 12.12853 14.13367 11.92987 C 13.82477 11.73122 13.41331 11.8206 13.21465 12.1295 C 13.077 12.34356 12.91581 12.54366 12.73233 12.72713 C 11.33518 14.12429 9.069941 14.12429 7.672786 12.72713 L 5.672786 10.72713 C 4.27563 9.329978 4.27563 7.064741 5.672786 5.667585 C 7.069941 4.27043 9.335178 4.27043 10.73233 5.667585 L 12.73233 7.667585 Z "/>
</clipPath>
<g clip-path="url(#cp0)">
<path transform="matrix(1,0,0,-1,0,24)" d="M -1.705081 25.705 L 25.70906 25.705 L 25.70906 -1.710281 L -1.705081 -1.710281 Z "/>
</g>
</g>
</svg>
