<?xml version="1.0" encoding="UTF-8" standalone="no"?>
<!DOCTYPE svg PUBLIC "-//W3C//DTD SVG 1.1//EN" "http://www.w3.org/Graphics/SVG/1.1/DTD/svg11.dtd">
<svg xmlns="http://www.w3.org/2000/svg" xmlns:xlink="http://www.w3.org/1999/xlink" version="1.1" width="24pt" height="24pt" viewBox="0 0 24 24">
<g enable-background="new">
<clipPath id="cp0">
<path transform="matrix(1,0,0,-1,0,24)" d="M 12 3.335 C 16.78555 3.335 20.665 7.214453 20.665 12 C 20.665 16.78555 16.78555 20.665 12 20.665 C 7.214453 20.665 3.335 16.78555 3.335 12 C 3.335 7.214453 7.214453 3.335 12 3.335 Z M 11.335 13.89455 L 9.470226 12.02977 C 9.210527 11.77008 8.789473 11.77008 8.529774 12.02977 C 8.270075 12.28947 8.270075 12.71053 8.529774 12.97023 L 11.52977 15.97023 C 11.78947 16.22992 12.21053 16.22992 12.47023 15.97023 L 15.47023 12.97023 C 15.72992 12.71053 15.72992 12.28947 15.47023 12.02977 C 15.21053 11.77008 14.78947 11.77008 14.52977 12.02977 L 12.665 13.89455 L 12.665 8.5 C 12.665 8.132731 12.36727 7.835 12 7.835 C 11.63273 7.835 11.335 8.132731 11.335 8.5 L 11.335 13.89455 Z "/>
</clipPath>
<g clip-path="url(#cp0)">
<path transform="matrix(1,0,0,-1,0,24)" d="M -1.665 25.665 L 25.665 25.665 L 25.665 -1.665 L -1.665 -1.665 Z "/>
</g>
</g>
</svg>
