<?xml version="1.0" encoding="UTF-8" standalone="no"?>
<!DOCTYPE svg PUBLIC "-//W3C//DTD SVG 1.1//EN" "http://www.w3.org/Graphics/SVG/1.1/DTD/svg11.dtd">
<svg xmlns="http://www.w3.org/2000/svg" xmlns:xlink="http://www.w3.org/1999/xlink" version="1.1" width="24pt" height="24pt" viewBox="0 0 24 24">
<g enable-background="new">
<clipPath id="cp0">
<path transform="matrix(1,0,0,-1,0,24)" d="M 8.73651 14.14217 L 9.888984 12.9897 C 9.832518 12.89119 9.76565 12.7979 9.688896 12.71155 L 6.980851 9.665 L 13.21368 9.665 L 14.54368 8.335 L 12.665 8.335 L 12.665 3 C 12.665 2.632731 12.36727 2.335 12 2.335 C 11.63273 2.335 11.335 2.632731 11.335 3 L 11.335 8.335 L 6.613422 8.335 C 5.97001 8.335 5.448422 8.856588 5.448422 9.5 C 5.448422 9.785325 5.55313 10.06073 5.74269 10.27398 L 8.694842 13.59515 C 8.760308 13.6688 8.790028 13.76754 8.776093 13.86509 L 8.73651 14.14217 Z M 6.508112 20.61321 C 6.618239 20.6472 6.733917 20.665 6.851629 20.665 L 17.14837 20.665 C 17.79178 20.665 18.31337 20.14341 18.31337 19.5 C 18.31337 19.15991 18.16476 18.8368 17.90654 18.61547 L 15.71868 16.74016 C 15.65694 16.68724 15.61656 16.61367 15.60506 16.53318 L 15.22391 13.86509 C 15.20997 13.76754 15.23969 13.6688 15.30516 13.59515 L 18.25731 10.27398 C 18.63166 9.852844 18.64495 9.235774 18.31949 8.801832 L 14.08559 13.03573 C 13.92136 13.34447 13.85688 13.70039 13.90727 14.05318 L 14.28843 16.72127 C 14.34558 17.12134 14.54629 17.48696 14.85313 17.74997 L 16.70233 19.335 L 7.78632 19.335 L 6.508112 20.61321 Z M 3.529774 20.52977 C 3.270075 20.78947 3.270075 21.21053 3.529774 21.47023 C 3.789473 21.72992 4.210527 21.72992 4.470226 21.47023 L 19.47023 6.470226 C 19.72992 6.210527 19.72992 5.789473 19.47023 5.529774 C 19.21053 5.270075 18.78947 5.270075 18.52977 5.529774 L 3.529774 20.52977 Z "/>
</clipPath>
<g clip-path="url(#cp0)">
<path transform="matrix(1,0,0,-1,0,24)" d="M -1.665 26.665 L 24.665 26.665 L 24.665 -2.665 L -1.665 -2.665 Z "/>
</g>
</g>
</svg>
