<?xml version="1.0" encoding="UTF-8" standalone="no"?>
<!DOCTYPE svg PUBLIC "-//W3C//DTD SVG 1.1//EN" "http://www.w3.org/Graphics/SVG/1.1/DTD/svg11.dtd">
<svg xmlns="http://www.w3.org/2000/svg" xmlns:xlink="http://www.w3.org/1999/xlink" version="1.1" width="24pt" height="24pt" viewBox="0 0 24 24">
<g enable-background="new">
<clipPath id="cp0">
<path transform="matrix(1,0,0,-1,0,24)" d="M 13.665 17.75 L 13.665 12.5 C 13.665 12.13273 13.36727 11.835 13 11.835 C 12.63273 11.835 12.335 12.13273 12.335 12.5 L 12.335 18.75 C 12.335 19.07309 12.07309 19.335 11.75 19.335 C 11.42691 19.335 11.165 19.07309 11.165 18.75 L 11.165 12.5 C 11.165 12.13273 10.86727 11.835 10.5 11.835 C 10.13273 11.835 9.835 12.13273 9.835 12.5 L 9.835 17.75 C 9.835 18.07309 9.573087 18.335 9.25 18.335 C 8.926913 18.335 8.665 18.07309 8.665 17.75 L 8.665 12 C 8.665 11.63273 8.367269 11.335 8 11.335 C 7.632731 11.335 7.335 11.63273 7.335 12 L 7.335 15.75 C 7.335 16.07309 7.073087 16.335 6.75 16.335 C 6.426913 16.335 6.165 16.07309 6.165 15.75 L 6.165 10 C 6.165 7.053561 8.553561 4.665 11.5 4.665 L 12 4.665 C 13.86555 4.665 15.55613 5.763657 16.3138 7.468423 L 18.43824 12.24841 C 18.54789 12.49513 18.44409 12.78446 18.2026 12.90521 C 17.97881 13.0171 17.70669 12.92639 17.59479 12.7026 L 16.09479 9.702603 C 15.78097 9.074962 14.835 9.298276 14.835 10 L 14.835 17.75 C 14.835 18.07309 14.57309 18.335 14.25 18.335 C 13.92691 18.335 13.665 18.07309 13.665 17.75 Z M 13.50604 19.51512 C 13.73476 19.61164 13.98615 19.665 14.25 19.665 C 15.30763 19.665 16.165 18.80763 16.165 17.75 L 16.165 12.81699 L 16.40521 13.2974 C 16.8456 14.17818 17.91662 14.53518 18.7974 14.09479 C 19.67487 13.65606 20.05205 12.60474 19.65361 11.70825 L 17.52917 6.928258 C 16.55803 4.743193 14.39116 3.335 12 3.335 L 11.5 3.335 C 7.819022 3.335 4.835 6.319022 4.835 10 L 4.835 15.75 C 4.835 16.80763 5.692375 17.665 6.75 17.665 C 6.954024 17.665 7.150597 17.63309 7.335 17.574 L 7.335 17.75 C 7.335 18.80763 8.192375 19.665 9.25 19.665 C 9.513851 19.665 9.765239 19.61164 9.99396 19.51512 C 10.28927 20.19193 10.96439 20.665 11.75 20.665 C 12.53561 20.665 13.21073 20.19193 13.50604 19.51512 Z "/>
</clipPath>
<g clip-path="url(#cp0)">
<path transform="matrix(1,0,0,-1,0,24)" d="M -.165 25.665 L 24.81214 25.665 L 24.81214 -1.665 L -.165 -1.665 Z "/>
</g>
</g>
</svg>
