<?xml version="1.0" encoding="UTF-8" standalone="no"?>
<!DOCTYPE svg PUBLIC "-//W3C//DTD SVG 1.1//EN" "http://www.w3.org/Graphics/SVG/1.1/DTD/svg11.dtd">
<svg xmlns="http://www.w3.org/2000/svg" xmlns:xlink="http://www.w3.org/1999/xlink" version="1.1" width="24pt" height="24pt" viewBox="0 0 24 24">
<g enable-background="new">
<clipPath id="cp0">
<path transform="matrix(1,0,0,-1,0,24)" d="M 12 12.94045 L 14.52977 15.47023 C 14.78947 15.72992 15.21053 15.72992 15.47023 15.47023 C 15.72992 15.21053 15.72992 14.78947 15.47023 14.52977 L 12.94045 12 L 15.47023 9.470226 C 15.72992 9.210527 15.72992 8.789473 15.47023 8.529774 C 15.21053 8.270075 14.78947 8.270075 14.52977 8.529774 L 12 11.05955 L 9.470226 8.529774 C 9.210527 8.270075 8.789473 8.270075 8.529774 8.529774 C 8.270075 8.789473 8.270075 9.210527 8.529774 9.470226 L 11.05955 12 L 8.529774 14.52977 C 8.270075 14.78947 8.270075 15.21053 8.529774 15.47023 C 8.789473 15.72992 9.210527 15.72992 9.470226 15.47023 L 12 12.94045 Z M 12 3.335 C 7.214453 3.335 3.335 7.214453 3.335 12 C 3.335 16.78555 7.214453 20.665 12 20.665 C 16.78555 20.665 20.665 16.78555 20.665 12 C 20.665 7.214453 16.78555 3.335 12 3.335 Z M 12 4.665 C 16.05101 4.665 19.335 7.948991 19.335 12 C 19.335 16.05101 16.05101 19.335 12 19.335 C 7.948991 19.335 4.665 16.05101 4.665 12 C 4.665 7.948991 7.948991 4.665 12 4.665 Z "/>
</clipPath>
<g clip-path="url(#cp0)">
<path transform="matrix(1,0,0,-1,0,24)" d="M -1.665 25.665 L 25.665 25.665 L 25.665 -1.665 L -1.665 -1.665 Z "/>
</g>
</g>
</svg>
