<?xml version="1.0" encoding="UTF-8" standalone="no"?>
<!DOCTYPE svg PUBLIC "-//W3C//DTD SVG 1.1//EN" "http://www.w3.org/Graphics/SVG/1.1/DTD/svg11.dtd">
<svg xmlns="http://www.w3.org/2000/svg" xmlns:xlink="http://www.w3.org/1999/xlink" version="1.1" width="24pt" height="24pt" viewBox="0 0 24 24">
<g enable-background="new">
<clipPath id="cp0">
<path transform="matrix(1,0,0,-1,0,24)" d="M 12.665 8.335 L 12.665 3 C 12.665 2.632731 12.36727 2.335 12 2.335 C 11.63273 2.335 11.335 2.632731 11.335 3 L 11.335 8.335 L 6.613422 8.335 C 5.97001 8.335 5.448422 8.856588 5.448422 9.5 C 5.448422 9.785325 5.55313 10.06073 5.74269 10.27398 L 8.694842 13.59515 C 8.760308 13.6688 8.790028 13.76754 8.776093 13.86509 L 8.394937 16.53318 C 8.383438 16.61367 8.343055 16.68724 8.281319 16.74016 L 6.093457 18.61547 C 5.604942 19.03419 5.548368 19.76966 5.967095 20.25817 C 6.188424 20.51639 6.511536 20.665 6.851629 20.665 L 17.14837 20.665 C 17.79178 20.665 18.31337 20.14341 18.31337 19.5 C 18.31337 19.15991 18.16476 18.8368 17.90654 18.61547 L 15.71868 16.74016 C 15.65694 16.68724 15.61656 16.61367 15.60506 16.53318 L 15.22391 13.86509 C 15.20997 13.76754 15.23969 13.6688 15.30516 13.59515 L 18.25731 10.27398 C 18.68477 9.793092 18.64145 9.056728 18.16056 8.629268 C 17.94731 8.439709 17.6719 8.335 17.38658 8.335 L 12.665 8.335 Z M 7.297666 19.335 L 9.146872 17.74997 C 9.453709 17.48696 9.654417 17.12134 9.71157 16.72127 L 10.09273 14.05318 C 10.16199 13.56834 10.01428 13.0776 9.688896 12.71155 L 6.980851 9.665 L 17.01915 9.665 L 14.3111 12.71155 C 13.98572 13.0776 13.83801 13.56834 13.90727 14.05318 L 14.28843 16.72127 C 14.34558 17.12134 14.54629 17.48696 14.85313 17.74997 L 16.70233 19.335 L 7.297666 19.335 Z "/>
</clipPath>
<g clip-path="url(#cp0)">
<path transform="matrix(1,0,0,-1,0,24)" d="M .4484219 25.665 L 23.55159 25.665 L 23.55159 -2.665 L .4484219 -2.665 Z "/>
</g>
</g>
</svg>
