<?xml version="1.0" encoding="UTF-8" standalone="no"?>
<!DOCTYPE svg PUBLIC "-//W3C//DTD SVG 1.1//EN" "http://www.w3.org/Graphics/SVG/1.1/DTD/svg11.dtd">
<svg xmlns="http://www.w3.org/2000/svg" xmlns:xlink="http://www.w3.org/1999/xlink" version="1.1" width="24pt" height="24pt" viewBox="0 0 24 24">
<g enable-background="new">
<clipPath id="cp0">
<path transform="matrix(1,0,0,-1,0,24)" d="M 7 4.335 C 5.528161 4.335 4.335 5.528161 4.335 7 L 4.335 17 C 4.335 18.47184 5.528161 19.665 7 19.665 L 17 19.665 C 18.47184 19.665 19.665 18.47184 19.665 17 L 19.665 7 C 19.665 5.528161 18.47184 4.335 17 4.335 L 7 4.335 Z M 7 5.665 L 17 5.665 C 17.7373 5.665 18.335 6.2627 18.335 7 L 18.335 17 C 18.335 17.7373 17.7373 18.335 17 18.335 L 7 18.335 C 6.2627 18.335 5.665 17.7373 5.665 17 L 5.665 7 C 5.665 6.2627 6.2627 5.665 7 5.665 Z M 9.519278 11.91542 L 11.00581 10.05726 L 14.98532 14.9211 C 15.21789 15.20535 15.63685 15.24725 15.9211 15.01468 C 16.20535 14.78211 16.24725 14.36315 16.01468 14.0789 L 11.56522 8.640664 C 11.26417 8.272718 10.72049 8.284868 10.43128 8.646376 L 8.480722 11.08458 C 8.251291 11.37137 8.297789 11.78985 8.584578 12.01928 C 8.871367 12.24871 9.289846 12.20221 9.519278 11.91542 Z "/>
</clipPath>
<g clip-path="url(#cp0)">
<path transform="matrix(1,0,0,-1,0,24)" d="M -.665 24.665 L 24.665 24.665 L 24.665 -.665 L -.665 -.665 Z "/>
</g>
</g>
</svg>
