<?xml version="1.0" encoding="UTF-8" standalone="no"?>
<!DOCTYPE svg PUBLIC "-//W3C//DTD SVG 1.1//EN" "http://www.w3.org/Graphics/SVG/1.1/DTD/svg11.dtd">
<svg xmlns="http://www.w3.org/2000/svg" xmlns:xlink="http://www.w3.org/1999/xlink" version="1.1" width="24pt" height="24pt" viewBox="0 0 24 24">
<g enable-background="new">
<clipPath id="cp0">
<path transform="matrix(1,0,0,-1,0,24)" d="M 12 3.335 C 7.214453 3.335 3.335 7.214453 3.335 12 C 3.335 16.78555 7.214453 20.665 12 20.665 C 16.78555 20.665 20.665 16.78555 20.665 12 C 20.665 7.214453 16.78555 3.335 12 3.335 Z M 12 4.665 C 16.05101 4.665 19.335 7.948991 19.335 12 C 19.335 16.05101 16.05101 19.335 12 19.335 C 7.948991 19.335 4.665 16.05101 4.665 12 C 4.665 7.948991 7.948991 4.665 12 4.665 Z M 8 10.85 C 7.364873 10.85 6.85 11.36487 6.85 12 C 6.85 12.63513 7.364873 13.15 8 13.15 C 8.635127 13.15 9.15 12.63513 9.15 12 C 9.15 11.36487 8.635127 10.85 8 10.85 Z M 12 10.85 C 11.36487 10.85 10.85 11.36487 10.85 12 C 10.85 12.63513 11.36487 13.15 12 13.15 C 12.63513 13.15 13.15 12.63513 13.15 12 C 13.15 11.36487 12.63513 10.85 12 10.85 Z M 16 10.85 C 15.36487 10.85 14.85 11.36487 14.85 12 C 14.85 12.63513 15.36487 13.15 16 13.15 C 16.63513 13.15 17.15 12.63513 17.15 12 C 17.15 11.36487 16.63513 10.85 16 10.85 Z "/>
</clipPath>
<g clip-path="url(#cp0)">
<path transform="matrix(1,0,0,-1,0,24)" d="M -1.665 25.665 L 25.665 25.665 L 25.665 -1.665 L -1.665 -1.665 Z "/>
</g>
</g>
</svg>
