<?xml version="1.0" encoding="UTF-8" standalone="no"?>
<!DOCTYPE svg PUBLIC "-//W3C//DTD SVG 1.1//EN" "http://www.w3.org/Graphics/SVG/1.1/DTD/svg11.dtd">
<svg xmlns="http://www.w3.org/2000/svg" xmlns:xlink="http://www.w3.org/1999/xlink" version="1.1" width="24pt" height="24pt" viewBox="0 0 24 24">
<g enable-background="new">
<clipPath id="cp0">
<path transform="matrix(1,0,0,-1,0,24)" d="M 11.335 8.665 L 11.335 12.335 L 10.5 12.335 C 10.13273 12.335 9.835 12.63273 9.835 13 C 9.835 13.36727 10.13273 13.665 10.5 13.665 L 12 13.665 C 12.36727 13.665 12.665 13.36727 12.665 13 L 12.665 8.665 L 13.5 8.665 C 13.86727 8.665 14.165 8.367269 14.165 8 C 14.165 7.632731 13.86727 7.335 13.5 7.335 L 10.5 7.335 C 10.13273 7.335 9.835 7.632731 9.835 8 C 9.835 8.367269 10.13273 8.665 10.5 8.665 L 11.335 8.665 Z M 12 3.335 C 7.214453 3.335 3.335 7.214453 3.335 12 C 3.335 16.78555 7.214453 20.665 12 20.665 C 16.78555 20.665 20.665 16.78555 20.665 12 C 20.665 7.214453 16.78555 3.335 12 3.335 Z M 12 4.665 C 16.05101 4.665 19.335 7.948991 19.335 12 C 19.335 16.05101 16.05101 19.335 12 19.335 C 7.948991 19.335 4.665 16.05101 4.665 12 C 4.665 7.948991 7.948991 4.665 12 4.665 Z M 12 14.85 C 11.36487 14.85 10.85 15.36487 10.85 16 C 10.85 16.63513 11.36487 17.15 12 17.15 C 12.63513 17.15 13.15 16.63513 13.15 16 C 13.15 15.36487 12.63513 14.85 12 14.85 Z "/>
</clipPath>
<g clip-path="url(#cp0)">
<path transform="matrix(1,0,0,-1,0,24)" d="M -1.665 25.665 L 25.665 25.665 L 25.665 -1.665 L -1.665 -1.665 Z "/>
</g>
</g>
</svg>
