<?xml version="1.0" encoding="UTF-8" standalone="no"?>
<!DOCTYPE svg PUBLIC "-//W3C//DTD SVG 1.1//EN" "http://www.w3.org/Graphics/SVG/1.1/DTD/svg11.dtd">
<svg xmlns="http://www.w3.org/2000/svg" xmlns:xlink="http://www.w3.org/1999/xlink" version="1.1" width="24pt" height="24pt" viewBox="0 0 24 24">
<g enable-background="new">
<clipPath id="cp0">
<path transform="matrix(1,0,0,-1,0,24)" d="M 12 7.835 C 9.699734 7.835 7.835 9.699734 7.835 12 C 7.835 14.30027 9.699734 16.165 12 16.165 C 14.30027 16.165 16.165 14.30027 16.165 12 C 16.165 9.699734 14.30027 7.835 12 7.835 Z M 12 9.165 C 13.56573 9.165 14.835 10.43427 14.835 12 C 14.835 13.56573 13.56573 14.835 12 14.835 C 10.43427 14.835 9.165 13.56573 9.165 12 C 9.165 10.43427 10.43427 9.165 12 9.165 Z M 12.665 4.5 L 11.335 4.5 L 12.665 4.5 Z M 11.335 4.5 C 11.335 5.386667 12.665 5.386667 12.665 4.5 L 12.665 3.5 C 12.665 2.613333 11.335 2.613333 11.335 3.5 L 11.335 5.5 C 11.335 6.386667 12.665 6.386667 12.665 5.5 L 12.665 4.5 C 12.665 3.613333 11.335 3.613333 11.335 4.5 Z M 12.665 19.5 L 11.335 19.5 L 12.665 19.5 Z M 11.335 19.5 C 11.335 20.38667 12.665 20.38667 12.665 19.5 L 12.665 18.5 C 12.665 17.61333 11.335 17.61333 11.335 18.5 L 11.335 20.5 C 11.335 21.38667 12.665 21.38667 12.665 20.5 L 12.665 19.5 C 12.665 18.61333 11.335 18.61333 11.335 19.5 Z M 4.5 11.335 L 4.5 12.665 L 4.5 11.335 Z M 4.5 12.665 C 5.386667 12.665 5.386667 11.335 4.5 11.335 L 3.5 11.335 C 2.613333 11.335 2.613333 12.665 3.5 12.665 L 5.5 12.665 C 6.386667 12.665 6.386667 11.335 5.5 11.335 L 4.5 11.335 C 3.613333 11.335 3.613333 12.665 4.5 12.665 Z M 19.5 11.335 L 19.5 12.665 L 19.5 11.335 Z M 19.5 12.665 C 20.38667 12.665 20.38667 11.335 19.5 11.335 L 18.5 11.335 C 17.61333 11.335 17.61333 12.665 18.5 12.665 L 20.5 12.665 C 21.38667 12.665 21.38667 11.335 20.5 11.335 L 19.5 11.335 C 18.61333 11.335 18.61333 12.665 19.5 12.665 Z M 7.166925 6.226473 L 6.226473 7.166925 L 7.166925 6.226473 Z M 6.226473 7.166925 C 6.853441 7.793893 7.793893 6.853441 7.166925 6.226473 L 6.459818 5.519366 C 5.83285 4.892398 4.892398 5.83285 5.519366 6.459818 L 6.93358 7.874032 C 7.560548 8.501 8.501 7.560548 7.874032 6.93358 L 7.166925 6.226473 C 6.539957 5.599505 5.599505 6.539957 6.226473 7.166925 Z M 17.77353 16.83307 L 16.83307 17.77353 L 17.77353 16.83307 Z M 16.83307 17.77353 C 17.46004 18.40049 18.40049 17.46004 17.77353 16.83307 L 17.06642 16.12597 C 16.43945 15.499 15.499 16.43945 16.12597 17.06642 L 17.54018 18.48063 C 18.16715 19.1076 19.1076 18.16715 18.48063 17.54018 L 17.77353 16.83307 C 17.14656 16.20611 16.20611 17.14656 16.83307 17.77353 Z M 16.83307 6.226473 L 17.77353 7.166925 L 16.83307 6.226473 Z M 17.77353 7.166925 C 18.40049 6.539957 17.46004 5.599505 16.83307 6.226473 L 16.12597 6.93358 C 15.499 7.560548 16.43945 8.501 17.06642 7.874032 L 18.48063 6.459818 C 19.1076 5.83285 18.16715 4.892398 17.54018 5.519366 L 16.83307 6.226473 C 16.20611 6.853441 17.14656 7.793893 17.77353 7.166925 Z M 6.226473 16.83307 L 7.166925 17.77353 L 6.226473 16.83307 Z M 7.166925 17.77353 C 7.793893 17.14656 6.853441 16.20611 6.226473 16.83307 L 5.519366 17.54018 C 4.892398 18.16715 5.83285 19.1076 6.459818 18.48063 L 7.874032 17.06642 C 8.501 16.43945 7.560548 15.499 6.93358 16.12597 L 6.226473 16.83307 C 5.599505 17.46004 6.539957 18.40049 7.166925 17.77353 Z "/>
</clipPath>
<g clip-path="url(#cp0)">
<path transform="matrix(1,0,0,-1,0,24)" d="M -2.165 26.165 L 26.165 26.165 L 26.165 -2.165 L -2.165 -2.165 Z "/>
</g>
</g>
</svg>
