<?xml version="1.0" encoding="UTF-8" standalone="no"?>
<!DOCTYPE svg PUBLIC "-//W3C//DTD SVG 1.1//EN" "http://www.w3.org/Graphics/SVG/1.1/DTD/svg11.dtd">
<svg xmlns="http://www.w3.org/2000/svg" xmlns:xlink="http://www.w3.org/1999/xlink" version="1.1" width="24pt" height="24pt" viewBox="0 0 24 24">
<g enable-background="new">
<clipPath id="cp0">
<path transform="matrix(1,0,0,-1,0,24)" d="M 6.665 5.665 L 9 5.665 C 9.367269 5.665 9.665 5.367269 9.665 5 C 9.665 4.632731 9.367269 4.335 9 4.335 L 6.665 4.335 L 6.665 2 C 6.665 1.632731 6.367269 1.335 6 1.335 C 5.632731 1.335 5.335 1.632731 5.335 2 L 5.335 4.335 L 3 4.335 C 2.632731 4.335 2.335 4.632731 2.335 5 C 2.335 5.367269 2.632731 5.665 3 5.665 L 5.335 5.665 L 5.335 8 C 5.335 8.367269 5.632731 8.665 6 8.665 C 6.367269 8.665 6.665 8.367269 6.665 8 L 6.665 5.665 Z M 13 13.335 C 10.97588 13.335 9.335 14.97588 9.335 17 C 9.335 19.02412 10.97588 20.665 13 20.665 C 15.02412 20.665 16.665 19.02412 16.665 17 C 16.665 14.97588 15.02412 13.335 13 13.335 Z M 13 14.665 C 14.28958 14.665 15.335 15.71042 15.335 17 C 15.335 18.28958 14.28958 19.335 13 19.335 C 11.71042 19.335 10.665 18.28958 10.665 17 C 10.665 15.71042 11.71042 14.665 13 14.665 Z M 8.44256 9.003455 C 8.163004 8.765263 7.743286 8.798796 7.505095 9.078352 C 7.266903 9.357908 7.300435 9.777625 7.579991 10.01582 C 8.8793 11.12287 10.69397 11.665 13 11.665 C 16.82709 11.665 19.30448 10.15384 20.26183 7.159337 C 20.62599 6.020417 19.99788 4.801944 18.85895 4.437824 C 18.64582 4.369687 18.42341 4.335 18.19966 4.335 L 11.5 4.335 C 11.13273 4.335 10.835 4.632731 10.835 5 C 10.835 5.367269 11.13273 5.665 11.5 5.665 L 18.19966 5.665 C 18.28596 5.665 18.37174 5.678378 18.45394 5.704658 C 18.89321 5.845094 19.13546 6.31503 18.995 6.754304 C 18.22887 9.150696 16.28732 10.335 13 10.335 C 10.98664 10.335 9.475491 9.883549 8.44256 9.003455 Z "/>
</clipPath>
<g clip-path="url(#cp0)">
<path transform="matrix(1,0,0,-1,0,24)" d="M -2.665 25.665 L 25.36526 25.665 L 25.36526 -3.665 L -2.665 -3.665 Z "/>
</g>
</g>
</svg>
