<?xml version="1.0" encoding="UTF-8" standalone="no"?>
<!DOCTYPE svg PUBLIC "-//W3C//DTD SVG 1.1//EN" "http://www.w3.org/Graphics/SVG/1.1/DTD/svg11.dtd">
<svg xmlns="http://www.w3.org/2000/svg" xmlns:xlink="http://www.w3.org/1999/xlink" version="1.1" width="24pt" height="24pt" viewBox="0 0 24 24">
<g enable-background="new">
<clipPath id="cp0">
<path transform="matrix(1,0,0,-1,0,24)" d="M 18 13.335 C 15.97588 13.335 14.335 14.97588 14.335 17 C 14.335 19.02412 15.97588 20.665 18 20.665 C 20.02412 20.665 21.665 19.02412 21.665 17 C 21.665 14.97588 20.02412 13.335 18 13.335 Z M 18 14.665 C 19.28958 14.665 20.335 15.71042 20.335 17 C 20.335 18.28958 19.28958 19.335 18 19.335 C 16.71042 19.335 15.665 18.28958 15.665 17 C 15.665 15.71042 16.71042 14.665 18 14.665 Z M 8.665 6 L 8.665 3.480851 L 11.91612 6.370732 C 12.12937 6.560291 12.40477 6.665 12.6901 6.665 L 17 6.665 C 18.28958 6.665 19.335 7.710415 19.335 9 L 19.335 12 C 19.335 12.36727 19.63273 12.665 20 12.665 C 20.36727 12.665 20.665 12.36727 20.665 12 L 20.665 9 C 20.665 6.975876 19.02412 5.335 17 5.335 L 12.75283 5.335 L 9.273984 2.24269 C 8.793092 1.815231 8.056728 1.858546 7.629268 2.339438 C 7.439709 2.552693 7.335 2.828097 7.335 3.113422 L 7.335 5.335 L 7 5.335 C 4.975876 5.335 3.335 6.975876 3.335 9 L 3.335 16 C 3.335 18.02412 4.975876 19.665 7 19.665 L 13 19.665 C 13.36727 19.665 13.665 19.36727 13.665 19 C 13.665 18.63273 13.36727 18.335 13 18.335 L 7 18.335 C 5.710415 18.335 4.665 17.28958 4.665 16 L 4.665 9 C 4.665 7.710415 5.710415 6.665 7 6.665 L 8 6.665 C 8.367269 6.665 8.665 6.367269 8.665 6 Z "/>
</clipPath>
<g clip-path="url(#cp0)">
<path transform="matrix(1,0,0,-1,0,24)" d="M -1.665 25.665 L 26.665 25.665 L 26.665 -3.051591 L -1.665 -3.051591 Z "/>
</g>
</g>
</svg>
