<?xml version="1.0" encoding="UTF-8" standalone="no"?>
<!DOCTYPE svg PUBLIC "-//W3C//DTD SVG 1.1//EN" "http://www.w3.org/Graphics/SVG/1.1/DTD/svg11.dtd">
<svg xmlns="http://www.w3.org/2000/svg" xmlns:xlink="http://www.w3.org/1999/xlink" version="1.1" width="24pt" height="24pt" viewBox="0 0 24 24">
<g enable-background="new">
<clipPath id="cp0">
<path transform="matrix(1,0,0,-1,0,24)" d="M 11.335 20.89455 L 9.470226 19.02977 C 9.210527 18.77008 8.789473 18.77008 8.529774 19.02977 C 8.270075 19.28947 8.270075 19.71053 8.529774 19.97023 L 11.52977 22.97023 C 11.78947 23.22992 12.21053 23.22992 12.47023 22.97023 L 15.47023 19.97023 C 15.72992 19.71053 15.72992 19.28947 15.47023 19.02977 C 15.21053 18.77008 14.78947 18.77008 14.52977 19.02977 L 12.665 20.89455 L 12.665 11.5 C 12.665 11.13273 12.36727 10.835 12 10.835 C 11.63273 10.835 11.335 11.13273 11.335 11.5 L 11.335 20.89455 Z M 15 16.335 C 14.63273 16.335 14.335 16.63273 14.335 17 C 14.335 17.36727 14.63273 17.665 15 17.665 L 17 17.665 C 18.47184 17.665 19.665 16.47184 19.665 15 L 19.665 7 C 19.665 5.528161 18.47184 4.335 17 4.335 L 7 4.335 C 5.528161 4.335 4.335 5.528161 4.335 7 L 4.335 15 C 4.335 16.47184 5.528161 17.665 7 17.665 L 9 17.665 C 9.367269 17.665 9.665 17.36727 9.665 17 C 9.665 16.63273 9.367269 16.335 9 16.335 L 7 16.335 C 6.2627 16.335 5.665 15.7373 5.665 15 L 5.665 7 C 5.665 6.2627 6.2627 5.665 7 5.665 L 17 5.665 C 17.7373 5.665 18.335 6.2627 18.335 7 L 18.335 15 C 18.335 15.7373 17.7373 16.335 17 16.335 L 15 16.335 Z "/>
</clipPath>
<g clip-path="url(#cp0)">
<path transform="matrix(1,0,0,-1,0,24)" d="M -.665 28.165 L 24.665 28.165 L 24.665 -.665 L -.665 -.665 Z "/>
</g>
</g>
</svg>
