<?xml version="1.0" encoding="UTF-8" standalone="no"?>
<!DOCTYPE svg PUBLIC "-//W3C//DTD SVG 1.1//EN" "http://www.w3.org/Graphics/SVG/1.1/DTD/svg11.dtd">
<svg xmlns="http://www.w3.org/2000/svg" xmlns:xlink="http://www.w3.org/1999/xlink" version="1.1" width="24pt" height="24pt" viewBox="0 0 24 24">
<g enable-background="new">
<clipPath id="cp0">
<path transform="matrix(1,0,0,-1,0,24)" d="M 8.335 18.35576 C 6.09916 17.06562 4.665 14.66491 4.665 12 C 4.665 7.948991 7.948991 4.665 12 4.665 C 16.05101 4.665 19.335 7.948991 19.335 12 C 19.335 16.05101 16.05101 19.335 12 19.335 C 11.63273 19.335 11.335 19.63273 11.335 20 C 11.335 20.36727 11.63273 20.665 12 20.665 C 16.78555 20.665 20.665 16.78555 20.665 12 C 20.665 7.214453 16.78555 3.335 12 3.335 C 7.214453 3.335 3.335 7.214453 3.335 12 C 3.335 15.03251 4.907363 17.77559 7.383813 19.335 L 5.5 19.335 C 5.132731 19.335 4.835 19.63273 4.835 20 C 4.835 20.36727 5.132731 20.665 5.5 20.665 L 9 20.665 C 9.367269 20.665 9.665 20.36727 9.665 20 L 9.665 16.5 C 9.665 16.13273 9.367269 15.835 9 15.835 C 8.632731 15.835 8.335 16.13273 8.335 16.5 L 8.335 18.35576 Z M 12.665 17 L 12.665 12.27545 L 15.47023 9.470226 C 15.72992 9.210527 15.72992 8.789473 15.47023 8.529774 C 15.21053 8.270075 14.78947 8.270075 14.52977 8.529774 L 11.52977 11.52977 C 11.40506 11.65449 11.335 11.82363 11.335 12 L 11.335 17 C 11.335 17.36727 11.63273 17.665 12 17.665 C 12.36727 17.665 12.665 17.36727 12.665 17 Z "/>
</clipPath>
<g clip-path="url(#cp0)">
<path transform="matrix(1,0,0,-1,0,24)" d="M -1.665 25.665 L 25.665 25.665 L 25.665 -1.665 L -1.665 -1.665 Z "/>
</g>
</g>
</svg>
