<?xml version="1.0" encoding="UTF-8" standalone="no"?>
<!DOCTYPE svg PUBLIC "-//W3C//DTD SVG 1.1//EN" "http://www.w3.org/Graphics/SVG/1.1/DTD/svg11.dtd">
<svg xmlns="http://www.w3.org/2000/svg" xmlns:xlink="http://www.w3.org/1999/xlink" version="1.1" width="24pt" height="24pt" viewBox="0 0 24 24">
<g enable-background="new">
<clipPath id="cp0">
<path transform="matrix(1,0,0,-1,0,24)" d="M 18.835 11 L 18.835 16.5 C 18.835 17.78958 17.78958 18.835 16.5 18.835 L 7.5 18.835 C 6.210415 18.835 5.165 17.78958 5.165 16.5 L 5.165 7.5 C 5.165 6.210415 6.210415 5.165 7.5 5.165 L 13 5.165 C 13.18502 5.165 13.335 5.314985 13.335 5.5 L 13.335 7.507019 C 12.9227 7.392024 12.47704 7.335 12 7.335 C 10.45086 7.335 9.240722 7.940071 8.446687 9.131124 C 8.242962 9.436711 8.325538 9.849589 8.631124 10.05331 C 8.936711 10.25704 9.349589 10.17446 9.553313 9.868876 C 10.09261 9.059929 10.88247 8.665 12 8.665 C 12.60601 8.665 13.11395 8.782436 13.53405 9.012443 C 13.93262 9.982181 14.88657 10.665 16 10.665 L 18.5 10.665 C 18.68502 10.665 18.835 10.81498 18.835 11 Z M 18.83304 9.368314 C 18.72543 9.346468 18.61405 9.335 18.5 9.335 L 16 9.335 C 15.2627 9.335 14.665 8.7373 14.665 8 L 14.665 5.5 C 14.665 5.385945 14.65353 5.274569 14.63169 5.166962 C 16.92118 5.235271 18.76473 7.078816 18.83304 9.368314 Z M 7.5 20.165 L 16.5 20.165 C 18.52412 20.165 20.165 18.52412 20.165 16.5 L 20.165 9.5 C 20.165 6.371307 17.62869 3.835 14.5 3.835 L 7.5 3.835 C 5.475876 3.835 3.835 5.475876 3.835 7.5 L 3.835 16.5 C 3.835 18.52412 5.475876 20.165 7.5 20.165 Z M 9.5 12.5 C 8.947715 12.5 8.5 13.05964 8.5 13.75 C 8.5 14.44036 8.947715 15 9.5 15 C 10.05228 15 10.5 14.44036 10.5 13.75 C 10.5 13.05964 10.05228 12.5 9.5 12.5 Z M 14.5 12.5 C 13.94772 12.5 13.5 13.05964 13.5 13.75 C 13.5 14.44036 13.94772 15 14.5 15 C 15.05228 15 15.5 14.44036 15.5 13.75 C 15.5 13.05964 15.05228 12.5 14.5 12.5 Z "/>
</clipPath>
<g clip-path="url(#cp0)">
<path transform="matrix(1,0,0,-1,0,24)" d="M -1.165 25.165 L 25.165 25.165 L 25.165 -1.165 L -1.165 -1.165 Z "/>
</g>
</g>
</svg>
