<?xml version="1.0" encoding="UTF-8" standalone="no"?>
<!DOCTYPE svg PUBLIC "-//W3C//DTD SVG 1.1//EN" "http://www.w3.org/Graphics/SVG/1.1/DTD/svg11.dtd">
<svg xmlns="http://www.w3.org/2000/svg" xmlns:xlink="http://www.w3.org/1999/xlink" version="1.1" width="24pt" height="24pt" viewBox="0 0 24 24">
<g enable-background="new">
<clipPath id="cp0">
<path transform="matrix(1,0,0,-1,0,24)" d="M 11.335 11.60545 L 11.335 21.5 C 11.335 21.86727 11.63273 22.165 12 22.165 C 12.36727 22.165 12.665 21.86727 12.665 21.5 L 12.665 11.60545 L 14.52977 13.47023 C 14.78947 13.72992 15.21053 13.72992 15.47023 13.47023 C 15.72992 13.21053 15.72992 12.78947 15.47023 12.52977 L 12.47023 9.529774 C 12.21053 9.270075 11.78947 9.270075 11.52977 9.529774 L 8.529774 12.52977 C 8.270075 12.78947 8.270075 13.21053 8.529774 13.47023 C 8.789473 13.72992 9.210527 13.72992 9.470226 13.47023 L 11.335 11.60545 Z M 15 16.335 C 14.63273 16.335 14.335 16.63273 14.335 17 C 14.335 17.36727 14.63273 17.665 15 17.665 L 17 17.665 C 18.47184 17.665 19.665 16.47184 19.665 15 L 19.665 7 C 19.665 5.528161 18.47184 4.335 17 4.335 L 7 4.335 C 5.528161 4.335 4.335 5.528161 4.335 7 L 4.335 15 C 4.335 16.47184 5.528161 17.665 7 17.665 L 9 17.665 C 9.367269 17.665 9.665 17.36727 9.665 17 C 9.665 16.63273 9.367269 16.335 9 16.335 L 7 16.335 C 6.2627 16.335 5.665 15.7373 5.665 15 L 5.665 7 C 5.665 6.2627 6.2627 5.665 7 5.665 L 17 5.665 C 17.7373 5.665 18.335 6.2627 18.335 7 L 18.335 15 C 18.335 15.7373 17.7373 16.335 17 16.335 L 15 16.335 Z "/>
</clipPath>
<g clip-path="url(#cp0)">
<path transform="matrix(1,0,0,-1,0,24)" d="M -.665 27.165 L 24.665 27.165 L 24.665 -.665 L -.665 -.665 Z "/>
</g>
</g>
</svg>
