<?xml version="1.0" encoding="UTF-8" standalone="no"?>
<!DOCTYPE svg PUBLIC "-//W3C//DTD SVG 1.1//EN" "http://www.w3.org/Graphics/SVG/1.1/DTD/svg11.dtd">
<svg xmlns="http://www.w3.org/2000/svg" xmlns:xlink="http://www.w3.org/1999/xlink" version="1.1" width="24pt" height="24pt" viewBox="0 0 24 24">
<g enable-background="new">
<clipPath id="cp0">
<path transform="matrix(1,0,0,-1,0,24)" d="M 6.738609 15.14007 L 7.947493 13.93119 L 7.796198 11.81305 C 7.699091 10.45356 7.115106 9.174654 6.151354 8.210902 L 5.605452 7.665 L 14.21368 7.665 L 15.54368 6.335 L 15.16077 6.335 C 15.07494 4.66371 13.69264 3.335 12 3.335 C 10.30736 3.335 8.925061 4.66371 8.839227 6.335 L 5.207107 6.335 C 4.563695 6.335 4.042107 6.856588 4.042107 7.5 C 4.042107 7.808977 4.164848 8.1053 4.383327 8.323779 L 5.210902 9.151354 C 5.948389 9.888841 6.395269 10.86749 6.469578 11.90781 L 6.658219 14.54878 C 6.672526 14.74909 6.699551 14.94649 6.738609 15.14007 Z M 8.322759 17.79856 C 8.638329 18.06191 8.991105 18.28548 9.374624 18.46041 C 9.592736 19.71283 10.68517 20.665 12 20.665 C 13.31483 20.665 14.40726 19.71283 14.62538 18.46041 C 16.17283 17.75458 17.21977 16.257 17.34178 14.54878 L 17.53042 11.90781 C 17.60473 10.86749 18.05161 9.888841 18.7891 9.151354 L 19.61667 8.323779 C 20.07163 7.868819 20.07163 7.131181 19.61667 6.676221 C 19.58789 6.647435 19.55775 6.620311 19.52641 6.59491 L 17.38298 8.73834 C 16.69735 9.619704 16.2841 10.68882 16.2038 11.81305 L 16.01516 14.45402 C 15.92415 15.72821 15.11329 16.83846 13.92722 17.31288 L 13.75303 17.38256 C 13.50055 17.48355 13.335 17.72808 13.335 18 C 13.335 18.7373 12.7373 19.335 12 19.335 C 11.2627 19.335 10.665 18.7373 10.665 18 C 10.665 17.72808 10.49945 17.48355 10.24697 17.38256 L 10.07278 17.31288 C 9.780154 17.19583 9.510371 17.04008 9.268602 16.85272 L 8.322759 17.79856 Z M 10.17232 6.335 C 10.25574 5.398866 11.04217 4.665 12 4.665 C 12.95783 4.665 13.74426 5.398866 13.82768 6.335 L 10.17232 6.335 Z M 4.529774 18.52977 C 4.270075 18.78947 4.270075 19.21053 4.529774 19.47023 C 4.789473 19.72992 5.210527 19.72992 5.470226 19.47023 L 20.47023 4.470226 C 20.72992 4.210527 20.72992 3.789473 20.47023 3.529774 C 20.21053 3.270075 19.78947 3.270075 19.52977 3.529774 L 4.529774 18.52977 Z "/>
</clipPath>
<g clip-path="url(#cp0)">
<path transform="matrix(1,0,0,-1,0,24)" d="M -.9578932 25.665 L 25.665 25.665 L 25.665 -1.665 L -.9578932 -1.665 Z "/>
</g>
</g>
</svg>
