<?xml version="1.0" encoding="UTF-8" standalone="no"?>
<!DOCTYPE svg PUBLIC "-//W3C//DTD SVG 1.1//EN" "http://www.w3.org/Graphics/SVG/1.1/DTD/svg11.dtd">
<svg xmlns="http://www.w3.org/2000/svg" xmlns:xlink="http://www.w3.org/1999/xlink" version="1.1" width="24pt" height="24pt" viewBox="0 0 24 24">
<g enable-background="new">
<clipPath id="cp0">
<path transform="matrix(1,0,0,-1,0,24)" d="M 12.97023 14.97023 L 14.96244 12.97801 L 20.49509 19.43278 C 20.73411 19.71163 21.15392 19.74392 21.43278 19.50491 C 21.71163 19.26589 21.74392 18.84608 21.50491 18.56722 L 15.50491 11.56722 C 15.25281 11.27311 14.80369 11.25586 14.52977 11.52977 L 12.02977 14.02977 C 11.77008 14.28947 11.77008 14.71053 12.02977 14.97023 C 12.28947 15.22992 12.71053 15.22992 12.97023 14.97023 Z M 8.665 6 L 8.665 3.480851 L 11.91612 6.370732 C 12.12937 6.560291 12.40477 6.665 12.6901 6.665 L 17 6.665 C 18.28958 6.665 19.335 7.710415 19.335 9 L 19.335 13.5 C 19.335 13.86727 19.63273 14.165 20 14.165 C 20.36727 14.165 20.665 13.86727 20.665 13.5 L 20.665 9 C 20.665 6.975876 19.02412 5.335 17 5.335 L 12.75283 5.335 L 9.273984 2.24269 C 8.793092 1.815231 8.056728 1.858546 7.629268 2.339438 C 7.439709 2.552693 7.335 2.828097 7.335 3.113422 L 7.335 5.335 L 7 5.335 C 4.975876 5.335 3.335 6.975876 3.335 9 L 3.335 16 C 3.335 18.02412 4.975876 19.665 7 19.665 L 17 19.665 C 17.36727 19.665 17.665 19.36727 17.665 19 C 17.665 18.63273 17.36727 18.335 17 18.335 L 7 18.335 C 5.710415 18.335 4.665 17.28958 4.665 16 L 4.665 9 C 4.665 7.710415 5.710415 6.665 7 6.665 L 8 6.665 C 8.367269 6.665 8.665 6.367269 8.665 6 Z "/>
</clipPath>
<g clip-path="url(#cp0)">
<path transform="matrix(1,0,0,-1,0,24)" d="M -1.665 24.66501 L 26.66501 24.66501 L 26.66501 -3.051591 L -1.665 -3.051591 Z "/>
</g>
</g>
</svg>
