<?xml version="1.0" encoding="UTF-8" standalone="no"?>
<!DOCTYPE svg PUBLIC "-//W3C//DTD SVG 1.1//EN" "http://www.w3.org/Graphics/SVG/1.1/DTD/svg11.dtd">
<svg xmlns="http://www.w3.org/2000/svg" xmlns:xlink="http://www.w3.org/1999/xlink" version="1.1" width="24pt" height="24pt" viewBox="0 0 24 24">
<g enable-background="new">
<clipPath id="cp0">
<path transform="matrix(1,0,0,-1,0,24)" d="M 13.87856 18.11084 C 13.77895 18.11084 13.72915 18.17725 13.71254 18.26855 C 13.44692 19.64648 13.47182 19.67969 12.01919 19.96191 C 11.92788 19.97852 11.86147 20.02832 11.86147 20.12793 C 11.86147 20.23584 11.92788 20.28564 12.01919 20.30225 C 13.46352 20.59277 13.44692 20.61768 13.71254 21.99561 C 13.72915 22.08691 13.77895 22.15332 13.87856 22.15332 C 13.97817 22.15332 14.03628 22.08691 14.05288 21.99561 C 14.3102 20.61768 14.3019 20.59277 15.73794 20.30225 C 15.83754 20.28564 15.89565 20.23584 15.89565 20.12793 C 15.89565 20.02832 15.83754 19.97852 15.73794 19.96191 C 14.3019 19.67969 14.3102 19.64648 14.05288 18.26855 C 14.03628 18.17725 13.97817 18.11084 13.87856 18.11084 Z M 17.85463 12.49951 C 17.69692 12.49951 17.58901 12.60742 17.57241 12.74854 C 17.29018 14.97314 17.20717 14.98145 14.90786 15.40479 C 14.75844 15.43799 14.65053 15.5293 14.65053 15.68701 C 14.65053 15.84473 14.75844 15.95264 14.90786 15.96924 C 17.20717 16.29297 17.28188 16.36768 17.57241 18.61719 C 17.58901 18.7666 17.69692 18.87451 17.85463 18.87451 C 18.00405 18.87451 18.11196 18.7666 18.12856 18.60889 C 18.40249 16.38428 18.527 16.40088 20.79311 15.96924 C 20.94253 15.94434 21.05044 15.84473 21.05044 15.68701 C 21.05044 15.521 20.94253 15.43799 20.75991 15.40479 C 18.5104 15.05615 18.40249 14.98975 18.12856 12.76514 C 18.11196 12.60742 18.00405 12.49951 17.85463 12.49951 Z M 11.74896 4.335 C 7.466237 4.335 4.335 7.42542 4.335 11.60708 C 4.335 14.71597 6.102001 17.50144 8.769496 18.54762 C 9.303774 18.75211 9.840022 18.7036 10.22336 18.27768 C 10.52554 17.8968 10.5167 17.39568 10.28099 16.91287 C 10.0805 16.51386 9.922158 15.65622 9.922158 14.80957 C 9.922158 11.73577 11.88749 9.823573 15.06877 9.823573 C 15.84111 9.823573 16.50137 9.934231 17.07357 10.15874 C 17.52833 10.31931 18.00054 10.28281 18.33625 9.969622 C 18.72015 9.608827 18.75333 9.052184 18.51845 8.543537 C 17.32556 5.8942 14.81949 4.335 11.74896 4.335 Z M 5.665 11.60708 C 5.665 8.163893 8.196898 5.665 11.74896 5.665 C 14.1781 5.665 16.12897 6.803747 17.15516 8.779012 C 16.53325 8.587785 15.83739 8.493573 15.06877 8.493573 C 11.16098 8.493573 8.592158 10.99295 8.592158 14.80957 C 8.592158 15.67973 8.729211 16.56225 8.951819 17.17911 C 6.980318 16.25314 5.665 14.06359 5.665 11.60708 Z "/>
</clipPath>
<g clip-path="url(#cp0)">
<path transform="matrix(1,0,0,-1,0,24)" d="M -.665 27.15332 L 26.05044 27.15332 L 26.05044 -.665 L -.665 -.665 Z "/>
</g>
</g>
</svg>
