<?xml version="1.0" encoding="UTF-8" standalone="no"?>
<!DOCTYPE svg PUBLIC "-//W3C//DTD SVG 1.1//EN" "http://www.w3.org/Graphics/SVG/1.1/DTD/svg11.dtd">
<svg xmlns="http://www.w3.org/2000/svg" xmlns:xlink="http://www.w3.org/1999/xlink" version="1.1" width="24pt" height="24pt" viewBox="0 0 24 24">
<g enable-background="new">
<clipPath id="cp0">
<path transform="matrix(1,0,0,-1,0,24)" d="M 12 20.665 C 16.69854 20.665 20.52363 16.92534 20.66117 12.26011 L 20.665 12 L 20.665 10 C 20.665 8.528161 19.47184 7.335 18 7.335 C 16.89439 7.335 15.94602 8.008262 15.54253 8.967169 C 14.68905 7.968076 13.41846 7.335 12 7.335 C 9.423592 7.335 7.335 9.423592 7.335 12 C 7.335 14.57641 9.423592 16.665 12 16.665 C 13.30922 16.665 14.49248 16.12567 15.33972 15.25707 L 15.335 15.2 C 15.335 15.56727 15.63273 15.865 16 15.865 C 16.33388 15.865 16.61029 15.61894 16.65779 15.29827 L 16.665 15.2 L 16.665 10 C 16.665 9.2627 17.2627 8.665 18 8.665 C 18.69393 8.665 19.2642 9.19445 19.32889 9.871431 L 19.335 10 L 19.335 12 C 19.335 15.96999 16.18105 19.20333 12.24212 19.33108 L 12 19.335 C 7.948991 19.335 4.665 16.05101 4.665 12 C 4.665 11.65314 4.689029 11.30957 4.736536 10.97092 L 4.756978 10.83517 C 5.315048 7.337733 8.345399 4.665 12 4.665 C 13.12721 4.665 14.21688 4.919003 15.20716 5.401284 C 15.53735 5.562093 15.93538 5.424781 16.09619 5.094588 C 16.257 4.764395 16.11969 4.36636 15.7895 4.205551 C 14.61878 3.635392 13.3301 3.335 12 3.335 C 7.655303 3.335 4.057449 6.532615 3.431442 10.70284 L 3.381118 11.10056 L 3.35573 11.39628 C 3.341975 11.59581 3.335 11.79709 3.335 12 C 3.335 16.78555 7.214453 20.665 12 20.665 Z M 12 15.335 C 10.15813 15.335 8.665 13.84187 8.665 12 C 8.665 10.15813 10.15813 8.665 12 8.665 C 13.84187 8.665 15.335 10.15813 15.335 12 C 15.335 13.84187 13.84187 15.335 12 15.335 Z " fill-rule="evenodd"/>
</clipPath>
<g clip-path="url(#cp0)">
<path transform="matrix(1,0,0,-1,0,24)" d="M -1.665 25.665 L 25.665 25.665 L 25.665 -1.665 L -1.665 -1.665 Z "/>
</g>
</g>
</svg>
