<?xml version="1.0" encoding="UTF-8" standalone="no"?>
<!DOCTYPE svg PUBLIC "-//W3C//DTD SVG 1.1//EN" "http://www.w3.org/Graphics/SVG/1.1/DTD/svg11.dtd">
<svg xmlns="http://www.w3.org/2000/svg" xmlns:xlink="http://www.w3.org/1999/xlink" version="1.1" width="24pt" height="24pt" viewBox="0 0 24 24">
<g enable-background="new">
<clipPath id="cp0">
<path transform="matrix(1,0,0,-1,0,24)" d="M 11.6122 19.54034 C 11.8432 19.70655 12.1568 19.70655 12.3878 19.54034 L 12.47023 19.47023 L 12.54034 19.3878 C 12.70655 19.1568 12.70655 18.8432 12.54034 18.6122 L 12.47023 18.52977 L 6.605985 12.665 L 19 12.665 C 19.36727 12.665 19.665 12.36727 19.665 12 C 19.665 11.66612 19.41894 11.38971 19.09827 11.34221 L 19 11.335 L 6.604985 11.336 L 12.47023 5.470226 L 12.54034 5.387798 C 12.72733 5.12793 12.70395 4.763503 12.47023 4.529774 C 12.2365 4.296045 11.87207 4.272672 11.6122 4.459655 L 11.52977 4.529774 L 4.512435 11.54777 L 4.451484 11.62382 L 4.403665 11.7053 C 4.379967 11.75321 4.361814 11.8045 4.350149 11.85821 C 4.32991 11.95146 4.32991 12.04854 4.35027 12.14207 L 4.37242 12.22047 L 4.412579 12.31208 L 4.451228 12.37571 L 4.47652 12.41016 L 4.529774 12.47023 L 11.52977 19.47023 L 11.6122 19.54034 Z "/>
</clipPath>
<g clip-path="url(#cp0)">
<path transform="matrix(1,0,0,-1,0,24)" d="M -.6650152 24.665 L 24.665 24.665 L 24.665 -.665 L -.6650152 -.665 Z "/>
</g>
</g>
</svg>
