<?xml version="1.0" encoding="UTF-8" standalone="no"?>
<!DOCTYPE svg PUBLIC "-//W3C//DTD SVG 1.1//EN" "http://www.w3.org/Graphics/SVG/1.1/DTD/svg11.dtd">
<svg xmlns="http://www.w3.org/2000/svg" xmlns:xlink="http://www.w3.org/1999/xlink" version="1.1" width="24pt" height="24pt" viewBox="0 0 24 24">
<g enable-background="new">
<clipPath id="cp0">
<path transform="matrix(1,0,0,-1,0,24)" d="M 6 4 C 6.552285 4 7 3.552285 7 3 C 7 2.447715 6.552285 2 6 2 C 5.447715 2 5 2.447715 5 3 C 5 3.552285 5.447715 4 6 4 Z M 12 11.665 C 15.82709 11.665 18.30448 10.15384 19.26183 7.159337 C 19.62599 6.020417 18.99788 4.801944 17.85895 4.437824 C 17.6991 4.386721 17.53404 4.354434 17.3671 4.341484 L 17.19966 4.335 L 9 4.335 C 8.632731 4.335 8.335 4.632731 8.335 5 C 8.335 5.333881 8.581058 5.610292 8.901731 5.65779 L 9 5.665 L 17.19966 5.665 C 17.28596 5.665 17.37174 5.678378 17.45394 5.704658 C 17.89321 5.845094 18.13546 6.31503 17.995 6.754304 C 17.22887 9.150696 15.28732 10.335 12 10.335 C 11.83913 10.335 11.68137 10.33211 11.52674 10.32633 C 11.15972 10.31262 10.85108 10.59902 10.83737 10.96604 C 10.82366 11.33305 11.11007 11.64169 11.47708 11.6554 C 11.64841 11.6618 11.82272 11.665 12 11.665 Z M 6 13.665 C 8.024124 13.665 9.665 12.02412 9.665 10 C 9.665 8.237054 8.420256 6.764833 6.761688 6.414257 L 6.665 6.397 L 6.665 5.5 C 6.665 5.166119 6.418942 4.889708 6.098269 4.84221 L 6 4.835 C 5.666119 4.835 5.389708 5.081058 5.34221 5.401731 L 5.335 5.5 L 5.335 7 C 5.335 7.367269 5.632731 7.665 6 7.665 C 7.289585 7.665 8.335 8.710415 8.335 10 C 8.335 11.28958 7.289585 12.335 6 12.335 C 4.710415 12.335 3.665 11.28958 3.665 10 C 3.665 9.632731 3.367269 9.335 3 9.335 C 2.632731 9.335 2.335 9.632731 2.335 10 C 2.335 12.02412 3.975876 13.665 6 13.665 Z M 12 20.665 C 14.02412 20.665 15.665 19.02412 15.665 17 C 15.665 14.97588 14.02412 13.335 12 13.335 C 9.975876 13.335 8.335 14.97588 8.335 17 C 8.335 19.02412 9.975876 20.665 12 20.665 Z M 12 19.335 C 10.71042 19.335 9.665 18.28958 9.665 17 C 9.665 15.71042 10.71042 14.665 12 14.665 C 13.28958 14.665 14.335 15.71042 14.335 17 C 14.335 18.28958 13.28958 19.335 12 19.335 Z "/>
</clipPath>
<g clip-path="url(#cp0)">
<path transform="matrix(1,0,0,-1,0,24)" d="M -2.665 25.665 L 24.36526 25.665 L 24.36526 -3 L -2.665 -3 Z "/>
</g>
</g>
</svg>
