<?xml version="1.0" encoding="UTF-8" standalone="no"?>
<!DOCTYPE svg PUBLIC "-//W3C//DTD SVG 1.1//EN" "http://www.w3.org/Graphics/SVG/1.1/DTD/svg11.dtd">
<svg xmlns="http://www.w3.org/2000/svg" xmlns:xlink="http://www.w3.org/1999/xlink" version="1.1" width="24pt" height="24pt" viewBox="0 0 24 24">
<g enable-background="new">
<clipPath id="cp0">
<path transform="matrix(1,0,0,-1,0,24)" d="M 6 9.665 C 6.871157 9.665 7.58605 8.995957 7.658888 8.143663 L 7.665 8 L 7.665 6 C 7.665 5.128843 6.995957 4.41395 6.143663 4.341112 L 6 4.335 L 4 4.335 C 3.128843 4.335 2.41395 5.004043 2.341112 5.856337 L 2.335 6 L 2.335 8 C 2.335 8.871157 3.004043 9.58605 3.856337 9.658888 L 4 9.665 L 6 9.665 Z M 13 9.665 C 13.87116 9.665 14.58605 8.995957 14.65889 8.143663 L 14.665 8 L 14.665 6 C 14.665 5.128843 13.99596 4.41395 13.14366 4.341112 L 13 4.335 L 11 4.335 C 10.12884 4.335 9.41395 5.004043 9.341112 5.856337 L 9.335 6 L 9.335 8 C 9.335 8.871157 10.00404 9.58605 10.85634 9.658888 L 11 9.665 L 13 9.665 Z M 20 9.665 C 20.87116 9.665 21.58605 8.995957 21.65889 8.143663 L 21.665 8 L 21.665 6 C 21.665 5.128843 20.99596 4.41395 20.14366 4.341112 L 20 4.335 L 18 4.335 C 17.12884 4.335 16.41395 5.004043 16.34111 5.856337 L 16.335 6 L 16.335 8 C 16.335 8.871157 17.00404 9.58605 17.85634 9.658888 L 18 9.665 L 20 9.665 Z M 6 8.335 L 4 8.335 C 3.838112 8.335 3.703044 8.220168 3.671806 8.067514 L 3.665 8 L 3.665 6 C 3.665 5.838112 3.779832 5.703044 3.932486 5.671806 L 4 5.665 L 6 5.665 C 6.161888 5.665 6.296956 5.779832 6.328194 5.932486 L 6.335 6 L 6.335 8 C 6.335 8.161888 6.220168 8.296956 6.067514 8.328194 L 6 8.335 Z M 13 8.335 L 11 8.335 C 10.83811 8.335 10.70304 8.220168 10.67181 8.067514 L 10.665 8 L 10.665 6 C 10.665 5.838112 10.77983 5.703044 10.93249 5.671806 L 11 5.665 L 13 5.665 C 13.16189 5.665 13.29696 5.779832 13.32819 5.932486 L 13.335 6 L 13.335 8 C 13.335 8.161888 13.22017 8.296956 13.06751 8.328194 L 13 8.335 Z M 20 8.335 L 18 8.335 C 17.83811 8.335 17.70304 8.220168 17.67181 8.067514 L 17.665 8 L 17.665 6 C 17.665 5.838112 17.77983 5.703044 17.93249 5.671806 L 18 5.665 L 20 5.665 C 20.16189 5.665 20.29696 5.779832 20.32819 5.932486 L 20.335 6 L 20.335 8 C 20.335 8.161888 20.22017 8.296956 20.06751 8.328194 L 20 8.335 Z M 17 19.665 C 18.41523 19.665 19.57281 18.56186 19.65976 17.16854 L 19.665 17 L 19.665 13 C 19.665 12.63273 19.36727 12.335 19 12.335 C 18.66612 12.335 18.38971 12.58106 18.34221 12.90173 L 18.335 13 L 18.335 17 C 18.335 17.69393 17.80555 18.2642 17.12857 18.32889 L 17 18.335 L 7 18.335 C 6.30607 18.335 5.735801 17.80555 5.671111 17.12857 L 5.665 17 L 5.664 14.107 L 7.529774 15.97023 L 7.612202 16.04034 C 7.87207 16.22733 8.236497 16.20395 8.470226 15.97023 C 8.703955 15.7365 8.727328 15.37207 8.540345 15.1122 L 8.470226 15.02977 L 5.470226 12.02977 L 5.387798 11.95966 C 5.156804 11.79345 4.843196 11.79345 4.612202 11.95966 L 4.529774 12.02977 L 1.529774 15.02977 L 1.459655 15.1122 C 1.293448 15.3432 1.293448 15.6568 1.459655 15.8878 L 1.529774 15.97023 L 1.612202 16.04034 C 1.843196 16.20655 2.156804 16.20655 2.387798 16.04034 L 2.470226 15.97023 L 4.334 14.107 L 4.335 17 C 4.335 18.41523 5.438145 19.57281 6.831461 19.65976 L 7 19.665 L 17 19.665 Z "/>
</clipPath>
<g clip-path="url(#cp0)">
<clipPath id="cp1">
<path transform="matrix(1,0,0,-1,0,24)" d="M 0 0 L 24 0 L 24 24 L 0 24 Z "/>
</clipPath>
<g clip-path="url(#cp1)">
<path transform="matrix(1,0,0,-1,0,24)" d="M -3.665 24.665 L 26.665 24.665 L 26.665 -.665 L -3.665 -.665 Z "/>
</g>
</g>
</g>
</svg>
