<?xml version="1.0" encoding="UTF-8" standalone="no"?>
<!DOCTYPE svg PUBLIC "-//W3C//DTD SVG 1.1//EN" "http://www.w3.org/Graphics/SVG/1.1/DTD/svg11.dtd">
<svg xmlns="http://www.w3.org/2000/svg" xmlns:xlink="http://www.w3.org/1999/xlink" version="1.1" width="24pt" height="24pt" viewBox="0 0 24 24">
<g enable-background="new">
<clipPath id="cp0">
<path transform="matrix(1,0,0,-1,0,24)" d="M 16 19.665 C 20.23326 19.665 23.665 16.23326 23.665 12 C 23.665 7.766737 20.23326 4.335 16 4.335 C 15.7739 4.335 13.10724 4.335 8 4.335 C 3.766737 4.335 .335 7.766737 .335 12 C .335 16.15185 3.636017 19.53271 7.756681 19.66121 L 8 19.665 C 13.10724 19.665 15.7739 19.665 16 19.665 Z M 16 18.335 C 12.50128 18.335 9.665 15.49872 9.665 12 C 9.665 8.501276 12.50128 5.665 16 5.665 C 19.49872 5.665 22.335 8.501276 22.335 12 C 22.335 15.49872 19.49872 18.335 16 18.335 Z M 11.67121 18.32653 L 11.53762 18.31838 C 8.254765 18.08158 5.665 15.34323 5.665 12 C 5.665 8.611477 8.325418 5.844329 11.67144 5.673374 C 9.656603 7.054573 8.335 9.372948 8.335 12 C 8.335 14.62705 9.656603 16.94543 11.67121 18.32653 Z M 7.671164 18.3265 L 7.53762 18.31838 C 4.254765 18.08158 1.665 15.34323 1.665 12 C 1.665 8.611477 4.325418 5.844329 7.671436 5.673374 C 5.656603 7.054573 4.335 9.372948 4.335 12 C 4.335 14.62703 5.656582 16.94539 7.671164 18.3265 Z M 19.4836 14.70218 C 19.73943 14.49287 19.79895 14.13258 19.63875 13.85539 L 19.57718 13.7664 L 15.6839 9.007944 C 15.40943 8.672473 14.92955 8.65692 14.63265 8.937382 L 14.56246 9.013651 L 12.85572 11.14708 C 12.62629 11.43387 12.67279 11.85235 12.95958 12.08178 C 13.21769 12.28827 13.58247 12.27125 13.8201 12.05671 L 13.89428 11.97792 L 15.13 10.433 L 18.54782 14.6086 C 18.78039 14.89285 19.19935 14.93475 19.4836 14.70218 Z "/>
</clipPath>
<g clip-path="url(#cp0)">
<path transform="matrix(1,0,0,-1,0,24)" d="M -4.665 24.665 L 28.665 24.665 L 28.665 -.665 L -4.665 -.665 Z "/>
</g>
</g>
</svg>
