<?xml version="1.0" encoding="UTF-8" standalone="no"?>
<!DOCTYPE svg PUBLIC "-//W3C//DTD SVG 1.1//EN" "http://www.w3.org/Graphics/SVG/1.1/DTD/svg11.dtd">
<svg xmlns="http://www.w3.org/2000/svg" xmlns:xlink="http://www.w3.org/1999/xlink" version="1.1" width="24pt" height="24pt" viewBox="0 0 24 24">
<g enable-background="new">
<clipPath id="cp0">
<path transform="matrix(1,0,0,-1,0,24)" d="M 4.665 19.99989 C 4.998881 19.99989 5.275292 19.75383 5.32279 19.43316 L 5.33 19.33489 L 5.33 6.334886 C 5.33 6.172998 5.444832 6.03793 5.597486 6.006692 L 5.665 5.999886 L 18.665 5.999886 C 19.03227 5.999886 19.33 5.702156 19.33 5.334886 C 19.33 5.001005 19.08394 4.724594 18.76327 4.677097 L 18.665 4.669886 L 5.665 4.669886 C 4.793843 4.669886 4.07895 5.338929 4.006112 6.191224 L 4 6.334886 L 4 19.33489 C 4 19.70216 4.297731 19.99989 4.665 19.99989 Z M 18.99493 19.91227 C 19.28482 19.74662 19.40274 19.39584 19.28488 19.09385 L 19.24238 19.00495 L 15.24238 12.00495 C 15.07673 11.71506 14.72595 11.59715 14.42397 11.71501 L 14.33507 11.7575 L 11.407 13.43089 L 8.239413 7.999812 C 8.07118 7.711412 7.719364 7.596636 7.418441 7.717187 L 7.329926 7.760473 C 7.041526 7.928706 6.92675 8.280522 7.0473 8.581445 L 7.090587 8.66996 L 10.59059 14.66996 C 10.75609 14.95368 11.09954 15.06964 11.39758 14.95799 L 11.49493 14.91227 L 14.417 13.24289 L 18.08762 19.66482 C 18.26983 19.9837 18.67605 20.09448 18.99493 19.91227 Z "/>
</clipPath>
<g clip-path="url(#cp0)">
<path transform="matrix(1,0,0,-1,0,24)" d="M -1 25 L 24.33011 25 L 24.33011 -.3301138 L -1 -.3301138 Z "/>
</g>
</g>
</svg>
