<?xml version="1.0" encoding="UTF-8" standalone="no"?>
<!DOCTYPE svg PUBLIC "-//W3C//DTD SVG 1.1//EN" "http://www.w3.org/Graphics/SVG/1.1/DTD/svg11.dtd">
<svg xmlns="http://www.w3.org/2000/svg" xmlns:xlink="http://www.w3.org/1999/xlink" version="1.1" width="24pt" height="24pt" viewBox="0 0 24 24">
<g enable-background="new">
<clipPath id="cp0">
<path transform="matrix(1,0,0,-1,0,24)" d="M 12 20.665 C 16.78555 20.665 20.665 16.78555 20.665 12 C 20.665 7.214453 16.78555 3.335 12 3.335 C 7.214453 3.335 3.335 7.214453 3.335 12 C 3.335 16.78555 7.214453 20.665 12 20.665 Z M 12 19.335 C 7.948991 19.335 4.665 16.05101 4.665 12 C 4.665 7.948991 7.948991 4.665 12 4.665 C 16.05101 4.665 19.335 7.948991 19.335 12 C 19.335 16.05101 16.05101 19.335 12 19.335 Z M 15.9211 15.01468 C 16.17693 14.80537 16.23645 14.44508 16.07625 14.16789 L 16.01468 14.0789 L 11.56522 8.640664 C 11.28733 8.301022 10.8027 8.285248 10.50231 8.569167 L 10.43128 8.646376 L 8.480722 11.08458 C 8.251291 11.37137 8.297789 11.78985 8.584578 12.01928 C 8.842688 12.22577 9.207467 12.20875 9.445098 11.99421 L 9.519278 11.91542 L 11.005 10.058 L 14.98532 14.9211 C 15.21789 15.20535 15.63685 15.24725 15.9211 15.01468 Z "/>
</clipPath>
<g clip-path="url(#cp0)">
<path transform="matrix(1,0,0,-1,0,24)" d="M -1.665 25.665 L 25.665 25.665 L 25.665 -1.665 L -1.665 -1.665 Z "/>
</g>
</g>
</svg>
