<?xml version="1.0" encoding="UTF-8" standalone="no"?>
<!DOCTYPE svg PUBLIC "-//W3C//DTD SVG 1.1//EN" "http://www.w3.org/Graphics/SVG/1.1/DTD/svg11.dtd">
<svg xmlns="http://www.w3.org/2000/svg" xmlns:xlink="http://www.w3.org/1999/xlink" version="1.1" width="24pt" height="24pt" viewBox="0 0 24 24">
<g enable-background="new">
<clipPath id="cp0">
<path transform="matrix(1,0,0,-1,0,24)" d="M 10 20.665 C 13.68098 20.665 16.665 17.68098 16.665 14 C 16.665 12.45853 16.1417 11.03927 15.26307 9.910201 L 19.5869 5.586899 C 19.91103 5.262763 19.91103 4.737237 19.5869 4.413101 C 19.28977 4.115977 18.82343 4.091217 18.4981 4.33882 L 18.4131 4.413101 L 14.0898 8.736934 C 12.96073 7.858297 11.54147 7.335 10 7.335 C 6.319022 7.335 3.335 10.31902 3.335 14 C 3.335 17.68098 6.319022 20.665 10 20.665 Z M 10 19.335 C 7.053561 19.335 4.665 16.94644 4.665 14 C 4.665 11.05356 7.053561 8.665 10 8.665 C 12.94644 8.665 15.335 11.05356 15.335 14 C 15.335 16.94644 12.94644 19.335 10 19.335 Z "/>
</clipPath>
<g clip-path="url(#cp0)">
<path transform="matrix(1,0,0,-1,0,24)" d="M -1.665 25.665 L 24.83 25.665 L 24.83 -.83 L -1.665 -.83 Z "/>
</g>
</g>
</svg>
