<?xml version="1.0" encoding="UTF-8" standalone="no"?>
<!DOCTYPE svg PUBLIC "-//W3C//DTD SVG 1.1//EN" "http://www.w3.org/Graphics/SVG/1.1/DTD/svg11.dtd">
<svg xmlns="http://www.w3.org/2000/svg" xmlns:xlink="http://www.w3.org/1999/xlink" version="1.1" width="24pt" height="24pt" viewBox="0 0 24 24">
<g enable-background="new">
<clipPath id="cp0">
<path transform="matrix(1,0,0,-1,0,24)" d="M 17 19.665 C 19.02412 19.665 20.665 18.02412 20.665 16 L 20.665 9 C 20.665 6.975876 19.02412 5.335 17 5.335 L 12.75283 5.335 L 9.273984 2.24269 C 8.793092 1.815231 8.056728 1.858546 7.629268 2.339438 C 7.439709 2.552693 7.335 2.828097 7.335 3.113422 L 7.335 5.335 L 7 5.335 C 4.975876 5.335 3.335 6.975876 3.335 9 L 3.335 9.5 C 3.335 9.867269 3.632731 10.165 4 10.165 C 4.367269 10.165 4.665 9.867269 4.665 9.5 L 4.665 9 C 4.665 7.710415 5.710415 6.665 7 6.665 L 8 6.665 C 8.367269 6.665 8.665 6.367269 8.665 6 L 8.665 3.480851 L 11.91612 6.370732 C 12.12937 6.560291 12.40477 6.665 12.6901 6.665 L 17 6.665 C 18.28958 6.665 19.335 7.710415 19.335 9 L 19.335 16 C 19.335 17.28958 18.28958 18.335 17 18.335 L 7 18.335 C 5.710415 18.335 4.665 17.28958 4.665 16 L 4.665 15.5 C 4.665 15.13273 4.367269 14.835 4 14.835 C 3.632731 14.835 3.335 15.13273 3.335 15.5 L 3.335 16 C 3.335 18.02412 4.975876 19.665 7 19.665 L 17 19.665 Z M 10.8878 16.04034 L 10.97023 15.97023 L 13.97023 12.97023 C 14.20395 12.7365 14.22733 12.37207 14.04034 12.1122 L 13.97023 12.02977 L 10.97023 9.029774 C 10.71053 8.770075 10.28947 8.770075 10.02977 9.029774 C 9.796045 9.263503 9.772672 9.62793 9.959655 9.887798 L 10.02977 9.970226 L 11.894 11.836 L 2 11.835 C 1.666119 11.835 1.389708 12.08106 1.34221 12.40173 L 1.335 12.5 C 1.335 12.83388 1.581058 13.11029 1.901731 13.15779 L 2 13.165 L 11.894 13.166 L 10.02977 15.02977 C 9.796045 15.2635 9.772672 15.62793 9.959655 15.8878 L 10.02977 15.97023 C 10.2635 16.20395 10.62793 16.22733 10.8878 16.04034 Z "/>
</clipPath>
<g clip-path="url(#cp0)">
<path transform="matrix(1,0,0,-1,0,24)" d="M -3.665 24.665 L 25.665 24.665 L 25.665 -3.051591 L -3.665 -3.051591 Z "/>
</g>
</g>
</svg>
