<?xml version="1.0" encoding="UTF-8" standalone="no"?>
<!DOCTYPE svg PUBLIC "-//W3C//DTD SVG 1.1//EN" "http://www.w3.org/Graphics/SVG/1.1/DTD/svg11.dtd">
<svg xmlns="http://www.w3.org/2000/svg" xmlns:xlink="http://www.w3.org/1999/xlink" version="1.1" width="24pt" height="24pt" viewBox="0 0 24 24">
<g enable-background="new">
<clipPath id="cp0">
<path transform="matrix(1,0,0,-1,0,24)" d="M 7 19.665 C 7.367269 19.665 7.665 19.36727 7.665 19 C 7.665 18.63273 7.367269 18.335 7 18.335 C 5.764148 18.335 4.752542 17.37489 4.670387 16.15987 L 4.665 16 L 4.665 9 C 4.665 7.764148 5.625112 6.752542 6.840132 6.670387 L 7 6.665 L 8 6.665 C 8.333881 6.665 8.610292 6.418942 8.65779 6.098269 L 8.665 6 L 8.665 3.481 L 11.91612 6.370732 C 12.09383 6.528698 12.3147 6.62774 12.54851 6.656366 L 12.6901 6.665 L 17 6.665 C 18.28958 6.665 19.335 7.710415 19.335 9 C 19.335 9.367269 19.63273 9.665 20 9.665 C 20.36727 9.665 20.665 9.367269 20.665 9 C 20.665 7.041171 19.12828 5.441262 17.19464 5.34008 L 17 5.335 L 12.752 5.335 L 9.273984 2.24269 C 8.825151 1.843728 8.153774 1.854863 7.718712 2.249104 L 7.629268 2.339438 C 7.471302 2.51715 7.37226 2.738022 7.343634 2.971828 L 7.335 3.113422 L 7.335 5.335 L 7 5.335 C 5.041171 5.335 3.441262 6.871721 3.34008 8.805356 L 3.335 9 L 3.335 16 C 3.335 18.02412 4.975876 19.665 7 19.665 Z M 13.43105 22.20327 L 13.54197 22.1973 C 14.05199 22.14203 14.449 21.71004 14.449 21.18533 L 14.44957 19.468 L 14.57913 19.4593 C 18.51763 19.1609 20.52861 16.58238 20.46613 11.95916 C 20.46227 11.67356 20.30754 11.41132 20.05941 11.26984 C 19.6727 11.04935 19.18045 11.18409 18.95995 11.57081 L 18.84909 11.75449 C 18.04694 13.01482 16.67683 13.73002 14.67888 13.88913 L 14.44957 13.905 L 14.449 12.22643 C 14.449 11.96782 14.35056 11.71889 14.17368 11.53022 C 13.78917 11.12008 13.14498 11.0993 12.73484 11.48381 L 7.910351 16.00967 C 7.525843 16.41981 7.546624 17.064 7.956765 17.44851 L 12.73484 21.92796 C 12.92351 22.10484 13.17244 22.20327 13.43105 22.20327 Z M 13.11957 20.466 L 9.109571 16.706 L 13.11957 12.947 L 13.119 14.58824 C 13.119 14.9555 13.41673 15.25324 13.784 15.25324 L 14.10568 15.2494 C 16.12139 15.20083 17.72557 14.6907 18.88663 13.71322 L 19.06157 13.559 L 19.03279 13.78222 C 18.60907 16.75687 16.89488 18.15853 13.784 18.15853 C 13.41673 18.15853 13.119 18.45626 13.119 18.82353 L 13.11957 20.466 Z " fill-rule="evenodd"/>
</clipPath>
<g clip-path="url(#cp0)">
<path transform="matrix(1,0,0,-1,0,24)" d="M -1.665 27.20327 L 25.665 27.20327 L 25.665 -3.051591 L -1.665 -3.051591 Z "/>
</g>
</g>
</svg>
