<?xml version="1.0" encoding="UTF-8" standalone="no"?>
<svg
   xmlns:dc="http://purl.org/dc/elements/1.1/"
   xmlns:cc="http://creativecommons.org/ns#"
   xmlns:rdf="http://www.w3.org/1999/02/22-rdf-syntax-ns#"
   xmlns:svg="http://www.w3.org/2000/svg"
   xmlns="http://www.w3.org/2000/svg"
   viewBox="0 0 16 13.333333"
   height="13.333333"
   width="16"
   xml:space="preserve"
   id="svg2"
   version="1.1"><metadata
     id="metadata8"><rdf:RDF><cc:Work
         rdf:about=""><dc:format>image/svg+xml</dc:format><dc:type
           rdf:resource="http://purl.org/dc/dcmitype/StillImage" /></cc:Work></rdf:RDF></metadata><defs
     id="defs6"><clipPath
       id="clipPath20"
       clipPathUnits="userSpaceOnUse"><path
         style="clip-rule:evenodd"
         id="path18"
         d="m 5.482972,7.088235 v 2.164984 c 0,0.17868 -0.144849,0.323529 -0.323529,0.323529 -0.082196,0 -0.16131,-0.031285 -0.221275,-0.087502 L 0.5582634,5.383086 C 0.4465314,5.278337 0.4257174,5.112951 0.499009,4.985747 L 0.5507686,4.918289 v 0 L 4.938168,0.8048718 C 5.068522,0.682665 5.273263,0.6892696 5.395469,0.8196235 5.451687,0.8795884 5.482972,0.9587027 5.482972,1.040899 v 2.164983 c 2.476213,0 4.195455,-0.756971 5.157728,-2.2709133 l 0.11645,-0.1931214 c 0.03537,-0.0620266 0.11432,-0.083639 0.17635,-0.0482725 0.0398,0.0226923 0.06461,0.0647528 0.06523,0.110562 C 11.05535,4.993536 9.216763,7.088235 5.482972,7.088235 Z" /></clipPath><clipPath
       id="clipPath26"
       clipPathUnits="userSpaceOnUse"><path
         id="path24"
         d="M -249,-508 H 126 V 304 H -249 Z" /></clipPath></defs><g
     transform="matrix(1.3333333,0,0,-1.3333333,0,13.333333)"
     id="g10"><g
       id="g12" /><g
       id="g14"><g
         clip-path="url(#clipPath20)"
         id="g16"><g
           clip-path="url(#clipPath26)"
           id="g22"><path
             id="path28"
             style="fill:#000000;fill-opacity:1;fill-rule:nonzero;stroke:none"
             d="M -4.543992,14.57675 H 16 V -4.323421 H -4.543992 Z" /></g></g></g></g></svg>