<?xml version="1.0" encoding="UTF-8" standalone="no"?>
<!DOCTYPE svg PUBLIC "-//W3C//DTD SVG 1.1//EN" "http://www.w3.org/Graphics/SVG/1.1/DTD/svg11.dtd">
<svg xmlns="http://www.w3.org/2000/svg" xmlns:xlink="http://www.w3.org/1999/xlink" version="1.1" width="24pt" height="24pt" viewBox="0 0 24 24">
<g enable-background="new">
<clipPath id="cp0">
<path transform="matrix(1,0,0,-1,0,24)" d="M 12 20 C 16.41828 20 20 16.41828 20 12 C 20 7.581722 16.41828 4 12 4 C 7.581722 4 4 7.581722 4 12 C 4 16.41828 7.581722 20 12 20 Z M 15.47023 15.47023 C 15.26247 15.67798 14.95144 15.71954 14.70237 15.59488 L 14.6122 15.54034 L 14.52977 15.47023 L 12 12.941 L 9.470226 15.47023 L 9.387798 15.54034 C 9.12793 15.72733 8.763503 15.70395 8.529774 15.47023 C 8.296045 15.2365 8.272672 14.87207 8.459655 14.6122 L 8.529774 14.52977 L 11.059 12 L 8.529774 9.470226 L 8.459655 9.387798 C 8.272672 9.12793 8.296045 8.763503 8.529774 8.529774 C 8.737533 8.322015 9.04856 8.280463 9.297626 8.405119 L 9.387798 8.459655 L 9.470226 8.529774 L 12 11.059 L 14.52977 8.529774 L 14.6122 8.459655 C 14.87207 8.272672 15.2365 8.296045 15.47023 8.529774 C 15.70395 8.763503 15.72733 9.12793 15.54034 9.387798 L 15.47023 9.470226 L 12.941 12 L 15.47023 14.52977 L 15.54034 14.6122 C 15.72733 14.87207 15.70395 15.2365 15.47023 15.47023 Z " fill-rule="evenodd"/>
</clipPath>
<g clip-path="url(#cp0)">
<clipPath id="cp1">
<path transform="matrix(1,0,0,-1,0,24)" d="M 0 0 L 24 0 L 24 24 L 0 24 Z "/>
</clipPath>
<g clip-path="url(#cp1)">
<path transform="matrix(1,0,0,-1,0,24)" d="M -1 25 L 25 25 L 25 -1 L -1 -1 Z "/>
</g>
</g>
</g>
</svg>
