<?xml version="1.0" encoding="UTF-8" standalone="no"?>
<!DOCTYPE svg PUBLIC "-//W3C//DTD SVG 1.1//EN" "http://www.w3.org/Graphics/SVG/1.1/DTD/svg11.dtd">
<svg xmlns="http://www.w3.org/2000/svg" xmlns:xlink="http://www.w3.org/1999/xlink" version="1.1" width="60pt" height="60pt" viewBox="0 0 60 60">
<g enable-background="new">
<clipPath id="cp0">
<path transform="matrix(1,0,0,-1,0,60)" d="M 33 42.58726 C 33.56226 42.58726 34.1132 42.42925 34.59 42.13125 L 49.92961 32.54399 C 51.33462 31.66586 51.76174 29.81501 50.88361 28.41 C 50.64216 28.0237 50.31592 27.69745 49.92961 27.45601 L 34.59 17.86875 C 33.18499 16.99062 31.33414 17.41774 30.45601 18.82275 C 30.15801 19.29954 30 19.85048 30 20.41274 L 30.00177 28.61659 C 29.9654 28.54679 29.92603 28.47788 29.88361 28.41 C 29.64216 28.0237 29.31592 27.69745 28.92961 27.45601 L 13.59 17.86875 C 12.18499 16.99062 10.33414 17.41774 9.456005 18.82275 C 9.158008 19.29954 9 19.85048 9 20.41274 L 9 39.58726 C 9 41.24411 10.34315 42.58726 12 42.58726 C 12.56226 42.58726 13.1132 42.42925 13.59 42.13125 L 28.92961 32.54399 C 29.40065 32.2496 29.76178 31.84586 30.00065 31.38626 L 30 39.58726 C 30 41.24411 31.34315 42.58726 33 42.58726 Z " fill-rule="evenodd"/>
</clipPath>
<g clip-path="url(#cp0)">
<path transform="matrix(1,0,0,-1,0,60)" d="M 4 47.58726 L 56.34001 47.58726 L 56.34001 12.41234 L 4 12.41234 Z "/>
</g>
</g>
</svg>
