<?xml version="1.0" encoding="UTF-8" standalone="no"?>
<!DOCTYPE svg PUBLIC "-//W3C//DTD SVG 1.1//EN" "http://www.w3.org/Graphics/SVG/1.1/DTD/svg11.dtd">
<svg xmlns="http://www.w3.org/2000/svg" xmlns:xlink="http://www.w3.org/1999/xlink" version="1.1" width="30pt" height="30pt" viewBox="0 0 30 30">
<g enable-background="new">
<clipPath id="cp0">
<path transform="matrix(1,0,0,-1,0,30)" d="M 9 21 L 11 21 C 11.55228 21 12 20.55228 12 20 C 12 19.48716 11.61396 19.06449 11.11662 19.00673 L 11 19 L 9 19 C 8.487164 19 8.064493 18.61396 8.006728 18.11662 L 8 18 L 8 8 C 8 7.487164 8.38604 7.064493 8.883379 7.006728 L 9 7 L 21 7 C 21.51284 7 21.93551 7.38604 21.99327 7.883379 L 22 8 L 22 18 C 22 18.51284 21.61396 18.93551 21.11662 18.99327 L 21 19 L 19 19 C 18.44772 19 18 19.44772 18 20 C 18 20.51284 18.38604 20.93551 18.88338 20.99327 L 19 21 L 21 21 C 22.59768 21 23.90366 19.75108 23.99491 18.17627 L 24 18 L 24 8 C 24 6.402319 22.75108 5.096339 21.17627 5.005093 L 21 5 L 9 5 C 7.402319 5 6.096339 6.24892 6.005093 7.823727 L 6 8 L 6 18 C 6 19.59768 7.24892 20.90366 8.823727 20.99491 L 9 21 L 11 21 L 9 21 Z M 15.6129 27.7903 L 15.70711 27.70711 L 19.20711 24.20711 C 19.59763 23.81658 19.59763 23.18342 19.20711 22.79289 C 18.84662 22.43241 18.27939 22.40468 17.8871 22.7097 L 17.79289 22.79289 L 16 24.586 L 16 14 C 16 13.48716 15.61396 13.06449 15.11662 13.00673 L 15 13 C 14.48716 13 14.06449 13.38604 14.00673 13.88338 L 14 14 L 14 24.586 L 12.20711 22.79289 C 11.84662 22.43241 11.27939 22.40468 10.8871 22.7097 L 10.79289 22.79289 C 10.43241 23.15338 10.40468 23.72061 10.7097 24.1129 L 10.79289 24.20711 L 14.29289 27.70711 C 14.62334 28.03755 15.12751 28.08839 15.5114 27.85962 L 15.6129 27.7903 Z "/>
</clipPath>
<g clip-path="url(#cp0)">
<path transform="matrix(1,0,0,-1,0,30)" d="M 1 33 L 29 33 L 29 0 L 1 0 Z "/>
</g>
</g>
</svg>
