<?xml version="1.0" encoding="UTF-8" standalone="no"?>
<!DOCTYPE svg PUBLIC "-//W3C//DTD SVG 1.1//EN" "http://www.w3.org/Graphics/SVG/1.1/DTD/svg11.dtd">
<svg xmlns="http://www.w3.org/2000/svg" xmlns:xlink="http://www.w3.org/1999/xlink" version="1.1" width="30pt" height="30pt" viewBox="0 0 30 30">
<g enable-background="new">
<clipPath id="cp0">
<path transform="matrix(1,0,0,-1,0,30)" d="M 25 15 C 25.51284 15 25.93551 14.61396 25.99327 14.11662 L 26 14 L 26 12.5 C 26 10.3578 24.31603 8.608921 22.19964 8.504895 L 22 8.5 L 13 8.5 L 13 6.6 C 13 6.158172 12.64183 5.8 12.2 5.8 C 12.0269 5.8 11.85848 5.856142 11.72 5.96 L 7.853333 8.86 C 7.499871 9.125097 7.428237 9.626538 7.693333 9.98 C 7.738817 10.04064 7.792689 10.09452 7.853333 10.14 L 11.72 13.04 C 12.07346 13.3051 12.5749 13.23346 12.84 12.88 C 12.94386 12.74152 13 12.5731 13 12.4 L 13 10.5 L 22 10.5 C 23.05436 10.5 23.91817 11.31588 23.99451 12.35074 L 24 12.5 L 24 14 C 24 14.55228 24.44772 15 25 15 Z M 17.16 23.88 C 17.40301 24.20401 17.84461 24.2912 18.18877 24.09929 L 18.28 24.04 L 22.14667 21.14 C 22.20731 21.09452 22.26118 21.04064 22.30667 20.98 C 22.54967 20.65599 22.50973 20.20764 22.22913 19.93098 L 22.14667 19.86 L 18.28 16.96 C 18.14152 16.85614 17.9731 16.8 17.8 16.8 C 17.39216 16.8 17.0556 17.10519 17.00623 17.49965 L 17 17.6 L 17 19.5 L 8 19.5 C 6.945638 19.5 6.081835 18.68412 6.005486 17.64926 L 6 17.5 L 6 16 C 6 15.44772 5.552285 15 5 15 C 4.487164 15 4.064493 15.38604 4.006728 15.88338 L 4 16 L 4 17.5 C 4 19.6422 5.683968 21.39108 7.80036 21.4951 L 8 21.5 L 17 21.5 L 17 23.4 C 17 23.5731 17.05614 23.74152 17.16 23.88 Z "/>
</clipPath>
<g clip-path="url(#cp0)">
<path transform="matrix(1,0,0,-1,0,30)" d="M -1 29.20005 L 31 29.20005 L 31 .8 L -1 .8 Z "/>
</g>
</g>
</svg>
