<?xml version="1.0" encoding="UTF-8" standalone="no"?>
<!DOCTYPE svg PUBLIC "-//W3C//DTD SVG 1.1//EN" "http://www.w3.org/Graphics/SVG/1.1/DTD/svg11.dtd">
<svg xmlns="http://www.w3.org/2000/svg" xmlns:xlink="http://www.w3.org/1999/xlink" version="1.1" width="30pt" height="30pt" viewBox="0 0 30 30">
<g enable-background="new">
<clipPath id="cp0">
<path transform="matrix(1,0,0,-1,0,30)" d="M 25 15 C 25.51284 15 25.93551 14.61396 25.99327 14.11662 L 26 14 L 26 12.5 C 26 10.3578 24.31603 8.608921 22.19964 8.504895 L 22 8.5 L 13 8.5 L 13 6.6 C 13 6.158172 12.64183 5.8 12.2 5.8 C 12.0269 5.8 11.85848 5.856142 11.72 5.96 L 7.853333 8.86 C 7.499871 9.125097 7.428237 9.626538 7.693333 9.98 C 7.738817 10.04064 7.792689 10.09452 7.853333 10.14 L 11.72 13.04 C 12.07346 13.3051 12.5749 13.23346 12.84 12.88 C 12.94386 12.74152 13 12.5731 13 12.4 L 13 10.5 L 22 10.5 C 23.05436 10.5 23.91817 11.31588 23.99451 12.35074 L 24 12.5 L 24 14 C 24 14.55228 24.44772 15 25 15 Z M 15.18877 24.09929 L 15.28 24.04 L 19.14667 21.14 C 19.20731 21.09452 19.26118 21.04064 19.30667 20.98 C 19.54967 20.65599 19.50973 20.20764 19.22913 19.93098 L 19.14667 19.86 L 15.28 16.96 C 15.14152 16.85614 14.9731 16.8 14.8 16.8 C 14.39216 16.8 14.0556 17.10519 14.00623 17.49965 L 14 17.6 L 14 19.5 L 8 19.5 C 6.945638 19.5 6.081835 18.68412 6.005486 17.64926 L 6 17.5 L 6 16 C 6 15.44772 5.552285 15 5 15 C 4.487164 15 4.064493 15.38604 4.006728 15.88338 L 4 16 L 4 17.5 C 4 19.6422 5.683968 21.39108 7.80036 21.4951 L 8 21.5 L 14 21.5 L 14 23.4 C 14 23.5731 14.05614 23.74152 14.16 23.88 C 14.40301 24.20401 14.84461 24.2912 15.18877 24.09929 Z M 21.8753 22.78087 L 23.56296 24.13099 C 24.20985 24.64851 25.15379 24.54362 25.6713 23.89673 C 25.85368 23.66876 25.9649 23.3934 25.99296 23.10488 L 26 22.95969 L 26 18.5 C 26 17.94772 25.55228 17.5 25 17.5 C 24.48716 17.5 24.06449 17.88604 24.00673 18.38338 L 24 18.5 L 24 21.91938 L 23.1247 21.21913 C 22.69343 20.87412 22.06414 20.94404 21.71913 21.3753 C 21.40066 21.77339 21.43574 22.34022 21.78222 22.69642 L 21.8753 22.78087 L 23.56296 24.13099 L 21.8753 22.78087 Z "/>
</clipPath>
<g clip-path="url(#cp0)">
<path transform="matrix(1,0,0,-1,0,30)" d="M -1 29.45974 L 31 29.45974 L 31 .8 L -1 .8 Z "/>
</g>
</g>
</svg>
