<?xml version="1.0" encoding="UTF-8" standalone="no"?>
<!DOCTYPE svg PUBLIC "-//W3C//DTD SVG 1.1//EN" "http://www.w3.org/Graphics/SVG/1.1/DTD/svg11.dtd">
<svg xmlns="http://www.w3.org/2000/svg" xmlns:xlink="http://www.w3.org/1999/xlink" version="1.1" width="30pt" height="30pt" viewBox="0 0 30 30">
<g enable-background="new">
<clipPath id="cp0">
<path transform="matrix(1,0,0,-1,0,30)" d="M 21.16 23.88 C 21.40301 24.20401 21.84461 24.2912 22.18877 24.09929 L 22.28 24.04 L 26.14667 21.14 C 26.20731 21.09452 26.26118 21.04064 26.30667 20.98 C 26.54967 20.65599 26.50973 20.20764 26.22913 19.93098 L 26.14667 19.86 L 22.28 16.96 C 22.14152 16.85614 21.9731 16.8 21.8 16.8 C 21.39216 16.8 21.0556 17.10519 21.00623 17.49965 L 21 17.6 L 21 19.5 L 19.42164 19.5 C 18.82177 19.5 18.25358 19.23075 17.87372 18.76648 L 14.791 15.00105 L 17.87372 11.23352 C 18.21559 10.81568 18.71002 10.5558 19.24278 10.508 L 19.42164 10.5 L 21 10.5 L 21 12.4 C 21 12.5731 21.05614 12.74152 21.16 12.88 C 21.40301 13.20401 21.84461 13.2912 22.18877 13.09929 L 22.28 13.04 L 26.14667 10.14 C 26.20731 10.09452 26.26118 10.04064 26.30667 9.98 C 26.54967 9.655993 26.50973 9.207643 26.22913 8.930976 L 26.14667 8.86 L 22.28 5.96 C 22.14152 5.856142 21.9731 5.8 21.8 5.8 C 21.39216 5.8 21.0556 6.105188 21.00623 6.49965 L 21 6.6 L 21 8.5 L 19.42164 8.5 C 18.29689 8.5 17.22782 8.973297 16.47259 9.797554 L 16.32581 9.967049 L 13.499 13.42105 L 10.67419 9.967049 C 9.914476 9.038507 8.778095 8.5 7.578363 8.5 L 5 8.5 C 4.447715 8.5 4 8.947715 4 9.5 C 4 10.05228 4.447715 10.5 5 10.5 L 7.578363 10.5 C 8.178229 10.5 8.746419 10.76925 9.126277 11.23352 L 12.208 15.00005 L 9.126277 18.76648 C 8.784405 19.18432 8.289984 19.4442 7.757216 19.492 L 7.578363 19.5 L 5 19.5 C 4.447715 19.5 4 19.94772 4 20.5 C 4 21.01284 4.38604 21.43551 4.883379 21.49327 L 5 21.5 L 7.578363 21.5 C 8.703112 21.5 9.772181 21.0267 10.52741 20.20245 L 10.67419 20.03295 L 13.5 16.58005 L 16.32581 20.03295 C 17.08552 20.96149 18.2219 21.5 19.42164 21.5 L 21 21.5 L 21 23.4 C 21 23.5731 21.05614 23.74152 21.16 23.88 Z "/>
</clipPath>
<g clip-path="url(#cp0)">
<path transform="matrix(1,0,0,-1,0,30)" d="M -1 29.20005 L 31.46671 29.20005 L 31.46671 .8 L -1 .8 Z "/>
</g>
</g>
</svg>
