<?xml version="1.0" encoding="UTF-8" standalone="no"?>
<!DOCTYPE svg PUBLIC "-//W3C//DTD SVG 1.1//EN" "http://www.w3.org/Graphics/SVG/1.1/DTD/svg11.dtd">
<svg xmlns="http://www.w3.org/2000/svg" xmlns:xlink="http://www.w3.org/1999/xlink" version="1.1" width="60pt" height="60pt" viewBox="0 0 60 60">
<g enable-background="new">
<clipPath id="cp0">
<path transform="matrix(1,0,0,-1,0,60)" d="M 48 42.58726 C 49.59768 42.58726 50.90366 41.33834 50.99491 39.76353 L 51 39.58726 L 51 20.41274 C 51 19.85048 50.84199 19.29954 50.54399 18.82275 C 49.69839 17.46977 47.95078 17.0236 46.56788 17.77653 L 46.41 17.86875 L 31.07039 27.45601 C 30.68408 27.69745 30.35784 28.0237 30.11639 28.41 C 30.07438 28.47723 30.03535 28.54548 29.99927 28.6146 L 30 20.41274 C 30 19.85048 29.84199 19.29954 29.54399 18.82275 C 28.69839 17.46977 26.95078 17.0236 25.56788 17.77653 L 25.41 17.86875 L 10.07039 27.45601 C 9.684084 27.69745 9.357836 28.0237 9.116394 28.41 C 8.270786 29.76298 8.635534 31.52938 9.918321 32.44249 L 10.07039 32.54399 L 25.41 42.13125 C 25.8868 42.42925 26.43774 42.58726 27 42.58726 C 28.59768 42.58726 29.90366 41.33834 29.99491 39.76353 L 30 39.58726 L 30.00037 31.38823 C 30.20513 31.78148 30.49944 32.13374 30.87555 32.41149 L 31.07039 32.54399 L 46.41 42.13125 C 46.8868 42.42925 47.43774 42.58726 48 42.58726 Z " fill-rule="evenodd"/>
</clipPath>
<g clip-path="url(#cp0)">
<path transform="matrix(1,0,0,-1,0,60)" d="M 3.659987 47.58726 L 56 47.58726 L 56 12.41234 L 3.659987 12.41234 Z "/>
</g>
</g>
</svg>
