<?xml version="1.0" encoding="UTF-8" standalone="no"?>
<!DOCTYPE svg PUBLIC "-//W3C//DTD SVG 1.1//EN" "http://www.w3.org/Graphics/SVG/1.1/DTD/svg11.dtd">
<svg xmlns="http://www.w3.org/2000/svg" xmlns:xlink="http://www.w3.org/1999/xlink" version="1.1" width="60pt" height="60pt" viewBox="0 0 60 60">
<g enable-background="new">
<clipPath id="cp0">
<path transform="matrix(1,0,0,-1,0,60)" d="M 23 50 C 24.65685 50 26 48.65685 26 47 L 26 13 C 26 11.34315 24.65685 10 23 10 L 15 10 C 13.34315 10 12 11.34315 12 13 L 12 47 C 12 48.65685 13.34315 50 15 50 L 23 50 Z M 45 50 C 46.65685 50 48 48.65685 48 47 L 48 13 C 48 11.34315 46.65685 10 45 10 L 37 10 C 35.34315 10 34 11.34315 34 13 L 34 47 C 34 48.65685 35.34315 50 37 50 L 45 50 Z " fill-rule="evenodd"/>
</clipPath>
<g clip-path="url(#cp0)">
<path transform="matrix(1,0,0,-1,0,60)" d="M 7 55 L 53 55 L 53 5 L 7 5 Z "/>
</g>
</g>
</svg>
