<?xml version="1.0" encoding="UTF-8" standalone="no"?>
<!DOCTYPE svg PUBLIC "-//W3C//DTD SVG 1.1//EN" "http://www.w3.org/Graphics/SVG/1.1/DTD/svg11.dtd">
<svg xmlns="http://www.w3.org/2000/svg" xmlns:xlink="http://www.w3.org/1999/xlink" version="1.1" width="30pt" height="30pt" viewBox="0 0 30 30">
<g enable-background="new">
<clipPath id="cp0">
<path transform="matrix(1,0,0,-1,0,30)" d="M 9.98 24.30667 C 10.04064 24.26118 10.09452 24.20731 10.14 24.14667 L 13.04 20.28 C 13.3051 19.92654 13.23346 19.4251 12.88 19.16 C 12.74152 19.05614 12.5731 19 12.4 19 L 10.5 19 L 10.5 6.5 C 10.5 5.987164 10.11396 5.564493 9.616621 5.506728 L 9.5 5.5 C 8.987164 5.5 8.564493 5.88604 8.506728 6.383379 L 8.5 6.5 L 8.5 19 L 6.6 19 C 6.158172 19 5.8 19.35817 5.8 19.8 C 5.8 19.9731 5.856142 20.14152 5.96 20.28 L 8.86 24.14667 C 9.125097 24.50013 9.626538 24.57176 9.98 24.30667 Z M 20.38338 24.49327 L 20.5 24.5 C 21.01284 24.5 21.43551 24.11396 21.49327 23.61662 L 21.5 23.5 L 21.5 11 L 23.4 11 C 23.5731 11 23.74152 10.94386 23.88 10.84 C 24.20401 10.59699 24.2912 10.15539 24.09929 9.811226 L 24.04 9.72 L 21.14 5.853333 C 21.09452 5.792689 21.04064 5.738817 20.98 5.693333 C 20.65599 5.450328 20.20764 5.49027 19.93098 5.770871 L 19.86 5.853333 L 16.96 9.72 C 16.85614 9.858477 16.8 10.0269 16.8 10.2 C 16.8 10.60784 17.10519 10.9444 17.49965 10.99377 L 17.6 11 L 19.5 11 L 19.5 23.5 C 19.5 24.01284 19.88604 24.43551 20.38338 24.49327 L 20.5 24.5 L 20.38338 24.49327 Z " fill-rule="evenodd"/>
</clipPath>
<g clip-path="url(#cp0)">
<path transform="matrix(1,0,0,-1,0,30)" d="M .8 29.5 L 29.20005 29.5 L 29.20005 .5 L .8 .5 Z "/>
</g>
</g>
</svg>
