<?xml version="1.0" encoding="UTF-8" standalone="no"?>
<!DOCTYPE svg PUBLIC "-//W3C//DTD SVG 1.1//EN" "http://www.w3.org/Graphics/SVG/1.1/DTD/svg11.dtd">
<svg xmlns="http://www.w3.org/2000/svg" xmlns:xlink="http://www.w3.org/1999/xlink" version="1.1" width="31pt" height="41pt" viewBox="0 0 31 41">
<g enable-background="new">
<clipPath id="cp0">
<path transform="matrix(1,0,0,-1,0,41)" d="M 23 32 L 23 28 C 23 27.35089 22.78947 26.71929 22.4 26.2 L 20.6 23.8 C 20.21053 23.28071 20 22.64911 20 22 L 20 5 C 20 3.895431 19.10457 3 18 3 L 13 3 C 11.89543 3 11 3.895431 11 5 L 11 22.05653 C 11 22.71447 10.7837 23.35417 10.38442 23.87711 L 8.615577 26.19378 C 8.216295 26.71672 8 27.35642 8 28.01436 L 8 32 L 23 32 Z M 15.5 22 C 14.17452 22 13.08996 20.96846 13.00532 19.66438 L 13 19.5 L 13 15.5 C 13 14.11929 14.11929 13 15.5 13 C 16.82548 13 17.91004 14.03154 17.99468 15.33562 L 18 15.5 L 18 19.5 C 18 20.88071 16.88071 22 15.5 22 Z M 15.5 21 C 16.32843 21 17 20.32843 17 19.5 C 17 18.67157 16.32843 18 15.5 18 C 14.67157 18 14 18.67157 14 19.5 C 14 20.32843 14.67157 21 15.5 21 Z M 21 38 C 22.10457 38 23 37.10457 23 36 L 23 34 L 8 34 L 8 36 C 8 37.10457 8.895431 38 10 38 L 21 38 Z " fill-rule="evenodd"/>
</clipPath>
<g clip-path="url(#cp0)">
<path transform="matrix(1,0,0,-1,0,41)" d="M 3 43 L 28 43 L 28 -2 L 3 -2 Z "/>
</g>
</g>
</svg>
