<?xml version="1.0" encoding="UTF-8" standalone="no"?>
<!DOCTYPE svg PUBLIC "-//W3C//DTD SVG 1.1//EN" "http://www.w3.org/Graphics/SVG/1.1/DTD/svg11.dtd">
<svg xmlns="http://www.w3.org/2000/svg" xmlns:xlink="http://www.w3.org/1999/xlink" version="1.1" width="41pt" height="31pt" viewBox="0 0 41 31">
<g enable-background="new">
<clipPath id="cp0">
<path transform="matrix(1,0,0,-1,0,31)" d="M 33 29 C 35.20914 29 37 27.20914 37 25 L 37 6 C 37 3.790861 35.20914 2 33 2 L 8 2 C 5.790861 2 4 3.790861 4 6 L 4 25 C 4 27.20914 5.790861 29 8 29 L 33 29 Z M 24.00691 15.22836 L 17.63042 9.560372 C 17.26626 9.236676 16.72182 9.222544 16.34136 9.526912 L 13.39782 11.88174 C 12.60204 12.51837 11.45483 12.45483 10.73422 11.73422 L 6.585786 7.585786 C 6.210714 7.210714 6 6.702006 6 6.171573 L 6 6 C 6 4.895431 6.895431 4 8 4 L 33 4 C 34.10457 4 35 4.895431 35 6 L 35 8.101868 C 35 8.673143 34.7557 9.217152 34.32873 9.596687 L 27.99309 15.22836 C 26.85643 16.23873 25.14357 16.23873 24.00691 15.22836 Z M 12.5 24 C 10.567 24 9 22.433 9 20.5 C 9 18.567 10.567 17 12.5 17 C 14.433 17 16 18.567 16 20.5 C 16 22.433 14.433 24 12.5 24 Z " fill-rule="evenodd"/>
</clipPath>
<g clip-path="url(#cp0)">
<path transform="matrix(1,0,0,-1,0,31)" d="M -1 34 L 42 34 L 42 -3 L -1 -3 Z "/>
</g>
</g>
</svg>
