<?xml version="1.0" encoding="UTF-8" standalone="no"?>
<!DOCTYPE svg PUBLIC "-//W3C//DTD SVG 1.1//EN" "http://www.w3.org/Graphics/SVG/1.1/DTD/svg11.dtd">
<svg xmlns="http://www.w3.org/2000/svg" xmlns:xlink="http://www.w3.org/1999/xlink" version="1.1" width="30pt" height="30pt" viewBox="0 0 30 30">
<g enable-background="new">
<clipPath id="cp0">
<path transform="matrix(1,0,0,-1,0,30)" d="M 11.5 14.165 C 12.91523 14.165 14.07281 13.06186 14.15976 11.66854 L 14.165 11.5 L 14.165 8.5 C 14.165 7.08477 13.06186 5.927194 11.66854 5.840243 L 11.5 5.835 L 8.5 5.835 C 7.08477 5.835 5.927194 6.938145 5.840243 8.331461 L 5.835 8.5 L 5.835 11.5 C 5.835 12.91523 6.938145 14.07281 8.331461 14.15976 L 8.5 14.165 L 11.5 14.165 Z M 18 8.5 C 18.27614 8.5 18.5 8.276142 18.5 8 L 18.5 7 C 18.5 6.723858 18.27614 6.5 18 6.5 L 17 6.5 C 16.72386 6.5 16.5 6.723858 16.5 7 L 16.5 8 C 16.5 8.276142 16.72386 8.5 17 8.5 L 18 8.5 Z M 23 8.5 C 23.27614 8.5 23.5 8.276142 23.5 8 L 23.5 7 C 23.5 6.723858 23.27614 6.5 23 6.5 L 22 6.5 C 21.72386 6.5 21.5 6.723858 21.5 7 L 21.5 8 C 21.5 8.276142 21.72386 8.5 22 8.5 L 23 8.5 Z M 11.5 12.835 L 8.5 12.835 C 7.80607 12.835 7.235801 12.30555 7.171111 11.62857 L 7.165 11.5 L 7.165 8.5 C 7.165 7.80607 7.69445 7.235801 8.371431 7.171111 L 8.5 7.165 L 11.5 7.165 C 12.19393 7.165 12.7642 7.69445 12.82889 8.371431 L 12.835 8.5 L 12.835 11.5 C 12.835 12.2373 12.2373 12.835 11.5 12.835 Z M 10.5 11 C 10.77614 11 11 10.77614 11 10.5 L 11 9.5 C 11 9.223858 10.77614 9 10.5 9 L 9.5 9 C 9.223858 9 9 9.223858 9 9.5 L 9 10.5 C 9 10.77614 9.223858 11 9.5 11 L 10.5 11 Z M 20.5 11 C 20.77614 11 21 10.77614 21 10.5 L 21 9.5 C 21 9.223858 20.77614 9 20.5 9 L 19.5 9 C 19.22386 9 19 9.223858 19 9.5 L 19 10.5 C 19 10.77614 19.22386 11 19.5 11 L 20.5 11 Z M 23 13.5 C 23.27614 13.5 23.5 13.27614 23.5 13 L 23.5 12 C 23.5 11.72386 23.27614 11.5 23 11.5 L 22 11.5 C 21.72386 11.5 21.5 11.72386 21.5 12 L 21.5 13 C 21.5 13.27614 21.72386 13.5 22 13.5 L 23 13.5 Z M 18 13.5 C 18.27614 13.5 18.5 13.27614 18.5 13 L 18.5 12 C 18.5 11.72386 18.27614 11.5 18 11.5 L 17 11.5 C 16.72386 11.5 16.5 11.72386 16.5 12 L 16.5 13 C 16.5 13.27614 16.72386 13.5 17 13.5 L 18 13.5 Z M 11.5 24.165 C 12.91523 24.165 14.07281 23.06186 14.15976 21.66854 L 14.165 21.5 L 14.165 18.5 C 14.165 17.08477 13.06186 15.92719 11.66854 15.84024 L 11.5 15.835 L 8.5 15.835 C 7.08477 15.835 5.927194 16.93814 5.840243 18.33146 L 5.835 18.5 L 5.835 21.5 C 5.835 22.91523 6.938145 24.07281 8.331461 24.15976 L 8.5 24.165 L 11.5 24.165 Z M 21.5 24.165 C 22.91523 24.165 24.07281 23.06186 24.15976 21.66854 L 24.165 21.5 L 24.165 18.5 C 24.165 17.08477 23.06186 15.92719 21.66854 15.84024 L 21.5 15.835 L 18.5 15.835 C 17.08477 15.835 15.92719 16.93814 15.84024 18.33146 L 15.835 18.5 L 15.835 21.5 C 15.835 22.91523 16.93814 24.07281 18.33146 24.15976 L 18.5 24.165 L 21.5 24.165 Z M 11.5 22.835 L 8.5 22.835 C 7.80607 22.835 7.235801 22.30555 7.171111 21.62857 L 7.165 21.5 L 7.165 18.5 C 7.165 17.80607 7.69445 17.2358 8.371431 17.17111 L 8.5 17.165 L 11.5 17.165 C 12.19393 17.165 12.7642 17.69445 12.82889 18.37143 L 12.835 18.5 L 12.835 21.5 C 12.835 22.2373 12.2373 22.835 11.5 22.835 Z M 21.5 22.835 L 18.5 22.835 C 17.80607 22.835 17.2358 22.30555 17.17111 21.62857 L 17.165 21.5 L 17.165 18.5 C 17.165 17.80607 17.69445 17.2358 18.37143 17.17111 L 18.5 17.165 L 21.5 17.165 C 22.19393 17.165 22.7642 17.69445 22.82889 18.37143 L 22.835 18.5 L 22.835 21.5 C 22.835 22.2373 22.2373 22.835 21.5 22.835 Z M 10.5 21 C 10.77614 21 11 20.77614 11 20.5 L 11 19.5 C 11 19.22386 10.77614 19 10.5 19 L 9.5 19 C 9.223858 19 9 19.22386 9 19.5 L 9 20.5 C 9 20.77614 9.223858 21 9.5 21 L 10.5 21 Z M 20.5 21 C 20.77614 21 21 20.77614 21 20.5 L 21 19.5 C 21 19.22386 20.77614 19 20.5 19 L 19.5 19 C 19.22386 19 19 19.22386 19 19.5 L 19 20.5 C 19 20.77614 19.22386 21 19.5 21 L 20.5 21 Z "/>
</clipPath>
<g clip-path="url(#cp0)">
<path transform="matrix(1,0,0,-1,0,30)" d="M .835 29.165 L 29.165 29.165 L 29.165 .835 L .835 .835 Z "/>
</g>
</g>
</svg>
