<?xml version="1.0" encoding="UTF-8" standalone="no"?>
<!DOCTYPE svg PUBLIC "-//W3C//DTD SVG 1.1//EN" "http://www.w3.org/Graphics/SVG/1.1/DTD/svg11.dtd">
<svg xmlns="http://www.w3.org/2000/svg" xmlns:xlink="http://www.w3.org/1999/xlink" version="1.1" width="30pt" height="30pt" viewBox="0 0 30 30">
<g enable-background="new">
<clipPath id="cp0">
<path transform="matrix(1,0,0,-1,0,30)" d="M 8.4 17.56667 C 8.437903 17.53824 8.471573 17.50457 8.5 17.46667 L 10.5 14.8 C 10.66569 14.57909 10.62091 14.26569 10.4 14.1 C 10.31345 14.03509 10.20819 14 10.1 14 L 8.743648 13.99894 C 9.223555 10.97589 11.84191 8.665 15 8.665 C 16.8971 8.665 18.65615 9.502997 19.85318 10.92803 C 20.08941 11.20925 20.50888 11.24573 20.7901 11.0095 C 21.07132 10.77328 21.10779 10.35381 20.87157 10.07259 C 19.42444 8.349826 17.29421 7.335 15 7.335 C 11.10588 7.335 7.890009 10.2389 7.399726 13.99935 L 6.1 14 C 5.823858 14 5.6 14.22386 5.6 14.5 C 5.6 14.60819 5.635089 14.71345 5.7 14.8 L 7.7 17.46667 C 7.865685 17.68758 8.179086 17.73235 8.4 17.56667 Z M 15 22.665 C 18.89446 22.665 22.11056 19.76058 22.60041 15.99965 L 23.9 16 C 24.00819 16 24.11345 15.96491 24.2 15.9 C 24.39637 15.75272 24.45356 15.48873 24.34748 15.27673 L 24.3 15.2 L 22.3 12.53333 C 22.27157 12.49543 22.2379 12.46176 22.2 12.43333 C 22.00363 12.28606 21.73419 12.30507 21.56037 12.46627 L 21.5 12.53333 L 19.5 15.2 C 19.43509 15.28655 19.4 15.39181 19.4 15.5 C 19.4 15.74546 19.57688 15.94961 19.81012 15.99194 L 19.9 16 L 21.25651 16.00005 C 20.77702 19.0236 18.15844 21.335 15 21.335 C 13.10302 21.335 11.34406 20.4971 10.14702 19.07221 C 9.910785 18.791 9.491311 18.75455 9.210104 18.99079 C 8.928896 19.22703 8.892442 19.6465 9.128681 19.92771 C 10.57581 21.65029 12.70593 22.665 15 22.665 Z " fill-rule="evenodd"/>
</clipPath>
<g clip-path="url(#cp0)">
<path transform="matrix(1,0,0,-1,0,30)" d="M .6 27.665 L 29.40003 27.665 L 29.40003 2.335 L .6 2.335 Z "/>
</g>
</g>
</svg>
