<?xml version="1.0" encoding="UTF-8" standalone="no"?>
<!DOCTYPE svg PUBLIC "-//W3C//DTD SVG 1.1//EN" "http://www.w3.org/Graphics/SVG/1.1/DTD/svg11.dtd">
<svg xmlns="http://www.w3.org/2000/svg" xmlns:xlink="http://www.w3.org/1999/xlink" version="1.1" width="22pt" height="22pt" viewBox="0 0 22 22">
<g enable-background="new">
<clipPath id="cp0">
<path transform="matrix(1,0,0,-1,0,22)" d="M 10.99609 1.650295 C 10.73242 1.650295 10.48828 1.679592 10.23438 1.699124 L 9.667969 .6249048 C 9.560547 .4100611 9.345703 .2928736 9.082031 .3319361 C 8.837891 .3807642 8.662109 .5565455 8.632812 .8202173 L 8.457031 2.001858 C 7.96875 2.128811 7.5 2.314358 7.03125 2.519436 L 6.152344 1.72842 C 5.966797 1.552639 5.732422 1.513577 5.488281 1.650295 C 5.273438 1.767483 5.185547 2.001858 5.234375 2.255764 L 5.478516 3.427639 C 5.078125 3.710842 4.667969 4.033108 4.306641 4.394436 L 3.222656 3.935452 C 2.978516 3.837795 2.753906 3.886624 2.568359 4.111233 C 2.402344 4.287014 2.382812 4.54092 2.519531 4.755764 L 3.154297 5.771389 C 2.871094 6.181545 2.626953 6.620999 2.402344 7.089749 L 1.210938 7.031155 C .9570312 7.021389 .7421875 7.158108 .6542969 7.402249 C .5859375 7.646389 .6542969 7.880764 .8496094 8.037014 L 1.787109 8.779202 C 1.660156 9.247952 1.5625 9.755764 1.533203 10.27334 L .390625 10.63467 C .1367188 10.72256 0 10.90811 0 11.17178 C 0 11.43545 .1367188 11.621 .390625 11.69912 L 1.533203 12.06045 C 1.5625 12.5878 1.660156 13.07608 1.787109 13.55459 L .8496094 14.30655 C .6445312 14.45303 .5761719 14.67764 .6542969 14.92178 C .7421875 15.16592 .9570312 15.30264 1.210938 15.29287 L 2.402344 15.24405 C 2.626953 15.7128 2.871094 16.15225 3.154297 16.5624 L 2.519531 17.5878 C 2.382812 17.78311 2.402344 18.03701 2.568359 18.2128 C 2.753906 18.4374 2.978516 18.496 3.222656 18.38858 L 4.306641 17.94912 C 4.667969 18.29092 5.078125 18.62295 5.478516 18.90615 L 5.234375 20.06826 C 5.185547 20.33194 5.273438 20.56631 5.488281 20.6835 C 5.732422 20.81045 5.966797 20.79092 6.152344 20.59561 L 7.03125 19.82412 C 7.5 20.0292 7.96875 20.19522 8.457031 20.3417 L 8.632812 21.51358 C 8.662109 21.76748 8.837891 21.95303 9.082031 21.99209 C 9.345703 22.03115 9.560547 21.92373 9.667969 21.70889 L 10.23438 20.63467 C 10.49805 20.6542 10.73242 20.67373 10.99609 20.67373 C 11.25 20.67373 11.49414 20.6542 11.75781 20.63467 L 12.31445 21.70889 C 12.42188 21.92373 12.63672 22.03115 12.90039 21.99209 C 13.14453 21.95303 13.32031 21.76748 13.35938 21.51358 L 13.52539 20.33194 C 14.01367 20.19522 14.49219 20.0292 14.95117 19.82412 L 15.83008 20.59561 C 16.01562 20.79092 16.25 20.81045 16.49414 20.6835 C 16.70898 20.56631 16.79688 20.33194 16.74805 20.06826 L 16.50391 18.90615 C 16.91406 18.62295 17.31445 18.29092 17.67578 17.94912 L 18.75977 18.38858 C 19.00391 18.496 19.23828 18.4374 19.42383 18.2128 C 19.58008 18.03701 19.59961 17.78311 19.46289 17.57803 L 18.82812 16.5624 C 19.12109 16.15225 19.35547 15.7128 19.58008 15.24405 L 20.78125 15.29287 C 21.03516 15.30264 21.24023 15.16592 21.32812 14.92178 C 21.40625 14.67764 21.32812 14.45303 21.13281 14.30655 L 20.19531 13.55459 C 20.32227 13.07608 20.41992 12.5878 20.46875 12.06045 L 21.5918 11.69912 C 21.8457 11.61123 21.99219 11.42569 21.99219 11.17178 C 21.99219 10.90811 21.8457 10.72256 21.5918 10.63467 L 20.46875 10.28311 C 20.41992 9.755764 20.32227 9.247952 20.19531 8.779202 L 21.13281 8.037014 C 21.33789 7.880764 21.40625 7.646389 21.32812 7.402249 C 21.24023 7.158108 21.03516 7.021389 20.78125 7.031155 L 19.58008 7.089749 C 19.35547 6.620999 19.12109 6.181545 18.82812 5.771389 L 19.46289 4.755764 C 19.60938 4.54092 19.58984 4.287014 19.42383 4.111233 C 19.23828 3.886624 19.00391 3.837795 18.75977 3.935452 L 17.67578 4.394436 C 17.31445 4.033108 16.91406 3.710842 16.50391 3.427639 L 16.74805 2.255764 C 16.79688 2.001858 16.70898 1.767483 16.49414 1.650295 C 16.25 1.513577 16.01562 1.552639 15.83008 1.72842 L 14.95117 2.519436 C 14.49219 2.314358 14.01367 2.128811 13.52539 2.001858 L 13.35938 .8202173 C 13.32031 .5565455 13.1543 .3807642 12.91016 .3319361 C 12.63672 .2928736 12.42188 .4100611 12.31445 .6249048 L 11.75781 1.699124 C 11.49414 1.679592 11.25 1.650295 10.99609 1.650295 Z M 13.44727 11.78701 L 18.90625 11.78701 C 18.59375 15.95694 15.25391 19.18936 10.99609 19.18936 C 9.726562 19.18936 8.544922 18.90615 7.490234 18.38858 L 10.29297 13.60342 C 10.61523 13.67178 10.80078 13.69131 10.97656 13.69131 C 12.08984 13.69131 12.99805 13.01748 13.44727 11.78701 Z M 3.066406 11.16201 C 3.066406 8.466702 4.326172 6.10342 6.308594 4.648342 L 9.189453 9.374905 C 8.652344 9.941311 8.417969 10.50772 8.417969 11.12295 C 8.417969 11.75772 8.662109 12.35342 9.199219 12.9003 L 6.367188 17.71475 C 4.355469 16.26944 3.066406 13.87686 3.066406 11.16201 Z M 9.804688 11.13272 C 9.804688 10.47842 10.36133 9.941311 10.99609 9.941311 C 11.65039 9.941311 12.19727 10.47842 12.19727 11.13272 C 12.19727 11.79678 11.65039 12.31436 10.99609 12.31436 C 10.36133 12.31436 9.804688 11.79678 9.804688 11.13272 Z M 10.99609 3.13467 C 15.25391 3.13467 18.58398 6.367092 18.89648 10.51748 L 13.44727 10.51748 C 13.00781 9.257717 12.09961 8.564358 10.97656 8.564358 C 10.80078 8.564358 10.5957 8.583889 10.29297 8.662014 L 7.421875 3.964749 C 8.486328 3.437405 9.697266 3.13467 10.99609 3.13467 Z "/>
</clipPath>
<g clip-path="url(#cp0)">
<path transform="matrix(1,0,0,-1,0,22)" d="M -5 27 L 26.99219 27 L 26.99219 -4.675507 L -5 -4.675507 Z " fill="#ffffff"/>
</g>
</g>
</svg>
