<?xml version="1.0" encoding="UTF-8" standalone="no"?>
<!DOCTYPE svg PUBLIC "-//W3C//DTD SVG 1.1//EN" "http://www.w3.org/Graphics/SVG/1.1/DTD/svg11.dtd">
<svg xmlns="http://www.w3.org/2000/svg" xmlns:xlink="http://www.w3.org/1999/xlink" version="1.1" width="30pt" height="30pt" viewBox="0 0 30 30" stroke-opacity="0">
  <g enable-background="new">
    <clipPath id="cp0">
      <path transform="matrix(1,0,0,-1,0,30)" d="M 4.665 11.665 C 4.998881 11.665 5.275292 11.41894 5.32279 11.09827 L 5.33 11 L 5.33 7.665 L 8.665 7.665 C 9.032269 7.665 9.33 7.367269 9.33 7 C 9.33 6.666119 9.083942 6.389708 8.763269 6.34221 L 8.665 6.335 L 5.33 6.335 L 5.33 3 C 5.33 2.666119 5.083942 2.389708 4.763269 2.34221 L 4.665 2.335 C 4.331119 2.335 4.054708 2.581058 4.00721 2.901731 L 4 3 L 4 6.335 L .665 6.335 C .2977306 6.335 0 6.632731 0 7 C 0 7.333881 .2460584 7.610292 .5667312 7.65779 L .665 7.665 L 4 7.665 L 4 11 C 4 11.30049 4.199307 11.55444 4.472939 11.63684 L 4.566731 11.65779 L 4.665 11.665 Z M 12.665 15.665 C 17.4946 15.665 20.55222 13.60405 21.66078 9.544066 C 22.03031 8.190798 21.23281 6.794206 19.87954 6.424699 C 19.73418 6.38501 19.58573 6.358374 19.43594 6.345026 L 19.21049 6.335 L 11.665 6.335 C 11.29773 6.335 11 6.632731 11 7 C 11 7.333881 11.24606 7.610292 11.56673 7.65779 L 11.665 7.665 L 19.21049 7.665 C 19.31815 7.665 19.42534 7.679371 19.52921 7.707731 C 20.17388 7.883756 20.55379 8.54906 20.37775 9.193731 C 19.43625 12.64188 16.92435 14.335 12.665 14.335 C 10.18539 14.335 8.299599 13.75454 6.98115 12.61366 C 6.703423 12.37334 6.283462 12.40366 6.04314 12.68139 C 5.802818 12.95912 5.833141 13.37908 6.110868 13.6194 C 7.694579 14.98981 9.888114 15.665 12.665 15.665 Z M 22.66506 15.665 C 26.40429 15.665 28.85633 14.22332 29.86018 11.35852 C 29.9448 11.11705 29.98802 10.86301 29.98802 10.60714 C 29.98802 9.352284 28.97075 8.335 27.7159 8.335 L 24.16506 8.335 C 23.79779 8.335 23.50006 8.632731 23.50006 9 C 23.50006 9.367269 23.79779 9.665 24.16506 9.665 L 27.7159 9.665 C 28.23621 9.665 28.65802 10.08682 28.65802 10.60714 C 28.65802 10.71324 28.6401 10.81857 28.60501 10.9187 C 27.80477 13.20242 25.87845 14.335 22.66506 14.335 C 22.2025 14.335 21.7658 14.31108 21.35501 14.26348 C 20.99018 14.2212 20.66016 14.48268 20.61788 14.84751 C 20.5756 15.21234 20.83708 15.54236 21.20191 15.58464 C 21.66489 15.63829 22.15259 15.665 22.66506 15.665 Z M 12.665 26.665 C 15.24141 26.665 17.33 24.57641 17.33 22 C 17.33 19.42359 15.24141 17.335 12.665 17.335 C 10.08859 17.335 8 19.42359 8 22 C 8 24.57641 10.08859 26.665 12.665 26.665 Z M 22.165 24.665 C 24.18912 24.665 25.83 23.02412 25.83 21 C 25.83 18.97588 24.18912 17.335 22.165 17.335 C 20.14088 17.335 18.5 18.97588 18.5 21 C 18.5 23.02412 20.14088 24.665 22.165 24.665 Z M 12.665 25.335 C 10.82313 25.335 9.33 23.84187 9.33 22 C 9.33 20.15813 10.82313 18.665 12.665 18.665 C 14.50687 18.665 16 20.15813 16 22 C 16 23.84187 14.50687 25.335 12.665 25.335 Z M 22.165 23.335 C 20.87542 23.335 19.83 22.28958 19.83 21 C 19.83 19.71042 20.87542 18.665 22.165 18.665 C 23.45458 18.665 24.5 19.71042 24.5 21 C 24.5 22.28958 23.45458 23.335 22.165 23.335 Z " />
    </clipPath>
    <g clip-path="url(#cp0)">
      <path transform="matrix(1,0,0,-1,0,30)" d="M -5 31.665 L 34.98802 31.665 L 34.98802 -2.665 L -5 -2.665 Z " />
    </g>
  </g>
</svg>
