<?xml version="1.0" encoding="UTF-8" standalone="no"?>
<!DOCTYPE svg PUBLIC "-//W3C//DTD SVG 1.1//EN" "http://www.w3.org/Graphics/SVG/1.1/DTD/svg11.dtd">
<svg xmlns="http://www.w3.org/2000/svg" xmlns:xlink="http://www.w3.org/1999/xlink" version="1.1" width="30pt" height="30pt" viewBox="0 0 30 30">
<g enable-background="new">
<clipPath id="cp0">
<path transform="matrix(1,0,0,-1,0,30)" d="M 22.01932 24.25315 L 4.59703 15.54201 C 4.021545 15.25427 3.788284 14.55448 4.076026 13.979 L 4.141242 13.86506 C 4.354426 13.53694 4.720891 13.335 5.118034 13.335 L 13.335 13.335 L 13.335 5.118034 C 13.335 4.474622 13.85659 3.953034 14.5 3.953034 C 14.94127 3.953034 15.34467 4.202347 15.54201 4.59703 L 24.25315 22.01932 C 24.66439 22.8418 24.33102 23.84192 23.50854 24.25315 C 23.0398 24.48752 22.48806 24.48752 22.01932 24.25315 Z "/>
</clipPath>
<g clip-path="url(#cp0)">
<path transform="matrix(1,0,0,-1,0,30)" d="M -1.047221 29.42893 L 29.4293 29.42893 L 29.4293 -1.046966 L -1.047221 -1.046966 Z "/>
</g>
</g>
</svg>
