<?xml version="1.0" encoding="UTF-8" standalone="no"?>
<!DOCTYPE svg PUBLIC "-//W3C//DTD SVG 1.1//EN" "http://www.w3.org/Graphics/SVG/1.1/DTD/svg11.dtd">
<svg xmlns="http://www.w3.org/2000/svg" xmlns:xlink="http://www.w3.org/1999/xlink" version="1.1" width="30pt" height="30pt" viewBox="0 0 30 30">
<g enable-background="new">
<clipPath id="cp0">
<path transform="matrix(1,0,0,-1,0,30)" d="M 14.47231 22.89448 C 15.29621 23.16912 16.18304 22.76384 16.52401 21.98306 L 16.57838 21.84144 L 22.73809 3.362314 C 22.87764 2.943689 22.76868 2.482154 22.45666 2.170129 C 22.03419 1.747666 21.36799 1.71749 20.91071 2.079601 L 20.8091 2.170129 L 14.99883 7.980402 L 9.188554 2.170129 C 8.938935 1.920509 8.593628 1.800855 8.251155 1.834424 L 8.123052 1.854239 L 7.99637 1.888692 C 7.426669 2.078593 7.101325 2.66598 7.225902 3.239727 L 7.259559 3.362314 L 13.41927 21.84144 C 13.58499 22.33862 13.97513 22.72876 14.47231 22.89448 Z M 15 29.165 C 15.33388 29.165 15.61029 28.91894 15.65779 28.59827 L 15.665 28.5 L 15.665 25 C 15.665 24.63273 15.36727 24.335 15 24.335 C 14.66612 24.335 14.38971 24.58106 14.34221 24.90173 L 14.335 25 L 14.335 28.5 C 14.335 28.86727 14.63273 29.165 15 29.165 Z "/>
</clipPath>
<g clip-path="url(#cp0)">
<path transform="matrix(1,0,0,-1,0,30)" d="M 2.199459 34.165 L 27.79791 34.165 L 27.79791 -3.171123 L 2.199459 -3.171123 Z "/>
</g>
</g>
</svg>
