<?xml version="1.0" encoding="UTF-8" standalone="no"?>
<!DOCTYPE svg PUBLIC "-//W3C//DTD SVG 1.1//EN" "http://www.w3.org/Graphics/SVG/1.1/DTD/svg11.dtd">
<svg xmlns="http://www.w3.org/2000/svg" xmlns:xlink="http://www.w3.org/1999/xlink" version="1.1" width="30pt" height="30pt" viewBox="0 0 30 30">
<g enable-background="new">
<clipPath id="cp0">
<path transform="matrix(1,0,0,-1,0,30)" d="M 15 25.665 C 20.89012 25.665 25.665 20.89012 25.665 15 C 25.665 9.109883 20.89012 4.335 15 4.335 C 9.109883 4.335 4.335 9.109883 4.335 15 C 4.335 20.89012 9.109883 25.665 15 25.665 Z M 15 17.165 L 13 17.165 C 12.63273 17.165 12.335 16.86727 12.335 16.5 C 12.335 16.13273 12.63273 15.835 13 15.835 L 14.335 15.835 L 14.334 10.166 L 13 10.165 C 12.63273 10.165 12.335 9.867269 12.335 9.5 C 12.335 9.132731 12.63273 8.835 13 8.835 L 17 8.835 C 17.36727 8.835 17.665 9.132731 17.665 9.5 C 17.665 9.867269 17.36727 10.165 17 10.165 L 15.664 10.166 L 15.665 16.5 C 15.665 16.86727 15.36727 17.165 15 17.165 Z M 14.75 21.25 C 14.05964 21.25 13.5 20.69036 13.5 20 C 13.5 19.30964 14.05964 18.75 14.75 18.75 C 15.44036 18.75 16 19.30964 16 20 C 16 20.69036 15.44036 21.25 14.75 21.25 Z "/>
</clipPath>
<g clip-path="url(#cp0)">
<path transform="matrix(1,0,0,-1,0,30)" d="M -.665 30.665 L 30.665 30.665 L 30.665 -.665 L -.665 -.665 Z "/>
</g>
</g>
</svg>
