<?xml version="1.0" encoding="UTF-8" standalone="no"?>
<!DOCTYPE svg PUBLIC "-//W3C//DTD SVG 1.1//EN" "http://www.w3.org/Graphics/SVG/1.1/DTD/svg11.dtd">
<svg xmlns="http://www.w3.org/2000/svg" xmlns:xlink="http://www.w3.org/1999/xlink" version="1.1" width="40pt" height="40pt" viewBox="0 0 40 40">
<g enable-background="new">
<clipPath id="cp0">
<path transform="matrix(1,0,0,-1,0,40)" d="M 21 22 L 21 10.04721 C 21 10.01616 20.99277 9.985542 20.97889 9.957771 L 20.17889 8.357771 C 20.12949 8.258975 20.00935 8.21893 19.91056 8.268328 C 19.87185 8.287681 19.84047 8.319065 19.82111 8.357771 L 19.02111 9.957771 C 19.00723 9.985542 19 10.01616 19 10.04721 L 19 22 L 21 22 Z M 20 31 C 22.20914 31 24 29.20914 24 27 C 24 24.79086 22.20914 23 20 23 C 17.79086 23 16 24.79086 16 27 C 16 29.20914 17.79086 31 20 31 Z M 19 29 C 18.44772 29 18 28.55228 18 28 C 18 27.44772 18.44772 27 19 27 C 19.55228 27 20 27.44772 20 28 C 20 28.55228 19.55228 29 19 29 Z " fill-rule="evenodd"/>
</clipPath>
<g clip-path="url(#cp0)">
<clipPath id="cp1">
<path transform="matrix(1,0,0,-1,0,40)" d="M 0 0 L 40 0 L 40 40 L 0 40 Z "/>
</clipPath>
<g clip-path="url(#cp1)">
<path transform="matrix(1,0,0,-1,0,40)" d="M 11 36 L 29 36 L 29 3.24717 L 11 3.24717 Z "/>
</g>
</g>
<clipPath id="cp2">
<path transform="matrix(1,0,0,-1,0,40)" d="M 12.1637 24.75929 C 12.58378 24.57582 12.77559 24.08655 12.59213 23.66647 C 12.09168 22.52062 11.83 21.27943 11.83 20 C 11.83 18.72096 12.09152 17.48015 12.59166 16.33459 C 12.77508 15.91449 12.5832 15.42524 12.1631 15.24183 C 11.743 15.05841 11.25375 15.25029 11.07034 15.67039 C 10.47916 17.02446 10.17 18.49129 10.17 20 C 10.17 21.50918 10.47935 22.97645 11.07088 24.33086 C 11.25435 24.75094 11.74362 24.94276 12.1637 24.75929 Z M 27.83651 24.75929 C 28.25659 24.94276 28.74586 24.75094 28.92933 24.33086 C 29.52086 22.97645 29.83021 21.50918 29.83021 20 C 29.83021 18.49129 29.52105 17.02446 28.92987 15.67039 C 28.74646 15.25029 28.25721 15.05841 27.83711 15.24183 C 27.41701 15.42524 27.22513 15.91449 27.40855 16.33459 C 27.90869 17.48015 28.17021 18.72096 28.17021 20 C 28.17021 21.27943 27.90853 22.52062 27.40808 23.66647 C 27.22462 24.08655 27.41643 24.57582 27.83651 24.75929 Z "/>
</clipPath>
<g clip-path="url(#cp2)">
<clipPath id="cp3">
<path transform="matrix(1,0,0,-1,0,40)" d="M 0 0 L 40 0 L 40 40 L 0 40 Z "/>
</clipPath>
<g clip-path="url(#cp3)">
<path transform="matrix(1,0,0,-1,0,40)" d="M 5.17 29.82888 L 34.83021 29.82888 L 34.83021 10.17228 L 5.17 10.17228 Z " fill-opacity=".6"/>
</g>
</g>
<clipPath id="cp4">
<path transform="matrix(1,0,0,-1,0,40)" d="M 7.93553 27.76062 C 8.35561 27.57715 8.547422 27.08788 8.363954 26.6678 C 7.453564 24.58331 6.977504 22.32532 6.977504 19.99899 C 6.977504 17.67338 7.453268 15.41606 8.363113 13.3321 C 8.546527 12.912 8.354653 12.42275 7.93455 12.23934 C 7.514447 12.05592 7.0252 12.2478 6.841786 12.6679 C 5.840905 14.96038 5.317504 17.44371 5.317504 19.99899 C 5.317504 22.55506 5.84123 25.03914 6.842711 27.3322 C 7.026179 27.75228 7.51545 27.94409 7.93553 27.76062 Z M 32.06468 27.76062 C 32.48476 27.94409 32.97403 27.75228 33.1575 27.3322 C 34.15898 25.03914 34.68271 22.55506 34.68271 19.99899 C 34.68271 17.44371 34.15931 14.96038 33.15842 12.6679 C 32.97501 12.2478 32.48576 12.05592 32.06566 12.23934 C 31.64556 12.42275 31.45368 12.912 31.6371 13.3321 C 32.54694 15.41606 33.02271 17.67338 33.02271 19.99899 C 33.02271 22.32532 32.54665 24.58331 31.63626 26.6678 C 31.45279 27.08788 31.6446 27.57715 32.06468 27.76062 Z "/>
</clipPath>
<g clip-path="url(#cp4)">
<clipPath id="cp5">
<path transform="matrix(1,0,0,-1,0,40)" d="M 0 0 L 40 0 L 40 40 L 0 40 Z "/>
</clipPath>
<g clip-path="url(#cp5)">
<path transform="matrix(1,0,0,-1,0,40)" d="M .3175038 32.83021 L 39.68271 32.83021 L 39.68271 7.16979 L .3175038 7.16979 Z " fill-opacity=".3"/>
</g>
</g>
</g>
</svg>
