<?xml version="1.0" encoding="UTF-8" standalone="no"?>
<!DOCTYPE svg PUBLIC "-//W3C//DTD SVG 1.1//EN" "http://www.w3.org/Graphics/SVG/1.1/DTD/svg11.dtd">
<svg xmlns="http://www.w3.org/2000/svg" xmlns:xlink="http://www.w3.org/1999/xlink" version="1.1" width="40pt" height="40pt" viewBox="0 0 40 40">
<g enable-background="new">
<clipPath id="cp0">
<path transform="matrix(1,0,0,-1,0,40)" d="M 31.00037 20.06758 L 31 13 C 31 12.44772 30.55228 12 30 12 L 10 12 C 9.447715 12 9 12.44772 9 13 L 8.998688 20.06789 C 11.89562 19.1245 15.06292 18.59412 18.49944 18.47559 L 18.5 17.5 C 18.5 16.98716 18.88604 16.56449 19.38338 16.50673 L 19.5 16.5 L 20.5 16.5 C 21.01284 16.5 21.43551 16.88604 21.49327 17.38338 L 21.5 17.5 L 21.50042 18.47558 C 24.93662 18.59409 28.10365 19.12437 31.00037 20.06758 Z M 30 26 C 30.55228 26 31 25.55228 31 25 L 31.00074 21.22697 C 27.71324 20.10963 24.04696 19.55 20 19.55 C 15.95263 19.55 12.28602 20.10974 8.998258 21.22731 L 9 25 C 9 25.55228 9.447715 26 10 26 L 30 26 Z M 23 29.835 C 23.96277 29.835 24.75236 29.09354 24.82892 28.1505 L 24.835 28 L 24.835 27.5 C 24.835 27.03884 24.46116 26.665 24 26.665 C 23.57432 26.665 23.22303 26.98354 23.17151 27.39526 L 23.165 27.5 L 23.165 28 C 23.165 28.0729 23.11772 28.13476 23.05215 28.15659 L 23 28.165 L 17 28.165 C 16.9271 28.165 16.86524 28.11772 16.84341 28.05215 L 16.835 28 L 16.835 27.5 C 16.835 27.03884 16.46116 26.665 16 26.665 C 15.57432 26.665 15.22303 26.98354 15.17151 27.39526 L 15.165 27.5 L 15.165 28 C 15.165 28.96277 15.90646 29.75236 16.8495 29.82892 L 17 29.835 L 23 29.835 Z " fill-rule="evenodd"/>
</clipPath>
<g clip-path="url(#cp0)">
<clipPath id="cp1">
<path transform="matrix(1,0,0,-1,0,40)" d="M 0 0 L 40 0 L 40 40 L 0 40 Z "/>
</clipPath>
<g clip-path="url(#cp1)">
<path transform="matrix(1,0,0,-1,0,40)" d="M 3.998258 34.835 L 36.00074 34.835 L 36.00074 7 L 3.998258 7 Z "/>
</g>
</g>
</g>
</svg>
