<?xml version="1.0" encoding="UTF-8" standalone="no"?>
<!DOCTYPE svg PUBLIC "-//W3C//DTD SVG 1.1//EN" "http://www.w3.org/Graphics/SVG/1.1/DTD/svg11.dtd">
<svg xmlns="http://www.w3.org/2000/svg" xmlns:xlink="http://www.w3.org/1999/xlink" version="1.1" width="40pt" height="40pt" viewBox="0 0 40 40">
<g enable-background="new">
<clipPath id="cp0">
<path transform="matrix(1,0,0,-1,0,40)" d="M 20 28 L 28 20 L 28 11 C 28 10.44772 27.55228 10 27 10 L 23.5 10 C 23.22386 10 23 10.22386 23 10.5 L 23 16.5 C 23 16.77614 22.77614 17 22.5 17 L 17.5 17 C 17.22386 17 17 16.77614 17 16.5 L 17 10.5 C 17 10.22386 16.77614 10 16.5 10 L 13 10 C 12.44772 10 12 10.44772 12 11 L 12 20 L 20 28 Z M 20.50493 30.66516 L 20.59043 30.59043 L 25.999 25.182 L 26 28.5 C 26 28.77614 26.22386 29 26.5 29 L 27.5 29 C 27.77614 29 28 28.77614 28 28.5 L 27.999 23.182 L 31.59043 19.59043 C 31.91652 19.26435 31.91652 18.73565 31.59043 18.40957 C 31.29152 18.11065 30.82236 18.08574 30.49507 18.33484 L 30.40957 18.40957 L 20 28.819 L 9.590434 18.40957 C 9.29152 18.11065 8.822362 18.08574 8.495074 18.33484 L 8.409566 18.40957 C 8.110652 18.70848 8.085743 19.17764 8.334837 19.50493 L 8.409566 19.59043 L 19.40957 30.59043 C 19.70848 30.88935 20.17764 30.91426 20.50493 30.66516 Z " fill-rule="evenodd"/>
</clipPath>
<g clip-path="url(#cp0)">
<clipPath id="cp1">
<path transform="matrix(1,0,0,-1,0,40)" d="M 0 0 L 40 0 L 40 40 L 0 40 Z "/>
</clipPath>
<g clip-path="url(#cp1)">
<path transform="matrix(1,0,0,-1,0,40)" d="M 3.165 35.835 L 36.835 35.835 L 36.835 5 L 3.165 5 Z "/>
</g>
</g>
</g>
</svg>
