<?xml version="1.0" encoding="UTF-8" standalone="no"?>
<!DOCTYPE svg PUBLIC "-//W3C//DTD SVG 1.1//EN" "http://www.w3.org/Graphics/SVG/1.1/DTD/svg11.dtd">
<svg xmlns="http://www.w3.org/2000/svg" xmlns:xlink="http://www.w3.org/1999/xlink" version="1.1" width="24pt" height="24pt" viewBox="0 0 24 24">
<g enable-background="new">
<clipPath id="cp0">
<path transform="matrix(1,0,0,-1,0,24)" d="M 12 17.085 C 12.78908 17.085 13.46821 16.58446 13.72545 15.86182 L 13.77118 15.71442 L 13.795 15.606 L 14.02279 15.5144 C 14.80076 15.20321 15.36338 14.52711 15.53759 13.72306 L 15.56891 13.54889 L 15.58797 13.37132 L 15.76345 10.91451 C 15.79436 10.48175 15.96497 10.07254 16.24697 9.747162 L 16.37456 9.613024 L 16.78086 9.223655 C 17.1796 8.841526 17.19307 8.208504 16.81094 7.809761 C 16.64927 7.641066 16.43458 7.535207 16.20488 7.508405 L 16.08895 7.501667 L 14.09615 7.501316 C 13.85262 6.571227 13.00645 5.885 12 5.885 C 10.99355 5.885 10.14738 6.571227 9.903847 7.501316 L 7.911048 7.501667 C 7.358763 7.501667 6.911048 7.949382 6.911048 8.501667 C 6.911048 8.73532 6.992807 8.960294 7.140106 9.138579 L 7.219143 9.223655 L 7.625441 9.613024 C 7.938684 9.913215 8.144583 10.30586 8.21483 10.73066 L 8.236548 10.91451 L 8.412035 13.37132 C 8.475997 14.26679 9.014227 15.05424 9.813857 15.44222 L 9.977205 15.5144 L 10.201 15.605 L 10.21995 15.69224 C 10.39324 16.39474 10.97154 16.93776 11.69295 17.0594 L 11.84964 17.07892 L 12 17.085 Z M 13.02883 7.501073 L 10.97117 7.501073 C 11.16782 7.13438 11.55479 6.885 12 6.885 C 12.40069 6.885 12.7542 7.086998 12.96426 7.394717 L 13.02883 7.501073 Z M 12 16.085 C 11.57517 16.085 11.22458 15.7671 11.17316 15.3562 L 11.15922 15.16556 C 11.13468 15.025 11.05094 14.90131 10.92954 14.82632 L 10.85236 14.78743 L 10.3486 14.58592 C 9.859587 14.39032 9.512385 13.95442 9.426383 13.44169 L 9.409494 13.30008 L 9.234007 10.84326 C 9.186315 10.17557 8.916934 9.545258 8.47207 9.050719 L 8.317347 8.891036 L 7.911048 8.501667 L 16.08895 8.501667 L 15.68265 8.891036 C 15.19936 9.354188 14.88642 9.964051 14.79004 10.62222 L 14.76599 10.84326 L 14.59051 13.30008 C 14.55298 13.82542 14.2434 14.2888 13.78116 14.52674 L 13.6514 14.58592 L 13.14764 14.78743 C 12.9918 14.84977 12.87944 14.98516 12.84466 15.14575 L 12.8339 15.22793 L 12.8295 15.33251 C 12.78892 15.75718 12.43026 16.085 12 16.085 Z "/>
</clipPath>
<g clip-path="url(#cp0)">
<clipPath id="cp1">
<path transform="matrix(1,0,0,-1,0,24)" d="M 0 0 L 24 0 L 24 24 L 0 24 Z "/>
</clipPath>
<g clip-path="url(#cp1)">
<path transform="matrix(1,0,0,-1,0,24)" d="M 1.911048 22.085 L 22.08895 22.085 L 22.08895 .885 L 1.911048 .885 Z "/>
</g>
</g>
</g>
</svg>
