<?xml version="1.0" encoding="UTF-8" standalone="no"?>
<!DOCTYPE svg PUBLIC "-//W3C//DTD SVG 1.1//EN" "http://www.w3.org/Graphics/SVG/1.1/DTD/svg11.dtd">
<svg xmlns="http://www.w3.org/2000/svg" xmlns:xlink="http://www.w3.org/1999/xlink" version="1.1" width="30pt" height="30pt" viewBox="0 0 30 30">
<g enable-background="new">
<clipPath id="cp0">
<path transform="matrix(1,0,0,-1,0,30)" d="M 9 15.767 C 10.01136 15.767 10.87606 15.10159 11.16485 14.15517 L 11.211 13.974 L 11.44952 13.87842 C 12.41961 13.49038 13.11649 12.63959 13.31715 11.6318 L 13.3489 11.44108 L 13.3687 11.24712 L 13.57137 8.357955 C 13.61245 7.7724 13.87226 7.226326 14.29508 6.825946 L 14.44199 6.698027 L 14.66542 6.519278 C 15.19438 6.096115 15.28014 5.324273 14.85697 4.79532 C 14.65331 4.540739 14.35805 4.379242 14.0378 4.342846 L 13.89922 4.335 L 11.64012 4.334333 C 11.46189 3.035511 10.34779 2.035 9 2.035 C 7.652212 2.035 6.538106 3.035511 6.35988 4.334333 L 4.100781 4.335 C 3.423391 4.335 2.874257 4.884133 2.874257 5.561524 C 2.874257 5.887547 3.003932 6.198103 3.231264 6.426579 L 3.334578 6.519278 L 3.558015 6.698027 C 4.01638 7.06472 4.317915 7.588908 4.40691 8.164378 L 4.428627 8.357955 L 4.631305 11.24712 C 4.70899 12.35452 5.378335 13.32783 6.371843 13.80031 L 6.550479 13.87842 L 6.784 13.973 L 6.815908 14.10413 C 7.051683 14.96128 7.778528 15.61502 8.674939 15.74385 L 8.844924 15.76177 L 9 15.767 Z M 10.2842 4.333962 L 7.715771 4.334081 C 7.874857 3.774679 8.389586 3.365 9 3.365 C 9.610371 3.365 10.12507 3.774621 10.2842 4.333962 Z M 15 25.665 C 20.89012 25.665 25.665 20.89012 25.665 15 C 25.665 10.13191 22.37574 5.917524 17.73599 4.689367 C 17.38095 4.595386 17.01695 4.807018 16.92296 5.162059 C 16.82898 5.517101 17.04062 5.881105 17.39566 5.975086 C 21.45554 7.049751 24.335 10.73907 24.335 15 C 24.335 20.15558 20.15558 24.335 15 24.335 C 10.14691 24.335 6.113843 20.61607 5.69987 15.81296 C 5.668333 15.44705 5.346135 15.17599 4.980223 15.20752 C 4.61431 15.23906 4.343245 15.56126 4.374783 15.92717 C 4.847906 21.41657 9.4552 25.665 15 25.665 Z M 9 14.437 L 8.890959 14.43071 C 8.461718 14.38085 8.121146 14.04028 8.07129 13.61104 L 8.057393 13.40154 C 8.027274 13.2041 7.90956 13.03023 7.737424 12.92894 L 7.646975 12.88456 L 7.044428 12.64354 C 6.474171 12.41544 6.070694 11.90485 5.975373 11.3056 L 5.958044 11.15405 L 5.755367 8.264883 C 5.688846 7.316623 5.256866 6.434328 4.559577 5.805524 L 4.394 5.665 L 13.605 5.665 L 13.44454 5.801097 C 12.85104 6.336908 12.45045 7.051042 12.30094 7.832575 L 12.26643 8.047308 L 12.24463 8.264883 L 12.04196 11.15405 C 11.99898 11.76673 11.63606 12.30691 11.09458 12.58075 L 10.95557 12.64354 L 10.35303 12.88456 C 10.14092 12.9694 9.989427 13.15598 9.947022 13.37602 L 9.935669 13.47217 L 9.931152 13.58787 C 9.891294 14.02962 9.544506 14.37935 9.110257 14.43054 L 9 14.437 Z M 15 21.665 C 18.68098 21.665 21.665 18.68098 21.665 15 C 21.665 11.73311 19.29913 8.96281 16.11134 8.427344 C 15.74914 8.366505 15.40621 8.610802 15.34537 8.972997 C 15.28453 9.335192 15.52883 9.67813 15.89102 9.738969 C 18.44082 10.16727 20.335 12.38524 20.335 15 C 20.335 17.94644 17.94644 20.335 15 20.335 C 13.13526 20.335 11.43703 19.37127 10.46859 17.8173 C 10.27433 17.50561 9.864185 17.4104 9.552491 17.60465 C 9.240796 17.7989 9.14559 18.20905 9.33984 18.52075 C 10.54869 20.46046 12.67126 21.665 15 21.665 Z "/>
</clipPath>
<g clip-path="url(#cp0)">
<path transform="matrix(1,0,0,-1,0,30)" d="M -2.125743 30.665 L 30.665 30.665 L 30.665 -2.965 L -2.125743 -2.965 Z "/>
</g>
</g>
</svg>
