<?xml version="1.0" encoding="UTF-8" standalone="no"?>
<!DOCTYPE svg PUBLIC "-//W3C//DTD SVG 1.1//EN" "http://www.w3.org/Graphics/SVG/1.1/DTD/svg11.dtd">
<svg xmlns="http://www.w3.org/2000/svg" xmlns:xlink="http://www.w3.org/1999/xlink" version="1.1" width="20pt" height="20pt" viewBox="0 0 20 20">
<g enable-background="new">
<clipPath id="cp0">
<path transform="matrix(1,0,0,-1,0,20)" d="M 6.144262 16 C 6.498361 16 6.819672 15.85566 7.04918 15.53417 L 8.162702 13.73409 C 8.499377 13.18983 8.466828 12.49459 8.080776 11.98416 L 7.293317 10.94301 C 7.221185 10.87084 7.194956 10.79211 7.194956 10.70682 C 7.194956 10.62809 7.227743 10.54279 7.26053 10.47062 C 7.434847 10.10376 7.928745 9.488802 8.525037 8.873389 L 8.690038 8.705724 C 9.352333 8.036506 10.06053 7.478824 10.44741 7.275434 C 10.51955 7.242629 10.60479 7.209825 10.6966 7.209825 C 10.7884 7.209825 10.87364 7.236068 10.94578 7.308239 L 11.9627 8.0899 C 12.47433 8.48317 13.17614 8.518189 13.72438 8.177804 L 15.56066 7.037726 C 15.88197 6.814653 16 6.512849 16 6.197922 C 16 5.758338 15.75082 5.299071 15.41639 4.944779 C 14.81311 4.295243 14.07869 4 13.21967 4 C 11.34426 4 9.068852 5.436851 7.245902 7.260798 C 5.416393 9.091307 4 11.34828 4 13.22471 C 4 14.05796 4.27541 14.81247 4.904918 15.42264 C 5.285246 15.79661 5.731148 16 6.144262 16 Z M 16.07137 16.66118 L 16.16715 16.64381 L 16.25491 16.61439 L 16.31208 16.58742 L 16.39343 16.53624 L 16.47023 16.47023 C 16.49966 16.44079 16.52576 16.40929 16.54852 16.37618 L 16.59633 16.2947 L 16.62761 16.22042 L 16.65779 16.09827 L 16.665 16 L 16.665 12 C 16.665 11.63273 16.36727 11.335 16 11.335 C 15.66612 11.335 15.38971 11.58106 15.34221 11.90173 L 15.335 12 L 15.335 14.395 L 12.47023 11.52977 C 12.21053 11.27008 11.78947 11.27008 11.52977 11.52977 C 11.29605 11.7635 11.27267 12.12793 11.45966 12.3878 L 11.52977 12.47023 L 14.393 15.335 L 12 15.335 C 11.66612 15.335 11.38971 15.58106 11.34221 15.90173 L 11.335 16 C 11.335 16.33388 11.58106 16.61029 11.90173 16.65779 L 12 16.665 L 16 16.665 L 16.07137 16.66118 Z "/>
</clipPath>
<g clip-path="url(#cp0)">
<clipPath id="cp1">
<path transform="matrix(1,0,0,-1,0,20)" d="M 0 0 L 20 0 L 20 20 L 0 20 Z "/>
</clipPath>
<g clip-path="url(#cp1)">
<path transform="matrix(1,0,0,-1,0,20)" d="M -1 21.665 L 21.665 21.665 L 21.665 -1 L -1 -1 Z "/>
</g>
</g>
</g>
</svg>
