<?xml version="1.0" encoding="UTF-8" standalone="no"?>
<!DOCTYPE svg PUBLIC "-//W3C//DTD SVG 1.1//EN" "http://www.w3.org/Graphics/SVG/1.1/DTD/svg11.dtd">
<svg xmlns="http://www.w3.org/2000/svg" xmlns:xlink="http://www.w3.org/1999/xlink" version="1.1" width="20pt" height="20pt" viewBox="0 0 20 20">
<g enable-background="new">
<clipPath id="cp0">
<path transform="matrix(1,0,0,-1,0,20)" d="M 11 15 C 12.10457 15 13 14.10457 13 13 L 13 7 C 13 5.895431 12.10457 5 11 5 L 4 5 C 2.895431 5 2 5.895431 2 7 L 2 13 C 2 14.10457 2.895431 15 4 15 L 11 15 Z M 17.2 13.86863 C 17.60784 13.86863 17.9444 13.56344 17.99377 13.16898 L 18 13.06863 L 18 6.931371 C 18 6.719198 17.91571 6.515715 17.76569 6.365685 C 17.48167 6.081668 17.03723 6.055848 16.72404 6.288226 L 16.63431 6.365685 L 14.29289 8.707107 C 14.13661 8.863387 14.0374 9.066068 14.00867 9.28277 L 14 9.414214 L 14 10.58579 C 14 10.8068 14.07316 11.02027 14.20608 11.19382 L 14.29289 11.29289 L 16.63431 13.63431 C 16.78434 13.78434 16.98783 13.86863 17.2 13.86863 Z M 10 12.665 L 6 12.665 L 5.901731 12.65779 C 5.581058 12.61029 5.335 12.33388 5.335 12 L 5.34221 11.90173 C 5.389708 11.58106 5.666119 11.335 6 11.335 L 8.393 11.335 L 5.529774 8.470226 L 5.459655 8.387798 C 5.272672 8.12793 5.296045 7.763503 5.529774 7.529774 C 5.789473 7.270075 6.210527 7.270075 6.470226 7.529774 L 9.335 10.395 L 9.335 8 L 9.34221 7.901731 C 9.389708 7.581058 9.666119 7.335 10 7.335 C 10.36727 7.335 10.665 7.632731 10.665 8 L 10.665 12 L 10.65779 12.09827 L 10.65721 12.10179 L 10.64985 12.14179 C 10.63819 12.1955 10.62003 12.24679 10.59633 12.2947 C 10.59345 12.30053 10.59048 12.30633 10.58737 12.31208 C 10.57567 12.33405 10.56278 12.35529 10.54852 12.37618 L 10.511 12.425 L 10.48757 12.45223 L 10.47023 12.47023 C 10.46428 12.47617 10.45825 12.48198 10.45223 12.48757 L 10.41048 12.52328 C 10.39926 12.5321 10.38782 12.54052 10.37571 12.54877 C 10.35529 12.56278 10.33405 12.57567 10.31208 12.58742 C 10.30633 12.59048 10.30053 12.59345 10.2948 12.59625 C 10.26868 12.60919 10.24159 12.62046 10.21367 12.62993 L 10.19206 12.63684 C 10.17557 12.64181 10.1588 12.64616 10.14207 12.64973 C 10.09531 12.65991 10.04765 12.665 10 12.665 Z " fill-rule="evenodd"/>
</clipPath>
<g clip-path="url(#cp0)">
<clipPath id="cp1">
<path transform="matrix(1,0,0,-1,0,20)" d="M 0 0 L 20 0 L 20 20 L 0 20 Z "/>
</clipPath>
<g clip-path="url(#cp1)">
<path transform="matrix(1,0,0,-1,0,20)" d="M -3 20 L 23 20 L 23 0 L -3 0 Z "/>
</g>
</g>
</g>
</svg>
