<?xml version="1.0" encoding="UTF-8" standalone="no"?>
<!DOCTYPE svg PUBLIC "-//W3C//DTD SVG 1.1//EN" "http://www.w3.org/Graphics/SVG/1.1/DTD/svg11.dtd">
<svg xmlns="http://www.w3.org/2000/svg" xmlns:xlink="http://www.w3.org/1999/xlink" version="1.1" width="40pt" height="40pt" viewBox="0 0 40 40">
<g enable-background="new">
<clipPath id="cp0">
<path transform="matrix(1,0,0,-1,0,40)" d="M 23.25197 11.66926 C 22.754 10.45512 21.5602 9.6 20.16667 9.6 C 18.77314 9.6 17.57933 10.45512 17.08137 11.66926 L 23.25197 11.66926 Z M 12.55447 28.20701 L 12.63689 28.13689 L 29.63689 11.13689 C 29.89659 10.87719 29.89659 10.45614 29.63689 10.19644 C 29.40316 9.962712 29.03874 9.939339 28.77887 10.12632 L 28.69644 10.19644 L 11.69644 27.19644 C 11.43674 27.45614 11.43674 27.87719 11.69644 28.13689 C 11.93017 28.37062 12.2946 28.39399 12.55447 28.20701 Z M 13.9558 23.05 L 24.0048 13 L 12.0708 13 C 11.51852 13 11.0708 13.44772 11.0708 14 C 11.0708 14.28031 11.18845 14.54774 11.39508 14.73715 L 12.03311 15.32201 C 12.9751 16.18551 13.55073 17.37691 13.64178 18.65155 L 13.9558 23.05 Z M 20.16667 30 C 21.58278 30 22.74108 28.89617 22.82809 27.50198 L 22.83333 27.33333 L 23.84087 26.93032 C 25.26344 26.36129 26.23598 25.02966 26.34514 23.5014 L 26.69156 18.65155 C 26.7826 17.37691 27.35823 16.18551 28.30023 15.32201 L 28.93826 14.73715 C 29.28425 14.42 29.35606 13.9155 29.14076 13.52127 L 15.97992 26.68172 C 16.14317 26.77581 16.31429 26.85905 16.49247 26.93032 L 17.5 27.33333 C 17.5 28.80609 18.69391 30 20.16667 30 Z " fill-rule="evenodd"/>
</clipPath>
<g clip-path="url(#cp0)">
<path transform="matrix(1,0,0,-1,0,40)" d="M 6.070802 35 L 34.83167 35 L 34.83167 4.6 L 6.070802 4.6 Z "/>
</g>
</g>
</svg>
