<?xml version="1.0" encoding="UTF-8" standalone="no"?>
<!DOCTYPE svg PUBLIC "-//W3C//DTD SVG 1.1//EN" "http://www.w3.org/Graphics/SVG/1.1/DTD/svg11.dtd">
<svg xmlns="http://www.w3.org/2000/svg" xmlns:xlink="http://www.w3.org/1999/xlink" version="1.1" width="40pt" height="40pt" viewBox="0 0 40 40">
<g enable-background="new">
<clipPath id="cp0">
<path transform="matrix(1,0,0,-1,0,40)" d="M 12 22.5 C 13.38071 22.5 14.5 21.38071 14.5 20 C 14.5 18.61929 13.38071 17.5 12 17.5 C 10.61929 17.5 9.5 18.61929 9.5 20 C 9.5 21.38071 10.61929 22.5 12 22.5 Z M 20 22.5 C 21.38071 22.5 22.5 21.38071 22.5 20 C 22.5 18.61929 21.38071 17.5 20 17.5 C 18.61929 17.5 17.5 18.61929 17.5 20 C 17.5 21.38071 18.61929 22.5 20 22.5 Z M 28 22.5 C 29.38071 22.5 30.5 21.38071 30.5 20 C 30.5 18.61929 29.38071 17.5 28 17.5 C 26.61929 17.5 25.5 18.61929 25.5 20 C 25.5 21.38071 26.61929 22.5 28 22.5 Z " fill-rule="evenodd"/>
</clipPath>
<g clip-path="url(#cp0)">
<path transform="matrix(1,0,0,-1,0,40)" d="M 4.5 27.5 L 35.5 27.5 L 35.5 12.5 L 4.5 12.5 Z "/>
</g>
</g>
</svg>
