<?xml version="1.0" encoding="UTF-8" standalone="no"?>
<!DOCTYPE svg PUBLIC "-//W3C//DTD SVG 1.1//EN" "http://www.w3.org/Graphics/SVG/1.1/DTD/svg11.dtd">
<svg xmlns="http://www.w3.org/2000/svg" xmlns:xlink="http://www.w3.org/1999/xlink" version="1.1" width="40pt" height="40pt" viewBox="0 0 40 40">
<g enable-background="new">
<clipPath id="cp0">
<path transform="matrix(1,0,0,-1,0,40)" d="M 15.40984 15.43466 C 12.36066 18.48551 10 22.24713 10 25.37452 C 10 26.76326 10.45902 28.02078 11.5082 29.03773 C 12.14208 29.66102 12.88525 30 13.57377 30 C 14.16393 30 14.69945 29.75943 15.08197 29.22362 L 16.93784 26.22348 C 17.49896 25.31638 17.44471 24.15764 16.80129 23.30694 L 15.48886 21.57169 C 15.36864 21.4514 15.32493 21.32018 15.32493 21.17803 C 15.32493 21.04681 15.37957 20.90466 15.43422 20.78437 C 15.75116 20.11734 16.70198 18.95824 17.81673 17.84287 C 18.92055 16.72751 20.10088 15.79804 20.74569 15.45906 C 20.86591 15.40438 21.00799 15.34971 21.16099 15.34971 C 21.314 15.34971 21.45607 15.39345 21.57629 15.51373 L 23.27116 16.8165 C 24.12389 17.47195 25.29356 17.53031 26.2073 16.96301 L 29.26776 15.06288 C 29.80328 14.69109 30 14.18808 30 13.6632 C 30 12.93056 29.5847 12.16512 29.02732 11.57463 C 28.02186 10.49207 26.79781 10 25.36612 10 C 22.24044 10 18.44809 12.39475 15.40984 15.43466 Z " fill-rule="evenodd"/>
</clipPath>
<g clip-path="url(#cp0)">
<path transform="matrix(1,0,0,-1,0,40)" d="M 5 35 L 35 35 L 35 5 L 5 5 Z "/>
</g>
</g>
</svg>
