<?xml version="1.0" encoding="UTF-8" standalone="no"?>
<!DOCTYPE svg PUBLIC "-//W3C//DTD SVG 1.1//EN" "http://www.w3.org/Graphics/SVG/1.1/DTD/svg11.dtd">
<svg xmlns="http://www.w3.org/2000/svg" xmlns:xlink="http://www.w3.org/1999/xlink" version="1.1" width="40pt" height="40pt" viewBox="0 0 40 40">
<g enable-background="new">
<clipPath id="cp0">
<path transform="matrix(1,0,0,-1,0,40)" d="M 14 16.5 C 14.51284 16.5 14.93551 16.11396 14.99327 15.61662 L 15 15.5 L 15 13 L 17.5 13 C 18.05228 13 18.5 12.55228 18.5 12 C 18.5 11.48716 18.11396 11.06449 17.61662 11.00673 L 17.5 11 L 15 11 L 15 8.5 C 15 7.947715 14.55228 7.5 14 7.5 C 13.48716 7.5 13.06449 7.88604 13.00673 8.383379 L 13 8.5 L 13 11 L 10.5 11 C 9.947715 11 9.5 11.44772 9.5 12 C 9.5 12.51284 9.88604 12.93551 10.38338 12.99327 L 10.5 13 L 13 13 L 13 15.5 C 13 16.05228 13.44772 16.5 14 16.5 Z M 20.00049 19 C 24.54497 19 27.32972 17.12296 28.35476 13.36889 C 28.62754 12.36993 28.03883 11.33898 27.03986 11.06621 C 26.87891 11.02227 26.71281 11 26.54597 11 L 19.60241 10.99903 C 19.74929 11.30318 19.83 11.64282 19.83 12 L 19.82462 12.15953 C 19.74265 13.37194 18.73321 14.33 17.5 14.33 L 16.329 14.33 L 16.33 15.5 L 16.32106 15.69322 C 16.20789 16.68299 15.5592 17.44776 14.70335 17.72112 C 16.06839 18.57363 17.83458 19 20.00049 19 Z M 20.00049 30 C 22.20963 30 24.00049 28.20914 24.00049 26 C 24.00049 23.79086 22.20963 22 20.00049 22 C 17.79135 22 16.00049 23.79086 16.00049 26 C 16.00049 28.20914 17.79135 30 20.00049 30 Z " fill-rule="evenodd"/>
</clipPath>
<g clip-path="url(#cp0)">
<path transform="matrix(1,0,0,-1,0,40)" d="M 4.5 35 L 33.42145 35 L 33.42145 2.5 L 4.5 2.5 Z "/>
</g>
</g>
</svg>
