<?xml version="1.0" encoding="UTF-8" standalone="no"?>
<!DOCTYPE svg PUBLIC "-//W3C//DTD SVG 1.1//EN" "http://www.w3.org/Graphics/SVG/1.1/DTD/svg11.dtd">
<svg xmlns="http://www.w3.org/2000/svg" xmlns:xlink="http://www.w3.org/1999/xlink" version="1.1" width="40pt" height="40pt" viewBox="0 0 40 40">
<g enable-background="new">
<clipPath id="cp0">
<path transform="matrix(1,0,0,-1,0,40)" d="M 20 29 C 24.97056 29 29 24.97056 29 20 C 29 15.02944 24.97056 11 20 11 C 18.52491 11 17.13271 11.35487 15.9041 11.98389 C 14.92687 11.32823 13.29167 11 11 11 C 12.90244 12.08711 13.53173 13.23883 12.88786 14.45516 L 12.82517 14.56579 C 11.67971 16.07579 11 17.95852 11 20 C 11 24.97056 15.02944 29 20 29 Z " fill-rule="evenodd"/>
</clipPath>
<g clip-path="url(#cp0)">
<path transform="matrix(1,0,0,-1,0,40)" d="M 6 34 L 34 34 L 34 6 L 6 6 Z "/>
</g>
</g>
</svg>
