<?xml version="1.0" encoding="UTF-8" standalone="no"?>
<!DOCTYPE svg PUBLIC "-//W3C//DTD SVG 1.1//EN" "http://www.w3.org/Graphics/SVG/1.1/DTD/svg11.dtd">
<svg xmlns="http://www.w3.org/2000/svg" xmlns:xlink="http://www.w3.org/1999/xlink" version="1.1" width="40pt" height="40pt" viewBox="0 0 40 40">
<g enable-background="new">
<clipPath id="cp0">
<path transform="matrix(1,0,0,-1,0,40)" d="M 23.25197 11.66926 C 22.754 10.45512 21.5602 9.6 20.16667 9.6 C 18.77314 9.6 17.57933 10.45512 17.08137 11.66926 L 23.25197 11.66926 Z M 20.16667 30 C 21.58278 30 22.74108 28.89617 22.82809 27.50198 L 22.83333 27.33333 L 23.84087 26.93032 C 25.26344 26.36129 26.23598 25.02966 26.34514 23.5014 L 26.69156 18.65155 C 26.7826 17.37691 27.35823 16.18551 28.30023 15.32201 L 28.93826 14.73715 C 29.34538 14.36396 29.37288 13.73139 28.99969 13.32428 C 28.81028 13.11765 28.54284 13 28.26253 13 L 12.0708 13 C 11.51852 13 11.0708 13.44772 11.0708 14 C 11.0708 14.28031 11.18845 14.54774 11.39508 14.73715 L 12.03311 15.32201 C 12.9751 16.18551 13.55073 17.37691 13.64178 18.65155 L 13.9882 23.5014 C 14.09736 25.02966 15.0699 26.36129 16.49247 26.93032 L 17.5 27.33333 C 17.5 28.80609 18.69391 30 20.16667 30 Z " fill-rule="evenodd"/>
</clipPath>
<g clip-path="url(#cp0)">
<path transform="matrix(1,0,0,-1,0,40)" d="M 6.070802 35 L 34.26254 35 L 34.26254 4.6 L 6.070802 4.6 Z "/>
</g>
</g>
</svg>
