<?xml version="1.0" encoding="UTF-8" standalone="no"?>
<!DOCTYPE svg PUBLIC "-//W3C//DTD SVG 1.1//EN" "http://www.w3.org/Graphics/SVG/1.1/DTD/svg11.dtd">
<svg xmlns="http://www.w3.org/2000/svg" xmlns:xlink="http://www.w3.org/1999/xlink" version="1.1" width="40pt" height="40pt" viewBox="0 0 40 40">
<g enable-background="new">
<clipPath id="cp0">
<path transform="matrix(1,0,0,-1,0,40)" d="M 18.5 30 C 23.19442 30 27 26.19442 27 21.5 C 27 19.69255 26.43586 18.01686 25.47404 16.63941 L 25.56066 16.56066 L 30.06066 12.06066 C 30.64645 11.47487 30.64645 10.52513 30.06066 9.93934 C 29.51149 9.390165 28.64242 9.355842 28.05326 9.83637 L 27.93934 9.93934 L 23.43934 14.43934 L 23.36059 14.52596 C 21.98314 13.56414 20.30745 13 18.5 13 C 13.80558 13 10 16.80558 10 21.5 C 10 26.19442 13.80558 30 18.5 30 Z M 18.5 28 C 14.91015 28 12 25.08985 12 21.5 C 12 17.91015 14.91015 15 18.5 15 C 22.08985 15 25 17.91015 25 21.5 C 25 25.08985 22.08985 28 18.5 28 Z "/>
</clipPath>
<g clip-path="url(#cp0)">
<path transform="matrix(1,0,0,-1,0,40)" d="M 5 35 L 35.5 35 L 35.5 4.5 L 5 4.5 Z "/>
</g>
</g>
</svg>
