<?xml version="1.0" encoding="UTF-8" standalone="no"?>
<!DOCTYPE svg PUBLIC "-//W3C//DTD SVG 1.1//EN" "http://www.w3.org/Graphics/SVG/1.1/DTD/svg11.dtd">
<svg xmlns="http://www.w3.org/2000/svg" xmlns:xlink="http://www.w3.org/1999/xlink" version="1.1" width="24pt" height="24pt" viewBox="0 0 24 24">
<g enable-background="new">
<clipPath id="cp0">
<path transform="matrix(1,0,0,-1,0,24)" d="M 13.06057 20.83874 L 14.45922 19.43985 C 14.74049 19.15853 15.12199 19.00047 15.51979 19.00042 L 17.5 19.00018 C 18.2797 19.00009 18.92038 18.40512 18.99297 17.64446 L 18.99982 17.5 L 18.99958 15.521 C 18.99953 15.12306 19.15761 14.74142 19.43901 14.46006 L 20.83874 13.06057 C 21.38831 12.51178 21.42272 11.64274 20.94225 11.05354 L 20.83856 10.93961 L 19.43919 9.540956 C 19.15768 9.259585 18.99953 8.877864 18.99958 8.479844 L 18.99982 6.5 C 19.00025 5.720304 18.40546 5.07948 17.64482 5.006703 L 17.5 5.000181 L 15.52016 5.00042 C 15.12214 5.000468 14.74041 4.842324 14.45904 4.560808 L 13.06039 3.161437 C 12.51169 2.611782 11.64266 2.577215 11.05338 3.057591 L 10.93943 3.161256 L 9.539935 4.56099 C 9.258579 4.842394 8.876936 5.000468 8.479004 5.00042 L 6.5 5.000181 C 5.720304 5.000087 5.07948 5.594898 5.006703 6.355541 L 4.999819 6.5 L 4.99958 8.480206 C 4.999532 8.878012 4.841465 9.259508 4.56015 9.540775 L 3.161256 10.93943 C 2.612034 11.48856 2.577636 12.35762 3.058114 12.94682 L 3.161075 13.06075 L 4.560331 14.46025 C 4.841536 14.7415 4.999532 15.12292 4.99958 15.52063 L 4.999819 17.5 C 5.000281 18.32829 5.671714 18.99972 6.5 19.00018 L 8.479366 19.00042 C 8.877083 19.00047 9.258502 19.15846 9.539754 19.43967 L 10.93925 20.83893 C 11.52509 21.42466 12.47483 21.42458 13.06057 20.83874 Z M 15.5185 14.64812 C 15.19038 14.91062 14.72415 14.88373 14.42815 14.60171 L 14.35188 14.5185 L 10.93 10.243 L 9.586899 11.5869 L 9.501902 11.66118 C 9.176574 11.90878 8.710225 11.88402 8.413101 11.5869 C 8.115977 11.28977 8.091217 10.82343 8.33882 10.4981 L 8.413101 10.4131 L 10.4131 8.413101 L 10.49762 8.339142 C 10.8206 8.092712 11.27849 8.118073 11.57229 8.398663 L 11.64812 8.481503 L 15.64812 13.4815 L 15.71256 13.57418 C 15.92272 13.92486 15.84662 14.38563 15.5185 14.64812 Z " fill-rule="evenodd"/>
</clipPath>
<g clip-path="url(#cp0)">
<path transform="matrix(1,0,0,-1,0,24)" d="M -2.278175 26.27817 L 26.27849 26.27817 L 26.27849 -2.278491 L -2.278175 -2.278491 Z "/>
</g>
</g>
</svg>
