<?xml version="1.0" encoding="UTF-8" standalone="no"?>
<!DOCTYPE svg PUBLIC "-//W3C//DTD SVG 1.1//EN" "http://www.w3.org/Graphics/SVG/1.1/DTD/svg11.dtd">
<svg xmlns="http://www.w3.org/2000/svg" xmlns:xlink="http://www.w3.org/1999/xlink" version="1.1" width="20pt" height="15pt" viewBox="0 0 20 15">
<g enable-background="new">
<clipPath id="cp0">
<path transform="matrix(1,0,0,-1,0,15)" d="M 1.462782 8.785151 L 17.5901 14.93178 C 18.12755 15.13661 18.7293 14.86698 18.93414 14.32953 C 19.00611 14.14069 19.02158 13.93499 18.97868 13.73751 L 16.19816 .9405155 C 16.0586 .2981734 15.42473 -.1094063 14.78239 .03016092 C 14.62055 .06532533 14.46783 .1338788 14.334 .2314371 L 8.800215 4.265327 C 8.468227 4.507332 8.395282 4.972645 8.637287 5.304632 C 8.66229 5.338932 8.690182 5.371028 8.720659 5.400571 L 14.42794 10.93279 C 14.54593 11.04717 14.54887 11.23555 14.43449 11.35354 C 14.336 11.45515 14.17957 11.47334 14.06039 11.39703 L 6.301934 6.429438 C 5.840361 6.133902 5.268617 6.066755 4.751131 6.247308 L 1.482652 7.387697 C 1.094754 7.523037 .8900143 7.947205 1.025354 8.335104 C 1.097644 8.542296 1.257729 8.706998 1.462782 8.785151 Z " fill-rule="evenodd"/>
</clipPath>
<g clip-path="url(#cp0)">
<clipPath id="cp1">
<path transform="matrix(1,0,0,-1,0,15)" d="M 0 0 L 20 0 L 20 15 L 0 15 Z "/>
</clipPath>
<g clip-path="url(#cp1)">
<path transform="matrix(1,0,0,-1,0,15)" d="M -4.016372 20.00034 L 24.00242 20.00034 L 24.00242 -4.997226 L -4.016372 -4.997226 Z "/>
</g>
</g>
</g>
</svg>
