<?xml version="1.0" encoding="UTF-8" standalone="no"?>
<!DOCTYPE svg PUBLIC "-//W3C//DTD SVG 1.1//EN" "http://www.w3.org/Graphics/SVG/1.1/DTD/svg11.dtd">
<svg xmlns="http://www.w3.org/2000/svg" xmlns:xlink="http://www.w3.org/1999/xlink" version="1.1" width="72pt" height="72pt" viewBox="0 0 72 72">
<g enable-background="new">
<clipPath id="cp0">
<path transform="matrix(1,0,0,-1,0,72)" d="M 27.7377 27.78239 C 22.24918 33.27392 18 40.04483 18 45.67414 C 18 48.17387 18.82623 50.4374 20.71475 52.26791 C 21.85574 53.38983 23.19344 54 24.43279 54 C 25.49508 54 26.45902 53.56698 27.14754 52.60252 L 30.4881 47.20226 C 31.49813 45.56948 31.40048 43.48376 30.24233 41.95249 L 27.87995 38.82904 C 27.66356 38.61252 27.58487 38.37633 27.58487 38.12045 C 27.58487 37.88426 27.68323 37.62838 27.78159 37.41187 C 28.35208 36.21121 30.06356 34.12483 32.07011 32.11717 C 34.057 30.10952 36.18159 28.43647 37.34224 27.8263 C 37.55864 27.72789 37.81438 27.62947 38.08979 27.62947 C 38.3652 27.62947 38.62093 27.70821 38.83733 27.92472 L 41.88809 30.2697 C 43.423 31.44951 45.52841 31.55457 47.17314 30.53341 L 52.68197 27.11318 C 53.6459 26.44396 54 25.53855 54 24.59377 C 54 23.27501 53.25246 21.89721 52.24918 20.83434 C 50.43934 18.88573 48.23607 18 45.65902 18 C 40.03279 18 33.20656 22.31055 27.7377 27.78239 Z " fill-rule="evenodd"/>
</clipPath>
<g clip-path="url(#cp0)">
<clipPath id="cp1">
<path transform="matrix(1,0,0,-1,0,72)" d="M 0 0 L 72 0 L 72 72 L 0 72 Z "/>
</clipPath>
<g clip-path="url(#cp1)">
<path transform="matrix(1,0,0,-1,0,72)" d="M 13 59 L 59 59 L 59 13 L 13 13 Z "/>
</g>
</g>
</g>
</svg>
