<?xml version="1.0" encoding="UTF-8" standalone="no"?>
<!DOCTYPE svg PUBLIC "-//W3C//DTD SVG 1.1//EN" "http://www.w3.org/Graphics/SVG/1.1/DTD/svg11.dtd">
<svg xmlns="http://www.w3.org/2000/svg" xmlns:xlink="http://www.w3.org/1999/xlink" version="1.1" width="24pt" height="24pt" viewBox="0 0 24 24">
<g enable-background="new">
<clipPath id="cp0">
<path transform="matrix(1,0,0,-1,0,24)" d="M 3.387798 20.54034 L 3.470226 20.47023 L 18.47023 5.470226 C 18.72992 5.210527 18.72992 4.789473 18.47023 4.529774 C 18.2365 4.296045 17.87207 4.272672 17.6122 4.459655 L 17.52977 4.529774 L 2.529774 19.52977 C 2.270075 19.78947 2.270075 20.21053 2.529774 20.47023 C 2.763503 20.70395 3.12793 20.72733 3.387798 20.54034 Z M 3.233191 16.93807 L 13.93807 6.233191 C 13.65831 6.084343 13.339 6 13 6 L 5 6 C 3.895431 6 3 6.895431 3 8 L 3 16 C 3 16.339 3.084343 16.65831 3.233191 16.93807 Z M 20 16.82679 C 20.51284 16.82679 20.93551 16.44075 20.99327 15.94341 L 21 15.82679 L 21 8.173211 C 21 7.934621 20.91469 7.703893 20.75949 7.522687 C 20.42785 7.1355 19.86444 7.064149 19.44981 7.338042 L 19.34948 7.413725 L 17.02895 9.401325 C 16.6297 9.743296 16.38295 10.22697 16.33759 10.74609 L 16.33 10.9203 L 16.33 13.0797 C 16.33 13.60539 16.53683 14.10743 16.90158 14.47958 L 17.02895 14.59867 L 19.34948 16.58628 C 19.53068 16.74148 19.76141 16.82679 20 16.82679 Z M 13 18 C 14.10457 18 15 17.10457 15 16 L 14.999 10.83 L 7.828 18 L 13 18 Z " fill-rule="evenodd"/>
</clipPath>
<g clip-path="url(#cp0)">
<path transform="matrix(1,0,0,-1,0,24)" d="M -2.665 25.665 L 26 25.665 L 26 -.665 L -2.665 -.665 Z "/>
</g>
</g>
</svg>
