<?xml version="1.0" encoding="UTF-8" standalone="no"?>
<!DOCTYPE svg PUBLIC "-//W3C//DTD SVG 1.1//EN" "http://www.w3.org/Graphics/SVG/1.1/DTD/svg11.dtd">
<svg xmlns="http://www.w3.org/2000/svg" xmlns:xlink="http://www.w3.org/1999/xlink" version="1.1" width="24pt" height="24pt" viewBox="0 0 24 24">
<g enable-background="new">
<clipPath id="cp0">
<path transform="matrix(1,0,0,-1,0,24)" d="M 17 18 C 18.65685 18 20 16.65685 20 15 L 20 9 C 20 7.343146 18.65685 6 17 6 L 6 6 C 4.343146 6 3 7.343146 3 9 L 3 15 C 3 16.65685 4.343146 18 6 18 L 17 18 Z M 6 16 C 5.487164 16 5.064493 15.61396 5.006728 15.11662 L 5 15 L 5 9 C 5 8.447715 5.447715 8 6 8 C 6.512836 8 6.935507 8.38604 6.993272 8.883379 L 7 9 L 7 15 C 7 15.55228 6.552285 16 6 16 Z M 21.33 14.5 C 21.88228 14.5 22.33 14.05228 22.33 13.5 L 22.33 10.5 C 22.33 9.947715 21.88228 9.5 21.33 9.5 L 21 9.5 L 21 14.5 L 21.33 14.5 Z " fill-rule="evenodd"/>
</clipPath>
<g clip-path="url(#cp0)">
<path transform="matrix(1,0,0,-1,0,24)" d="M -2 23 L 27.33 23 L 27.33 1 L -2 1 Z "/>
</g>
</g>
</svg>
