<?xml version="1.0" encoding="UTF-8" standalone="no"?>
<!DOCTYPE svg PUBLIC "-//W3C//DTD SVG 1.1//EN" "http://www.w3.org/Graphics/SVG/1.1/DTD/svg11.dtd">
<svg xmlns="http://www.w3.org/2000/svg" xmlns:xlink="http://www.w3.org/1999/xlink" version="1.1" width="24pt" height="24pt" viewBox="0 0 24 24">
<g enable-background="new">
<clipPath id="cp0">
<path transform="matrix(1,0,0,-1,0,24)" d="M 7 14.665 C 7.333881 14.665 7.610292 14.41894 7.65779 14.09827 L 7.665 14 L 7.665 12 C 7.665 9.605846 9.605846 7.665 12 7.665 C 12.72602 7.665 13.41035 7.843476 14.01151 8.158947 L 14.98593 7.184894 C 14.29685 6.756677 13.50909 6.472256 12.6646 6.373572 L 12.664 4.666 L 14 4.665 C 14.36727 4.665 14.665 4.367269 14.665 4 C 14.665 3.666119 14.41894 3.389708 14.09827 3.34221 L 14 3.335 L 10 3.335 C 9.632731 3.335 9.335 3.632731 9.335 4 C 9.335 4.333881 9.581058 4.610292 9.901731 4.65779 L 10 4.665 L 11.334 4.666 L 11.33494 6.373626 C 8.590185 6.694597 6.44488 8.977645 6.339091 11.7827 L 6.335 12 L 6.335 14 C 6.335 14.36727 6.632731 14.665 7 14.665 Z M 5.387798 20.54034 L 5.470226 20.47023 L 19.47023 6.470226 C 19.72992 6.210527 19.72992 5.789473 19.47023 5.529774 C 19.2365 5.296045 18.87207 5.272672 18.6122 5.459655 L 18.52977 5.529774 L 4.529774 19.52977 C 4.270075 19.78947 4.270075 20.21053 4.529774 20.47023 C 4.763503 20.70395 5.12793 20.72733 5.387798 20.54034 Z M 8.999 13.173 L 13.0009 9.171024 C 12.68787 9.06027 12.35097 9 12 9 C 10.34315 9 9 10.34315 9 12 L 8.999 13.173 Z M 17 14.665 C 17.33388 14.665 17.61029 14.41894 17.65779 14.09827 L 17.665 14 L 17.665 12 C 17.665 11.44255 17.58448 10.90391 17.43445 10.39507 L 16.30876 11.52031 C 16.31857 11.60941 16.32568 11.69932 16.33 11.78997 L 16.335 12 L 16.335 14 C 16.335 14.36727 16.63273 14.665 17 14.665 Z M 12 21 C 13.65685 21 15 19.65685 15 18 L 14.999 12.83 L 9.090998 18.73621 C 9.419209 20.03712 10.59716 21 12 21 Z "/>
</clipPath>
<g clip-path="url(#cp0)">
<path transform="matrix(1,0,0,-1,0,24)" d="M -.665 26 L 24.665 26 L 24.665 -1.665 L -.665 -1.665 Z "/>
</g>
</g>
</svg>
