<?xml version="1.0" encoding="UTF-8" standalone="no"?>
<!DOCTYPE svg PUBLIC "-//W3C//DTD SVG 1.1//EN" "http://www.w3.org/Graphics/SVG/1.1/DTD/svg11.dtd">
<svg xmlns="http://www.w3.org/2000/svg" xmlns:xlink="http://www.w3.org/1999/xlink" version="1.1" width="72pt" height="72pt" viewBox="0 0 72 72">
<g enable-background="new">
<clipPath id="cp0">
<path transform="matrix(1,0,0,-1,0,72)" d="M 36.0316 45.85305 C 43.79567 45.85093 51.58805 44.06779 55.56857 40.08727 C 57.33614 38.3197 58.35247 36.13491 58.31145 33.50515 C 58.29797 31.90504 57.78353 30.52768 56.90718 29.65133 C 56.15602 28.90018 55.16822 28.52477 53.99938 28.71988 L 47.81869 30.1763 C 45.94995 30.61666 44.54417 32.16053 44.28033 34.06224 L 43.74217 37.94131 C 43.74209 38.24742 43.63072 38.47008 43.44978 38.65101 C 43.28277 38.81803 43.03228 38.92941 42.80964 39.01295 C 41.55725 39.45855 38.87175 39.72365 36.03328 39.72442 C 33.20871 39.73911 30.52338 39.41982 29.27121 39.03057 C 29.04861 38.94714 28.79819 38.8359 28.60344 38.64115 C 28.4087 38.44641 28.28354 38.2099 28.28362 37.90379 L 27.78456 34.08843 C 27.53346 32.16883 26.119 30.60579 24.23393 30.16486 L 17.92013 28.688 C 16.76532 28.47961 15.87471 28.86944 15.20665 29.5375 C 14.27415 30.47 13.82849 31.97285 13.78635 33.43384 C 13.68823 36.09146 14.61987 38.27572 16.44212 40.09797 C 20.42047 44.07631 28.29536 45.85516 36.0316 45.85305 Z " fill-rule="evenodd"/>
</clipPath>
<g clip-path="url(#cp0)">
<clipPath id="cp1">
<path transform="matrix(1,0,0,-1,0,72)" d="M 0 0 L 72 0 L 72 72 L 0 72 Z "/>
</clipPath>
<g clip-path="url(#cp1)">
<path transform="matrix(1,0,0,-1,0,72)" d="M 8.779323 50.85305 L 63.31264 50.85305 L 63.31264 23.63173 L 8.779323 23.63173 Z "/>
</g>
</g>
</g>
</svg>
