<?xml version="1.0" encoding="UTF-8" standalone="no"?>
<!DOCTYPE svg PUBLIC "-//W3C//DTD SVG 1.1//EN" "http://www.w3.org/Graphics/SVG/1.1/DTD/svg11.dtd">
<svg xmlns="http://www.w3.org/2000/svg" xmlns:xlink="http://www.w3.org/1999/xlink" version="1.1" width="60pt" height="60pt" viewBox="0 0 60 60">
<g enable-background="new">
<clipPath id="cp0">
<path transform="matrix(1,0,0,-1,0,60)" d="M 42.11207 43.86199 C 45.69534 39.49566 47.5 34.87409 47.5 30.01974 C 47.5 25.16609 45.69588 20.53221 42.11368 16.13998 C 41.8228 15.78332 41.29786 15.73 40.9412 16.02088 C 40.58454 16.31176 40.53122 16.8367 40.8221 17.19336 C 44.1716 21.30026 45.83333 25.56843 45.83333 30.01974 C 45.83333 34.47035 44.17214 38.7245 40.82371 42.80468 C 40.53174 43.16045 40.58346 43.68555 40.93924 43.97751 C 41.29501 44.26948 41.8201 44.21776 42.11207 43.86199 Z M 37.86106 39.79169 C 40.2018 36.5653 41.38379 33.30134 41.38379 30.01316 C 41.38379 26.7256 40.20225 23.45364 37.86237 20.21013 C 37.59311 19.83688 37.07225 19.75258 36.699 20.02185 C 36.32575 20.29111 36.24145 20.81197 36.51072 21.18522 C 38.65605 24.15906 39.71713 27.09742 39.71713 30.01316 C 39.71713 32.92829 38.6565 35.85711 36.51203 38.81296 C 36.24176 39.18549 36.32466 39.70657 36.69718 39.97684 C 37.06971 40.24711 37.59079 40.16421 37.86106 39.79169 Z M 25.4386 39.66909 C 26.07445 39.66909 26.59744 39.18585 26.66033 38.56659 L 26.66667 38.44103 L 26.66667 21.55897 C 26.66667 21.26582 26.5618 20.98234 26.37102 20.75976 C 25.95905 20.27913 25.25623 20.19514 24.74567 20.54495 L 24.63939 20.62656 L 19.10734 25.36831 C 18.99457 25.46497 18.85711 25.52681 18.71157 25.54768 L 18.60117 25.55556 L 15 25.55556 C 14.12797 25.55556 13.41236 26.22527 13.33945 27.07842 L 13.33333 27.22222 L 13.33333 32.77778 C 13.33333 33.64981 14.00305 34.36542 14.85619 34.43833 L 15 34.44444 L 18.60117 34.44444 C 18.7497 34.44444 18.89431 34.48695 19.01839 34.56582 L 19.10734 34.63169 L 24.63939 39.37344 C 24.86196 39.56422 25.14545 39.66909 25.4386 39.66909 Z M 32.60556 36.45074 C 34.37201 34.49946 35.26758 32.28928 35.26758 29.85381 C 35.26758 27.41908 34.37261 25.2039 32.60737 23.24119 C 32.2996 22.89899 31.7727 22.87108 31.43051 23.17885 C 31.08831 23.48662 31.0604 24.01352 31.36817 24.35571 C 32.8649 26.01988 33.60092 27.84161 33.60092 29.85381 C 33.60092 31.86527 32.8655 33.68021 31.36998 35.3322 C 31.0611 35.6734 31.0873 36.20038 31.4285 36.50926 C 31.76969 36.81814 32.29668 36.79194 32.60556 36.45074 Z " fill-rule="evenodd"/>
</clipPath>
<g clip-path="url(#cp0)">
<clipPath id="cp1">
<path transform="matrix(1,0,0,-1,0,60)" d="M 0 0 L 60 0 L 60 60 L 0 60 Z "/>
</clipPath>
<g clip-path="url(#cp1)">
<path transform="matrix(1,0,0,-1,0,60)" d="M 8.333333 49.16669 L 52.5 49.16669 L 52.5 10.83331 L 8.333333 10.83331 Z "/>
</g>
</g>
</g>
</svg>
