<?xml version="1.0" encoding="UTF-8" standalone="no"?>
<!DOCTYPE svg PUBLIC "-//W3C//DTD SVG 1.1//EN" "http://www.w3.org/Graphics/SVG/1.1/DTD/svg11.dtd">
<svg xmlns="http://www.w3.org/2000/svg" xmlns:xlink="http://www.w3.org/1999/xlink" version="1.1" width="72pt" height="72pt" viewBox="0 0 72 72">
<g enable-background="new">
<clipPath id="cp0">
<path transform="matrix(1,0,0,-1,0,72)" d="M 41.5 51 C 42.37682 51 43.20613 50.61666 43.77375 49.95707 L 43.9 49.8 L 45.1 48.2 C 45.62609 47.49854 46.43035 47.0651 47.2986 47.00676 L 47.5 47 L 51 47 C 53.1422 47 54.89108 45.31603 54.9951 43.19964 L 55 43 L 55 27 C 55 24.8578 53.31603 23.10892 51.19964 23.0049 L 51 23 L 21 23 C 18.8578 23 17.10892 24.68397 17.0049 26.80036 L 17 27 L 17 43 C 17 45.1422 18.68397 46.89108 20.80036 46.9951 L 21 47 L 24.5 47 C 25.37682 47 26.20613 47.38334 26.77375 48.04293 L 26.9 48.2 L 28.1 49.8 C 28.62609 50.50146 29.43035 50.9349 30.2986 50.99324 L 30.5 51 L 41.5 51 Z M 28.35947 40.94627 C 28.19486 41.11687 27.92688 41.15079 27.72265 41.01464 C 27.68603 40.99023 27.65288 40.96114 27.624 40.92819 L 27.58397 40.87596 L 24.51823 36.27735 L 24.47508 36.1981 C 24.38092 35.98054 24.45267 35.72013 24.65691 35.58397 C 24.71166 35.54747 24.77281 35.52232 24.83673 35.5096 L 24.93426 35.5 L 27 35.5 C 27 30.52944 31.02944 26.5 36 26.5 C 37.60248 26.5 39.14602 26.92026 40.5039 27.70649 C 40.98185 27.98323 41.14496 28.59502 40.86822 29.07297 C 40.59148 29.55092 39.97969 29.71403 39.50174 29.43729 C 38.44641 28.82624 37.24819 28.5 36 28.5 C 32.21455 28.5 29.1309 31.50478 29.00406 35.25935 L 29 35.5 L 31.06574 35.5 L 31.15562 35.50806 C 31.38887 35.55039 31.56574 35.75454 31.56574 36 C 31.56574 36.06581 31.55276 36.13064 31.52787 36.19088 L 31.48177 36.27735 L 28.41603 40.87596 L 28.35947 40.94627 Z M 36 44.5 C 34.40008 44.5 32.85889 44.08108 31.50253 43.29723 C 31.02436 43.02089 30.86074 42.40923 31.13708 41.93105 C 31.41342 41.45288 32.02508 41.28926 32.50326 41.5656 C 33.5574 42.1748 34.75381 42.5 36 42.5 C 39.78545 42.5 42.8691 39.49522 42.99594 35.74065 L 43 35.5 L 40.93426 35.5 C 40.83555 35.5 40.73904 35.47078 40.65691 35.41603 C 40.45267 35.27987 40.38092 35.01946 40.47508 34.8019 L 40.51823 34.72265 L 43.58397 30.12404 C 43.62059 30.06911 43.66772 30.02198 43.72265 29.98536 C 43.92688 29.84921 44.19486 29.88313 44.35947 30.05373 L 44.41603 30.12404 L 47.48177 34.72265 C 47.53652 34.80478 47.56574 34.90129 47.56574 35 C 47.56574 35.24546 47.38887 35.44961 47.15562 35.49194 L 47.06574 35.5 L 45 35.5 C 45 40.47056 40.97056 44.5 36 44.5 Z " fill-rule="evenodd"/>
</clipPath>
<g clip-path="url(#cp0)">
<path transform="matrix(1,0,0,-1,0,72)" d="M 12 56 L 60 56 L 60 18 L 12 18 Z "/>
</g>
</g>
</svg>
