<?xml version="1.0" encoding="UTF-8" standalone="no"?>
<!DOCTYPE svg PUBLIC "-//W3C//DTD SVG 1.1//EN" "http://www.w3.org/Graphics/SVG/1.1/DTD/svg11.dtd">
<svg xmlns="http://www.w3.org/2000/svg" xmlns:xlink="http://www.w3.org/1999/xlink" version="1.1" width="72pt" height="72pt" viewBox="0 0 72 72">
<g enable-background="new">
<clipPath id="cp0">
<path transform="matrix(1,0,0,-1,0,72)" d="M 47.62253 48.28323 L 47.70711 48.20711 L 53.70711 42.20711 C 54.06759 41.84662 54.09532 41.27939 53.7903 40.8871 L 53.70711 40.79289 L 48.915 36 L 53.70711 31.20711 C 54.06759 30.84662 54.09532 30.27939 53.7903 29.8871 L 53.70711 29.79289 L 47.70711 23.79289 C 47.10453 23.19032 46.09282 23.57233 46.00598 24.38637 L 46 24.5 L 46 33.086 L 41.70711 28.79289 C 41.34662 28.43241 40.77939 28.40468 40.3871 28.7097 L 40.29289 28.79289 C 39.93241 29.15338 39.90468 29.72061 40.2097 30.1129 L 40.29289 30.20711 L 46 35.916 L 46 36.085 L 40.29289 41.79289 C 39.93241 42.15338 39.90468 42.72061 40.2097 43.1129 L 40.29289 43.20711 C 40.65338 43.56759 41.22061 43.59532 41.6129 43.2903 L 41.70711 43.20711 L 46 38.915 L 46 47.5 C 46 48.35217 46.98551 48.79743 47.62253 48.28323 Z M 30.33 47.92024 C 31.20377 47.92024 31.92081 47.24919 31.99387 46.39434 L 32 46.25024 L 32 25.74976 C 32 25.3372 31.84729 24.93924 31.5713 24.63258 C 30.9906 23.98736 30.02109 23.90018 29.33749 24.40655 L 29.21283 24.50845 L 22.57046 30.48659 C 22.24911 30.7758 21.84405 30.95197 21.41681 30.9915 L 21.23253 31 L 18 31 C 16.94564 31 16.08183 31.81588 16.00549 32.85074 L 16 33 L 16 39 C 16 40.05436 16.81588 40.91817 17.85074 40.99451 L 18 41 L 21.23253 41 C 21.66485 41 22.08379 41.14002 22.42779 41.39645 L 22.57046 41.51341 L 29.21283 47.49155 C 29.51948 47.76753 29.91744 47.92024 30.33 47.92024 Z M 48 34.085 L 48 26.916 L 51.585 30.5 L 48 34.085 Z M 48 45.085 L 48 37.916 L 51.585 41.5 L 48 45.085 Z " fill-rule="evenodd"/>
</clipPath>
<g clip-path="url(#cp0)">
<path transform="matrix(1,0,0,-1,0,72)" d="M 11 53.502 L 59 53.502 L 59 18.498 L 11 18.498 Z "/>
</g>
</g>
</svg>
