<?xml version="1.0" encoding="UTF-8" standalone="no"?>
<!DOCTYPE svg PUBLIC "-//W3C//DTD SVG 1.1//EN" "http://www.w3.org/Graphics/SVG/1.1/DTD/svg11.dtd">
<svg xmlns="http://www.w3.org/2000/svg" xmlns:xlink="http://www.w3.org/1999/xlink" version="1.1" width="72pt" height="72pt" viewBox="0 0 72 72">
<g enable-background="new">
<clipPath id="cp0">
<path transform="matrix(1,0,0,-1,0,72)" d="M 32 23 L 32 22 C 32 20.89543 31.10457 20 30 20 L 29 20 C 27.89543 20 27 20.89543 27 22 L 27 23 L 32 23 Z M 45 23 L 45 22 C 45 20.94564 44.18412 20.08183 43.14926 20.00549 L 43 20 L 42 20 C 40.94564 20 40.08183 20.81588 40.00549 21.85074 L 40 22 L 40 23 L 45 23 Z M 32.00062 38.90031 L 32 24 L 27 24 L 27.00025 37.01365 C 28.89943 37.11753 30.63505 37.80911 32.00062 38.90031 Z M 39.99938 38.90031 C 41.27961 37.87731 42.88507 37.20554 44.64562 37.03997 L 44.99975 37.01365 L 45 24 L 40 24 L 39.99938 38.90031 Z M 26.5 52 C 30.64214 52 34 48.86599 34 45 C 34 41.13401 30.64214 38 26.5 38 C 23.3043 38 20.57543 39.86545 19.49522 42.49327 C 19.17531 43.27153 19.17484 46.72622 19.49394 47.50362 C 20.57327 50.13308 23.30304 52 26.5 52 Z M 45.5 52 C 48.69696 52 51.42673 50.13308 52.50606 47.50362 C 52.82516 46.72622 52.82469 43.27153 52.50478 42.49327 C 51.42457 39.86545 48.6957 38 45.5 38 C 41.35786 38 38 41.13401 38 45 C 38 48.86599 41.35786 52 45.5 52 Z M 21.5 47.5 L 21.38431 47.49222 C 21.04283 47.446 20.75708 47.19784 20.66847 46.85705 C 20.55616 46.42523 20.5 45.80621 20.5 45 C 20.5 44.19379 20.55616 43.57477 20.66847 43.14295 C 20.75708 42.80216 21.04283 42.554 21.38431 42.50778 L 21.5 42.5 L 21.58988 42.50806 C 21.79397 42.5451 21.9549 42.70603 21.99194 42.91012 L 22 43 L 22 47 C 22 47.27614 21.77614 47.5 21.5 47.5 Z M 50.5 47.5 C 50.25454 47.5 50.05039 47.32312 50.00806 47.08988 L 50 47 L 50 43 L 50.00806 42.91012 C 50.03981 42.73519 50.16258 42.59196 50.32553 42.53128 L 50.41012 42.50806 L 50.5 42.5 L 50.61569 42.50778 C 50.95717 42.554 51.24292 42.80216 51.33153 43.14295 C 51.44384 43.57477 51.5 44.19379 51.5 45 C 51.5 45.80621 51.44384 46.42523 51.33153 46.85705 C 51.25276 47.15997 51.01823 47.38971 50.72726 47.46948 L 50.61569 47.49222 L 50.5 47.5 Z M 31 45.665 L 29 45.665 L 28.90173 45.65779 C 28.58106 45.61029 28.335 45.33388 28.335 45 C 28.335 44.66612 28.58106 44.38971 28.90173 44.34221 L 29 44.335 L 31 44.335 L 31.09827 44.34221 C 31.41894 44.38971 31.665 44.66612 31.665 45 C 31.665 45.36727 31.36727 45.665 31 45.665 Z M 43 45.665 L 41 45.665 C 40.63273 45.665 40.335 45.36727 40.335 45 C 40.335 44.69951 40.53431 44.44556 40.80794 44.36316 L 40.90173 44.34221 L 41 44.335 L 43 44.335 L 43.09827 44.34221 C 43.41894 44.38971 43.665 44.66612 43.665 45 C 43.665 45.30049 43.46569 45.55444 43.19206 45.63684 L 43.09827 45.65779 L 43 45.665 Z " fill-rule="evenodd"/>
</clipPath>
<g clip-path="url(#cp0)">
<path transform="matrix(1,0,0,-1,0,72)" d="M 14.25495 57 L 57.74505 57 L 57.74505 15 L 14.25495 15 Z "/>
</g>
</g>
</svg>
