<?xml version="1.0" encoding="UTF-8" standalone="no"?>
<!DOCTYPE svg PUBLIC "-//W3C//DTD SVG 1.1//EN" "http://www.w3.org/Graphics/SVG/1.1/DTD/svg11.dtd">
<svg xmlns="http://www.w3.org/2000/svg" xmlns:xlink="http://www.w3.org/1999/xlink" version="1.1" width="72pt" height="72pt" viewBox="0 0 72 72">
<g enable-background="new">
<clipPath id="cp0">
<path transform="matrix(1,0,0,-1,0,72)" d="M 40 38 C 41.20133 38 42.34082 37.8014 43.36236 37.44582 C 42.19176 36.79378 41.34212 35.61965 41.14519 34.212 C 41.0482 33.51866 41 32.78137 41 32 C 41 31.21863 41.0482 30.48134 41.14519 29.78798 C 41.42708 27.7731 43.05038 26.22697 45.07481 26.02186 L 45.28563 26.00547 L 45.5 26 L 49.33075 21.4031 C 49.95617 20.6526 49.94364 19.56863 49.32414 18.83433 L 49.20852 18.70852 L 49 18.5 L 48.87036 18.38161 C 48.0917 17.73273 46.95437 17.79824 46.25443 18.50579 L 46.14196 18.62964 L 40.64098 25.23082 C 40.27569 25.66917 39.76135 25.95304 39.2005 26.02999 C 35.21437 26.33274 32.5 28.89006 32.5 32 C 32.5 35.31371 35.58172 38 40 38 Z M 45.5 37 L 45.71184 36.9951 C 48.02643 36.88784 49.88433 35.03197 49.9948 32.71822 L 50 32.5 L 50 31.5 C 50 29.08573 48.09876 27.11551 45.71184 27.0049 L 45.5 27 L 45.31285 27.0051 C 43.70096 27.09307 42.36161 28.31066 42.13555 29.92654 C 42.04518 30.57251 42 31.26366 42 32 C 42 32.73634 42.04518 33.42749 42.13555 34.07346 C 42.36161 35.68934 43.70096 36.90693 45.31285 36.9949 L 45.5 37 Z M 48 34 C 47.44772 34 47 33.10457 47 32 C 47 30.89543 47.44772 30 48 30 C 48.55228 30 49 30.89543 49 32 C 49 33.10457 48.55228 34 48 34 Z M 37 32.665 L 35 32.665 C 34.63273 32.665 34.335 32.36727 34.335 32 C 34.335 31.69951 34.53431 31.44556 34.80794 31.36316 L 34.90173 31.34221 L 35 31.335 L 37 31.335 L 37.09827 31.34221 C 37.41894 31.38971 37.665 31.66612 37.665 32 C 37.665 32.30049 37.46569 32.55444 37.19206 32.63684 L 37.09827 32.65779 L 37 32.665 Z M 32 54 C 36.41828 54 39.5 51.31371 39.5 48 C 39.5 44.89006 36.78563 42.33274 32.7995 42.02999 C 32.23865 41.95304 31.72431 41.66917 31.35902 41.23082 L 25.85804 34.62964 C 25.1731 33.80773 23.95156 33.69668 23.12964 34.38161 C 23.08466 34.41909 23.0414 34.4586 23 34.5 L 22.79148 34.70852 C 22.06004 35.43996 22.00704 36.60845 22.66925 37.4031 L 26.5 42 L 26.71437 42.00547 C 28.83607 42.12089 30.5632 43.70363 30.85481 45.78798 C 30.9518 46.48134 31 47.21863 31 48 C 31 48.78137 30.9518 49.51866 30.85481 50.212 C 30.65788 51.61965 29.80824 52.79378 28.63764 53.44582 C 29.65918 53.8014 30.79867 54 32 54 Z M 26.5 53 C 28.19437 53 29.62969 51.75149 29.86445 50.07346 C 29.95482 49.42749 30 48.73634 30 48 C 30 47.26366 29.95482 46.57251 29.86445 45.92654 C 29.63839 44.31066 28.29904 43.09307 26.68715 43.0051 L 26.5 43 C 24.01472 43 22 45.01472 22 47.5 L 22 48.5 C 22 50.91427 23.90124 52.88449 26.28816 52.9951 L 26.5 53 Z M 24 50 C 23.44772 50 23 49.10457 23 48 C 23 46.89543 23.44772 46 24 46 C 24.55228 46 25 46.89543 25 48 C 25 49.10457 24.55228 50 24 50 Z M 37 48.665 L 35 48.665 L 34.90173 48.65779 C 34.58106 48.61029 34.335 48.33388 34.335 48 C 34.335 47.66612 34.58106 47.38971 34.90173 47.34221 L 35 47.335 L 37 47.335 L 37.09827 47.34221 C 37.41894 47.38971 37.665 47.66612 37.665 48 C 37.665 48.36727 37.36727 48.665 37 48.665 Z " fill-rule="evenodd"/>
</clipPath>
<g clip-path="url(#cp0)">
<path transform="matrix(1,0,0,-1,0,72)" d="M 17 59 L 55 59 L 55 12.93255 L 17 12.93255 Z "/>
</g>
</g>
</svg>
