<?xml version="1.0" encoding="UTF-8" standalone="no"?>
<!DOCTYPE svg PUBLIC "-//W3C//DTD SVG 1.1//EN" "http://www.w3.org/Graphics/SVG/1.1/DTD/svg11.dtd">
<svg xmlns="http://www.w3.org/2000/svg" xmlns:xlink="http://www.w3.org/1999/xlink" version="1.1" width="72pt" height="72pt" viewBox="0 0 72 72">
<g enable-background="new">
<clipPath id="cp0">
<path transform="matrix(1,0,0,-1,0,72)" d="M 50.77302 52.63438 C 55.07294 47.3948 57.23853 41.84891 57.23853 36.02369 C 57.23853 30.19931 55.07359 24.63866 50.77495 19.36797 C 50.42589 18.93998 49.79596 18.87599 49.36797 19.22505 C 48.93998 19.57411 48.87599 20.20404 49.22505 20.63203 C 53.24445 25.56032 55.23853 30.68212 55.23853 36.02369 C 55.23853 41.36442 53.24511 46.46941 49.22698 51.36562 C 48.87662 51.79254 48.93869 52.42266 49.36562 52.77302 C 49.79254 53.12338 50.42266 53.06131 50.77302 52.63438 Z M 45.80529 47.59288 C 48.61652 43.7745 50.0367 39.91 50.0367 36.01556 C 50.0367 32.12187 48.61707 28.24793 45.80689 24.40929 C 45.48065 23.96366 44.85493 23.86688 44.40929 24.19311 C 43.96366 24.51935 43.86688 25.14507 44.19311 25.59071 C 46.76519 29.10408 48.0367 32.57385 48.0367 36.01556 C 48.0367 39.45654 46.76574 42.91499 44.19471 46.40712 C 43.86727 46.85187 43.96237 47.47785 44.40712 47.80529 C 44.85187 48.13273 45.47785 48.03763 45.80529 47.59288 Z M 30.33 47.92024 C 31.20377 47.92024 31.92081 47.24919 31.99387 46.39434 L 32 46.25024 L 32 25.74976 C 32 25.3372 31.84729 24.93924 31.5713 24.63258 C 30.9906 23.98736 30.02109 23.90018 29.33749 24.40655 L 29.21283 24.50845 L 22.57046 30.48659 C 22.24911 30.7758 21.84405 30.95197 21.41681 30.9915 L 21.23253 31 L 18 31 C 16.94564 31 16.08183 31.81588 16.00549 32.85074 L 16 33 L 16 39 C 16 40.05436 16.81588 40.91817 17.85074 40.99451 L 18 41 L 21.23253 41 C 21.66485 41 22.08379 41.14002 22.42779 41.39645 L 22.57046 41.51341 L 29.21283 47.49155 C 29.51948 47.76753 29.91744 47.92024 30.33 47.92024 Z M 39.72922 43.68428 C 41.85555 41.41828 42.93578 38.84638 42.93578 36.01025 C 42.93578 33.17501 41.8563 30.59736 39.73145 28.3181 C 39.35485 27.91414 38.72207 27.89195 38.3181 28.26855 C 37.91414 28.64515 37.89195 29.27793 38.26855 29.6819 C 40.05807 31.60145 40.93578 33.6973 40.93578 36.01025 C 40.93578 38.32229 40.05882 40.41023 38.27078 42.31572 C 37.89286 42.71846 37.91299 43.35131 38.31572 43.72922 C 38.71846 44.10714 39.35131 44.08701 39.72922 43.68428 Z "/>
</clipPath>
<g clip-path="url(#cp0)">
<path transform="matrix(1,0,0,-1,0,72)" d="M 11 58.00003 L 62.23853 58.00003 L 62.23853 13.99997 L 11 13.99997 Z "/>
</g>
</g>
</svg>
