<?xml version="1.0" encoding="UTF-8" standalone="no"?>
<!DOCTYPE svg PUBLIC "-//W3C//DTD SVG 1.1//EN" "http://www.w3.org/Graphics/SVG/1.1/DTD/svg11.dtd">
<svg xmlns="http://www.w3.org/2000/svg" xmlns:xlink="http://www.w3.org/1999/xlink" version="1.1" width="72pt" height="72pt" viewBox="0 0 72 72">
<g enable-background="new">
<clipPath id="cp0">
<path transform="matrix(1,0,0,-1,0,72)" d="M 27 39 C 27.51284 39 27.93551 38.61396 27.99327 38.11662 L 28 38 L 28 36 C 28 31.58172 31.58172 28 36 28 C 37.89217 28 39.63092 28.65691 41.00061 29.75512 L 42.42213 28.33443 C 40.9249 27.07874 39.05437 26.25357 37.0011 26.04948 L 37 23 L 40 23 C 40.55228 23 41 22.55228 41 22 C 41 21.48716 40.61396 21.06449 40.11662 21.00673 L 40 21 L 32 21 C 31.44772 21 31 21.44772 31 22 C 31 22.51284 31.38604 22.93551 31.88338 22.99327 L 32 23 L 35 23 L 34.9999 26.04939 C 30.03785 26.5421 26.14285 30.66198 26.00384 35.7201 L 26 36 L 26 38 C 26 38.55228 26.44772 39 27 39 Z M 24.6129 51.7903 L 24.70711 51.70711 L 48.70711 27.70711 C 49.09763 27.31658 49.09763 26.68342 48.70711 26.29289 C 48.34662 25.93241 47.77939 25.90468 47.3871 26.2097 L 47.29289 26.29289 L 23.29289 50.29289 C 22.90237 50.68342 22.90237 51.31658 23.29289 51.70711 C 23.65338 52.06759 24.22061 52.09532 24.6129 51.7903 Z M 31 39.758 L 38.85982 31.89808 C 38.04943 31.33203 37.06349 31 36 31 C 33.23858 31 31 33.23858 31 36 L 31 39.758 Z M 45 39 C 45.51284 39 45.93551 38.61396 45.99327 38.11662 L 46 38 L 46 36 C 46 35.15334 45.89478 34.33126 45.69671 33.54611 L 43.96761 35.27522 C 43.98173 35.43248 43.99131 35.59106 43.99619 35.75082 L 44 36 L 44 38 C 44 38.55228 44.44772 39 45 39 Z M 36 53 C 38.76142 53 41 50.76142 41 48 L 41 38.243 L 31.00552 48.23695 C 31.12921 50.88835 33.31801 53 36 53 Z " fill-rule="evenodd"/>
</clipPath>
<g clip-path="url(#cp0)">
<path transform="matrix(1,0,0,-1,0,72)" d="M 18 58 L 54 58 L 54 16 L 18 16 Z "/>
</g>
</g>
</svg>
