<?xml version="1.0" encoding="UTF-8" standalone="no"?>
<!DOCTYPE svg PUBLIC "-//W3C//DTD SVG 1.1//EN" "http://www.w3.org/Graphics/SVG/1.1/DTD/svg11.dtd">
<svg xmlns="http://www.w3.org/2000/svg" xmlns:xlink="http://www.w3.org/1999/xlink" version="1.1" width="72pt" height="72pt" viewBox="0 0 72 72">
<g enable-background="new">
<clipPath id="cp0">
<path transform="matrix(1,0,0,-1,0,72)" d="M 39 47 C 41.20914 47 43 45.20914 43 43 L 43 29 C 43 26.79086 41.20914 25 39 25 L 25 25 C 22.79086 25 21 26.79086 21 29 L 21 43 C 21 45.20914 22.79086 47 25 47 L 39 47 Z M 51.5 44.5 C 52.2797 44.5 52.92045 43.90511 52.99313 43.14446 L 53 43 L 53 29 C 53 28.67544 52.89473 28.35964 52.7 28.1 C 52.23218 27.47624 51.37182 27.32057 50.71969 27.71882 L 50.6 27.8 L 45.8 31.4 C 45.34217 31.74337 45.0556 32.26449 45.00728 32.82936 L 45 33 L 45 39 C 45 39.57229 45.24495 40.11421 45.66786 40.49179 L 45.8 40.6 L 50.6 44.2 C 50.85964 44.39473 51.17544 44.5 51.5 44.5 Z M 35.4 40.998 L 33.6 40.998 L 33.4999 40.99178 C 33.1422 40.94702 32.85809 40.66549 32.80939 40.30903 L 32.802 40.2 L 32.802 31.8 L 32.80822 31.6999 C 32.85298 31.3422 33.13451 31.05809 33.49097 31.00939 L 33.6 31.002 L 35.4 31.002 L 35.61309 31.00707 C 37.87247 31.11486 39.68514 32.92753 39.79293 35.18691 L 39.798 35.4 L 39.798 36.6 L 39.79293 36.81309 C 39.68514 39.07247 37.87247 40.88514 35.61309 40.99293 L 35.4 40.998 Z M 30 40.998 C 29.59318 40.998 29.25746 40.69357 29.20822 40.3001 L 29.202 40.2 L 29.201 36.798 L 25.997 36.798 L 25.998 40.2 L 25.99178 40.3001 C 25.94254 40.69357 25.60682 40.998 25.2 40.998 C 24.79318 40.998 24.45746 40.69357 24.40822 40.3001 L 24.402 40.2 L 24.402 31.8 L 24.40822 31.6999 C 24.45746 31.30643 24.79318 31.002 25.2 31.002 C 25.60682 31.002 25.94254 31.30643 25.99178 31.6999 L 25.998 31.8 L 25.997 35.202 L 29.201 35.202 L 29.202 31.8 L 29.20822 31.6999 C 29.25746 31.30643 29.59318 31.002 30 31.002 C 30.40682 31.002 30.74254 31.30643 30.79178 31.6999 L 30.798 31.8 L 30.798 40.2 L 30.79178 40.3001 C 30.74254 40.69357 30.40682 40.998 30 40.998 Z M 35.4 39.402 C 36.89019 39.402 38.10867 38.23871 38.19689 36.77069 L 38.202 36.6 L 38.202 35.4 L 38.19689 35.22931 C 38.11207 33.81776 36.98224 32.68793 35.57069 32.60311 L 35.4 32.598 L 34.398 32.598 L 34.398 39.402 L 35.4 39.402 Z "/>
</clipPath>
<g clip-path="url(#cp0)">
<path transform="matrix(1,0,0,-1,0,72)" d="M 16 52 L 58 52 L 58 20 L 16 20 Z "/>
</g>
</g>
</svg>
