<?xml version="1.0" encoding="UTF-8" standalone="no"?>
<!DOCTYPE svg PUBLIC "-//W3C//DTD SVG 1.1//EN" "http://www.w3.org/Graphics/SVG/1.1/DTD/svg11.dtd">
<svg xmlns="http://www.w3.org/2000/svg" xmlns:xlink="http://www.w3.org/1999/xlink" version="1.1" width="24pt" height="24pt" viewBox="0 0 24 24">
<g enable-background="new">
<clipPath id="cp0">
<path transform="matrix(1,0,0,-1,0,24)" d="M 17 17.665 C 19.50484 17.665 21.54859 15.69083 21.6602 13.21354 L 21.665 13 L 21.665 11 C 21.665 8.495159 19.69083 6.451409 17.21354 6.3398 L 17 6.335 L 14 6.335 C 13.66612 6.335 13.38971 6.581058 13.34221 6.901731 L 13.335 7 L 13.335 17 C 13.335 17.33388 13.58106 17.61029 13.90173 17.65779 L 14 17.665 L 17 17.665 Z M 10 17.665 C 10.33388 17.665 10.61029 17.41894 10.65779 17.09827 L 10.665 17 L 10.665 7 C 10.665 6.632731 10.36727 6.335 10 6.335 C 9.666119 6.335 9.389708 6.581058 9.34221 6.901731 L 9.335 7 L 9.334 11.335 L 3.664 11.335 L 3.665 7 C 3.665 6.632731 3.367269 6.335 3 6.335 C 2.666119 6.335 2.389708 6.581058 2.34221 6.901731 L 2.335 7 L 2.335 17 C 2.335 17.36727 2.632731 17.665 3 17.665 C 3.333881 17.665 3.610292 17.41894 3.65779 17.09827 L 3.665 17 L 3.664 12.665 L 9.334 12.665 L 9.335 17 C 9.335 17.36727 9.632731 17.665 10 17.665 Z M 17 16.335 L 14.665 16.335 L 14.665 7.665 L 17 7.665 C 18.78047 7.665 20.23507 9.060247 20.33007 10.81702 L 20.335 11 L 20.335 13 C 20.335 14.78047 18.93975 16.23507 17.18298 16.33007 L 17 16.335 Z " fill-rule="evenodd"/>
</clipPath>
<g clip-path="url(#cp0)">
<path transform="matrix(1,0,0,-1,0,24)" d="M -2.665 22.665 L 26.665 22.665 L 26.665 1.335 L -2.665 1.335 Z "/>
</g>
</g>
</svg>
