<?xml version="1.0" encoding="UTF-8" standalone="no"?>
<!DOCTYPE svg PUBLIC "-//W3C//DTD SVG 1.1//EN" "http://www.w3.org/Graphics/SVG/1.1/DTD/svg11.dtd">
<svg xmlns="http://www.w3.org/2000/svg" xmlns:xlink="http://www.w3.org/1999/xlink" version="1.1" width="24pt" height="24pt" viewBox="0 0 24 24">
<g enable-background="new">
<clipPath id="cp0">
<path transform="matrix(1,0,0,-1,0,24)" d="M 4.387798 20.54034 L 4.470226 20.47023 L 20.47023 4.470226 C 20.72992 4.210527 20.72992 3.789473 20.47023 3.529774 C 20.2365 3.296045 19.87207 3.272672 19.6122 3.459655 L 19.52977 3.529774 L 3.529774 19.52977 C 3.270075 19.78947 3.270075 20.21053 3.529774 20.47023 C 3.763503 20.70395 4.12793 20.72733 4.387798 20.54034 Z M 13.334 8.545 L 15.543 6.336 L 14 6.335 C 13.66612 6.335 13.38971 6.581058 13.34221 6.901731 L 13.335 7 L 13.334 8.545 Z M 3 17.665 C 3.333881 17.665 3.610292 17.41894 3.65779 17.09827 L 3.665 17 L 3.664 12.665 L 9.212 12.666 L 10.664 11.214 L 10.665 7 C 10.665 6.632731 10.36727 6.335 10 6.335 C 9.666119 6.335 9.389708 6.581058 9.34221 6.901731 L 9.335 7 L 9.334 11.335 L 3.664 11.335 L 3.665 7 C 3.665 6.632731 3.367269 6.335 3 6.335 C 2.666119 6.335 2.389708 6.581058 2.34221 6.901731 L 2.335 7 L 2.335 17 C 2.335 17.36727 2.632731 17.665 3 17.665 Z M 17 17.665 C 19.50484 17.665 21.54859 15.69083 21.6602 13.21354 L 21.665 13 L 21.665 11 C 21.665 9.228413 20.67747 7.687475 19.22286 6.89763 L 18.22387 7.896725 C 19.40639 8.363466 20.25812 9.486567 20.33007 10.81702 L 20.335 11 L 20.335 13 C 20.335 14.84187 18.84187 16.335 17 16.335 L 14.665 16.335 L 14.664 11.457 L 13.334 12.787 L 13.335 17 C 13.335 17.33388 13.58106 17.61029 13.90173 17.65779 L 14 17.665 L 17 17.665 Z M 10 17.665 C 10.33388 17.665 10.61029 17.41894 10.65779 17.09827 L 10.665 17 L 10.664 15.456 L 9.334 16.786 L 9.335 17 C 9.335 17.36727 9.632731 17.665 10 17.665 Z " fill-rule="evenodd"/>
</clipPath>
<g clip-path="url(#cp0)">
<path transform="matrix(1,0,0,-1,0,24)" d="M -2.665 25.665 L 26.665 25.665 L 26.665 -1.665 L -2.665 -1.665 Z "/>
</g>
</g>
</svg>
