<?xml version="1.0" encoding="UTF-8" standalone="no"?>
<!DOCTYPE svg PUBLIC "-//W3C//DTD SVG 1.1//EN" "http://www.w3.org/Graphics/SVG/1.1/DTD/svg11.dtd">
<svg xmlns="http://www.w3.org/2000/svg" xmlns:xlink="http://www.w3.org/1999/xlink" version="1.1" width="30pt" height="30pt" viewBox="0 0 30 30">
<g enable-background="new">
<clipPath id="cp0">
<path transform="matrix(1,0,0,-1,0,30)" d="M 15 25.665 C 20.89012 25.665 25.665 20.89012 25.665 15 C 25.665 9.109883 20.89012 4.335 15 4.335 C 9.109883 4.335 4.335 9.109883 4.335 15 C 4.335 20.89012 9.109883 25.665 15 25.665 Z M 15 24.335 C 9.844422 24.335 5.665 20.15558 5.665 15 C 5.665 9.844422 9.844422 5.665 15 5.665 C 20.15558 5.665 24.335 9.844422 24.335 15 C 24.335 20.15558 20.15558 24.335 15 24.335 Z M 13 17.165 L 15 17.165 C 15.33388 17.165 15.61029 16.91894 15.65779 16.59827 L 15.665 16.5 L 15.664 10.166 L 17 10.165 C 17.36727 10.165 17.665 9.867269 17.665 9.5 C 17.665 9.166119 17.41894 8.889708 17.09827 8.84221 L 17 8.835 L 13 8.835 C 12.63273 8.835 12.335 9.132731 12.335 9.5 C 12.335 9.833881 12.58106 10.11029 12.90173 10.15779 L 13 10.165 L 14.334 10.166 L 14.335 15.835 L 13 15.835 C 12.63273 15.835 12.335 16.13273 12.335 16.5 C 12.335 16.83388 12.58106 17.11029 12.90173 17.15779 L 13 17.165 L 15 17.165 L 13 17.165 Z M 15 21.25 C 15.69036 21.25 16.25 20.69036 16.25 20 C 16.25 19.30964 15.69036 18.75 15 18.75 C 14.30964 18.75 13.75 19.30964 13.75 20 C 13.75 20.69036 14.30964 21.25 15 21.25 Z "/>
</clipPath>
<g clip-path="url(#cp0)">
<path transform="matrix(1,0,0,-1,0,30)" d="M -.665 30.665 L 30.665 30.665 L 30.665 -.665 L -.665 -.665 Z "/>
</g>
</g>
</svg>
