<?xml version="1.0" encoding="UTF-8" standalone="no"?>
<!DOCTYPE svg PUBLIC "-//W3C//DTD SVG 1.1//EN" "http://www.w3.org/Graphics/SVG/1.1/DTD/svg11.dtd">
<svg xmlns="http://www.w3.org/2000/svg" xmlns:xlink="http://www.w3.org/1999/xlink" version="1.1" width="30pt" height="30pt" viewBox="0 0 30 30">
<g enable-background="new">
<clipPath id="cp0">
<path transform="matrix(1,0,0,-1,0,30)" d="M 6.387798 24.37701 L 6.470226 24.30689 L 26.47023 4.306893 C 26.72992 4.047194 26.72992 3.626139 26.47023 3.366441 C 26.2365 3.132712 25.87207 3.109339 25.6122 3.296322 L 25.52977 3.366441 L 5.529774 23.36644 C 5.270075 23.62614 5.270075 24.04719 5.529774 24.30689 C 5.763503 24.54062 6.12793 24.56399 6.387798 24.37701 Z M 8.791402 18.24962 C 9.157738 18.22345 9.433499 17.90527 9.407332 17.53893 L 9.133865 13.71039 C 9.0338 12.30949 8.416917 10.9957 7.402905 10.02394 L 6.590308 9.245199 C 6.524376 9.182015 6.487096 9.094653 6.487096 9.003333 C 6.487096 8.818318 6.637081 8.668333 6.822096 8.668333 L 18.34 8.668333 C 18.67317 8.668333 18.94912 8.423321 18.99748 8.103648 C 18.99833 8.099318 18.99833 8.095305 18.99832 8.091293 C 19.00302 8.062832 19.005 8.033315 19.005 8.003333 C 19.005 7.96071 19.00099 7.919024 18.99333 7.87863 C 18.87614 5.775474 17.13315 4.105 15 4.105 C 13.05349 4.105 11.43185 5.495948 11.07481 7.338114 L 6.822096 7.338333 C 5.902542 7.338333 5.157096 8.083779 5.157096 9.003333 C 5.157096 9.457206 5.342383 9.891407 5.670074 10.20544 L 6.482671 10.98418 C 7.258618 11.7278 7.730673 12.73314 7.807245 13.80515 L 8.080712 17.63369 C 8.106879 18.00003 8.425066 18.27579 8.791402 18.24962 Z M 17.55698 7.3381 L 12.44302 7.3381 C 12.77196 6.237358 13.79228 5.435 15 5.435 C 16.20772 5.435 17.22804 6.237358 17.55698 7.3381 Z M 15 25.835 C 16.68292 25.835 18.0744 24.58721 18.29975 22.96632 L 18.92117 22.71776 C 20.58025 22.05413 21.71447 20.50112 21.84178 18.71878 L 22.19276 13.80515 C 22.26933 12.73314 22.74138 11.7278 23.51733 10.98418 L 24.32993 10.20544 C 24.59509 9.951328 24.60405 9.530369 24.34993 9.265204 C 24.09582 9.00004 23.67486 8.991084 23.40969 9.245199 L 22.59709 10.02394 C 21.58308 10.9957 20.9662 12.30949 20.86614 13.71039 L 20.51516 18.62402 C 20.42415 19.89821 19.61329 21.00846 18.42722 21.48288 L 17.41969 21.8859 C 17.16722 21.98689 17.00167 22.23141 17.00167 22.50333 C 17.00167 23.60882 16.10549 24.505 15 24.505 C 13.89451 24.505 12.99833 23.60882 12.99833 22.50333 C 12.99833 22.23141 12.83278 21.98689 12.58031 21.8859 L 11.57278 21.48288 C 11.23177 21.34648 10.84476 21.51234 10.70836 21.85335 C 10.57196 22.19435 10.73782 22.58136 11.07883 22.71776 L 11.70025 22.96632 C 11.9256 24.58721 13.31708 25.835 15 25.835 Z "/>
</clipPath>
<g clip-path="url(#cp0)">
<path transform="matrix(1,0,0,-1,0,30)" d="M .157096 30.835 L 31.665 30.835 L 31.665 -1.828333 L .157096 -1.828333 Z "/>
</g>
</g>
</svg>
