<?xml version="1.0" encoding="UTF-8" standalone="no"?>
<!DOCTYPE svg PUBLIC "-//W3C//DTD SVG 1.1//EN" "http://www.w3.org/Graphics/SVG/1.1/DTD/svg11.dtd">
<svg xmlns="http://www.w3.org/2000/svg" xmlns:xlink="http://www.w3.org/1999/xlink" version="1.1" width="30pt" height="30pt" viewBox="0 0 30 30">
<g enable-background="new">
<clipPath id="cp0">
<path transform="matrix(1,0,0,-1,0,30)" d="M 24 25.165 C 24.91955 25.165 25.665 24.41955 25.665 23.5 L 25.665 20.5 C 25.665 19.63645 25.00759 18.92644 24.16594 18.84317 L 24.165 7.5 C 24.165 6.08477 23.06186 4.927194 21.66854 4.840243 L 21.5 4.835 L 8.5 4.835 C 7.08477 4.835 5.927194 5.938145 5.840243 7.331461 L 5.835 7.5 L 5.835069 18.84307 C 4.992939 18.92588 4.335 19.6361 4.335 20.5 L 4.335 23.5 C 4.335 24.41955 5.080446 25.165 6 25.165 L 24 25.165 Z M 22.835 18.836 L 7.165 18.836 L 7.165 7.5 C 7.165 6.80607 7.69445 6.235801 8.371431 6.171111 L 8.5 6.165 L 21.5 6.165 C 22.19393 6.165 22.7642 6.69445 22.82889 7.371431 L 22.835 7.5 L 22.835 18.836 Z M 14.52977 16.97023 C 14.78947 17.22992 15.21053 17.22992 15.47023 16.97023 L 18.47023 13.97023 C 18.72992 13.71053 18.72992 13.28947 18.47023 13.02977 C 18.21053 12.77008 17.78947 12.77008 17.52977 13.02977 L 15.665 14.895 L 15.665 9.5 C 15.665 9.132731 15.36727 8.835 15 8.835 C 14.66612 8.835 14.38971 9.081058 14.34221 9.401731 L 14.335 9.5 L 14.335 14.895 L 12.47023 13.02977 C 12.2365 12.79605 11.87207 12.77267 11.6122 12.95966 L 11.52977 13.02977 C 11.27008 13.28947 11.27008 13.71053 11.52977 13.97023 L 14.52977 16.97023 Z M 24 23.835 L 6 23.835 C 5.814985 23.835 5.665 23.68502 5.665 23.5 L 5.665 20.5 C 5.665 20.31498 5.814985 20.165 6 20.165 L 24 20.165 C 24.18502 20.165 24.335 20.31498 24.335 20.5 L 24.335 23.5 C 24.335 23.68502 24.18502 23.835 24 23.835 Z "/>
</clipPath>
<g clip-path="url(#cp0)">
<path transform="matrix(1,0,0,-1,0,30)" d="M -.665 30.165 L 30.665 30.165 L 30.665 -.165 L -.665 -.165 Z "/>
</g>
</g>
</svg>
