<?xml version="1.0" encoding="UTF-8" standalone="no"?>
<!DOCTYPE svg PUBLIC "-//W3C//DTD SVG 1.1//EN" "http://www.w3.org/Graphics/SVG/1.1/DTD/svg11.dtd">
<svg xmlns="http://www.w3.org/2000/svg" xmlns:xlink="http://www.w3.org/1999/xlink" version="1.1" width="30pt" height="30pt" viewBox="0 0 30 30">
<g enable-background="new">
<clipPath id="cp0">
<path transform="matrix(1,0,0,-1,0,30)" d="M 15 25.835 C 16.68292 25.835 18.0744 24.58721 18.29975 22.96632 L 18.92117 22.71776 C 20.58025 22.05413 21.71447 20.50112 21.84178 18.71878 L 22.19276 13.80515 C 22.26933 12.73314 22.74138 11.7278 23.51733 10.98418 L 24.32993 10.20544 C 24.99383 9.569199 25.01626 8.515218 24.38001 7.851311 C 24.06598 7.52362 23.63178 7.338333 23.1779 7.338333 L 18.92519 7.338114 C 18.56815 5.495948 16.94651 4.105 15 4.105 C 13.05349 4.105 11.43185 5.495948 11.07481 7.338114 L 6.822096 7.338333 C 5.902542 7.338333 5.157096 8.083779 5.157096 9.003333 C 5.157096 9.457206 5.342383 9.891407 5.670074 10.20544 L 6.482671 10.98418 C 7.258618 11.7278 7.730673 12.73314 7.807245 13.80515 L 8.158219 18.71878 C 8.285528 20.50112 9.419754 22.05413 11.07883 22.71776 L 11.70025 22.96632 C 11.9256 24.58721 13.31708 25.835 15 25.835 Z M 17.55698 7.3381 L 12.44302 7.3381 C 12.77196 6.237358 13.79228 5.435 15 5.435 C 16.20772 5.435 17.22804 6.237358 17.55698 7.3381 Z M 15 24.505 C 13.89451 24.505 12.99833 23.60882 12.99833 22.50333 C 12.99833 22.23141 12.83278 21.98689 12.58031 21.8859 L 11.57278 21.48288 C 10.38671 21.00846 9.575852 19.89821 9.484839 18.62402 L 9.133865 13.71039 C 9.0338 12.30949 8.416917 10.9957 7.402905 10.02394 L 6.590308 9.245199 C 6.524376 9.182015 6.487096 9.094653 6.487096 9.003333 C 6.487096 8.818318 6.637081 8.668333 6.822096 8.668333 L 23.1779 8.668333 C 23.26922 8.668333 23.35659 8.705613 23.41977 8.771545 C 23.54778 8.905124 23.54327 9.117186 23.40969 9.245199 L 22.59709 10.02394 C 21.58308 10.9957 20.9662 12.30949 20.86614 13.71039 L 20.51516 18.62402 C 20.42415 19.89821 19.61329 21.00846 18.42722 21.48288 L 17.41969 21.8859 C 17.16722 21.98689 17.00167 22.23141 17.00167 22.50333 C 17.00167 23.60882 16.10549 24.505 15 24.505 Z "/>
</clipPath>
<g clip-path="url(#cp0)">
<path transform="matrix(1,0,0,-1,0,30)" d="M .157096 30.835 L 29.84291 30.835 L 29.84291 -.895 L .157096 -.895 Z "/>
</g>
</g>
</svg>
