<?xml version="1.0" encoding="UTF-8" standalone="no"?>
<!DOCTYPE svg PUBLIC "-//W3C//DTD SVG 1.1//EN" "http://www.w3.org/Graphics/SVG/1.1/DTD/svg11.dtd">
<svg xmlns="http://www.w3.org/2000/svg" xmlns:xlink="http://www.w3.org/1999/xlink" version="1.1" width="29pt" height="29pt" viewBox="0 0 29 29">
<g enable-background="new">
<clipPath id="cp0">
<path transform="matrix(1,0,0,-1,0,29)" d="M 7.691656 29 L 21.30834 29 C 23.9829 29 24.95276 28.72152 25.93054 28.1986 C 26.90831 27.67568 27.67568 26.90831 28.1986 25.93054 C 28.72152 24.95276 29 23.9829 29 21.30834 L 29 7.691656 C 29 5.017099 28.72152 4.047241 28.1986 3.069463 C 27.67568 2.091685 26.90831 1.324319 25.93054 .8013981 C 24.95276 .2784768 23.9829 0 21.30834 0 L 7.691656 0 C 5.017099 0 4.047241 .2784768 3.069463 .8013981 C 2.091685 1.324319 1.324319 2.091685 .8013981 3.069463 C .2784768 4.047241 0 5.017099 0 7.691656 L 0 21.30834 C 0 23.9829 .2784768 24.95276 .8013981 25.93054 C 1.324319 26.90831 2.091685 27.67568 3.069463 28.1986 C 4.047241 28.72152 5.017099 29 7.691656 29 Z " fill-rule="evenodd"/>
</clipPath>
<g clip-path="url(#cp0)">
<path transform="matrix(1,0,0,-1,0,29)" d="M -5 34 L 34 34 L 34 -5 L -5 -5 Z " fill="#2094fa"/>
</g>
<clipPath id="cp1">
<path transform="matrix(1,0,0,-1,0,29)" d="M 16.90598 11.02296 C 16.75484 10.71415 16.67 10.36699 16.67 10 L 16.67 9.33 L 16 9.33 C 14.71318 9.33 13.67 8.286823 13.67 7 C 13.67 6.642083 13.7507 6.303015 13.8949 6 L 7.828125 6 C 7.094622 6 6.5 6.594622 6.5 7.328125 C 6.5 8.128968 6.991254 8.84781 7.737379 9.138754 L 11.07462 10.44008 C 11.99107 10.79744 12.54746 11.73188 12.42492 12.70788 L 12.36667 13.17188 L 11.59756 13.93798 C 11.5771 13.95836 11.56006 13.98191 11.5471 14.00772 L 11.03333 15.03125 L 10.75088 15.38294 C 10.28961 15.95727 10.27688 16.77138 10.71997 17.35986 L 10.76667 17.42188 C 10.58741 17.8906 10.4955 18.38819 10.4955 18.89002 C 10.4955 21.1599 12.3356 23 14.60548 23 L 15.83333 23 L 15.83333 22.20312 L 15.92067 22.17993 C 16.08586 22.13605 16.24761 22.08011 16.40461 22.01256 C 18.17728 21.24986 18.99603 19.19454 18.23333 17.42188 L 18.28003 17.35986 C 18.72312 16.77138 18.71039 15.95727 18.24912 15.38294 L 17.96667 15.03125 L 17.4529 14.00772 C 17.43994 13.98191 17.4229 13.95836 17.40244 13.93798 L 16.63333 13.17188 L 16.54909 12.50059 C 16.48244 11.96944 16.61705 11.44653 16.90598 11.02296 Z M 20 8 L 22 8 C 22.55228 8 23 7.552285 23 7 C 23 6.447715 22.55228 6 22 6 L 20 6 L 20 4 C 20 3.447715 19.55228 3 19 3 C 18.44772 3 18 3.447715 18 4 L 18 6 L 16 6 C 15.44772 6 15 6.447715 15 7 C 15 7.552285 15.44772 8 16 8 L 18 8 L 18 10 C 18 10.55228 18.44772 11 19 11 C 19.55228 11 20 10.55228 20 10 L 20 8 Z " fill-rule="evenodd"/>
</clipPath>
<g clip-path="url(#cp1)">
<path transform="matrix(1,0,0,-1,0,29)" d="M 1.5 28 L 28 28 L 28 -2 L 1.5 -2 Z " fill="#ffffff"/>
</g>
</g>
</svg>
