<?xml version="1.0" encoding="UTF-8" standalone="no"?>
<!DOCTYPE svg PUBLIC "-//W3C//DTD SVG 1.1//EN" "http://www.w3.org/Graphics/SVG/1.1/DTD/svg11.dtd">
<svg xmlns="http://www.w3.org/2000/svg" xmlns:xlink="http://www.w3.org/1999/xlink" version="1.1" width="29pt" height="29pt" viewBox="0 0 29 29">
<g enable-background="new">
<clipPath id="cp0">
<path transform="matrix(1,0,0,-1,0,29)" d="M 7.691656 29 L 21.30834 29 C 23.9829 29 24.95276 28.72152 25.93054 28.1986 C 26.90831 27.67568 27.67568 26.90831 28.1986 25.93054 C 28.72152 24.95276 29 23.9829 29 21.30834 L 29 7.691656 C 29 5.017099 28.72152 4.047241 28.1986 3.069463 C 27.67568 2.091685 26.90831 1.324319 25.93054 .8013981 C 24.95276 .2784768 23.9829 0 21.30834 0 L 7.691656 0 C 5.017099 0 4.047241 .2784768 3.069463 .8013981 C 2.091685 1.324319 1.324319 2.091685 .8013981 3.069463 C .2784768 4.047241 0 5.017099 0 7.691656 L 0 21.30834 C 0 23.9829 .2784768 24.95276 .8013981 25.93054 C 1.324319 26.90831 2.091685 27.67568 3.069463 28.1986 C 4.047241 28.72152 5.017099 29 7.691656 29 Z " fill-rule="evenodd"/>
</clipPath>
<g clip-path="url(#cp0)">
<path transform="matrix(1,0,0,-1,0,29)" d="M -5 34 L 34 34 L 34 -5 L -5 -5 Z " fill="#ff3a30"/>
</g>
<clipPath id="cp1">
<path transform="matrix(1,0,0,-1,0,29)" d="M 10.30783 8.893615 C 11.47641 8.018404 12.92766 7.5 14.5 7.5 C 18.36599 7.5 21.5 10.63401 21.5 14.5 C 21.5 16.07234 20.9816 17.52359 20.10638 18.69217 L 10.30783 8.893615 Z M 8.893615 10.30783 L 18.69217 20.10638 C 17.52359 20.9816 16.07234 21.5 14.5 21.5 C 10.63401 21.5 7.5 18.36599 7.5 14.5 C 7.5 12.92766 8.018404 11.47641 8.893615 10.30783 Z M 14.5 5.5 C 9.529437 5.5 5.5 9.529437 5.5 14.5 C 5.5 19.47056 9.529437 23.5 14.5 23.5 C 19.47056 23.5 23.5 19.47056 23.5 14.5 C 23.5 9.529437 19.47056 5.5 14.5 5.5 Z "/>
</clipPath>
<g clip-path="url(#cp1)">
<path transform="matrix(1,0,0,-1,0,29)" d="M .5 28.5 L 28.5 28.5 L 28.5 .5 L .5 .5 Z " fill="#ffffff"/>
</g>
</g>
</svg>
