<?xml version="1.0" encoding="UTF-8" standalone="no"?>
<!DOCTYPE svg PUBLIC "-//W3C//DTD SVG 1.1//EN" "http://www.w3.org/Graphics/SVG/1.1/DTD/svg11.dtd">
<svg xmlns="http://www.w3.org/2000/svg" xmlns:xlink="http://www.w3.org/1999/xlink" version="1.1" width="29pt" height="29pt" viewBox="0 0 29 29">
<g enable-background="new">
<clipPath id="cp0">
<path transform="matrix(1,0,0,-1,0,29)" d="M 7.691656 29 L 21.30834 29 C 23.9829 29 24.95276 28.72152 25.93054 28.1986 C 26.90831 27.67568 27.67568 26.90831 28.1986 25.93054 C 28.72152 24.95276 29 23.9829 29 21.30834 L 29 7.691656 C 29 5.017099 28.72152 4.047241 28.1986 3.069463 C 27.67568 2.091685 26.90831 1.324319 25.93054 .8013981 C 24.95276 .2784768 23.9829 0 21.30834 0 L 7.691656 0 C 5.017099 0 4.047241 .2784768 3.069463 .8013981 C 2.091685 1.324319 1.324319 2.091685 .8013981 3.069463 C .2784768 4.047241 0 5.017099 0 7.691656 L 0 21.30834 C 0 23.9829 .2784768 24.95276 .8013981 25.93054 C 1.324319 26.90831 2.091685 27.67568 3.069463 28.1986 C 4.047241 28.72152 5.017099 29 7.691656 29 Z " fill-rule="evenodd"/>
</clipPath>
<g clip-path="url(#cp0)">
<path transform="matrix(1,0,0,-1,0,29)" d="M -5 34 L 34 34 L 34 -5 L -5 -5 Z " fill="#4cd863"/>
</g>
<clipPath id="cp1">
<path transform="matrix(1,0,0,-1,0,29)" d="M 12 22 C 12 22.55228 12.44772 23 13 23 L 16 23 C 16.55228 23 17 22.55228 17 22 L 20.5 22 C 21.05228 22 21.5 21.55228 21.5 21 C 21.5 20.44772 21.05228 20 20.5 20 L 8.5 20 C 7.947715 20 7.5 20.44772 7.5 21 C 7.5 21.55228 7.947715 22 8.5 22 L 12 22 Z M 8.5831 17.59132 C 8.581034 17.61749 8.58 17.64374 8.58 17.67 C 8.58 18.22228 9.027715 18.67 9.58 18.67 L 19.41593 18.67 C 19.44218 18.67 19.46843 18.66897 19.49461 18.6669 C 20.04518 18.62344 20.45628 18.14189 20.41283 17.59132 L 19.6434 7.842636 C 19.56129 6.80233 18.69314 6 17.6496 6 L 11.34633 6 C 10.30279 6 9.434638 6.80233 9.352531 7.842636 L 8.5831 17.59132 Z " fill-rule="evenodd"/>
</clipPath>
<g clip-path="url(#cp1)">
<path transform="matrix(1,0,0,-1,0,29)" d="M 2.5 28 L 26.5 28 L 26.5 1 L 2.5 1 Z " fill="#ffffff"/>
</g>
</g>
</svg>
