<?xml version="1.0" encoding="UTF-8" standalone="no"?>
<!DOCTYPE svg PUBLIC "-//W3C//DTD SVG 1.1//EN" "http://www.w3.org/Graphics/SVG/1.1/DTD/svg11.dtd">
<svg xmlns="http://www.w3.org/2000/svg" xmlns:xlink="http://www.w3.org/1999/xlink" version="1.1" width="29pt" height="29pt" viewBox="0 0 29 29">
<g enable-background="new">
<clipPath id="cp0">
<path transform="matrix(1,0,0,-1,0,29)" d="M 7.378782 28.99867 L 21.30834 29 C 23.9829 29 24.95276 28.72152 25.93054 28.1986 C 26.90831 27.67568 27.67568 26.90831 28.1986 25.93054 C 28.72152 24.95276 29 23.9829 29 21.30834 L 29 7.691656 L 28.99467 7.081615 C 28.95388 4.861871 28.67969 3.969018 28.1986 3.069463 C 27.67568 2.091685 26.90831 1.324319 25.93054 .8013981 C 24.95276 .2784768 23.9829 0 21.30834 0 L 7.691656 0 L 7.081615 .005329331 C 4.861871 .04612074 3.969018 .3203105 3.069463 .8013981 C 2.091685 1.324319 1.324319 2.091685 .8013981 3.069463 C .2993937 4.00813 .02266926 4.939498 .001334511 7.378782 L 0 21.30834 C 0 23.9829 .2784768 24.95276 .8013981 25.93054 C 1.324319 26.90831 2.091685 27.67568 3.069463 28.1986 C 4.00813 28.70061 4.939498 28.97733 7.378782 28.99867 Z " fill-rule="evenodd"/>
</clipPath>
<g clip-path="url(#cp0)">
<clipPath id="cp1">
<path transform="matrix(1,0,0,-1,0,29)" d="M 0 0 L 29 0 L 29 29 L 0 29 Z "/>
</clipPath>
<g clip-path="url(#cp1)">
<path transform="matrix(1,0,0,-1,0,29)" d="M -5 34 L 34 34 L 34 -5 L -5 -5 Z " fill="#34aadc"/>
</g>
</g>
<clipPath id="cp2">
<path transform="matrix(1,0,0,-1,0,29)" d="M 21 17 L 21.11662 16.99327 C 21.61396 16.93551 22 16.51284 22 16 L 22 10 L 21.99451 9.850738 C 21.91817 8.815878 21.05436 8 20 8 L 9 8 L 8.850738 8.005486 C 7.815878 8.081835 7 8.945638 7 10 L 7 16 L 7.006728 16.11662 C 7.064493 16.61396 7.487164 17 8 17 L 21 17 Z M 11.46482 21.5 L 11.58896 21.49228 C 11.87525 21.45649 12.13458 21.29812 12.29687 21.0547 L 12.70313 20.4453 L 12.77842 20.34629 C 12.967 20.12794 13.24262 20 13.53518 20 L 20 20 L 20.15665 19.99396 C 21.13877 19.91786 21.92198 19.13238 21.99451 18.14926 L 22 18 L 7 18 L 7 19.5 L 7.005486 19.64926 C 7.081835 20.68412 7.945638 21.5 9 21.5 L 11.46482 21.5 Z " fill-rule="evenodd"/>
</clipPath>
<g clip-path="url(#cp2)">
<clipPath id="cp3">
<path transform="matrix(1,0,0,-1,0,29)" d="M 0 0 L 29 0 L 29 29 L 0 29 Z "/>
</clipPath>
<g clip-path="url(#cp3)">
<path transform="matrix(1,0,0,-1,0,29)" d="M 2 26.5 L 27 26.5 L 27 3 L 2 3 Z " fill="#ffffff"/>
</g>
</g>
</g>
</svg>
