<?xml version="1.0" encoding="UTF-8" standalone="no"?>
<!DOCTYPE svg PUBLIC "-//W3C//DTD SVG 1.1//EN" "http://www.w3.org/Graphics/SVG/1.1/DTD/svg11.dtd">
<svg xmlns="http://www.w3.org/2000/svg" xmlns:xlink="http://www.w3.org/1999/xlink" version="1.1" width="29pt" height="29pt" viewBox="0 0 29 29">
<g enable-background="new">
<clipPath id="cp0">
<path transform="matrix(1,0,0,-1,0,29)" d="M 7.691656 29 L 21.30834 29 C 23.9829 29 24.95276 28.72152 25.93054 28.1986 C 26.90831 27.67568 27.67568 26.90831 28.1986 25.93054 C 28.72152 24.95276 29 23.9829 29 21.30834 L 29 7.691656 C 29 5.017099 28.72152 4.047241 28.1986 3.069463 C 27.67568 2.091685 26.90831 1.324319 25.93054 .8013981 C 24.95276 .2784768 23.9829 0 21.30834 0 L 7.691656 0 C 5.017099 0 4.047241 .2784768 3.069463 .8013981 C 2.091685 1.324319 1.324319 2.091685 .8013981 3.069463 C .2784768 4.047241 0 5.017099 0 7.691656 L 0 21.30834 C 0 23.9829 .2784768 24.95276 .8013981 25.93054 C 1.324319 26.90831 2.091685 27.67568 3.069463 28.1986 C 4.047241 28.72152 5.017099 29 7.691656 29 Z " fill-rule="evenodd"/>
</clipPath>
<g clip-path="url(#cp0)">
<path transform="matrix(1,0,0,-1,0,29)" d="M -5 34 L 34 34 L 34 -5 L -5 -5 Z " fill="#4cd964"/>
</g>
<clipPath id="cp1">
<path transform="matrix(1,0,0,-1,0,29)" d="M 5 20 C 5 19.44772 4.552285 19 4 19 C 3.447715 19 3 19.44772 3 20 L 3 23 C 3 24.65685 4.343146 26 6 26 L 9 26 C 9.552285 26 10 25.55228 10 25 C 10 24.44772 9.552285 24 9 24 L 6 24 C 5.447715 24 5 23.55228 5 23 L 5 20 Z M 24 20 L 24 23 C 24 23.55228 23.55228 24 23 24 L 20 24 C 19.44772 24 19 24.44772 19 25 C 19 25.55228 19.44772 26 20 26 L 23 26 C 24.65685 26 26 24.65685 26 23 L 26 20 C 26 19.44772 25.55228 19 25 19 C 24.44772 19 24 19.44772 24 20 Z M 5 9 L 5 6 C 5 5.447715 5.447715 5 6 5 L 9 5 C 9.552285 5 10 4.552285 10 4 C 10 3.447715 9.552285 3 9 3 L 6 3 C 4.343146 3 3 4.343146 3 6 L 3 9 C 3 9.552285 3.447715 10 4 10 C 4.552285 10 5 9.552285 5 9 Z M 24 9 C 24 9.552285 24.44772 10 25 10 C 25.55228 10 26 9.552285 26 9 L 26 6 C 26 4.343146 24.65685 3 23 3 L 20 3 C 19.44772 3 19 3.447715 19 4 C 19 4.552285 19.44772 5 20 5 L 23 5 C 23.55228 5 24 5.447715 24 6 L 24 9 Z "/>
</clipPath>
<g clip-path="url(#cp1)">
<path transform="matrix(1,0,0,-1,0,29)" d="M -2 31 L 31 31 L 31 -2 L -2 -2 Z " fill="#ffffff" fill-opacity=".5"/>
</g>
<clipPath id="cp2">
<path transform="matrix(1,0,0,-1,0,29)" d="M 8 19 C 8 19.55228 8.447715 20 9 20 C 9.552285 20 10 19.55228 10 19 L 10 17 C 10 16.44772 9.552285 16 9 16 C 8.447715 16 8 16.44772 8 17 L 8 19 Z M 19 19 C 19 19.55228 19.44772 20 20 20 C 20.55228 20 21 19.55228 21 19 L 21 17 C 21 16.44772 20.55228 16 20 16 C 19.44772 16 19 16.44772 19 17 L 19 19 Z M 13.5 19 C 13.5 19.55228 13.94772 20 14.5 20 C 15.05228 20 15.5 19.55228 15.5 19 L 15.5 14.9 C 15.5 13.51929 14.38071 12.4 13 12.4 L 12.5 12.4 C 11.94772 12.4 11.5 12.84772 11.5 13.4 C 11.5 13.95228 11.94772 14.4 12.5 14.4 L 13 14.4 C 13.27614 14.4 13.5 14.62386 13.5 14.9 L 13.5 19 Z M 10.41429 9.316669 C 10.03689 9.640149 9.993189 10.20832 10.31667 10.58571 C 10.64015 10.96311 11.20832 11.00681 11.58571 10.68333 C 12.17876 10.17501 13.14128 9.9 14.5 9.9 C 15.85872 9.9 16.82124 10.17501 17.41429 10.68333 C 17.79168 11.00681 18.35985 10.96311 18.68333 10.58571 C 19.00681 10.20832 18.96311 9.640149 18.58571 9.316669 C 17.6232 8.491659 16.25239 8.1 14.5 8.1 C 12.74761 8.1 11.3768 8.491659 10.41429 9.316669 Z "/>
</clipPath>
<g clip-path="url(#cp2)">
<path transform="matrix(1,0,0,-1,0,29)" d="M 3 25 L 26 25 L 26 3.1 L 3 3.1 Z " fill="#ffffff"/>
</g>
</g>
</svg>
