<?xml version="1.0" encoding="UTF-8" standalone="no"?>
<!DOCTYPE svg PUBLIC "-//W3C//DTD SVG 1.1//EN" "http://www.w3.org/Graphics/SVG/1.1/DTD/svg11.dtd">
<svg xmlns="http://www.w3.org/2000/svg" xmlns:xlink="http://www.w3.org/1999/xlink" version="1.1" width="29pt" height="29pt" viewBox="0 0 29 29">
<g enable-background="new">
<clipPath id="cp0">
<path transform="matrix(1,0,0,-1,0,29)" d="M 7.378782 28.99867 L 21.30834 29 C 23.9829 29 24.95276 28.72152 25.93054 28.1986 C 26.90831 27.67568 27.67568 26.90831 28.1986 25.93054 C 28.72152 24.95276 29 23.9829 29 21.30834 L 29 7.691656 L 28.99467 7.081615 C 28.95388 4.861871 28.67969 3.969018 28.1986 3.069463 C 27.67568 2.091685 26.90831 1.324319 25.93054 .8013981 C 24.95276 .2784768 23.9829 0 21.30834 0 L 7.691656 0 L 7.081615 .005329331 C 4.861871 .04612074 3.969018 .3203105 3.069463 .8013981 C 2.091685 1.324319 1.324319 2.091685 .8013981 3.069463 C .2993937 4.00813 .02266926 4.939498 .001334511 7.378782 L 0 21.30834 C 0 23.9829 .2784768 24.95276 .8013981 25.93054 C 1.324319 26.90831 2.091685 27.67568 3.069463 28.1986 C 4.00813 28.70061 4.939498 28.97733 7.378782 28.99867 Z M 20.48653 22.665 L 8.513474 22.665 C 8.034628 22.665 7.564627 22.53598 7.152888 22.29151 C 5.937944 21.57014 5.505232 20.03438 6.137377 18.79298 L 6.221961 18.63941 L 13.9282 5.660492 C 14.16747 5.257502 14.72626 5.228717 15.01118 5.574137 L 15.0718 5.660492 L 22.77804 18.63941 C 23.02251 19.05115 23.15153 19.52115 23.15153 20 C 23.15153 21.41523 22.04838 22.57281 20.65506 22.65976 L 20.48653 22.665 Z M 13.83406 21.335 L 13.83406 8.423 L 7.365568 19.31843 C 6.989148 19.9524 7.197934 20.77149 7.831905 21.14791 C 7.996909 21.24588 8.180593 21.30683 8.370281 21.3273 L 8.513474 21.335 L 13.83406 21.335 Z M 15.16406 21.335 L 20.48653 21.335 C 21.22383 21.335 21.82153 20.7373 21.82153 20 C 21.82153 19.8081 21.78016 19.61904 21.70092 19.44549 L 21.63443 19.31843 L 15.16406 8.423 L 15.16406 21.335 L 20.48653 21.335 L 15.16406 21.335 Z " fill-rule="evenodd"/>
</clipPath>
<g clip-path="url(#cp0)">
<path transform="matrix(1,0,0,-1,0,29)" d="M -5 34 L 34 34 L 34 -5 L -5 -5 Z "/>
</g>
</g>
</svg>
