<?xml version="1.0" encoding="UTF-8" standalone="no"?>
<!DOCTYPE svg PUBLIC "-//W3C//DTD SVG 1.1//EN" "http://www.w3.org/Graphics/SVG/1.1/DTD/svg11.dtd">
<svg xmlns="http://www.w3.org/2000/svg" xmlns:xlink="http://www.w3.org/1999/xlink" version="1.1" width="29pt" height="29pt" viewBox="0 0 29 29">
<g enable-background="new">
<clipPath id="cp0">
<path transform="matrix(1,0,0,-1,0,29)" d="M 7.691656 29 L 21.30834 29 C 23.9829 29 24.95276 28.72152 25.93054 28.1986 C 26.90831 27.67568 27.67568 26.90831 28.1986 25.93054 C 28.72152 24.95276 29 23.9829 29 21.30834 L 29 7.691656 C 29 5.017099 28.72152 4.047241 28.1986 3.069463 C 27.67568 2.091685 26.90831 1.324319 25.93054 .8013981 C 24.95276 .2784768 23.9829 0 21.30834 0 L 7.691656 0 C 5.017099 0 4.047241 .2784768 3.069463 .8013981 C 2.091685 1.324319 1.324319 2.091685 .8013981 3.069463 C .2784768 4.047241 0 5.017099 0 7.691656 L 0 21.30834 C 0 23.9829 .2784768 24.95276 .8013981 25.93054 C 1.324319 26.90831 2.091685 27.67568 3.069463 28.1986 C 4.047241 28.72152 5.017099 29 7.691656 29 Z " fill-rule="evenodd"/>
</clipPath>
<g clip-path="url(#cp0)">
<path transform="matrix(1,0,0,-1,0,29)" d="M -5 34 L 34 34 L 34 -5 L -5 -5 Z " fill="#8e8e93"/>
</g>
<clipPath id="cp1">
<path transform="matrix(1,0,0,-1,0,29)" d="M 17.55 22.5 C 20.865 22.5 23.5 19.865 23.5 16.55 C 23.5 13.235 20.865 10.6 17.55 10.6 C 16.78933 10.6 16.06388 10.74457 15.39844 10.99844 L 14.15 9.75 L 12.45 9.75 L 12.45 8.05 L 10.75 8.05 L 10.75 6.35 L 10.16562 5.765625 C 9.995625 5.595625 9.809688 5.5 9.554688 5.5 L 7.35 5.5 C 6.84 5.5 6.5 5.84 6.5 6.35 L 6.5 8.554688 C 6.5 8.809688 6.595625 8.995625 6.765625 9.165625 L 11.99844 14.39844 C 11.74457 15.06388 11.6 15.78933 11.6 16.55 C 11.6 19.865 14.235 22.5 17.55 22.5 Z M 18.825 19.95 C 17.635 19.95 16.7 19.015 16.7 17.825 C 16.7 16.635 17.635 15.7 18.825 15.7 C 20.015 15.7 20.95 16.635 20.95 17.825 C 20.95 19.015 20.015 19.95 18.825 19.95 Z "/>
</clipPath>
<g clip-path="url(#cp1)">
<path transform="matrix(1,0,0,-1,0,29)" d="M 1.5 .5 L 28.5 .5 L 28.5 27.5 L 1.5 27.5 Z " fill="#ffffff"/>
</g>
</g>
</svg>
