<?xml version="1.0" encoding="UTF-8" standalone="no"?>
<!DOCTYPE svg PUBLIC "-//W3C//DTD SVG 1.1//EN" "http://www.w3.org/Graphics/SVG/1.1/DTD/svg11.dtd">
<svg xmlns="http://www.w3.org/2000/svg" xmlns:xlink="http://www.w3.org/1999/xlink" version="1.1" width="29pt" height="29pt" viewBox="0 0 29 29">
<g enable-background="new">
<clipPath id="cp0">
<path transform="matrix(1,0,0,-1,0,29)" d="M 7.691656 29 L 21.30834 29 C 23.9829 29 24.95276 28.72152 25.93054 28.1986 C 26.90831 27.67568 27.67568 26.90831 28.1986 25.93054 C 28.72152 24.95276 29 23.9829 29 21.30834 L 29 7.691656 C 29 5.017099 28.72152 4.047241 28.1986 3.069463 C 27.67568 2.091685 26.90831 1.324319 25.93054 .8013981 C 24.95276 .2784768 23.9829 0 21.30834 0 L 7.691656 0 C 5.017099 0 4.047241 .2784768 3.069463 .8013981 C 2.091685 1.324319 1.324319 2.091685 .8013981 3.069463 C .2784768 4.047241 0 5.017099 0 7.691656 L 0 21.30834 C 0 23.9829 .2784768 24.95276 .8013981 25.93054 C 1.324319 26.90831 2.091685 27.67568 3.069463 28.1986 C 4.047241 28.72152 5.017099 29 7.691656 29 Z " fill-rule="evenodd"/>
</clipPath>
<g clip-path="url(#cp0)">
<path transform="matrix(1,0,0,-1,0,29)" d="M -5 34 L 34 34 L 34 -5 L -5 -5 Z " fill="#2094fa"/>
</g>
<clipPath id="cp1">
<path transform="matrix(1,0,0,-1,0,29)" d="M 10 23 L 16 23 L 21 18 L 21 8 C 21 6.895431 20.10457 6 19 6 L 10 6 C 8.895431 6 8 6.895431 8 8 L 8 21 C 8 22.10457 8.895431 23 10 23 Z M 12 15 C 11.44772 15 11 14.55228 11 14 L 11 10 C 11 9.447715 11.44772 9 12 9 L 17 9 C 17.55228 9 18 9.447715 18 10 L 18 14 C 18 14.55228 17.55228 15 17 15 L 12 15 Z " fill-rule="evenodd"/>
</clipPath>
<g clip-path="url(#cp1)">
<path transform="matrix(1,0,0,-1,0,29)" d="M 3 28 L 26 28 L 26 1 L 3 1 Z " fill="#ffffff"/>
</g>
</g>
</svg>
