<?xml version="1.0" encoding="UTF-8" standalone="no"?>
<!DOCTYPE svg PUBLIC "-//W3C//DTD SVG 1.1//EN" "http://www.w3.org/Graphics/SVG/1.1/DTD/svg11.dtd">
<svg xmlns="http://www.w3.org/2000/svg" xmlns:xlink="http://www.w3.org/1999/xlink" version="1.1" width="29pt" height="29pt" viewBox="0 0 29 29">
<g enable-background="new">
<clipPath id="cp0">
<path transform="matrix(1,0,0,-1,0,29)" d="M 7.691656 29 L 21.30834 29 C 23.9829 29 24.95276 28.72152 25.93054 28.1986 C 26.90831 27.67568 27.67568 26.90831 28.1986 25.93054 C 28.72152 24.95276 29 23.9829 29 21.30834 L 29 7.691656 C 29 5.017099 28.72152 4.047241 28.1986 3.069463 C 27.67568 2.091685 26.90831 1.324319 25.93054 .8013981 C 24.95276 .2784768 23.9829 0 21.30834 0 L 7.691656 0 C 5.017099 0 4.047241 .2784768 3.069463 .8013981 C 2.091685 1.324319 1.324319 2.091685 .8013981 3.069463 C .2784768 4.047241 0 5.017099 0 7.691656 L 0 21.30834 C 0 23.9829 .2784768 24.95276 .8013981 25.93054 C 1.324319 26.90831 2.091685 27.67568 3.069463 28.1986 C 4.047241 28.72152 5.017099 29 7.691656 29 Z " fill-rule="evenodd"/>
</clipPath>
<g clip-path="url(#cp0)">
<path transform="matrix(1,0,0,-1,0,29)" d="M -5 34 L 34 34 L 34 -5 L -5 -5 Z " fill="#4cd964"/>
</g>
<clipPath id="cp1">
<path transform="matrix(1,0,0,-1,0,29)" d="M 14.19203 23.07814 C 16.15973 23.25125 18.22779 22.72688 19.93592 21.61957 C 20.71706 21.1185 21.69574 20.21653 22.23701 19.49855 C 23.00409 18.48927 23.5265 17.40123 23.84642 16.14775 C 24.00756 15.51043 24.07099 15.05249 24.0967 14.34505 C 24.11628 13.75065 24.11191 13.67036 24.03663 13.55503 C 23.91146 13.36241 23.65974 13.27228 23.44779 13.34466 C 23.18052 13.43053 23.09634 13.6213 23.09634 14.06177 C 23.09634 15.72144 22.47952 17.53698 21.45046 18.90918 C 20.18737 20.58999 18.30287 21.70375 16.19626 22.01431 C 14.23897 22.30657 12.16019 21.84019 10.5095 20.73966 C 10.20679 20.53899 10.07923 20.47598 9.947536 20.47598 C 9.592507 20.47598 9.351908 20.84368 9.491355 21.17099 C 9.626957 21.49725 11.03459 22.28044 12.0359 22.61548 C 12.83577 22.88092 13.44665 23.01236 14.19203 23.07814 Z M 15.83188 20.90625 C 16.18281 20.86146 16.36051 20.77955 16.44074 20.59876 C 16.54218 20.37723 16.50676 20.19094 16.33207 20.01603 C 16.18255 19.86651 16.12972 19.8483 15.9239 19.87584 C 15.84793 19.88752 15.5711 19.90402 15.18426 19.92159 C 14.52445 19.94652 14.11213 19.90503 13.51939 19.75499 C 12.44792 19.48533 11.5649 18.98622 10.78639 18.2113 C 10.03501 17.45614 9.557575 16.62972 9.259607 15.5654 C 9.130709 15.10235 8.985575 14.93025 8.682403 14.93025 C 8.533621 14.93025 8.447664 14.96823 8.338246 15.07767 C 8.204398 15.20685 8.188307 15.26442 8.209991 15.49394 C 8.240668 15.83956 8.473968 16.49819 8.773856 17.09422 C 9.799609 19.13118 11.72259 20.54089 13.94468 20.88416 C 14.3333 20.94446 15.4437 20.95805 15.83188 20.90625 Z M 9.427322 20.12623 C 9.427322 19.92793 9.369401 19.83715 9.0382 19.48251 C 7.272235 17.60235 6.536359 14.97944 7.054424 12.41095 C 7.106857 12.14062 7.143778 11.92251 7.143778 11.86878 C 7.143778 11.66884 6.910837 11.45518 6.68485 11.42564 C 6.521038 11.40697 6.446312 11.43009 6.321474 11.54116 C 6.15691 11.69223 6.06915 11.97939 5.96342 12.66245 C 5.86293 13.33992 5.871615 14.73389 5.98204 15.38082 C 6.253959 16.95398 6.831966 18.30966 7.755793 19.53772 C 8.060582 19.94539 8.581982 20.51044 8.726343 20.5741 C 9.02243 20.70476 9.427322 20.44892 9.427322 20.12623 Z M 17.19134 20.51545 L 17.25277 20.53066 C 17.33464 20.56626 17.76765 20.38681 18.09454 20.22324 C 19.86891 19.33064 21.20876 17.6894 21.72597 15.77594 C 21.84277 15.33808 21.98165 14.52691 22.06652 13.79288 C 22.15461 12.99711 22.15461 11.11366 22.0664 10.3461 C 21.95255 9.394849 21.70454 8.083738 21.57213 7.746999 C 21.40365 7.337726 20.80767 7.318906 20.64255 7.722239 C 20.59896 7.820871 20.59078 7.867497 20.6077 7.986497 C 20.62148 8.083456 20.63155 8.12928 20.75829 8.685399 C 21.22547 10.70211 21.25761 12.96056 20.84804 15.01241 C 20.57725 16.36634 20.1067 17.27191 19.20393 18.17827 C 18.58702 18.79518 18.01786 19.17128 17.144 19.54021 C 16.9789 19.61148 16.90514 19.67856 16.84999 19.8166 C 16.72277 20.11798 16.87732 20.4346 17.19134 20.51545 Z M 15.96374 18.69665 C 16.9385 18.47419 17.80196 17.98105 18.49871 17.25075 C 19.20586 16.50634 19.57495 15.73645 19.77449 14.5911 C 19.93492 13.68415 20.0497 12.16223 19.99297 11.68632 C 19.94961 11.3469 19.78092 11.14952 19.50293 11.14952 C 19.26837 11.14952 19.07595 11.27417 19.00912 11.48024 C 18.98628 11.56237 18.96109 12.01252 18.95014 12.49707 C 18.90373 14.70749 18.51965 15.91097 17.59375 16.78756 C 16.92285 17.41973 16.13926 17.74434 15.18758 17.78305 C 14.0175 17.83227 12.97945 17.41579 12.19189 16.58254 C 11.32548 15.66363 11.02734 14.51574 11.29575 13.12086 C 11.38556 12.64228 11.38939 11.61553 11.3031 11.13557 C 11.05902 9.827323 10.49597 8.749539 9.582589 7.843635 C 9.144332 7.409335 8.963648 7.321546 8.682292 7.450329 C 8.482134 7.547817 8.351043 7.805428 8.400512 8.007553 C 8.418443 8.097818 8.579286 8.28229 8.831 8.529612 C 9.600071 9.277181 10.06621 10.09615 10.27135 11.05819 C 10.38737 11.59208 10.38737 12.42365 10.27059 13.04958 C 10.15137 13.69391 10.16981 14.53534 10.31596 15.09018 C 10.55662 16.01611 10.99847 16.78339 11.66513 17.43518 C 12.43872 18.19409 13.28963 18.61118 14.41243 18.78174 C 14.68377 18.82377 15.64449 18.76971 15.96374 18.69665 Z M 15.58805 16.57481 C 16.47947 16.33214 17.22557 15.66456 17.50743 14.85308 C 17.60979 14.55732 17.74876 13.72094 17.80389 13.07496 C 17.85646 12.41808 17.82822 11.13488 17.74522 10.54332 C 17.49614 8.715897 16.90239 7.042781 15.9661 5.532181 C 15.63759 4.998865 15.52664 4.889114 15.27045 4.889129 C 14.97821 4.893658 14.75952 5.10798 14.75952 5.394644 C 14.75952 5.492025 14.87015 5.706062 15.05819 6.001877 C 15.94035 7.38987 16.48885 8.884799 16.74361 10.59645 C 16.83239 11.19706 16.83239 12.8452 16.7435 13.4786 C 16.59466 14.53073 16.46166 14.89439 16.118 15.21777 C 15.49647 15.80583 14.46295 15.78186 13.81076 15.16009 C 13.46596 14.83204 13.31591 14.42785 13.35976 13.94537 C 13.41075 13.33722 13.40615 13.29782 13.23621 13.14676 C 13.12714 13.04687 13.03211 13.00891 12.89077 13.00891 C 12.46693 13.00891 12.29825 13.39096 12.34185 14.10215 C 12.41797 15.35668 13.34178 16.40776 14.56489 16.62814 C 14.80392 16.67179 15.33763 16.64433 15.58805 16.57481 Z M 8.319672 14.53849 L 8.320093 14.53868 C 8.524826 14.62913 8.742018 14.58491 8.891462 14.42053 C 9.00558 14.29224 9.019618 14.22828 9.042545 13.79012 C 9.056588 13.55102 9.092207 13.21385 9.120549 13.04718 C 9.261219 12.25928 9.254192 11.7482 9.093387 11.12786 C 9.00007 10.75874 8.745377 10.21146 8.518735 9.888908 C 8.291229 9.57512 7.913817 9.192532 7.758229 9.134749 C 7.446076 9.017876 7.074695 9.264355 7.074695 9.592566 C 7.074695 9.772065 7.227894 10.06913 7.380978 10.06913 C 7.381988 10.06913 7.803535 10.61045 7.919026 10.83559 C 8.212736 11.39872 8.275975 11.97575 8.131379 12.79733 C 8.087343 13.05425 8.042189 13.44655 8.031901 13.68132 C 8.000342 14.2384 8.053204 14.41958 8.319672 14.53849 Z M 14.6671 14.37226 C 14.99494 14.64775 15.41213 14.45263 15.51045 14.0013 C 15.67204 13.2483 15.72841 11.77393 15.6283 10.96198 C 15.47037 9.69054 15.06646 8.378751 14.5055 7.319302 C 14.13188 6.615954 13.58591 5.816265 13.18666 5.387509 C 13.03177 5.215904 12.96391 5.17946 12.78574 5.17946 C 12.54679 5.17946 12.41691 5.248145 12.32325 5.435271 C 12.19456 5.683013 12.2609 5.855212 12.60913 6.278685 C 14.28353 8.332285 14.98714 10.98589 14.5475 13.59084 C 14.46067 14.08431 14.47563 14.2142 14.6671 14.37226 Z M 13.38351 12.49495 L 13.49587 12.38626 L 13.53388 12.29177 L 13.51207 11.70497 C 13.4457 9.79147 12.62392 7.884785 11.2518 6.461131 C 10.98458 6.182163 10.87284 6.094112 10.7356 6.069596 C 10.512 6.026754 10.29025 6.135539 10.18381 6.338652 C 10.05328 6.595562 10.12505 6.751927 10.52032 7.16679 C 11.73522 8.438606 12.42643 10.00836 12.49772 11.65301 C 12.52483 12.29326 12.53906 12.368 12.68285 12.5118 C 12.87486 12.70403 13.19041 12.69338 13.38351 12.49495 Z M 19.04417 10.66284 C 19.30119 10.90049 19.70483 10.81067 19.839 10.48575 C 19.89132 10.36157 19.89001 10.26247 19.84019 9.944398 C 19.6579 8.683285 19.25364 7.316258 18.70324 6.094285 C 18.46259 5.557702 18.36249 5.450309 18.05592 5.455026 C 17.90782 5.459858 17.82133 5.501579 17.72008 5.616563 C 17.53301 5.826801 17.54925 6.003903 17.76476 6.486788 C 18.27515 7.618997 18.60185 8.699579 18.80292 9.920944 C 18.89476 10.48026 18.91327 10.54139 19.04417 10.66284 Z "/>
</clipPath>
<g clip-path="url(#cp1)">
<path transform="matrix(1,0,0,-1,0,29)" d="M .8933058 28.11059 L 29.10661 28.11059 L 29.10661 -.1108709 L .8933058 -.1108709 Z " fill="#ffffff"/>
</g>
</g>
</svg>
