<?xml version="1.0" encoding="UTF-8" standalone="no"?>
<!DOCTYPE svg PUBLIC "-//W3C//DTD SVG 1.1//EN" "http://www.w3.org/Graphics/SVG/1.1/DTD/svg11.dtd">
<svg xmlns="http://www.w3.org/2000/svg" xmlns:xlink="http://www.w3.org/1999/xlink" version="1.1" width="30pt" height="30pt" viewBox="0 0 30 30">
<g enable-background="new">
<clipPath id="cp0">
<path transform="matrix(1,0,0,-1,0,30)" d="M 15 25.665 C 20.89012 25.665 25.665 20.89012 25.665 15 C 25.665 9.109883 20.89012 4.335 15 4.335 C 9.109883 4.335 4.335 9.109883 4.335 15 C 4.335 20.89012 9.109883 25.665 15 25.665 Z M 15 24.335 C 9.844422 24.335 5.665 20.15558 5.665 15 C 5.665 9.844422 9.844422 5.665 15 5.665 C 20.15558 5.665 24.335 9.844422 24.335 15 C 24.335 20.15558 20.15558 24.335 15 24.335 Z M 15 11.25 C 15.69036 11.25 16.25 10.69036 16.25 10 C 16.25 9.309644 15.69036 8.75 15 8.75 C 14.30964 8.75 13.75 9.309644 13.75 10 C 13.75 10.69036 14.30964 11.25 15 11.25 Z M 15 21.165 C 15.33388 21.165 15.61029 20.91894 15.65779 20.59827 L 15.665 20.5 L 15.665 13.5 C 15.665 13.13273 15.36727 12.835 15 12.835 C 14.66612 12.835 14.38971 13.08106 14.34221 13.40173 L 14.335 13.5 L 14.335 20.5 C 14.335 20.86727 14.63273 21.165 15 21.165 Z "/>
</clipPath>
<g clip-path="url(#cp0)">
<path transform="matrix(1,0,0,-1,0,30)" d="M -.665 30.665 L 30.665 30.665 L 30.665 -.665 L -.665 -.665 Z "/>
</g>
</g>
</svg>
