<?xml version="1.0" encoding="UTF-8" standalone="no"?>
<!DOCTYPE svg PUBLIC "-//W3C//DTD SVG 1.1//EN" "http://www.w3.org/Graphics/SVG/1.1/DTD/svg11.dtd">
<svg xmlns="http://www.w3.org/2000/svg" xmlns:xlink="http://www.w3.org/1999/xlink" version="1.1" width="24pt" height="24pt" viewBox="0 0 24 24">
<g enable-background="new">
<clipPath id="cp0">
<path transform="matrix(1,0,0,-1,0,24)" d="M 13.035 3.252466 L 13.035 8.82 L 15.675 8.82 C 15.21937 8.82 14.85 8.450635 14.85 7.995 C 14.85 7.539365 15.21937 7.17 15.675 7.17 L 16.17 7.17 L 18.4932 7.17 C 21.6744 7.17 24.255 9.73721 24.255 12.90618 C 24.255 14.75229 23.36718 16.46514 21.89421 17.53726 C 21.40507 19.7229 19.44613 21.32118 17.1468 21.32118 L 15.98478 21.32118 C 14.64479 23.00341 12.60278 24 10.4148 24 C 6.899709 24 3.947501 21.44943 3.398037 18.06207 C 1.442976 17.11218 .165 15.12173 .165 12.90618 C .165 9.73721 2.745604 7.17 5.9268 7.17 L 8.25 7.17 L 8.745 7.17 C 9.200635 7.17 9.57 7.539365 9.57 7.995 C 9.57 8.450635 9.200635 8.82 8.745 8.82 L 11.385 8.82 L 11.385 14.265 C 11.385 14.72063 11.75437 15.09 12.21 15.09 C 12.66563 15.09 13.035 14.72063 13.035 14.265 L 13.035 8.82 L 15.675 8.82 L 16.5 8.82 L 18.4932 8.82 C 20.76504 8.82 22.605 10.65041 22.605 12.90618 C 22.605 14.30906 21.88469 15.6038 20.70379 16.35239 L 20.38265 16.55596 L 20.3288 16.93236 C 20.10539 18.49422 18.75235 19.67118 17.1468 19.67118 L 15.14243 19.67118 L 14.8961 20.02294 C 13.87756 21.47743 12.21138 22.35 10.4148 22.35 C 7.584139 22.35 5.23066 20.19899 4.978835 17.41805 L 4.932389 16.90514 L 4.451182 16.72161 C 2.871969 16.11933 1.815 14.60457 1.815 12.90618 C 1.815 10.65041 3.654957 8.82 5.9268 8.82 L 7.92 8.82 L 8.745 8.82 L 11.385 8.82 L 11.385 3.292591 L 9.266768 5.406667 C 8.944269 5.728533 8.421908 5.728021 8.100042 5.405522 C 7.778176 5.083023 7.778689 4.560662 8.101188 4.238796 L 11.51233 .8343424 C 11.89483 .4525998 12.51278 .4481107 12.90078 .8242562 L 16.41425 4.230391 C 16.74139 4.547538 16.74949 5.069836 16.43234 5.396977 C 16.11519 5.724118 15.5929 5.732219 15.26575 5.415073 L 13.035 3.252466 Z " fill-rule="evenodd"/>
</clipPath>
<g clip-path="url(#cp0)">
<path transform="matrix(1,0,0,-1,0,24)" d="M -1.485 -1.104935 L 25.904999 -1.104935 L 25.904999 25.650006 L -1.485 25.650006 Z "/>
</g>
</g>
</svg>
