<?xml version="1.0" encoding="UTF-8" standalone="no"?>
<!DOCTYPE svg PUBLIC "-//W3C//DTD SVG 1.1//EN" "http://www.w3.org/Graphics/SVG/1.1/DTD/svg11.dtd">
<svg xmlns="http://www.w3.org/2000/svg" xmlns:xlink="http://www.w3.org/1999/xlink" version="1.1" width="24pt" height="24pt" viewBox="0 0 24 24">
<g enable-background="new">
<clipPath id="cp0">
<path transform="matrix(1,0,0,-1,0,24)" d="M 13 14.6 L 13 17.35339 C 13 17.62954 13.22386 17.85339 13.5 17.85339 C 13.62621 17.85339 13.74774 17.80567 13.84023 17.71979 L 19.60542 12.3664 C 19.80777 12.1785 19.81949 11.86213 19.63159 11.65977 C 19.62319 11.65073 19.61446 11.642 19.60542 11.6336 L 13.84023 6.280209 C 13.63787 6.092308 13.3215 6.104025 13.1336 6.306381 C 13.04773 6.398863 13 6.5204 13 6.646606 L 13 9.4 C 9.696178 9.4 7.481796 8.347 6.356854 6.241 L 6.352732 6.243202 C 6.308844 6.16104 6.206661 6.130013 6.124499 6.1739 C 6.067711 6.204234 6.033146 6.264252 6.035304 6.328595 C 6.229333 11.84286 8.550863 14.6 13 14.6 Z " fill-rule="evenodd"/>
</clipPath>
<g clip-path="url(#cp0)">
<path transform="matrix(1,0,0,-1,0,24)" d="M 1.035208 22.85339 L 24.7652 22.85339 L 24.7652 1.146604 L 1.035208 1.146604 Z " fill="#ffffff"/>
</g>
</g>
</svg>
