<?xml version="1.0" encoding="UTF-8" standalone="no"?>
<!DOCTYPE svg PUBLIC "-//W3C//DTD SVG 1.1//EN" "http://www.w3.org/Graphics/SVG/1.1/DTD/svg11.dtd">
<svg xmlns="http://www.w3.org/2000/svg" xmlns:xlink="http://www.w3.org/1999/xlink" version="1.1" width="30pt" height="30pt" viewBox="0 0 30 30">
<g enable-background="new">
<clipPath id="cp0">
<path transform="matrix(1,0,0,-1,0,30)" d="M 15.607 23.995 L 15.5 24 C 16.2373 24 16.835 23.40247 16.835 22.66537 L 16.835 18.99639 C 16.835 17.80103 17.8043 16.83199 19 16.83199 L 22.66 16.83199 C 23.3973 16.83199 23.995 16.23446 23.995 15.49736 L 23.995 14.49764 L 24 7.999445 C 24 6.895182 23.10457 6 22 6 L 8 6 C 6.895431 6 6 6.895182 6 7.999445 L 6 21.99556 C 6 23.09982 6.895431 23.995 8 23.995 L 15.607 23.995 Z M 20.17157 22.82375 L 22.82843 20.16764 C 23.46538 19.53087 23.86533 18.70146 23.97153 17.81638 C 23.5841 18.03651 23.13667 18.16162 22.66 18.16162 L 19 18.16162 C 18.53884 18.16162 18.165 18.53536 18.165 18.99639 L 18.165 22.66537 C 18.165 23.13795 18.04193 23.58179 17.82608 23.9666 C 18.70876 23.85855 19.53607 23.45908 20.17157 22.82375 Z " fill-rule="evenodd"/>
</clipPath>
<g clip-path="url(#cp0)">
<path transform="matrix(1,0,0,-1,0,30)" d="M 1 29 L 29 29 L 29 1 L 1 1 Z "/>
</g>
</g>
</svg>
