<?xml version="1.0" encoding="UTF-8" standalone="no"?>
<!DOCTYPE svg PUBLIC "-//W3C//DTD SVG 1.1//EN" "http://www.w3.org/Graphics/SVG/1.1/DTD/svg11.dtd">
<svg xmlns="http://www.w3.org/2000/svg" xmlns:xlink="http://www.w3.org/1999/xlink" version="1.1" width="30pt" height="30pt" viewBox="0 0 30 30">
<g enable-background="new">
<clipPath id="cp0">
<path transform="matrix(1,0,0,-1,0,30)" d="M 15 25.665 C 20.89012 25.665 25.665 20.89012 25.665 15 C 25.665 9.109883 20.89012 4.335 15 4.335 C 9.109883 4.335 4.335 9.109883 4.335 15 C 4.335 20.89012 9.109883 25.665 15 25.665 Z M 15 24.335 C 9.844422 24.335 5.665 20.15558 5.665 15 C 5.665 9.844422 9.844422 5.665 15 5.665 C 20.15558 5.665 24.335 9.844422 24.335 15 C 24.335 20.15558 20.15558 24.335 15 24.335 Z M 14.71635 11.89941 C 15.32854 11.89941 15.83696 11.4325 15.83696 10.82031 C 15.83696 10.21851 15.31816 9.741211 14.71635 9.741211 C 14.11455 9.741211 13.59575 10.22888 13.59575 10.82031 C 13.59575 11.42212 14.10417 11.89941 14.71635 11.89941 Z M 15.06914 20.29358 C 16.82268 20.29358 18.35832 19.37012 18.35832 17.63733 C 18.35832 16.61594 17.86842 16.02056 17.12943 15.46941 L 16.97838 15.35966 L 16.47731 15.01807 C 15.92459 14.63063 15.63322 14.30558 15.58481 13.84671 L 15.57756 13.70483 L 15.57756 13.58032 C 15.57756 13.16528 15.26628 12.84363 14.7371 12.84363 C 14.24864 12.84363 13.96351 13.0735 13.92254 13.54139 L 13.9174 13.66333 L 13.9174 13.79822 C 13.9174 14.74727 14.39645 15.28959 15.06772 15.77949 L 15.38886 16.00476 C 16.17462 16.55362 16.56328 16.89579 16.56328 17.55432 C 16.56328 18.35327 15.94072 18.88245 14.9965 18.88245 C 14.30131 18.88245 13.80327 18.54004 13.46086 17.96936 C 13.12883 17.58545 13.03544 17.26379 12.44401 17.26379 C 12.10161 17.26379 11.73845 17.52319 11.73845 17.97974 C 11.73845 18.15613 11.76958 18.32214 11.82146 18.49854 C 12.11198 19.45313 13.28447 20.29358 15.06914 20.29358 Z "/>
</clipPath>
<g clip-path="url(#cp0)">
<path transform="matrix(1,0,0,-1,0,30)" d="M -.665 30.665 L 30.665 30.665 L 30.665 -.665 L -.665 -.665 Z "/>
</g>
</g>
</svg>
