<?xml version="1.0" encoding="UTF-8" standalone="no"?>
<!DOCTYPE svg PUBLIC "-//W3C//DTD SVG 1.1//EN" "http://www.w3.org/Graphics/SVG/1.1/DTD/svg11.dtd">
<svg xmlns="http://www.w3.org/2000/svg" xmlns:xlink="http://www.w3.org/1999/xlink" version="1.1" width="30pt" height="30pt" viewBox="0 0 30 30">
<g enable-background="new">
<clipPath id="cp0">
<path transform="matrix(1,0,0,-1,0,30)" d="M 16 5.665 C 16.36727 5.665 16.665 5.367269 16.665 5 C 16.665 4.666119 16.41894 4.389708 16.09827 4.34221 L 16 4.335 L 14 4.335 C 13.63273 4.335 13.335 4.632731 13.335 5 C 13.335 5.333881 13.58106 5.610292 13.90173 5.65779 L 14 5.665 L 16 5.665 Z M 17.5 7.665 C 17.86727 7.665 18.165 7.367269 18.165 7 C 18.165 6.666119 17.91894 6.389708 17.59827 6.34221 L 17.5 6.335 L 12.5 6.335 C 12.13273 6.335 11.835 6.632731 11.835 7 C 11.835 7.333881 12.08106 7.610292 12.40173 7.65779 L 12.5 7.665 L 17.5 7.665 Z M 15 25.665 C 19.23185 25.665 22.665 22.26454 22.665 18.06667 C 22.665 15.77739 21.58663 13.69862 19.74285 12.09844 C 19.30909 11.722 19.0234 10.98488 18.92938 9.861173 C 18.86144 9.049212 18.21853 8.413744 17.42136 8.341793 L 17.27019 8.335 L 12.72983 8.335 C 11.86406 8.335 11.14276 8.998491 11.07062 9.861215 C 10.97662 10.98488 10.69099 11.72194 10.25736 12.09828 C 8.413433 13.69862 7.335 15.77735 7.335 18.06667 C 7.335 22.26454 10.76815 25.665 15 25.665 Z M 15 24.335 C 11.49986 24.335 8.665 21.52714 8.665 18.06667 C 8.665 16.18978 9.560043 14.46454 11.12913 13.10274 C 11.86801 12.46146 12.27576 11.40929 12.39599 9.972065 C 12.40843 9.823286 12.51683 9.703958 12.65725 9.672901 L 12.72983 9.665 L 17.27018 9.665 C 17.44437 9.665 17.58949 9.798492 17.60401 9.972069 C 17.72427 11.4093 18.13209 12.46155 18.8711 13.10291 C 20.44002 14.46454 21.335 16.18979 21.335 18.06667 C 21.335 21.52714 18.50014 24.335 15 24.335 Z "/>
</clipPath>
<g clip-path="url(#cp0)">
<path transform="matrix(1,0,0,-1,0,30)" d="M 2.335 30.665 L 27.665 30.665 L 27.665 -.665 L 2.335 -.665 Z "/>
</g>
</g>
</svg>
