<?xml version="1.0" encoding="UTF-8" standalone="no"?>
<!DOCTYPE svg PUBLIC "-//W3C//DTD SVG 1.1//EN" "http://www.w3.org/Graphics/SVG/1.1/DTD/svg11.dtd">
<svg xmlns="http://www.w3.org/2000/svg" xmlns:xlink="http://www.w3.org/1999/xlink" version="1.1" width="24pt" height="24pt" viewBox="0 0 24 24">
<g enable-background="new">
<clipPath id="cp0">
<path transform="matrix(1,0,0,-1,0,24)" d="M 12 22.165 C 6.123567 22.165 1.335 17.82131 1.335 12.42904 C 1.335 9.425682 2.71438 6.861492 5.221346 5.030113 C 5.300096 4.972584 5.3428 4.118786 4.967381 3.544552 C 4.904674 3.448637 4.837467 3.354282 4.765274 3.260144 L 4.664388 3.135499 C 4.423841 2.847981 3.987559 2.370314 4.019944 2.408466 C 3.853698 2.212611 3.75792 2.063771 3.714993 1.856905 C 3.629853 1.446614 3.855196 1.102251 4.215227 .951567 C 4.844804 .6880686 6.55143 .8433088 7.59105 1.425061 C 8.178308 1.75368 8.615022 2.070424 9.072648 2.469931 L 9.596 2.944 L 9.397532 2.985004 C 10.24198 2.791742 11.11415 2.693077 12 2.693077 C 17.87643 2.693077 22.665 7.036768 22.665 12.42904 C 22.665 17.82131 17.87643 22.165 12 22.165 Z M 12 20.835 C 17.16926 20.835 21.335 17.05627 21.335 12.42904 C 21.335 7.801803 17.16926 4.023077 12 4.023077 C 11.21407 4.023077 10.44143 4.110482 9.694247 4.281484 C 9.16645 4.402277 7.560784 2.932198 6.941577 2.585701 L 6.804596 2.515846 C 6.470848 2.36025 6.04471 2.256229 5.662605 2.198943 L 5.607 2.192 L 5.820662 2.450788 C 5.912561 2.570623 5.999045 2.69204 6.080587 2.816766 C 6.808599 3.930319 6.726194 5.577879 6.005891 6.104072 C 3.83277 7.691573 2.665 9.862391 2.665 12.42904 C 2.665 17.05627 6.830738 20.835 12 20.835 Z "/>
</clipPath>
<g clip-path="url(#cp0)">
<clipPath id="cp1">
<path transform="matrix(1,0,0,-1,0,24)" d="M 0 0 L 24 0 L 24 24 L 0 24 Z "/>
</clipPath>
<g clip-path="url(#cp1)">
<path transform="matrix(1,0,0,-1,0,24)" d="M -3.665 27.165 L 27.665 27.165 L 27.665 -4.17255 L -3.665 -4.17255 Z "/>
</g>
</g>
</g>
</svg>
