<?xml version="1.0" encoding="UTF-8" standalone="no"?>
<!DOCTYPE svg PUBLIC "-//W3C//DTD SVG 1.1//EN" "http://www.w3.org/Graphics/SVG/1.1/DTD/svg11.dtd">
<svg xmlns="http://www.w3.org/2000/svg" xmlns:xlink="http://www.w3.org/1999/xlink" version="1.1" width="30pt" height="30pt" viewBox="0 0 30 30">
<g enable-background="new">
<clipPath id="cp0">
<path transform="matrix(1,0,0,-1,0,30)" d="M 21.25 24.415 C 23.61662 24.415 25.54833 22.5529 25.65991 20.21391 L 25.665 20 L 25.665 11.25 C 25.665 8.883379 23.8029 6.951674 21.46391 6.840091 L 21.25 6.835 L 15.878 6.836 L 11.48203 2.927619 C 10.98504 2.48585 10.24163 2.49818 9.759882 2.934721 L 9.660842 3.034748 C 9.480929 3.23715 9.370044 3.490113 9.342034 3.757216 L 9.335 3.891777 L 9.335 6.836 L 8.75 6.835 C 6.383379 6.835 4.451674 8.697098 4.340091 11.03609 L 4.335 11.25 L 4.335 11.875 C 4.335 12.24227 4.632731 12.54 5 12.54 C 5.333881 12.54 5.610292 12.29394 5.65779 11.97327 L 5.665 11.875 L 5.665 11.25 C 5.665 9.607051 6.949306 8.264069 8.568733 8.170237 L 8.75 8.165 L 10 8.165 C 10.33388 8.165 10.61029 7.918942 10.65779 7.598269 L 10.665 7.5 L 10.665 3.982 L 15.0056 7.839158 C 15.208 8.019071 15.46096 8.129956 15.72806 8.157966 L 15.86262 8.165 L 21.25 8.165 C 22.89295 8.165 24.23593 9.449306 24.32976 11.06873 L 24.335 11.25 L 24.335 20 C 24.335 21.64295 23.05069 22.98593 21.43127 23.07976 L 21.25 23.085 L 8.75 23.085 C 7.107051 23.085 5.764069 21.80069 5.670237 20.18127 L 5.665 20 L 5.665 19.375 C 5.665 19.00773 5.367269 18.71 5 18.71 C 4.666119 18.71 4.389708 18.95606 4.34221 19.27673 L 4.335 19.375 L 4.335 20 C 4.335 22.36662 6.197098 24.29833 8.536089 24.40991 L 8.75 24.415 L 21.25 24.415 Z M 13.5128 19.91534 L 13.59523 19.84523 L 17.34523 16.09523 C 17.57895 15.8615 17.60233 15.49707 17.41534 15.2372 L 17.34523 15.15477 L 13.59523 11.40477 C 13.33553 11.14508 12.91447 11.14508 12.65477 11.40477 C 12.42105 11.6385 12.39767 12.00293 12.58466 12.2628 L 12.65477 12.34523 L 15.27 14.961 L 2.5 14.96 C 2.132731 14.96 1.835 15.25773 1.835 15.625 C 1.835 15.95888 2.081058 16.23529 2.401731 16.28279 L 2.5 16.29 L 15.269 16.29 L 12.65477 18.90477 C 12.42105 19.1385 12.39767 19.50293 12.58466 19.7628 L 12.65477 19.84523 C 12.8885 20.07895 13.25293 20.10233 13.5128 19.91534 Z "/>
</clipPath>
<g clip-path="url(#cp0)">
<clipPath id="cp1">
<path transform="matrix(1,0,0,-1,0,30)" d="M 0 0 L 30 0 L 30 30 L 0 30 Z "/>
</clipPath>
<g clip-path="url(#cp1)">
<path transform="matrix(1,0,0,-1,0,30)" d="M -3.165 29.415 L 30.665 29.415 L 30.665 -2.398236 L -3.165 -2.398236 Z "/>
</g>
</g>
</g>
</svg>
