<?xml version="1.0" encoding="UTF-8" standalone="no"?>
<!DOCTYPE svg PUBLIC "-//W3C//DTD SVG 1.1//EN" "http://www.w3.org/Graphics/SVG/1.1/DTD/svg11.dtd">
<svg xmlns="http://www.w3.org/2000/svg" xmlns:xlink="http://www.w3.org/1999/xlink" version="1.1" width="16pt" height="24pt" viewBox="0 0 16 24">
<g enable-background="new">
<clipPath id="cp0">
<path transform="matrix(1,0,0,-1,0,24)" d="M 2.97 24 L 13.2 24 C 14.84029 24 16.17 22.67029 16.17 21.03 L 16.17 3.21 C 16.17 1.569714 14.84029 .24 13.2 .24 L 2.97 .24 C 1.329714 .24 0 1.569714 0 3.21 L 0 21.03 C 0 22.67029 1.329714 24 2.97 24 Z M 2.64 21.03 C 2.093238 21.03 1.65 20.58676 1.65 20.04 L 1.65 4.2 C 1.65 3.653238 2.093238 3.21 2.64 3.21 L 13.53 3.21 C 14.07676 3.21 14.52 3.653238 14.52 4.2 L 14.52 20.04 C 14.52 20.58676 14.07676 21.03 13.53 21.03 L 2.64 21.03 Z M 11.48075 14.70187 C 11.81315 15.0135 12.33524 14.99665 12.64687 14.66425 C 12.9585 14.33185 12.94165 13.80976 12.60925 13.49813 L 7.562358 8.766669 C 7.10757 8.340306 6.396502 8.351772 5.955698 8.792576 L 4.201637 10.54664 C 3.879454 10.86882 3.879454 11.39118 4.201637 11.71336 C 4.523819 12.03555 5.046181 12.03555 5.368363 11.71336 L 6.783515 10.29821 L 11.48075 14.70187 Z "/>
</clipPath>
<g clip-path="url(#cp0)">
<path transform="matrix(1,0,0,-1,0,24)" d="M -1.65 25.65 L 17.82 25.65 L 17.82 -1.41 L -1.65 -1.41 Z " fill="#c6c6c6"/>
</g>
</g>
</svg>
