<?xml version="1.0" encoding="UTF-8" standalone="no"?>
<!DOCTYPE svg PUBLIC "-//W3C//DTD SVG 1.1//EN" "http://www.w3.org/Graphics/SVG/1.1/DTD/svg11.dtd">
<svg xmlns="http://www.w3.org/2000/svg" xmlns:xlink="http://www.w3.org/1999/xlink" version="1.1" width="12pt" height="10pt" viewBox="0 0 12 10">
<g enable-background="new">
<clipPath id="cp0">
<path transform="matrix(1,0,0,-1,0,10)" d="M 5.482972 7.088235 L 5.482972 9.253219 C 5.482972 9.431899 5.338123 9.576748 5.159443 9.576748 C 5.077247 9.576748 4.998133 9.545463 4.938168 9.489246 L .5582634 5.383086 C .4465314 5.278337 .4257174 5.112951 .499009 4.985747 L .5507686 4.918289 L 4.938168 .8048718 C 5.068522 .682665 5.273263 .6892696 5.395469 .8196235 C 5.451687 .8795884 5.482972 .9587027 5.482972 1.040899 L 5.482972 3.205882 C 7.959185 3.205882 9.678427 2.448911 10.6407 .9349687 L 10.75715 .7418473 C 10.79252 .6798207 10.87147 .6582083 10.9335 .6935748 C 10.9733 .7162671 10.99811 .7583276 10.99873 .8041368 C 11.05535 4.993536 9.216763 7.088235 5.482972 7.088235 Z " fill-rule="evenodd"/>
</clipPath>
<g clip-path="url(#cp0)">
<clipPath id="cp1">
<path transform="matrix(1,0,0,-1,0,10)" d="M -249 -508 L 126 -508 L 126 304 L -249 304 Z "/>
</clipPath>
<g clip-path="url(#cp1)">
<path transform="matrix(1,0,0,-1,0,10)" d="M -4.543992 14.57675 L 16 14.57675 L 16 -4.323421 L -4.543992 -4.323421 Z "/>
</g>
</g>
</g>
</svg>
