<?xml version="1.0" encoding="UTF-8" standalone="no"?>
<!DOCTYPE svg PUBLIC "-//W3C//DTD SVG 1.1//EN" "http://www.w3.org/Graphics/SVG/1.1/DTD/svg11.dtd">
<svg xmlns="http://www.w3.org/2000/svg" xmlns:xlink="http://www.w3.org/1999/xlink" version="1.1" width="29pt" height="29pt" viewBox="0 0 29 29">
<g enable-background="new">
<clipPath id="cp0">
<path transform="matrix(1,0,0,-1,0,29)" d="M 7.691656 29 L 21.30834 29 C 23.9829 29 24.95276 28.72152 25.93054 28.1986 C 26.90831 27.67568 27.67568 26.90831 28.1986 25.93054 C 28.72152 24.95276 29 23.9829 29 21.30834 L 29 7.691656 C 29 5.017099 28.72152 4.047241 28.1986 3.069463 C 27.67568 2.091685 26.90831 1.324319 25.93054 .8013981 C 24.95276 .2784768 23.9829 0 21.30834 0 L 7.691656 0 C 5.017099 0 4.047241 .2784768 3.069463 .8013981 C 2.091685 1.324319 1.324319 2.091685 .8013981 3.069463 C .2784768 4.047241 0 5.017099 0 7.691656 L 0 21.30834 C 0 23.9829 .2784768 24.95276 .8013981 25.93054 C 1.324319 26.90831 2.091685 27.67568 3.069463 28.1986 C 4.047241 28.72152 5.017099 29 7.691656 29 Z " fill-rule="evenodd"/>
</clipPath>
<g clip-path="url(#cp0)">
<path transform="matrix(1,0,0,-1,0,29)" d="M -5 34 L 34 34 L 34 -5 L -5 -5 Z " fill="#25b33d"/>
</g>
<clipPath id="cp1">
<path transform="matrix(1,0,0,-1,0,29)" d="M 8.773818 22.17557 C 8.777555 22.17961 8.781359 22.18358 8.785228 22.18749 C 8.979465 22.38377 9.296043 22.38543 9.492325 22.19119 L 9.7 21.98568 C 9.939917 21.74808 10.86515 21.42333 11.8 21.41667 C 12.73485 21.41 13.64853 21.71209 13.925 21.98568 L 14.15628 22.2046 C 14.34909 22.3871 14.65091 22.3871 14.84372 22.2046 L 15.075 21.98568 C 15.35147 21.71209 16.26515 21.41 17.2 21.41667 C 18.13485 21.42333 19.06008 21.74808 19.3 21.98568 L 19.50768 22.19119 C 19.51158 22.19506 19.51556 22.19886 19.51959 22.2026 C 19.72217 22.39025 20.03853 22.37815 20.22618 22.17557 L 20.425 21.96094 L 21.725 20.625 L 21.87713 20.46504 C 22.02521 20.30935 22.05726 20.07645 21.95674 19.88655 L 21.85 19.6849 C 21.85 19.6849 21.15 18.33276 21.15 17.45833 C 21.15 16.52414 21.32197 15.94727 21.525 15.18229 C 21.72803 14.41731 21.95 13.47903 21.95 12.08984 C 21.95 9.380395 20.28366 7.661684 18.625 6.647135 C 17.79567 6.139861 16.9605 5.783755 16.275 5.509115 C 15.87105 5.347274 15.35537 5.090092 14.72796 4.737567 C 14.5718 4.649822 14.38062 4.652324 14.22681 4.744124 L 14.2268 4.744108 C 13.64128 5.093561 13.14901 5.348563 12.75 5.509115 C 12.06873 5.783237 11.23257 6.140426 10.4 6.647135 C 8.734857 7.660555 7.05 9.377051 7.05 12.08984 C 7.05 13.47866 7.271733 14.43331 7.475 15.20703 C 7.678267 15.98075 7.85 16.55768 7.85 17.45833 C 7.85 18.33377 7.15 19.6849 7.15 19.6849 L 7.043261 19.88655 C 6.942739 20.07645 6.974788 20.30935 7.122867 20.46504 L 7.275 20.625 L 8.575 21.96094 L 8.773818 22.17557 Z M 14.22274 17.57906 L 13.35413 15.47709 C 13.31186 15.3748 13.21671 15.3041 13.10657 15.29314 L 10.9279 15.07634 C 10.76303 15.05994 10.64267 14.91298 10.65908 14.74811 C 10.66633 14.67518 10.70004 14.60743 10.75382 14.55765 L 12.41492 13.02022 C 12.49144 12.9494 12.5257 12.84394 12.50541 12.74167 L 12.04958 10.44403 C 12.01734 10.28151 12.12295 10.12363 12.28547 10.09139 C 12.36001 10.0766 12.43739 10.09065 12.50197 10.13071 L 14.3386 11.26982 C 14.43716 11.33095 14.56211 11.32979 14.65952 11.26686 L 16.49317 10.08221 C 16.63234 9.992301 16.81804 10.03223 16.90796 10.1714 C 16.95001 10.23649 16.96524 10.31533 16.95046 10.39141 L 16.49378 12.74231 C 16.47398 12.84424 16.5083 12.94916 16.5845 13.01969 L 18.24618 14.55765 C 18.36777 14.67019 18.37511 14.86 18.26257 14.9816 C 18.21278 15.03538 18.14503 15.06909 18.0721 15.07634 L 15.89343 15.29314 C 15.78329 15.3041 15.68814 15.3748 15.64587 15.47709 L 14.77726 17.57906 C 14.71398 17.73218 14.53855 17.80502 14.38543 17.74174 C 14.31173 17.71129 14.25319 17.65275 14.22274 17.57906 Z "/>
</clipPath>
<g clip-path="url(#cp1)">
<path transform="matrix(1,0,0,-1,0,29)" d="M 1.98516 27.34148 L 27.01484 27.34148 L 27.01484 -.3265268 L 1.98516 -.3265268 Z " fill="#ffffff"/>
</g>
</g>
</svg>
