<?xml version="1.0" encoding="UTF-8" standalone="no"?>
<!DOCTYPE svg PUBLIC "-//W3C//DTD SVG 1.1//EN" "http://www.w3.org/Graphics/SVG/1.1/DTD/svg11.dtd">
<svg xmlns="http://www.w3.org/2000/svg" xmlns:xlink="http://www.w3.org/1999/xlink" version="1.1" width="30pt" height="30pt" viewBox="0 0 30 30">
<g enable-background="new">
<clipPath id="cp0">
<path transform="matrix(1,0,0,-1,0,30)" d="M 16.17103 11.04097 L 17.8659 12.34374 C 18.93819 13.16797 20.40905 13.24136 21.55807 12.52797 L 24.647 10.60913 C 25.33052 10.1346 25.665 9.449522 25.665 8.663204 C 25.665 7.784556 25.21984 6.8692 24.51458 6.122075 C 23.40116 4.923283 22.01058 4.335 20.36612 4.335 C 17.23347 4.335 13.36316 6.53902 9.939482 9.964566 C 6.514907 13.39101 4.335 17.23478 4.335 20.37452 C 4.335 21.9933 4.899007 23.40409 6.041948 24.5119 C 6.788327 25.24581 7.693149 25.665 8.57377 25.665 C 9.401493 25.665 10.12819 25.3034 10.64751 24.57346 L 12.50338 21.57332 C 13.20899 20.43265 13.14077 18.97555 12.33168 17.90579 L 10.99969 16.1548 C 11.00707 16.13542 11.0187 16.10547 11.03486 16.06977 C 11.30472 15.50182 12.1992 14.40145 13.28939 13.31065 C 14.29505 12.29448 15.44093 11.37057 16.021 11.06439 C 16.09507 11.0307 16.13755 11.01715 16.15622 11.01501 C 16.14572 11.0117 16.13664 11.01245 16.17103 11.04097 Z M 10.88019 10.90476 C 14.07846 7.704744 17.6603 5.665 20.36612 5.665 C 21.64594 5.665 22.68197 6.103293 23.54373 7.031104 C 24.03835 7.555103 24.335 8.165083 24.335 8.663204 C 24.335 9.026727 24.20212 9.298898 23.91699 9.497909 L 20.85653 11.39804 C 20.17807 11.81927 19.30958 11.77593 18.67643 11.28926 L 17.04665 10.04363 C 16.80246 9.799316 16.495 9.684708 16.16099 9.684708 C 15.91418 9.684708 15.7097 9.744883 15.43625 9.87044 C 14.68165 10.26714 13.43723 11.2705 12.34638 12.37278 C 11.15869 13.56111 10.1855 14.75832 9.828766 15.50932 C 9.720704 15.74718 9.659926 15.94583 9.659926 16.17803 C 9.659926 16.50321 9.77766 16.80081 9.958478 16.97283 L 11.27091 18.70809 C 11.74866 19.33974 11.78893 20.20011 11.37229 20.87364 L 9.540735 23.83724 C 9.2994 24.17529 8.978436 24.335 8.57377 24.335 C 8.065863 24.335 7.485598 24.06617 6.971031 23.56022 C 6.090398 22.70664 5.665 21.64257 5.665 20.37452 C 5.665 17.66034 7.680846 14.10585 10.88019 10.90476 Z "/>
</clipPath>
<g clip-path="url(#cp0)">
<path transform="matrix(1,0,0,-1,0,30)" d="M -.665 30.665 L 30.665 30.665 L 30.665 -.665 L -.665 -.665 Z "/>
</g>
</g>
</svg>
