<?xml version="1.0" encoding="UTF-8" standalone="no"?>
<!DOCTYPE svg PUBLIC "-//W3C//DTD SVG 1.1//EN" "http://www.w3.org/Graphics/SVG/1.1/DTD/svg11.dtd">
<svg xmlns="http://www.w3.org/2000/svg" xmlns:xlink="http://www.w3.org/1999/xlink" version="1.1" width="30pt" height="30pt" viewBox="0 0 30 30">
<g enable-background="new">
<clipPath id="cp0">
<path transform="matrix(1,0,0,-1,0,30)" d="M 17 23.665 C 18.95883 23.665 20.55874 22.12828 20.65992 20.19464 L 20.665 20 L 20.664 17.945 L 24.91643 21.58994 C 25.61461 22.18838 26.66572 22.10752 27.26416 21.40935 C 27.48587 21.15069 27.622 20.83136 27.65637 20.49511 L 27.665 20.32578 L 27.665 9.674221 C 27.665 8.754667 26.91955 8.009221 26 8.009221 C 25.65932 8.009221 25.32828 8.113678 25.05062 8.306411 L 24.91643 8.410058 L 20.664 12.056 L 20.665 10 C 20.665 8.041171 19.12828 6.441262 17.19464 6.34008 L 17 6.335 L 6 6.335 C 4.041171 6.335 2.441262 7.871721 2.34008 9.805356 L 2.335 10 L 2.335 20 C 2.335 21.95883 3.871721 23.55874 5.805356 23.65992 L 6 23.665 L 17 23.665 Z M 17 22.335 L 6 22.335 C 4.764148 22.335 3.752542 21.37489 3.670387 20.15987 L 3.665 20 L 3.665 10 C 3.665 8.764148 4.625112 7.752542 5.840132 7.670387 L 6 7.665 L 17 7.665 C 18.23585 7.665 19.24746 8.625112 19.32961 9.840132 L 19.335 10 L 19.335 20 C 19.335 21.23585 18.37489 22.24746 17.15987 22.32961 L 17 22.335 Z M 25.84606 20.6234 L 25.78198 20.58013 L 20.664 16.195 L 20.664 13.806 L 25.78198 9.41987 C 25.8427 9.367827 25.92003 9.339221 26 9.339221 C 26.16189 9.339221 26.29696 9.454053 26.32819 9.606706 L 26.335 9.674221 L 26.335 20.32578 C 26.335 20.40575 26.30639 20.48308 26.25435 20.54379 C 26.15115 20.6642 25.98102 20.69335 25.84606 20.6234 Z " fill-rule="evenodd"/>
</clipPath>
<g clip-path="url(#cp0)">
<path transform="matrix(1,0,0,-1,0,30)" d="M -2.665 28.665 L 32.665 28.665 L 32.665 1.335 L -2.665 1.335 Z "/>
</g>
</g>
</svg>
