<?xml version="1.0" encoding="UTF-8" standalone="no"?>
<!DOCTYPE svg PUBLIC "-//W3C//DTD SVG 1.1//EN" "http://www.w3.org/Graphics/SVG/1.1/DTD/svg11.dtd">
<svg xmlns="http://www.w3.org/2000/svg" xmlns:xlink="http://www.w3.org/1999/xlink" version="1.1" width="29pt" height="29pt" viewBox="0 0 29 29">
<g enable-background="new">
<clipPath id="cp0">
<path transform="matrix(1,0,0,-1,0,29)" d="M 7.691656 29 L 21.30834 29 C 23.9829 29 24.95276 28.72152 25.93054 28.1986 C 26.90831 27.67568 27.67568 26.90831 28.1986 25.93054 C 28.72152 24.95276 29 23.9829 29 21.30834 L 29 7.691656 C 29 5.017099 28.72152 4.047241 28.1986 3.069463 C 27.67568 2.091685 26.90831 1.324319 25.93054 .8013981 C 24.95276 .2784768 23.9829 0 21.30834 0 L 7.691656 0 C 5.017099 0 4.047241 .2784768 3.069463 .8013981 C 2.091685 1.324319 1.324319 2.091685 .8013981 3.069463 C .2784768 4.047241 0 5.017099 0 7.691656 L 0 21.30834 C 0 23.9829 .2784768 24.95276 .8013981 25.93054 C 1.324319 26.90831 2.091685 27.67568 3.069463 28.1986 C 4.047241 28.72152 5.017099 29 7.691656 29 Z " fill-rule="evenodd"/>
</clipPath>
<g clip-path="url(#cp0)">
<path transform="matrix(1,0,0,-1,0,29)" d="M -5 34 L 34 34 L 34 -5 L -5 -5 Z " fill="#1d94f9"/>
</g>
<clipPath id="cp1">
<path transform="matrix(1,0,0,-1,0,29)" d="M 15.97754 22.56401 C 16.46965 22.84161 17.03794 23 17.64322 23 L 18.58333 23 L 18.58333 22.34375 L 18.62073 22.33368 C 18.74981 22.29893 18.87633 22.25528 18.99938 22.20304 C 20.47143 21.57818 21.1582 19.87829 20.53333 18.40625 L 20.57654 18.34809 C 20.93446 17.86628 20.92414 17.20414 20.55138 16.73372 L 20.31667 16.4375 L 19.8992 15.59454 C 19.88869 15.57332 19.87484 15.55392 19.85817 15.5371 L 19.23333 14.90625 L 19.18488 14.51494 C 19.08585 13.71502 19.54032 12.94937 20.28996 12.65321 L 22.98276 11.58938 C 23.59665 11.34685 24 10.75382 24 10.09375 C 24 9.489689 23.51031 9 22.90625 9 L 21.23992 9 C 20.9994 9.985177 20.29355 10.81333 19.3206 11.19405 L 16.19839 12.41579 C 15.90797 12.52943 15.73021 12.82327 15.76325 13.13235 L 16.16147 13.53056 C 16.28175 13.65084 16.38185 13.78973 16.45792 13.94187 L 16.87658 14.77918 L 17.0551 15.00234 C 17.72042 15.83399 17.85479 16.94859 17.45118 17.89543 C 17.89673 19.61847 17.30256 21.43204 15.97754 22.56401 Z M 6.25 7 C 5.559644 7 5 7.559644 5 8.25 C 5 9.003922 5.461943 9.680837 6.163988 9.955666 L 9.286471 11.17802 C 10.1473 11.51501 10.66968 12.39319 10.55497 13.31048 L 10.5 13.75 L 9.778984 14.47102 C 9.759787 14.49021 9.74381 14.51238 9.731669 14.53666 L 9.25 15.5 L 8.983453 15.83318 C 8.551687 16.37289 8.539761 17.13635 8.954458 17.68928 L 9 17.75 C 8.832312 18.19018 8.746357 18.65727 8.746357 19.12831 C 8.746357 21.26658 10.47977 23 12.61805 23 L 13.75 23 L 13.75 22.25 L 13.82069 22.23115 C 13.97386 22.1903 14.12389 22.13846 14.2696 22.07601 C 15.94203 21.35925 16.71676 19.42243 16 17.75 L 16.04554 17.68928 C 16.46024 17.13635 16.44831 16.37289 16.01655 15.83318 L 15.75 15.5 L 15.26833 14.53666 C 15.25619 14.51238 15.24021 14.49021 15.22102 14.47102 L 14.5 13.75 L 14.44496 13.30967 C 14.33029 12.39231 14.8528 11.51412 15.71374 11.17723 L 18.83595 9.955499 C 19.53801 9.680778 20 9.003902 20 8.25 C 20 7.559644 19.44036 7 18.75 7 L 6.25 7 Z " fill-rule="evenodd"/>
</clipPath>
<g clip-path="url(#cp1)">
<path transform="matrix(1,0,0,-1,0,29)" d="M 0 28 L 29 28 L 29 2 L 0 2 Z " fill="#ffffff"/>
</g>
</g>
</svg>
