<?xml version="1.0" encoding="UTF-8" standalone="no"?>
<!DOCTYPE svg PUBLIC "-//W3C//DTD SVG 1.1//EN" "http://www.w3.org/Graphics/SVG/1.1/DTD/svg11.dtd">
<svg xmlns="http://www.w3.org/2000/svg" xmlns:xlink="http://www.w3.org/1999/xlink" version="1.1" width="30pt" height="30pt" viewBox="0 0 30 30">
<g enable-background="new">
<clipPath id="cp0">
<path transform="matrix(1,0,0,-1,0,30)" d="M 22.03547 23.47206 C 26.37617 22.13382 29.5 18.39855 29.5 14 C 29.5 10.85015 28.02867 8.268239 25.52502 6.43526 C 25.20485 6.200854 24.90995 4.89842 25.62362 3.80441 C 26.33728 2.710401 27.22705 2.210449 26.78083 2.023284 C 26.50574 1.907894 24.88026 1.850816 23.70706 2.508762 C 22.02949 3.449558 21.5605 4.386145 21.19952 4.303349 C 20.33579 4.105239 19.43141 4 18.5 4 C 16.44204 4 14.51607 4.513766 12.86883 5.407908 C 19.19135 6.034865 24.16 10.95376 24.16 17 C 24.16 19.40123 23.37633 21.62465 22.03547 23.47206 Z M 11.5 27 C 17.57513 27 22.5 22.52285 22.5 17 C 22.5 11.47715 17.57513 7 11.5 7 C 10.56859 7 9.664212 7.105239 8.800478 7.303349 C 8.4395 7.386145 7.970505 6.449558 6.292945 5.508762 C 5.119743 4.850816 3.494265 4.907894 3.219168 5.023284 C 2.772955 5.210449 3.662717 5.710401 4.376382 6.80441 C 5.090048 7.89842 4.795153 9.200854 4.474981 9.43526 C 1.97133 11.26824 .5 13.85015 .5 17 C .5 22.52285 5.424868 27 11.5 27 Z " fill-rule="evenodd"/>
</clipPath>
<g clip-path="url(#cp0)">
<path transform="matrix(1,0,0,-1,0,30)" d="M -4.5 32 L 34.5 32 L 34.5 -3.04838 L -4.5 -3.04838 Z "/>
</g>
</g>
</svg>
