<?xml version="1.0" encoding="UTF-8" standalone="no"?>
<!DOCTYPE svg PUBLIC "-//W3C//DTD SVG 1.1//EN" "http://www.w3.org/Graphics/SVG/1.1/DTD/svg11.dtd">
<svg xmlns="http://www.w3.org/2000/svg" xmlns:xlink="http://www.w3.org/1999/xlink" version="1.1" width="30pt" height="30pt" viewBox="0 0 30 30">
<g enable-background="new">
<clipPath id="cp0">
<path transform="matrix(1,0,0,-1,0,30)" d="M 15 27.5 C 21.90356 27.5 27.5 21.90356 27.5 15 C 27.5 8.096441 21.90356 2.5 15 2.5 C 8.096441 2.5 2.5 8.096441 2.5 15 C 2.5 21.90356 8.096441 27.5 15 27.5 Z M 15 11.15385 C 12.10857 11.15385 9.865387 10.47318 8.269406 9.111575 C 8.125037 8.988408 7.955013 8.820651 7.759334 8.608305 C 7.403866 8.222561 7.423146 7.623101 7.802666 7.260995 C 7.985468 7.086612 8.142271 6.945445 8.273091 6.83751 C 10.10126 5.329142 12.44482 4.423077 15 4.423077 C 17.55726 4.423077 19.90255 5.330615 21.73107 6.841503 C 21.86064 6.948567 22.01585 7.088415 22.19671 7.261048 C 22.57591 7.623014 22.59529 8.222019 22.24029 8.607747 L 22.09939 8.757706 C 21.96327 8.899384 21.84144 9.016193 21.7339 9.108132 C 20.1387 10.47194 17.89407 11.15385 15 11.15385 Z M 15 21.73077 C 12.87583 21.73077 11.15385 20.00879 11.15385 17.88462 C 11.15385 15.76044 12.87583 14.03846 15 14.03846 C 17.12417 14.03846 18.84615 15.76044 18.84615 17.88462 C 18.84615 20.00879 17.12417 21.73077 15 21.73077 Z "/>
</clipPath>
<g clip-path="url(#cp0)">
<path transform="matrix(1,0,0,-1,0,30)" d="M -2.5 32.5 L 32.5 32.5 L 32.5 -2.5 L -2.5 -2.5 Z "/>
</g>
</g>
</svg>
