<?xml version="1.0" encoding="UTF-8" standalone="no"?>
<!DOCTYPE svg PUBLIC "-//W3C//DTD SVG 1.1//EN" "http://www.w3.org/Graphics/SVG/1.1/DTD/svg11.dtd">
<svg xmlns="http://www.w3.org/2000/svg" xmlns:xlink="http://www.w3.org/1999/xlink" version="1.1" width="30pt" height="30pt" viewBox="0 0 30 30">
<g enable-background="new">
<clipPath id="cp0">
<path transform="matrix(1,0,0,-1,0,30)" d="M 9.67418 9.699844 C 6.132188 13.24184 3.39 17.60902 3.39 21.23988 C 3.39 22.85219 3.923203 24.31215 5.141953 25.49281 C 5.878281 26.21645 6.741563 26.61 7.541367 26.61 C 8.226914 26.61 8.848984 26.3307 9.29332 25.70863 L 11.44812 22.22715 C 12.10049 21.17313 12.03743 19.82643 11.28942 18.83798 L 9.765977 16.82484 C 9.626328 16.6852 9.575547 16.53285 9.575547 16.36781 C 9.575547 16.21547 9.639023 16.05043 9.7025 15.91078 C 10.07066 15.13637 11.17516 13.79066 12.47008 12.49574 C 13.7523 11.20082 15.1234 10.12172 15.87242 9.728164 C 16.01207 9.664688 16.17711 9.601211 16.35484 9.601211 C 16.53258 9.601211 16.69762 9.651992 16.83727 9.791641 L 18.80662 11.30457 C 19.79693 12.06535 21.15494 12.1331 22.21605 11.47466 L 25.77184 9.268203 C 26.39391 8.836563 26.62242 8.252578 26.62242 7.643203 C 26.62242 6.792617 26.14 5.903945 25.49254 5.218398 C 24.32457 3.961563 22.9027 3.390273 21.23961 3.390273 C 17.60875 3.390273 13.20348 6.170547 9.67418 9.699844 Z "/>
</clipPath>
<g clip-path="url(#cp0)">
<path transform="matrix(1,0,0,-1,0,30)" d="M -1.61 31.61 L 31.62242 31.61 L 31.62242 -1.609727 L -1.61 -1.609727 Z "/>
</g>
</g>
</svg>
