<?xml version="1.0" encoding="UTF-8" standalone="no"?>
<!DOCTYPE svg PUBLIC "-//W3C//DTD SVG 1.1//EN" "http://www.w3.org/Graphics/SVG/1.1/DTD/svg11.dtd">
<svg xmlns="http://www.w3.org/2000/svg" xmlns:xlink="http://www.w3.org/1999/xlink" version="1.1" width="30pt" height="30pt" viewBox="0 0 30 30">
<g enable-background="new">
<clipPath id="cp0">
<path transform="matrix(1,0,0,-1,0,30)" d="M 15 28.66667 C 15.55228 28.66667 16 28.21895 16 27.66667 L 16 26.89223 C 16 26.46031 16.28001 26.07824 16.69188 25.94818 L 17.27508 25.76444 C 17.6638 25.6827 18.04495 25.58043 18.41736 25.45883 L 19.00888 25.32734 C 19.4306 25.23404 19.86413 25.42492 20.08009 25.79897 L 20.46731 26.46966 C 20.74345 26.94795 21.35504 27.11182 21.83333 26.83568 C 22.31163 26.55954 22.4755 25.94795 22.19936 25.46966 L 21.81214 24.79897 C 21.59618 24.42492 21.64764 23.95403 21.9393 23.63546 L 22.36947 23.16657 C 22.64819 22.9149 22.91396 22.64916 23.16567 22.37047 L 23.63546 21.9393 C 23.95403 21.64764 24.42492 21.59618 24.79897 21.81214 L 25.46966 22.19936 C 25.94795 22.4755 26.55954 22.31163 26.83568 21.83333 C 27.11182 21.35504 26.94795 20.74345 26.46966 20.46731 L 25.79897 20.08009 C 25.42492 19.86413 25.23404 19.4306 25.32734 19.00888 L 25.46144 18.40936 C 25.58263 18.03725 25.68452 17.65642 25.76592 17.26805 L 25.94818 16.69188 C 26.07824 16.28001 26.46031 16 26.89223 16 L 27.66667 16 C 28.21895 16 28.66667 15.55228 28.66667 15 C 28.66667 14.44772 28.21895 14 27.66667 14 L 26.89223 14 C 26.46031 14 26.07824 13.71999 25.94818 13.30812 L 25.7655 12.72994 C 25.68424 12.34262 25.5826 11.96279 25.46176 11.59164 L 25.32734 10.99112 C 25.23404 10.5694 25.42492 10.13587 25.79897 9.919913 L 26.46966 9.532692 C 26.94795 9.25655 27.11182 8.644959 26.83568 8.166667 C 26.55954 7.688374 25.94795 7.524499 25.46966 7.800641 L 24.79897 8.187862 C 24.42492 8.403821 23.95403 8.352357 23.63546 8.0607 L 23.16657 7.630533 C 22.9149 7.351812 22.64916 7.086038 22.37047 6.83433 L 21.9393 6.364539 C 21.64764 6.045967 21.59618 5.575082 21.81214 5.201031 L 22.19936 4.530345 C 22.4755 4.052052 22.31163 3.440462 21.83333 3.164319 C 21.35504 2.888177 20.74345 3.052052 20.46731 3.530345 L 20.08009 4.201031 C 19.86413 4.575082 19.4306 4.765955 19.00888 4.67266 L 18.40836 4.538239 C 18.03721 4.4174 17.65738 4.315763 17.27006 4.2345 L 16.69188 4.051822 C 16.31745 3.933582 16.052 3.607076 16.00683 3.224183 L 16 3.107775 L 16 2.333333 C 16 1.781049 15.55228 1.333333 15 1.333333 C 14.48716 1.333333 14.06449 1.719374 14.00673 2.216712 L 14 2.333333 L 14 3.107775 C 14 3.500427 13.76859 3.851879 13.41707 4.010254 L 13.30812 4.051822 L 12.73295 4.233868 C 12.34389 4.315381 11.96239 4.417452 11.58964 4.53889 L 10.99112 4.67266 C 10.5694 4.765955 10.13587 4.575082 9.919913 4.201031 L 9.532692 3.530345 C 9.25655 3.052052 8.644959 2.888177 8.166667 3.164319 C 7.688374 3.440462 7.524499 4.052052 7.800641 4.530345 L 8.187862 5.201031 C 8.403821 5.575082 8.352357 6.045967 8.0607 6.364539 L 7.629532 6.83433 C 7.350843 7.086038 7.085101 7.351812 6.833427 7.630533 L 6.364539 8.0607 C 6.045967 8.352357 5.575082 8.403821 5.201031 8.187862 L 4.530345 7.800641 C 4.052052 7.524499 3.440462 7.688374 3.164319 8.166667 C 2.888177 8.644959 3.052052 9.25655 3.530345 9.532692 L 4.201031 9.919913 C 4.575082 10.13587 4.765955 10.5694 4.67266 10.99112 L 4.541173 11.58264 C 4.419568 11.95505 4.3173 12.3362 4.235555 12.72492 L 4.051822 13.30812 C 3.921758 13.71999 3.539692 14 3.107775 14 L 2.333333 14 C 1.781049 14 1.333333 14.44772 1.333333 15 C 1.333333 15.55228 1.781049 16 2.333333 16 L 3.107775 16 C 3.539692 16 3.921758 16.28001 4.051822 16.69188 L 4.235344 17.27408 C 4.317197 17.66349 4.419646 18.04531 4.541499 18.41836 L 4.67266 19.00888 C 4.765955 19.4306 4.575082 19.86413 4.201031 20.08009 L 3.530345 20.46731 C 3.052052 20.74345 2.888177 21.35504 3.164319 21.83333 C 3.440462 22.31163 4.052052 22.4755 4.530345 22.19936 L 5.201031 21.81214 C 5.575082 21.59618 6.045967 21.64764 6.364539 21.9393 L 6.83433 22.37047 C 7.085737 22.64882 7.351176 22.91426 7.629532 23.16567 L 8.0607 23.63546 C 8.352357 23.95403 8.403821 24.42492 8.187862 24.79897 L 7.800641 25.46966 C 7.524499 25.94795 7.688374 26.55954 8.166667 26.83568 C 8.644959 27.11182 9.25655 26.94795 9.532692 26.46966 L 9.919913 25.79897 C 10.13587 25.42492 10.5694 25.23404 10.99112 25.32734 L 11.58164 25.4585 C 11.95469 25.58035 12.33651 25.6828 12.72592 25.76466 L 13.30812 25.94818 C 13.71999 26.07824 14 26.46031 14 26.89223 L 14 27.66667 C 14 28.21895 14.44772 28.66667 15 28.66667 Z M 15 24 C 10.02944 24 6 19.97056 6 15 C 6 10.02944 10.02944 6 15 6 C 19.97056 6 24 10.02944 24 15 C 24 19.97056 19.97056 24 15 24 Z M 21.07225 14.16997 C 21.62451 14.16988 22.07212 13.72214 22.07212 13.16988 C 22.07212 13.07393 22.05829 12.97849 22.03109 12.88648 C 22.02866 12.87827 22.02624 12.87019 22.02382 12.86223 C 21.10856 9.851194 18.31017 7.66 15 7.66 C 14.47668 7.66 13.96616 7.714766 13.47384 7.818879 L 13.1081 7.906132 C 12.61307 8.037815 12.31851 8.545871 12.4502 9.040905 C 12.47772 9.144361 12.52294 9.242271 12.58384 9.33031 L 15.63532 13.73948 C 15.82211 14.00938 16.12946 14.1704 16.45769 14.1704 L 21.07225 14.16997 Z M 10.98905 20.01322 C 11.0443 19.96274 11.09369 19.9062 11.13628 19.84466 L 14.09639 15.56924 C 14.33349 15.22678 14.33349 14.77322 14.09639 14.43076 L 11.11447 10.12384 C 10.81055 9.684857 10.20831 9.575379 9.769337 9.879305 L 9.685815 9.944166 L 9.609878 10.01776 C 8.399599 11.32649 7.66 13.07687 7.66 15 C 7.66 16.80128 8.308848 18.45102 9.38557 19.72823 L 9.579976 19.94971 C 9.951543 20.35635 10.58241 20.38479 10.98905 20.01322 Z M 15 22.34 C 18.24298 22.34 20.99474 20.23686 21.96577 17.32011 L 22.04254 17.0752 C 22.19378 16.56109 21.89963 16.02171 21.38552 15.87046 C 21.29662 15.84431 21.20443 15.83102 21.11177 15.83101 L 16.45868 15.8305 C 16.13045 15.8305 15.82311 15.9915 15.63631 16.26139 L 12.5208 20.76275 C 12.25446 21.14762 12.35051 21.67553 12.73536 21.9419 C 12.78626 21.97713 12.8408 22.00663 12.89796 22.02991 L 12.98554 22.06012 C 13.62564 22.24241 14.30142 22.34 15 22.34 Z " fill-rule="evenodd"/>
</clipPath>
<g clip-path="url(#cp0)">
<path transform="matrix(1,0,0,-1,0,30)" d="M -3.666667 33.66667 L 33.66667 33.66667 L 33.66667 -3.666667 L -3.666667 -3.666667 Z "/>
</g>
</g>
</svg>
