<?xml version="1.0" encoding="UTF-8" standalone="no"?>
<!DOCTYPE svg PUBLIC "-//W3C//DTD SVG 1.1//EN" "http://www.w3.org/Graphics/SVG/1.1/DTD/svg11.dtd">
<svg xmlns="http://www.w3.org/2000/svg" xmlns:xlink="http://www.w3.org/1999/xlink" version="1.1" width="30pt" height="30pt" viewBox="0 0 30 30">
<g enable-background="new">
<clipPath id="cp0">
<path transform="matrix(1,0,0,-1,0,30)" d="M 8 28 L 22 28 C 24.20914 28 26 26.20914 26 24 L 26 2.62132 C 26 1.792893 25.32843 1.12132 24.5 1.12132 C 24.10218 1.12132 23.72064 1.279356 23.43934 1.56066 L 15.70711 9.292893 C 15.31658 9.683418 14.68342 9.683418 14.29289 9.292893 L 6.56066 1.56066 C 5.974874 .9748737 5.025126 .9748737 4.43934 1.56066 C 4.158035 1.841965 4 2.223496 4 2.62132 L 4 24 C 4 26.20914 5.790861 28 8 28 Z " fill-rule="evenodd"/>
</clipPath>
<g clip-path="url(#cp0)">
<path transform="matrix(1,0,0,-1,0,30)" d="M -1 33 L 31 33 L 31 -3.87868 L -1 -3.87868 Z "/>
</g>
</g>
</svg>
