<?xml version="1.0" encoding="UTF-8" standalone="no"?>
<!DOCTYPE svg PUBLIC "-//W3C//DTD SVG 1.1//EN" "http://www.w3.org/Graphics/SVG/1.1/DTD/svg11.dtd">
<svg xmlns="http://www.w3.org/2000/svg" xmlns:xlink="http://www.w3.org/1999/xlink" version="1.1" width="38pt" height="29pt" viewBox="0 0 38 29">
<g enable-background="new">
<clipPath id="cp0">
<path transform="matrix(1,0,0,-1,0,29)" d="M 23.25 28.5 C 24.35165 28.5 25.38901 27.98132 26.05 27.1 L 28.375 24 L 34 24 C 36.20914 24 38 22.20914 38 20 L 38 4 C 38 1.790861 36.20914 0 34 0 L 4.5 0 C 2.290861 0 .5 1.790861 .5 4 L .5 20 C .5 22.20914 2.290861 24 4.5 24 L 10.125 24 L 12.45 27.1 C 13.11099 27.98132 14.14835 28.5 15.25 28.5 L 23.25 28.5 Z M 19.25 21 C 14.41751 21 10.5 17.08249 10.5 12.25 C 10.5 7.417508 14.41751 3.5 19.25 3.5 C 24.08249 3.5 28 7.417508 28 12.25 C 28 17.08249 24.08249 21 19.25 21 Z M 19.25 19 C 22.97792 19 26 15.97792 26 12.25 C 26 8.522078 22.97792 5.5 19.25 5.5 C 15.52208 5.5 12.5 8.522078 12.5 12.25 C 12.5 15.97792 15.52208 19 19.25 19 Z M 29.75 21.5 C 29.05964 21.5 28.5 20.94036 28.5 20.25 C 28.5 19.55964 29.05964 19 29.75 19 C 30.44036 19 31 19.55964 31 20.25 C 31 20.94036 30.44036 21.5 29.75 21.5 Z M 7.25 27 C 7.664214 27 8 26.66421 8 26.25 L 8 25.5 L 5 25.5 L 5 26.25 C 5 26.66421 5.335786 27 5.75 27 L 7.25 27 Z " fill-rule="evenodd"/>
</clipPath>
<g clip-path="url(#cp0)">
<path transform="matrix(1,0,0,-1,0,29)" d="M -4.5 33.5 L 43 33.5 L 43 -5 L -4.5 -5 Z " fill="#ffffff"/>
</g>
</g>
</svg>
