<?xml version="1.0" encoding="UTF-8" standalone="no"?>
<!DOCTYPE svg PUBLIC "-//W3C//DTD SVG 1.1//EN" "http://www.w3.org/Graphics/SVG/1.1/DTD/svg11.dtd">
<svg xmlns="http://www.w3.org/2000/svg" xmlns:xlink="http://www.w3.org/1999/xlink" version="1.1" width="60pt" height="60pt" viewBox="0 0 60 60">
<g enable-background="new">
<clipPath id="cp0">
<path transform="matrix(1,0,0,-1,0,60)" d="M 29.45201 35.79412 L 29.45201 41.69177 C 29.45201 42.24405 29.0043 42.69177 28.45201 42.69177 C 28.19795 42.69177 27.95342 42.59507 27.76807 42.42131 L 16.42012 31.7826 C 15.6143 31.02714 15.57347 29.76147 16.32893 28.95565 L 16.42012 28.86446 L 27.76807 18.22575 C 28.17098 17.84802 28.80382 17.86844 29.18155 18.27135 C 29.35531 18.4567 29.45201 18.70123 29.45201 18.95529 L 29.45201 24.85294 C 36.56938 24.85294 41.46767 22.63386 44.14687 18.1957 L 44.3148 17.90936 C 44.41461 17.73435 44.63738 17.67339 44.81239 17.77319 C 44.92468 17.83722 44.99469 17.95589 44.99644 18.08514 C 45.15576 29.89113 39.97429 35.79412 29.45201 35.79412 Z " fill-rule="evenodd"/>
</clipPath>
<g clip-path="url(#cp0)">
<clipPath id="cp1">
<path transform="matrix(1,0,0,-1,0,60)" d="M 0 0 L 60 0 L 60 60 L 0 60 Z "/>
</clipPath>
<g clip-path="url(#cp1)">
<path transform="matrix(1,0,0,-1,0,60)" d="M 10.788 12.72522 L 50 12.72522 L 50 47.69177 L 10.788 47.69177 Z "/>
</g>
</g>
</g>
</svg>
