<?xml version="1.0" encoding="UTF-8" standalone="no"?>
<!DOCTYPE svg PUBLIC "-//W3C//DTD SVG 1.1//EN" "http://www.w3.org/Graphics/SVG/1.1/DTD/svg11.dtd">
<svg xmlns="http://www.w3.org/2000/svg" xmlns:xlink="http://www.w3.org/1999/xlink" version="1.1" width="30pt" height="30pt" viewBox="0 0 30 30">
<g enable-background="new">
<clipPath id="cp0">
<path transform="matrix(1,0,0,-1,0,30)" d="M 5 11.665 C 5.333881 11.665 5.610292 11.41894 5.65779 11.09827 L 5.665 11 L 5.665 7.666 L 9 7.665 C 9.367269 7.665 9.665 7.367269 9.665 7 C 9.665 6.666119 9.418942 6.389708 9.098269 6.34221 L 9 6.335 L 5.665 6.336 L 5.665 3 C 5.665 2.632731 5.367269 2.335 5 2.335 C 4.666119 2.335 4.389708 2.581058 4.34221 2.901731 L 4.335 3 L 4.335 6.336 L 1 6.335 C .6327306 6.335 .335 6.632731 .335 7 C .335 7.333881 .5810584 7.610292 .9017312 7.65779 L 1 7.665 L 4.335 7.666 L 4.335 11 C 4.335 11.36727 4.632731 11.665 5 11.665 Z M 16.92963 25.665 C 17.75704 25.665 18.53361 25.28102 19.03606 24.63256 L 19.14705 24.47828 L 19.95958 23.25948 C 20.17967 22.92935 20.53347 22.7164 20.92287 22.67316 L 21.07037 22.665 L 23 22.665 C 24.41523 22.665 25.57281 21.56186 25.65976 20.16854 L 25.665 20 L 25.665 9 C 25.665 7.58477 24.56186 6.427194 23.16854 6.340243 L 23 6.335 L 12 6.335 C 11.63273 6.335 11.335 6.632731 11.335 7 C 11.335 7.333881 11.58106 7.610292 11.90173 7.65779 L 12 7.665 L 23 7.665 C 23.69393 7.665 24.2642 8.19445 24.32889 8.871431 L 24.335 9 L 24.335 20 C 24.335 20.69393 23.80555 21.2642 23.12857 21.32889 L 23 21.335 L 21.07037 21.335 C 20.24296 21.335 19.46639 21.71898 18.96394 22.36744 L 18.85295 22.52172 L 18.04042 23.74052 C 17.82033 24.07065 17.46653 24.2836 17.07713 24.32684 L 16.92963 24.335 L 13.07037 24.335 C 12.6736 24.335 12.30017 24.15874 12.04819 23.85873 L 11.95958 23.74052 L 11.14705 22.52172 C 10.68808 21.83328 9.937831 21.40013 9.119568 21.34176 L 8.929632 21.335 L 7 21.335 C 6.30607 21.335 5.735801 20.80555 5.671111 20.12857 L 5.665 20 L 5.665 14 C 5.665 13.63273 5.367269 13.335 5 13.335 C 4.666119 13.335 4.389708 13.58106 4.34221 13.90173 L 4.335 14 L 4.335 20 C 4.335 21.41523 5.438145 22.57281 6.831461 22.65976 L 7 22.665 L 8.929632 22.665 C 9.326398 22.665 9.69983 22.84126 9.951811 23.14127 L 10.04042 23.25948 L 10.85295 24.47828 C 11.31192 25.16672 12.06217 25.59987 12.88043 25.65824 L 13.07037 25.665 L 16.92963 25.665 Z M 15 19.665 C 17.57641 19.665 19.665 17.57641 19.665 15 C 19.665 12.42359 17.57641 10.335 15 10.335 C 12.42359 10.335 10.335 12.42359 10.335 15 C 10.335 17.57641 12.42359 19.665 15 19.665 Z M 15 18.335 C 13.15813 18.335 11.665 16.84187 11.665 15 C 11.665 13.15813 13.15813 11.665 15 11.665 C 16.84187 11.665 18.335 13.15813 18.335 15 C 18.335 16.84187 16.84187 18.335 15 18.335 Z " fill-rule="evenodd"/>
</clipPath>
<g clip-path="url(#cp0)">
<path transform="matrix(1,0,0,-1,0,30)" d="M -4.665 30.665 L 30.665 30.665 L 30.665 -2.665 L -4.665 -2.665 Z "/>
</g>
</g>
</svg>
