<?xml version="1.0" encoding="UTF-8" standalone="no"?>
<!DOCTYPE svg PUBLIC "-//W3C//DTD SVG 1.1//EN" "http://www.w3.org/Graphics/SVG/1.1/DTD/svg11.dtd">
<svg xmlns="http://www.w3.org/2000/svg" xmlns:xlink="http://www.w3.org/1999/xlink" version="1.1" width="30pt" height="30pt" viewBox="0 0 30 30">
<g enable-background="new">
<clipPath id="cp0">
<path transform="matrix(1,0,0,-1,0,30)" d="M 21.82267 16.76312 C 22.43464 17.37509 23.40448 17.41109 24.05856 16.87111 L 24.17733 16.76312 L 25.76312 15.17733 C 26.37509 14.56536 26.41109 13.59552 25.87111 12.94144 L 25.76312 12.82267 L 16.66608 3.725631 C 16.49538 3.554924 16.29012 3.423899 16.06495 3.340844 L 15.89257 3.287677 L 13.77819 2.759081 C 13.51306 2.692798 13.23568 2.692798 12.97055 2.759081 C 12.1254 2.970368 11.59412 3.792822 11.73017 4.637335 L 11.75908 4.77819 L 12.28768 6.892572 C 12.34623 7.126781 12.45482 7.344737 12.60517 7.531804 L 12.72563 7.666083 L 21.82267 16.76312 Z M 14.50251 7.563 L 13.66608 6.725631 C 13.63746 6.697009 13.61438 6.66356 13.59782 6.626988 L 13.57797 6.57 L 13.04937 4.455618 C 13.0045 4.276127 13.11363 4.094244 13.29312 4.049371 C 13.32868 4.04048 13.36534 4.037516 13.40163 4.04048 L 13.45562 4.049371 L 15.57 4.577966 C 15.60927 4.587784 15.64627 4.604593 15.67929 4.627429 L 15.72563 4.666083 L 16.56151 5.503 L 16.52977 5.529774 L 14.52977 7.529774 L 14.50251 7.563 Z M 14 14.665 C 14.74363 14.665 15.4448 14.61669 16.10358 14.51964 C 16.46693 14.46611 16.71809 14.12817 16.66456 13.76482 C 16.61104 13.40147 16.27309 13.15031 15.90974 13.20384 C 15.31716 13.29114 14.68056 13.335 14 13.335 C 9.740641 13.335 7.228744 11.64188 6.287241 8.193715 C 6.258881 8.089851 6.244511 7.982666 6.244511 7.875 C 6.244511 7.248504 6.720645 6.733211 7.330789 6.671247 L 7.454503 6.665 L 10 6.665 C 10.36727 6.665 10.665 6.367269 10.665 6 C 10.665 5.666119 10.41894 5.389708 10.09827 5.34221 L 10 5.335 L 7.454503 5.335 C 6.051705 5.335 4.914511 6.4722 4.914511 7.875 C 4.914511 8.101011 4.944677 8.326011 5.004208 8.544041 C 6.11277 12.60404 9.17039 14.665 14 14.665 Z M 23.23688 15.82267 C 23.12474 15.9348 22.95289 15.95082 22.82369 15.87073 L 22.76312 15.82267 L 15.43751 8.498 L 15.47023 8.470226 L 17.47023 6.470226 L 17.49651 6.438 L 24.82267 13.76312 C 24.9348 13.87526 24.95082 14.04711 24.87073 14.17631 L 24.82267 14.23688 L 23.23688 15.82267 Z M 14 25.665 C 16.57641 25.665 18.665 23.57641 18.665 21 C 18.665 18.42359 16.57641 16.335 14 16.335 C 11.42359 16.335 9.335 18.42359 9.335 21 C 9.335 23.57641 11.42359 25.665 14 25.665 Z M 14 24.335 C 12.15813 24.335 10.665 22.84187 10.665 21 C 10.665 19.15813 12.15813 17.665 14 17.665 C 15.84187 17.665 17.335 19.15813 17.335 21 C 17.335 22.84187 15.84187 24.335 14 24.335 Z " fill-rule="evenodd"/>
</clipPath>
<g clip-path="url(#cp0)">
<path transform="matrix(1,0,0,-1,0,30)" d="M -.08548886 30.665 L 31.25079 30.665 L 31.25079 -2.290631 L -.08548886 -2.290631 Z "/>
</g>
</g>
</svg>
