<?xml version="1.0" encoding="UTF-8" standalone="no"?>
<!DOCTYPE svg PUBLIC "-//W3C//DTD SVG 1.1//EN" "http://www.w3.org/Graphics/SVG/1.1/DTD/svg11.dtd">
<svg xmlns="http://www.w3.org/2000/svg" xmlns:xlink="http://www.w3.org/1999/xlink" version="1.1" width="30pt" height="30pt" viewBox="0 0 30 30">
<g enable-background="new">
<clipPath id="cp0">
<path transform="matrix(1,0,0,-1,0,30)" d="M 15 24.335 C 20.06513 24.335 24.18805 20.30094 24.33116 15.27043 L 24.335 15 L 24.335 14.516 L 26.90957 17.09043 C 27.23565 17.41652 27.76435 17.41652 28.09043 17.09043 C 28.38935 16.79152 28.41426 16.32236 28.16516 15.99507 L 28.09043 15.90957 L 24.09043 11.90957 C 23.79152 11.61065 23.32236 11.58574 22.99507 11.83484 L 22.90957 11.90957 L 18.90957 15.90957 C 18.58348 16.23565 18.58348 16.76435 18.90957 17.09043 C 19.20848 17.38935 19.67764 17.41426 20.00493 17.16516 L 20.09043 17.09043 L 22.665 14.516 L 22.665 15 C 22.665 19.23326 19.23326 22.665 15 22.665 C 10.76674 22.665 7.335 19.23326 7.335 15 C 7.335 10.76674 10.76674 7.335 15 7.335 C 15.46116 7.335 15.835 6.961158 15.835 6.5 C 15.835 6.038842 15.46116 5.665 15 5.665 C 9.844422 5.665 5.665 9.844422 5.665 15 C 5.665 20.15558 9.844422 24.335 15 24.335 Z "/>
</clipPath>
<g clip-path="url(#cp0)">
<path transform="matrix(1,0,0,-1,0,30)" d="M .665 29.335 L 33.335 29.335 L 33.335 .665 L .665 .665 Z "/>
</g>
</g>
</svg>
