<?xml version="1.0" encoding="UTF-8" standalone="no"?>
<!DOCTYPE svg PUBLIC "-//W3C//DTD SVG 1.1//EN" "http://www.w3.org/Graphics/SVG/1.1/DTD/svg11.dtd">
<svg xmlns="http://www.w3.org/2000/svg" xmlns:xlink="http://www.w3.org/1999/xlink" version="1.1" width="30pt" height="30pt" viewBox="0 0 30 30">
<g enable-background="new">
<clipPath id="cp0">
<path transform="matrix(1,0,0,-1,0,30)" d="M 21.5019 17.16118 L 21.5869 17.0869 L 26.5869 12.0869 C 26.88402 11.78977 26.90878 11.32343 26.66118 10.9981 L 26.5869 10.9131 L 21.5869 5.913101 C 21.26276 5.588966 20.73724 5.588966 20.4131 5.913101 C 20.11598 6.210225 20.09122 6.676574 20.33882 7.001902 L 20.4131 7.086899 L 23.996 10.671 L 14 10.67 C 13.5416 10.67 13.17 11.0416 13.17 11.5 C 13.17 11.92314 13.48663 12.27232 13.89589 12.32353 L 14 12.33 L 23.996 12.331 L 20.4131 15.9131 C 20.11598 16.21023 20.09122 16.67657 20.33882 17.0019 L 20.4131 17.0869 C 20.71023 17.38402 21.17657 17.40878 21.5019 17.16118 Z M 8.498098 24.16118 C 8.790893 24.38402 9.197915 24.38625 9.492995 24.16786 L 9.586899 24.0869 L 9.66118 24.0019 C 9.884023 23.70911 9.886251 23.30208 9.667865 23.00701 L 9.586899 22.9131 L 6.002 19.331 L 16 19.33 L 16.10411 19.32353 C 16.51337 19.27232 16.83 18.92314 16.83 18.5 C 16.83 18.07686 16.51337 17.72768 16.10411 17.67647 L 16 17.67 L 6.002 17.671 L 9.586899 14.0869 L 9.66118 14.0019 C 9.908783 13.67657 9.884023 13.21023 9.586899 12.9131 C 9.289775 12.61598 8.823426 12.59122 8.498098 12.83882 L 8.413101 12.9131 L 3.413101 17.9131 L 3.33882 17.9981 C 3.115977 18.29089 3.113749 18.69792 3.332135 18.99299 L 3.413101 19.0869 L 8.413101 24.0869 L 8.498098 24.16118 Z "/>
</clipPath>
<g clip-path="url(#cp0)">
<path transform="matrix(1,0,0,-1,0,30)" d="M -1.83 29.33 L 31.83 29.33 L 31.83 .67 L -1.83 .67 Z "/>
</g>
</g>
</svg>
