<?xml version="1.0" encoding="UTF-8" standalone="no"?>
<!DOCTYPE svg PUBLIC "-//W3C//DTD SVG 1.1//EN" "http://www.w3.org/Graphics/SVG/1.1/DTD/svg11.dtd">
<svg xmlns="http://www.w3.org/2000/svg" xmlns:xlink="http://www.w3.org/1999/xlink" version="1.1" width="40pt" height="40pt" viewBox="0 0 40 40">
<g enable-background="new">
<clipPath id="cp0">
<path transform="matrix(1,0,0,-1,0,40)" d="M 31.92485 36.66302 L 32 36.665 C 33.97572 36.55942 35.55983 34.97482 35.65997 32.99886 L 35.665 32.8 L 35.665 7.2 C 35.665 5.132125 34.04104 3.443546 31.99889 3.340029 L 31.8 3.335 L 22.2 3.335 C 20.13213 3.335 18.44355 4.958958 18.34003 7.001108 L 18.335 7.2 L 18.335 11 C 18.335 11.36727 18.63273 11.665 19 11.665 C 19.33388 11.665 19.61029 11.41894 19.65779 11.09827 L 19.665 11 L 19.665 7.2 C 19.665 5.85596 20.71098 4.756221 22.03332 4.670392 L 22.2 4.665 L 31.8 4.665 C 33.14404 4.665 34.24378 5.710977 34.32961 7.033323 L 34.335 7.2 L 34.335 32.8 C 34.335 34.14404 33.28902 35.24378 31.96668 35.32961 L 31.944 35.331 L 31.88203 35.31364 C 31.77636 35.27387 31.69609 35.18223 31.67227 35.06974 L 31.665 35 L 31.665 34.75 C 31.665 33.74274 30.88734 32.91711 29.89966 32.84076 L 29.75 32.835 L 24.25 32.835 C 23.24274 32.835 22.41711 33.61266 22.34076 34.60034 L 22.335 34.75 L 22.335 35.2 C 22.335 35.25965 22.29632 35.31026 22.24267 35.32812 L 22.2 35.335 L 22.03332 35.32961 C 20.76608 35.24736 19.75264 34.23392 19.67039 32.96668 L 19.665 32.8 L 19.665 31 C 19.665 30.63273 19.36727 30.335 19 30.335 C 18.66612 30.335 18.38971 30.58106 18.34221 30.90173 L 18.335 31 L 18.335 32.8 C 18.335 34.93458 20.06542 36.665 22.2 36.665 L 31.8 36.665 C 31.84178 36.665 31.8834 36.66434 31.92485 36.66302 Z M 14.80793 31.43205 L 23.01533 23.22465 C 24.14631 22.10404 24.16706 20.8693 23.09834 19.7902 L 18.04524 14.6956 C 17.72358 14.36357 17.31892 14.15605 16.90388 14.08342 C 17.39155 13.31559 17.28779 12.48551 16.60298 11.79032 L 15.58613 10.7631 C 14.74568 9.912273 13.70808 9.953776 12.80537 10.84611 L 10.54341 13.0977 C 9.868969 11.98747 8.893627 9.632121 7.907909 8.656779 C 6.486401 7.235271 4.556469 7.245647 3.103832 8.698283 C 1.64082 10.1613 1.64082 12.1016 3.051952 13.51274 C 4.03767 14.48808 6.393017 15.46342 7.503246 16.13786 L 5.262035 18.38945 C 4.359325 19.29216 4.317822 20.32975 5.168652 21.17021 L 6.195873 22.18705 C 6.84956 22.84074 7.59663 22.96525 8.322949 22.59172 C 8.385204 22.88224 8.540844 23.17277 8.769116 23.4633 C 10.34626 25.38285 11.42537 27.75895 11.95454 30.32182 C 12.06868 30.87175 12.28657 31.28678 12.56672 31.56694 C 13.19966 32.18949 14.11274 32.13761 14.80793 31.43205 Z M 6.974072 21.1287 L 6.237377 20.39201 C 5.84309 19.98735 5.853466 19.5308 6.258129 19.11576 L 8.904003 16.48027 C 9.225658 16.16899 9.121899 15.80583 8.696484 15.49455 C 7.264599 14.58146 4.712109 13.4401 3.944286 12.66191 C 3.020824 11.74882 3.020824 10.48295 3.944286 9.549113 C 4.878124 8.615275 6.143993 8.636027 7.067455 9.549113 C 7.845654 10.32731 8.976635 12.86943 9.900097 14.29093 C 10.201 14.71635 10.56416 14.82011 10.87544 14.50883 L 13.54206 11.85258 C 13.94673 11.43754 14.40327 11.41679 14.80793 11.82145 L 15.53425 12.56852 C 15.92854 12.97319 15.92854 13.40898 15.5135 13.82402 L 8.250317 21.09758 C 7.835278 21.52299 7.378735 21.52299 6.974072 21.1287 Z M 5.863842 11.45829 C 6.175121 11.13664 6.195873 10.63859 5.863842 10.29618 C 5.542187 9.974528 5.033764 9.974528 4.712109 10.29618 C 4.380077 10.62821 4.400829 11.12626 4.712109 11.45829 C 5.023388 11.79032 5.531811 11.77995 5.863842 11.45829 Z M 13.37605 30.24919 C 13.26191 30.14543 13.18928 30.00016 13.15815 29.84452 C 12.39033 26.88737 11.21785 24.61503 9.889721 22.86149 C 9.29829 22.07292 9.45393 21.61637 9.910473 21.18058 L 9.900097 21.17021 L 15.52388 15.54643 C 15.93892 15.14176 16.45771 14.89274 16.97651 15.41154 L 22.13337 20.58915 C 22.66255 21.11833 22.6418 21.73051 22.06074 22.31156 L 21.3448 23.02751 C 20.13081 21.96916 17.1114 19.82133 16.61335 20.31938 C 16.44734 20.47502 16.5926 20.62028 16.69636 20.71366 C 17.71321 21.73051 19.04133 23.40104 19.29036 25.07157 L 14.11274 30.24919 C 13.84297 30.51896 13.58357 30.45671 13.37605 30.24919 Z M 30.36895 35.33618 L 23.658 35.336 L 23.665 35.2 L 23.665 34.75 C 23.665 34.45922 23.87715 34.21799 24.15511 34.17266 L 24.25 34.165 L 29.75 34.165 C 30.04078 34.165 30.28201 34.37715 30.32734 34.65511 L 30.335 34.75 L 30.335 35 C 30.335 35.11517 30.34669 35.2276 30.36895 35.33618 Z M 31.8 35.335 L 31.944 35.331 L 31.94824 35.33103 L 31.8 35.335 Z "/>
</clipPath>
<g clip-path="url(#cp0)">
<path transform="matrix(1,0,0,-1,0,40)" d="M -3 41.665 L 40.665 41.665 L 40.665 -1.665 L -3 -1.665 Z "/>
</g>
</g>
</svg>
