<?xml version="1.0" encoding="UTF-8" standalone="no"?>
<!DOCTYPE svg PUBLIC "-//W3C//DTD SVG 1.1//EN" "http://www.w3.org/Graphics/SVG/1.1/DTD/svg11.dtd">
<svg xmlns="http://www.w3.org/2000/svg" xmlns:xlink="http://www.w3.org/1999/xlink" version="1.1" width="30pt" height="30pt" viewBox="0 0 30 30">
<g enable-background="new">
<clipPath id="cp0">
<path transform="matrix(1,0,0,-1,0,30)" d="M 18.9981 20.16118 C 19.32343 20.40878 19.78977 20.38402 20.0869 20.0869 C 20.38402 19.78977 20.40878 19.32343 20.16118 18.9981 L 20.0869 18.9131 L 16.173 15 L 20.0869 11.0869 C 20.41103 10.76276 20.41103 10.23724 20.0869 9.913101 C 19.78977 9.615977 19.32343 9.591217 18.9981 9.83882 L 18.9131 9.913101 L 15 13.827 L 11.0869 9.913101 L 11.0019 9.83882 C 10.67657 9.591217 10.21023 9.615977 9.913101 9.913101 C 9.615977 10.21023 9.591217 10.67657 9.83882 11.0019 L 9.913101 11.0869 L 13.827 15 L 9.913101 18.9131 C 9.588966 19.23724 9.588966 19.76276 9.913101 20.0869 C 10.21023 20.38402 10.67657 20.40878 11.0019 20.16118 L 11.0869 20.0869 L 15 16.173 L 18.9131 20.0869 L 18.9981 20.16118 Z "/>
</clipPath>
<g clip-path="url(#cp0)">
<path transform="matrix(1,0,0,-1,0,30)" d="M 4.67 25.33 L 25.33 25.33 L 25.33 4.67 L 4.67 4.67 Z "/>
</g>
</g>
</svg>
