<?xml version="1.0" encoding="UTF-8" standalone="no"?>
<!DOCTYPE svg PUBLIC "-//W3C//DTD SVG 1.1//EN" "http://www.w3.org/Graphics/SVG/1.1/DTD/svg11.dtd">
<svg xmlns="http://www.w3.org/2000/svg" xmlns:xlink="http://www.w3.org/1999/xlink" version="1.1" width="16pt" height="16pt" viewBox="0 0 16 16">
<g enable-background="new">
<clipPath id="cp0">
<path transform="matrix(1,0,0,-1,0,16)" d="M 8 15.165 C 6.445441 15.165 2.335 10.07306 2.335 7 C 2.335 3.871307 4.871307 1.335 8 1.335 C 11.12869 1.335 13.665 3.871307 13.665 7 C 13.665 10.07306 9.554559 15.165 8 15.165 Z M 7.875314 13.69449 L 8 13.781 L 8.026554 13.76256 C 8.088459 13.72147 8.157626 13.67164 8.232675 13.61402 L 8.47409 13.41869 C 8.516807 13.38255 8.56065 13.3447 8.605447 13.30526 C 9.117829 12.85407 9.691915 12.25259 10.21693 11.6022 C 11.52942 9.976317 12.335 8.322915 12.335 7 C 12.335 4.605846 10.39415 2.665 8 2.665 C 5.605846 2.665 3.665 4.605846 3.665 7 C 3.665 8.322915 4.470579 9.976317 5.783069 11.6022 C 6.308085 12.25259 6.882171 12.85407 7.394553 13.30526 L 7.52591 13.41869 L 7.767325 13.61402 C 7.804849 13.64283 7.840903 13.66969 7.875314 13.69449 Z " fill-rule="evenodd"/>
</clipPath>
<g clip-path="url(#cp0)">
<path transform="matrix(1,0,0,-1,0,16)" d="M -2.665 20.165 L 18.665 20.165 L 18.665 -3.665 L -2.665 -3.665 Z "/>
</g>
</g>
</svg>
