<?xml version="1.0" encoding="UTF-8" standalone="no"?>
<!DOCTYPE svg PUBLIC "-//W3C//DTD SVG 1.1//EN" "http://www.w3.org/Graphics/SVG/1.1/DTD/svg11.dtd">
<svg xmlns="http://www.w3.org/2000/svg" xmlns:xlink="http://www.w3.org/1999/xlink" version="1.1" width="30pt" height="30pt" viewBox="0 0 30 30">
<g enable-background="new">
<clipPath id="cp0">
<path transform="matrix(1,0,0,-1,0,30)" d="M 7 11.665 C 7.333881 11.665 7.610292 11.41894 7.65779 11.09827 L 7.665 11 L 7.665 7.666 L 11 7.665 C 11.36727 7.665 11.665 7.367269 11.665 7 C 11.665 6.666119 11.41894 6.389708 11.09827 6.34221 L 11 6.335 L 7.665 6.336 L 7.665 3 C 7.665 2.632731 7.367269 2.335 7 2.335 C 6.666119 2.335 6.389708 2.581058 6.34221 2.901731 L 6.335 3 L 6.335 6.336 L 3 6.335 C 2.632731 6.335 2.335 6.632731 2.335 7 C 2.335 7.333881 2.581058 7.610292 2.901731 7.65779 L 3 7.665 L 6.335 7.666 L 6.335 11 C 6.335 11.36727 6.632731 11.665 7 11.665 Z M 19.95374 6.285715 C 20.1139 5.955206 19.97581 5.557441 19.6453 5.397282 C 18.20938 4.701456 16.63009 4.335 15 4.335 C 14.27872 4.335 13.56627 4.406697 12.87015 4.547832 C 12.5102 4.62081 12.27757 4.971763 12.35055 5.331709 C 12.42352 5.691655 12.77448 5.924289 13.13442 5.851312 C 13.74368 5.727788 14.3676 5.665 15 5.665 C 16.42809 5.665 17.80922 5.985475 19.06531 6.594158 C 19.39582 6.754318 19.79358 6.616223 19.95374 6.285715 Z M 15 25.665 C 20.79511 25.665 25.51068 21.0429 25.66129 15.28412 L 25.665 15 L 25.665 12.5 C 25.665 10.75202 24.24798 9.335 22.5 9.335 C 21.08742 9.335 19.89097 10.2604 19.48384 11.53804 C 18.4489 10.19822 16.82526 9.335 15 9.335 C 11.87131 9.335 9.335 11.87131 9.335 15 C 9.335 18.12869 11.87131 20.665 15 20.665 C 16.73959 20.665 18.29604 19.8809 19.33522 18.64685 L 19.335 19 C 19.335 19.36727 19.63273 19.665 20 19.665 C 20.33388 19.665 20.61029 19.41894 20.65779 19.09827 L 20.665 19 L 20.665 12.5 C 20.665 11.48656 21.48656 10.665 22.5 10.665 C 23.46277 10.665 24.25236 11.40646 24.32892 12.3495 L 24.335 12.5 L 24.335 15 C 24.335 20.15558 20.15558 24.335 15 24.335 C 9.844422 24.335 5.665 20.15558 5.665 15 C 5.665 14.36643 5.72802 13.74138 5.851997 13.13105 C 5.925107 12.77113 5.692604 12.42009 5.332685 12.34698 C 4.972766 12.27387 4.621726 12.50637 4.548615 12.86629 C 4.406962 13.56364 4.335 14.27739 4.335 15 C 4.335 20.89012 9.109883 25.665 15 25.665 Z M 15 19.335 C 12.60585 19.335 10.665 17.39415 10.665 15 C 10.665 12.60585 12.60585 10.665 15 10.665 C 17.39415 10.665 19.335 12.60585 19.335 15 C 19.335 17.39415 17.39415 19.335 15 19.335 Z " fill-rule="evenodd"/>
</clipPath>
<g clip-path="url(#cp0)">
<path transform="matrix(1,0,0,-1,0,30)" d="M -2.665 30.665 L 30.665 30.665 L 30.665 -2.665 L -2.665 -2.665 Z "/>
</g>
</g>
</svg>
