<?xml version="1.0" encoding="UTF-8" standalone="no"?>
<!DOCTYPE svg PUBLIC "-//W3C//DTD SVG 1.1//EN" "http://www.w3.org/Graphics/SVG/1.1/DTD/svg11.dtd">
<svg xmlns="http://www.w3.org/2000/svg" xmlns:xlink="http://www.w3.org/1999/xlink" version="1.1" width="30pt" height="30pt" viewBox="0 0 30 30">
<g enable-background="new">
<clipPath id="cp0">
<path transform="matrix(1,0,0,-1,0,30)" d="M 17 26.165 C 18.14371 26.165 19.08028 25.27815 19.15956 24.15462 L 19.165 24 L 19.165 22.665 L 23.5 22.665 C 23.83388 22.665 24.11029 22.41894 24.15779 22.09827 L 24.165 22 C 24.165 21.66612 23.91894 21.38971 23.59827 21.34221 L 23.5 21.335 L 22.626 21.335 L 21.77459 6.843506 C 21.69505 5.491231 20.61683 4.423485 19.28229 4.340229 L 19.11419 4.335 L 10.88581 4.335 C 9.531198 4.335 8.401979 5.348655 8.2405 6.676004 L 8.225409 6.843506 L 7.373 21.335 L 6.5 21.335 C 6.132731 21.335 5.835 21.63273 5.835 22 C 5.835 22.33388 6.081058 22.61029 6.401731 22.65779 L 6.5 22.665 L 10.835 22.665 L 10.835 24 C 10.835 25.14371 11.72185 26.08028 12.84538 26.15956 L 13 26.165 L 17 26.165 Z M 21.294 21.335 L 8.705 21.335 L 9.553114 6.921606 C 9.592027 6.260077 10.10804 5.734476 10.75481 5.67136 L 10.88581 5.665 L 19.11419 5.665 C 19.77686 5.665 20.33186 6.149255 20.43284 6.791209 L 20.44689 6.921606 L 21.294 21.335 Z M 15 19.6 C 15.29823 19.6 15.54565 19.38241 15.59215 19.09732 L 15.6 19 L 15.6 8 C 15.6 7.668629 15.33137 7.4 15 7.4 C 14.70177 7.4 14.45435 7.61759 14.40785 7.902677 L 14.4 8 L 14.4 19 C 14.4 19.33137 14.66863 19.6 15 19.6 Z M 18.52724 19.59938 C 18.82517 19.58584 19.06245 19.35724 19.09596 19.07033 L 19.09938 18.97276 L 18.59938 7.972755 C 18.58433 7.641726 18.30378 7.385572 17.97276 7.400619 C 17.67483 7.414161 17.43755 7.642761 17.40404 7.929665 L 17.40062 8.027245 L 17.90062 19.02724 C 17.91567 19.35827 18.19622 19.61443 18.52724 19.59938 Z M 11.47276 19.59938 C 11.80378 19.61443 12.08433 19.35827 12.09938 19.02724 L 12.59938 8.027245 C 12.61443 7.696216 12.35827 7.415666 12.02724 7.400619 C 11.69622 7.385572 11.41567 7.641726 11.40062 7.972755 L 10.90062 18.97276 C 10.88557 19.30378 11.14173 19.58433 11.47276 19.59938 Z M 17 24.835 L 13 24.835 C 12.57432 24.835 12.22303 24.51646 12.17151 24.10474 L 12.165 24 L 12.165 22.665 L 17.835 22.665 L 17.835 24 C 17.835 24.42568 17.51646 24.77697 17.10474 24.82849 L 17 24.835 Z "/>
</clipPath>
<g clip-path="url(#cp0)">
<path transform="matrix(1,0,0,-1,0,30)" d="M .835 31.165 L 29.165 31.165 L 29.165 -.665 L .835 -.665 Z "/>
</g>
</g>
</svg>
