<?xml version="1.0" encoding="UTF-8" standalone="no"?>
<!DOCTYPE svg PUBLIC "-//W3C//DTD SVG 1.1//EN" "http://www.w3.org/Graphics/SVG/1.1/DTD/svg11.dtd">
<svg xmlns="http://www.w3.org/2000/svg" xmlns:xlink="http://www.w3.org/1999/xlink" version="1.1" width="30pt" height="30pt" viewBox="0 0 30 30">
<g enable-background="new">
<clipPath id="cp0">
<path transform="matrix(1,0,0,-1,0,30)" d="M 15.33289 19.40354 L 15.33289 22.93235 C 15.33289 23.6448 15.91045 24.22235 16.62289 24.22235 C 16.95063 24.22235 17.26608 24.09761 17.50518 23.87346 L 25.96636 15.9411 C 26.48611 15.45383 26.51245 14.63747 26.02518 14.11772 C 25.9964 14.08767 25.9964 14.08767 25.96636 14.0589 L 17.50518 6.126542 C 16.98542 5.63927 16.16906 5.665604 15.68179 6.185361 C 15.45764 6.424457 15.33289 6.739908 15.33289 7.067645 L 15.33289 10.57507 C 10.93909 10.44166 7.986368 8.964928 6.387361 6.160862 C 6.137013 5.721858 5.578182 5.568923 5.139178 5.819271 C 4.85751 5.979897 4.68188 6.27759 4.677504 6.60181 C 4.566878 14.79912 8.172405 19.15303 15.33289 19.40354 Z M 16.66289 18.75 C 16.66289 18.38273 16.36516 18.085 15.99789 18.085 C 9.593514 18.085 6.318295 14.80193 6.026398 8.000565 C 8.089932 10.61434 11.43647 11.915 15.99789 11.915 C 16.36516 11.915 16.66289 11.61727 16.66289 11.25 L 16.66289 7.159974 L 25.02559 15 L 16.66289 22.84003 L 16.66289 18.75 Z "/>
</clipPath>
<g clip-path="url(#cp0)">
<path transform="matrix(1,0,0,-1,0,30)" d="M -.3249663 29.22235 L 31.37408 29.22235 L 31.37408 .6989473 L -.3249663 .6989473 Z "/>
</g>
</g>
</svg>
