<?xml version="1.0" encoding="UTF-8" standalone="no"?>
<!DOCTYPE svg PUBLIC "-//W3C//DTD SVG 1.1//EN" "http://www.w3.org/Graphics/SVG/1.1/DTD/svg11.dtd">
<svg xmlns="http://www.w3.org/2000/svg" xmlns:xlink="http://www.w3.org/1999/xlink" version="1.1" width="24pt" height="24pt" viewBox="0 0 24 24">
<g enable-background="new">
<clipPath id="cp0">
<path transform="matrix(1,0,0,-1,0,24)" d="M 13.5 6.665 C 13.86727 6.665 14.165 6.367269 14.165 6 C 14.165 5.666119 13.91894 5.389708 13.59827 5.34221 L 13.5 5.335 L 3 5.335 C 2.632731 5.335 2.335 5.632731 2.335 6 C 2.335 6.333881 2.581058 6.610292 2.901731 6.65779 L 3 6.665 L 13.5 6.665 Z M 19.87804 20.665 C 20.71981 20.665 21.37274 20.07781 21.37274 19.26016 C 21.37274 18.89108 21.22778 18.52118 20.9632 18.18148 C 20.66767 17.81533 20.14163 17.38349 19.49236 16.96618 L 19.24332 16.81053 L 19.142 16.751 L 19.288 14.73 L 19.32613 14.71393 C 20.90283 14.0031 21.97048 12.74026 22.14101 11.35442 L 22.15923 11.15565 L 22.165 10.96422 C 22.165 10.06052 21.52474 9.406857 20.62858 9.340554 L 20.47692 9.335 L 17.164 9.335 L 17.165 6 C 17.165 5.632731 16.86727 5.335 16.5 5.335 C 16.16612 5.335 15.88971 5.581058 15.84221 5.901731 L 15.835 6 L 15.834 9.335 L 12.52308 9.335 C 11.59968 9.335 10.91082 9.941095 10.84086 10.81598 L 10.835 10.96422 C 10.835 12.43736 11.86057 13.81794 13.46688 14.61386 L 13.716 14.731 L 13.858 16.751 L 13.75887 16.80948 C 13.16057 17.17379 12.64767 17.5585 12.29346 17.90781 L 12.15159 18.05518 L 12.04282 18.18175 C 11.77629 18.51233 11.62726 18.88593 11.62726 19.26016 C 11.62726 20.03026 12.21123 20.59519 12.98166 20.65898 L 13.1282 20.665 L 19.87804 20.665 Z M 9 10.665 C 9.367269 10.665 9.665 10.36727 9.665 10 C 9.665 9.666119 9.418942 9.389708 9.098269 9.34221 L 9 9.335 L 3 9.335 C 2.632731 9.335 2.335 9.632731 2.335 10 C 2.335 10.33388 2.581058 10.61029 2.901731 10.65779 L 3 10.665 L 9 10.665 Z M 19.87804 19.335 L 13.1282 19.335 C 12.9887 19.335 12.95726 19.30703 12.95726 19.26016 C 12.95726 19.21053 12.99198 19.12348 13.07798 19.01682 C 13.35249 18.67671 14.03874 18.1599 14.87101 17.70215 C 15.06978 17.59282 15.1971 17.39114 15.21369 17.16917 L 15.21391 17.073 L 15.01428 14.22279 C 14.99591 13.96058 14.82481 13.73378 14.57772 13.64413 C 13.08654 13.10309 12.165 12.0153 12.165 10.96422 C 12.165 10.78698 12.24317 10.69082 12.4342 10.66955 L 12.52308 10.665 L 20.47692 10.665 C 20.7329 10.665 20.835 10.76165 20.835 10.96422 C 20.835 12.01464 19.91433 13.10313 18.42781 13.64439 C 18.21235 13.72284 18.05478 13.90562 18.00611 14.12519 L 17.99206 14.22135 L 17.7862 17.07156 C 17.76748 17.33067 17.90136 17.57695 18.12899 17.70215 C 18.96598 18.1625 19.65654 18.68018 19.92098 19.00765 C 20.00704 19.11819 20.04274 19.20928 20.04274 19.26016 C 20.04274 19.3 20.02491 19.32399 19.94772 19.332 L 19.87804 19.335 Z M 9.5 14.665 C 9.867269 14.665 10.165 14.36727 10.165 14 C 10.165 13.66612 9.918942 13.38971 9.598269 13.34221 L 9.5 13.335 L 3 13.335 C 2.632731 13.335 2.335 13.63273 2.335 14 C 2.335 14.33388 2.581058 14.61029 2.901731 14.65779 L 3 14.665 L 9.5 14.665 Z " fill-rule="evenodd"/>
</clipPath>
<g clip-path="url(#cp0)">
<path transform="matrix(1,0,0,-1,0,24)" d="M -2.665 25.665 L 27.165 25.665 L 27.165 .335 L -2.665 .335 Z "/>
</g>
</g>
</svg>
