<?xml version="1.0" encoding="UTF-8" standalone="no"?>
<!DOCTYPE svg PUBLIC "-//W3C//DTD SVG 1.1//EN" "http://www.w3.org/Graphics/SVG/1.1/DTD/svg11.dtd">
<svg xmlns="http://www.w3.org/2000/svg" xmlns:xlink="http://www.w3.org/1999/xlink" version="1.1" width="30pt" height="30pt" viewBox="0 0 30 30">
<g enable-background="new">
<clipPath id="cp0">
<path transform="matrix(1,0,0,-1,0,30)" d="M 12 20.665 C 12.36727 20.665 12.665 20.36727 12.665 20 C 12.665 19.63273 12.36727 19.335 12 19.335 L 9 19.335 C 8.2627 19.335 7.665 18.7373 7.665 18 L 7.665 8 C 7.665 7.2627 8.2627 6.665 9 6.665 L 21 6.665 C 21.7373 6.665 22.335 7.2627 22.335 8 L 22.335 18 C 22.335 18.7373 21.7373 19.335 21 19.335 L 18 19.335 C 17.63273 19.335 17.335 19.63273 17.335 20 C 17.335 20.36727 17.63273 20.665 18 20.665 L 21 20.665 C 22.47184 20.665 23.665 19.47184 23.665 18 L 23.665 8 C 23.665 6.528161 22.47184 5.335 21 5.335 L 9 5.335 C 7.528161 5.335 6.335 6.528161 6.335 8 L 6.335 18 C 6.335 19.47184 7.528161 20.665 9 20.665 L 12 20.665 Z M 15.3878 27.04034 L 15.47023 26.97023 L 18.97023 23.47023 C 19.22992 23.21053 19.22992 22.78947 18.97023 22.52977 C 18.7365 22.29605 18.37207 22.27267 18.1122 22.45966 L 18.02977 22.52977 L 15.664 24.896 L 15.665 13.5 C 15.665 13.16612 15.41894 12.88971 15.09827 12.84221 L 15 12.835 C 14.66612 12.835 14.38971 13.08106 14.34221 13.40173 L 14.335 13.5 L 14.335 24.895 L 11.97023 22.52977 C 11.7365 22.29605 11.37207 22.27267 11.1122 22.45966 L 11.02977 22.52977 C 10.79605 22.7635 10.77267 23.12793 10.95966 23.3878 L 11.02977 23.47023 L 14.52977 26.97023 C 14.7635 27.20395 15.12793 27.22733 15.3878 27.04034 Z "/>
</clipPath>
<g clip-path="url(#cp0)">
<path transform="matrix(1,0,0,-1,0,30)" d="M 1.335 32.165 L 28.665 32.165 L 28.665 .335 L 1.335 .335 Z "/>
</g>
</g>
</svg>
