<?xml version="1.0" encoding="UTF-8" standalone="no"?>
<!DOCTYPE svg PUBLIC "-//W3C//DTD SVG 1.1//EN" "http://www.w3.org/Graphics/SVG/1.1/DTD/svg11.dtd">
<svg xmlns="http://www.w3.org/2000/svg" xmlns:xlink="http://www.w3.org/1999/xlink" version="1.1" width="40pt" height="40pt" viewBox="0 0 40 40">
<g enable-background="new">
<path transform="matrix(0,1,-1,-0,29,19.5)" stroke-width="2" stroke-linecap="round" stroke-linejoin="round" fill="none" stroke="#000000" d="M .5 9.5 L .5 0 "/>
<path transform="matrix(0,1,-1,-0,30.5,17)" stroke-width="2" stroke-linecap="round" stroke-linejoin="round" fill="none" stroke="#000000" d="M 0 3 L 3 0 L 6 3 "/>
<path transform="matrix(0,1,-1,-0,25,11)" stroke-width="2" stroke-linecap="round" stroke-linejoin="round" fill="none" stroke="#000000" d="M 15 0 L 16 0 C 17.10457 0 18 .8954305 18 2 L 18 10 C 18 11.10457 17.10457 12 16 12 L 2 12 C .8954305 12 0 11.10457 0 10 L 0 2 C 0 .8954305 .8954305 0 2 0 L 3 0 "/>
</g>
</svg>
