<?xml version="1.0" encoding="UTF-8" standalone="no"?>
<!DOCTYPE svg PUBLIC "-//W3C//DTD SVG 1.1//EN" "http://www.w3.org/Graphics/SVG/1.1/DTD/svg11.dtd">
<svg xmlns="http://www.w3.org/2000/svg" xmlns:xlink="http://www.w3.org/1999/xlink" version="1.1" width="12pt" height="12pt" viewBox="0 0 12 12">
<g enable-background="new">
<clipPath id="cp0">
<path transform="matrix(1,0,0,-1,0,12)" d="M 7.823195 10.08667 L 7.73449 10.08473 L 7.540732 10.06796 C 7.05362 10.0032 6.596223 9.771859 6.168125 9.39137 L 6 9.234 L 5.855601 9.371061 C 5.338146 9.837513 4.777024 10.08667 4.176805 10.08667 C 2.303524 10.08667 .9133333 8.658031 .9133333 6.73614 C .9133333 4.912181 2.450495 3.072804 5.111984 1.379635 L 5.401427 1.198791 C 5.547629 1.106471 5.682313 1.027051 5.801668 .9631112 C 5.92556 .8967407 6.07444 .8967407 6.198332 .9631112 C 6.277928 1.005751 6.364967 1.055668 6.459674 1.112934 L 6.607512 1.204355 C 9.438224 2.941688 11.08667 4.847432 11.08667 6.73614 C 11.08667 8.658031 9.696476 10.08667 7.823195 10.08667 Z "/>
</clipPath>
<g clip-path="url(#cp0)">
<path transform="matrix(1,0,0,-1,0,12)" d="M -4.086667 15.08667 L 16.08667 15.08667 L 16.08667 -4.086667 L -4.086667 -4.086667 Z "/>
</g>
</g>
</svg>
