<?xml version="1.0" encoding="UTF-8" standalone="no"?>
<!DOCTYPE svg PUBLIC "-//W3C//DTD SVG 1.1//EN" "http://www.w3.org/Graphics/SVG/1.1/DTD/svg11.dtd">
<svg xmlns="http://www.w3.org/2000/svg" xmlns:xlink="http://www.w3.org/1999/xlink" version="1.1" width="40pt" height="40pt" viewBox="0 0 40 40">
<g enable-background="new">
<clipPath id="cp0">
<path transform="matrix(1,0,0,-1,0,40)" d="M 17.28 23.85 L 21.28 17.08333 L 17.28 11.28333 L 19.99969 5.000171 C 19.62326 5.204866 19.19037 5.463967 18.70102 5.777473 C 10.06194 11.15944 4 17.49062 4 23.80177 C 4 29.70617 8.144631 34 13.74905 34 C 15.97649 34 18.0124 32.71283 19.83295 30.52176 L 19.93774 30.39435 L 20.00242 30.31255 L 17.28 23.85 Z "/>
</clipPath>
<g clip-path="url(#cp0)">
<clipPath id="cp1">
<path transform="matrix(1,0,0,-1,0,40)" d="M 0 0 L 40 0 L 40 40 L 0 40 Z "/>
</clipPath>
<g clip-path="url(#cp1)">
<path transform="matrix(1,0,0,-1,0,40)" d="M -1 39 L 26.28 39 L 26.28 .0001710418 L -1 .0001710418 Z "/>
</g>
</g>
</g>
</svg>
