<?xml version="1.0" encoding="UTF-8" standalone="no"?>
<!DOCTYPE svg PUBLIC "-//W3C//DTD SVG 1.1//EN" "http://www.w3.org/Graphics/SVG/1.1/DTD/svg11.dtd">
<svg xmlns="http://www.w3.org/2000/svg" xmlns:xlink="http://www.w3.org/1999/xlink" version="1.1" width="40pt" height="40pt" viewBox="0 0 40 40">
<g enable-background="new">
<clipPath id="cp0">
<path transform="matrix(1,0,0,-1,0,40)" d="M 25.98001 33.99366 C 23.82056 33.89244 21.85671 32.58359 20.07604 30.4037 L 20.00242 30.31255 L 17.28 23.85 L 21.28 17.08333 L 17.28 11.28333 L 20 5 C 20.3765 5.204722 20.81465 5.467136 21.31445 5.787241 C 29.93806 11.15944 36 17.49062 36 23.80177 C 36 29.70617 31.85537 34 26.25096 34 L 25.98001 33.99366 Z "/>
</clipPath>
<g clip-path="url(#cp0)">
<clipPath id="cp1">
<path transform="matrix(1,0,0,-1,0,40)" d="M 0 0 L 40 0 L 40 40 L 0 40 Z "/>
</clipPath>
<g clip-path="url(#cp1)">
<path transform="matrix(1,0,0,-1,0,40)" d="M 12.28 39 L 41 39 L 41 0 L 12.28 0 Z "/>
</g>
</g>
</g>
</svg>
