<?xml version="1.0" encoding="UTF-8" standalone="no"?>
<!DOCTYPE svg PUBLIC "-//W3C//DTD SVG 1.1//EN" "http://www.w3.org/Graphics/SVG/1.1/DTD/svg11.dtd">
<svg xmlns="http://www.w3.org/2000/svg" xmlns:xlink="http://www.w3.org/1999/xlink" version="1.1" width="24pt" height="24pt" viewBox="0 0 24 24">
<g enable-background="new">
<clipPath id="cp0">
<path transform="matrix(1,0,0,-1,0,24)" d="M 16.7115 20 C 20.03913 20 22.5 17.46812 22.5 13.98656 C 22.5 10.34786 19.05891 6.69786 14.11953 3.576215 L 13.78045 3.364201 C 13.55789 3.222637 13.35591 3.100208 13.17452 2.996915 L 13 2.9 L 11.385 6.605 L 13.76 10.025 L 11.385 14.015 L 13.00144 17.82567 L 13.04514 17.87942 C 14.04023 19.0892 15.13165 19.844 16.32557 19.97838 L 16.55063 19.99626 L 16.7115 20 Z M 7.288496 20 C 8.611042 20 9.819864 19.24101 10.90081 17.94904 L 11.00144 17.82567 L 9.385 14.015 L 11.76 10.025 L 9.385 6.605 L 10.99981 2.900101 C 10.83218 2.990626 10.6457 3.099196 10.44036 3.225811 L 10.22873 3.358441 C 5.099279 6.531945 1.5 10.26516 1.5 13.98656 C 1.5 17.46812 3.960874 20 7.288496 20 Z "/>
</clipPath>
<g clip-path="url(#cp0)">
<clipPath id="cp1">
<path transform="matrix(1,0,0,-1,0,24)" d="M 0 0 L 24 0 L 24 24 L 0 24 Z "/>
</clipPath>
<g clip-path="url(#cp1)">
<path transform="matrix(1,0,0,-1,0,24)" d="M -3.5 25 L 27.5 25 L 27.5 -2.1 L -3.5 -2.1 Z "/>
</g>
</g>
</g>
</svg>
