<?xml version="1.0" encoding="UTF-8" standalone="no"?>
<svg
   xmlns:dc="http://purl.org/dc/elements/1.1/"
   xmlns:cc="http://creativecommons.org/ns#"
   xmlns:rdf="http://www.w3.org/1999/02/22-rdf-syntax-ns#"
   xmlns:svg="http://www.w3.org/2000/svg"
   xmlns="http://www.w3.org/2000/svg"
   viewBox="0 0 32 32"
   height="32"
   width="32"
   xml:space="preserve"
   id="svg2"
   version="1.1"><metadata
     id="metadata8"><rdf:RDF><cc:Work
         rdf:about=""><dc:format>image/svg+xml</dc:format><dc:type
           rdf:resource="http://purl.org/dc/dcmitype/StillImage" /></cc:Work></rdf:RDF></metadata><defs
     id="defs6"><clipPath
       id="clipPath20"
       clipPathUnits="userSpaceOnUse"><path
         style="clip-rule:evenodd"
         id="path18"
         d="m 13,14.6 v 2.75339 c 0,0.27615 0.22386,0.5 0.5,0.5 0.12621,0 0.24774,-0.04772 0.34023,-0.1336 l 5.76519,-5.35339 c 0.20235,-0.1879 0.21407,-0.50427 0.02617,-0.70663 -0.0084,-0.009 -0.01713,-0.01777 -0.02617,-0.02617 L 13.84023,6.280209 C 13.63787,6.092308 13.3215,6.104025 13.1336,6.306381 13.04773,6.398863 13,6.5204 13,6.646606 V 9.4 C 9.696178,9.4 7.481796,8.347 6.356854,6.241 L 6.352734,6.2432 C 6.308844,6.16104 6.206661,6.130013 6.124499,6.1739 6.067711,6.204234 6.033146,6.264252 6.035304,6.328595 6.229333,11.84286 8.550863,14.6 13,14.6 Z" /></clipPath></defs><g
     transform="matrix(1.3333333,0,0,-1.3333333,0,32)"
     id="g10"><g
       id="g12" /><g
       id="g14"><g
         clip-path="url(#clipPath20)"
         id="g16"><path
           id="path22"
           style="fill:#ffffff;fill-opacity:1;fill-rule:nonzero;stroke:none"
           d="M 1.035208,22.85339 H 24.7652 V 1.146604 H 1.035208 Z" /></g></g></g></svg>