<?xml version="1.0" encoding="UTF-8" standalone="no"?>
<!DOCTYPE svg PUBLIC "-//W3C//DTD SVG 1.1//EN" "http://www.w3.org/Graphics/SVG/1.1/DTD/svg11.dtd">
<svg xmlns="http://www.w3.org/2000/svg" xmlns:xlink="http://www.w3.org/1999/xlink" version="1.1" width="14pt" height="20pt" viewBox="0 0 14 20">
<g enable-background="new">
<clipPath id="cp0">
<path transform="matrix(1,0,0,-1,0,20)" d="M 1.269123 16.33333 L 11.46175 16.33333 C 12.34436 16.33333 12.66441 16.24144 12.98708 16.06887 C 13.30974 15.89631 13.56297 15.64308 13.73554 15.32041 C 13.9081 14.99774 14 14.67769 14 13.79509 L 14 2.538246 C 14 1.655643 13.9081 1.335589 13.73554 1.012923 C 13.56297 .6902561 13.30974 .4370254 12.98708 .2644614 C 12.66441 .09189736 12.34436 0 11.46175 0 L 1.269123 0 C .8278214 0 .6677947 .04594868 .5064614 .1322307 C .345128 .2185127 .2185127 .345128 .1322307 .5064614 C .04594868 .6677947 0 .8278214 0 1.269123 L 0 15.06421 C 0 15.50551 .04594868 15.66554 .1322307 15.82687 C .2185127 15.98821 .345128 16.11482 .5064614 16.2011 C .6677947 16.28738 .8278214 16.33333 1.269123 16.33333 Z M 7 6.333333 C 8.980143 6.333333 10.58537 7.900337 10.58537 9.833333 C 10.58537 11.76633 8.980143 13.33333 7 13.33333 C 5.019857 13.33333 3.414634 11.76633 3.414634 9.833333 C 3.414634 7.900337 5.019857 6.333333 7 6.333333 Z M 4.081301 4 C 3.713111 4 3.414634 3.701523 3.414634 3.333333 C 3.414634 2.965144 3.713111 2.666667 4.081301 2.666667 L 9.918699 2.666667 C 10.28689 2.666667 10.58537 2.965144 10.58537 3.333333 C 10.58537 3.701523 10.28689 4 9.918699 4 L 4.081301 4 Z " fill-rule="evenodd"/>
</clipPath>
<g clip-path="url(#cp0)">
<path transform="matrix(1,0,0,-1,0,20)" d="M -5 -5 L 19 -5 L 19 21.33333 L -5 21.33333 Z " fill="#ffffff"/>
</g>
<clipPath id="cp1">
<path transform="matrix(1,0,0,-1,0,20)" d="M 1.365854 17.66667 L 11.60976 17.66667 L 11.60976 18.75914 C 11.60976 19.3059 11.16652 19.74914 10.61976 19.74914 C 10.54577 19.74914 10.47202 19.74085 10.39989 19.72442 L 1.365854 17.66667 Z " fill-rule="evenodd"/>
</clipPath>
<g clip-path="url(#cp1)">
<path transform="matrix(1,0,0,-1,0,20)" d="M -3.634146 12.66667 L 16.609755 12.66667 L 16.609755 24.74915 L -3.634146 24.74915 Z " fill="#ffffff"/>
</g>
</g>
</svg>
