<?xml version="1.0" encoding="UTF-8" standalone="no"?>
<!DOCTYPE svg PUBLIC "-//W3C//DTD SVG 1.1//EN" "http://www.w3.org/Graphics/SVG/1.1/DTD/svg11.dtd">
<svg xmlns="http://www.w3.org/2000/svg" xmlns:xlink="http://www.w3.org/1999/xlink" version="1.1" width="18pt" height="18pt" viewBox="0 0 18 18">
<g enable-background="new">
<clipPath id="cp0">
<path transform="matrix(1,0,0,-1,0,18)" d="M 2.97 18 L 15.03 18 C 16.67029 18 18 16.67029 18 15.03 L 18 2.97 C 18 1.329714 16.67029 0 15.03 0 L 2.97 0 C 1.329714 0 0 1.329714 0 2.97 L 0 15.03 C 0 16.67029 1.329714 18 2.97 18 Z M 5.51101 11.87756 L 7.628198 11.87756 C 7.675073 12.72212 8.268823 13.26724 9.16726 13.26724 C 10.05789 13.26724 10.65164 12.76051 10.65164 12.04647 C 10.65164 11.33244 10.34695 10.9639 9.339135 10.37271 C 8.26101 9.750808 7.831323 9.059806 7.932885 7.831358 L 7.94851 7.409079 L 10.01882 7.409079 L 10.01882 7.816002 C 10.01882 8.553071 10.30789 8.929283 11.34695 9.520474 C 12.44851 10.15773 13.01882 10.9639 13.01882 12.11557 C 13.01882 13.88914 11.54226 15.10991 9.307885 15.10991 C 6.909448 15.10991 5.550073 13.78933 5.51101 11.87756 Z M 9.065698 3.7007 C 9.940698 3.7007 10.47976 4.199758 10.47976 5.005927 C 10.47976 5.819774 9.940698 6.318831 9.065698 6.318831 C 8.190698 6.318831 7.643823 5.819774 7.643823 5.005927 C 7.643823 4.199758 8.190698 3.7007 9.065698 3.7007 Z " fill-rule="evenodd"/>
</clipPath>
<g clip-path="url(#cp0)">
<path transform="matrix(1,0,0,-1,0,18)" d="M -5 -5 L 23 -5 L 23 23 L -5 23 Z " fill="#96979d" fill-opacity=".7"/>
</g>
</g>
</svg>
