<?xml version="1.0" encoding="UTF-8" standalone="no"?>
<!DOCTYPE svg PUBLIC "-//W3C//DTD SVG 1.1//EN" "http://www.w3.org/Graphics/SVG/1.1/DTD/svg11.dtd">
<svg xmlns="http://www.w3.org/2000/svg" xmlns:xlink="http://www.w3.org/1999/xlink" version="1.1" width="30pt" height="30pt" viewBox="0 0 30 30">
<g enable-background="new">
<clipPath id="cp0">
<path transform="matrix(1,0,0,-1,0,30)" d="M 19 25.165 C 19.36727 25.165 19.665 24.86727 19.665 24.5 L 19.664 23.666 L 22 23.665 C 23.41523 23.665 24.57281 22.56186 24.65976 21.16854 L 24.665 21 L 24.665 8 C 24.665 6.58477 23.56186 5.427194 22.16854 5.340243 L 22 5.335 L 8 5.335 C 6.58477 5.335 5.427194 6.438145 5.340243 7.831461 L 5.335 8 L 5.335 21 C 5.335 22.41523 6.438145 23.57281 7.831461 23.65976 L 8 23.665 L 10.334 23.666 L 10.335 24.5 C 10.335 24.83388 10.58106 25.11029 10.90173 25.15779 L 11 25.165 C 11.33388 25.165 11.61029 24.91894 11.65779 24.59827 L 11.665 24.5 L 11.664 23.666 L 18.334 23.666 L 18.335 24.5 C 18.335 24.83388 18.58106 25.11029 18.90173 25.15779 L 19 25.165 Z M 10.334 22.336 L 8 22.335 C 7.30607 22.335 6.735801 21.80555 6.671111 21.12857 L 6.665 21 L 6.665 8 C 6.665 7.30607 7.19445 6.735801 7.871431 6.671111 L 8 6.665 L 22 6.665 C 22.69393 6.665 23.2642 7.19445 23.32889 7.871431 L 23.335 8 L 23.335 21 C 23.335 21.7373 22.7373 22.335 22 22.335 L 19.664 22.336 L 19.665 21.5 C 19.665 21.16612 19.41894 20.88971 19.09827 20.84221 L 19 20.835 C 18.63273 20.835 18.335 21.13273 18.335 21.5 L 18.334 22.336 L 11.664 22.336 L 11.665 21.5 C 11.665 21.16612 11.41894 20.88971 11.09827 20.84221 L 11 20.835 C 10.66612 20.835 10.38971 21.08106 10.34221 21.40173 L 10.335 21.5 L 10.334 22.336 Z M 21 18.665 C 21.36727 18.665 21.665 18.36727 21.665 18 C 21.665 17.66612 21.41894 17.38971 21.09827 17.34221 L 21 17.335 L 9 17.335 C 8.632731 17.335 8.335 17.63273 8.335 18 C 8.335 18.33388 8.581058 18.61029 8.901731 18.65779 L 9 18.665 L 21 18.665 Z "/>
</clipPath>
<g clip-path="url(#cp0)">
<path transform="matrix(1,0,0,-1,0,30)" d="M .335 30.165 L 29.665 30.165 L 29.665 .335 L .335 .335 Z "/>
</g>
</g>
</svg>
