<?xml version="1.0" encoding="UTF-8" standalone="no"?>
<!DOCTYPE svg PUBLIC "-//W3C//DTD SVG 1.1//EN" "http://www.w3.org/Graphics/SVG/1.1/DTD/svg11.dtd">
<svg xmlns="http://www.w3.org/2000/svg" xmlns:xlink="http://www.w3.org/1999/xlink" version="1.1" width="30pt" height="30pt" viewBox="0 0 30 30">
<g enable-background="new">
<clipPath id="cp0">
<path transform="matrix(1,0,0,-1,0,30)" d="M 15 14.665 C 19.8296 14.665 22.88722 12.60405 23.99578 8.544066 C 24.36531 7.190798 23.56781 5.794206 22.21454 5.424699 C 21.9965 5.365166 21.7715 5.335 21.54549 5.335 L 8.454542 5.335 C 7.051726 5.335 5.914512 6.472181 5.914512 7.875 C 5.914512 8.101014 5.944678 8.326017 6.004211 8.544049 C 7.112775 12.60404 10.17039 14.665 15 14.665 Z M 15 13.335 C 10.74064 13.335 8.228748 11.64188 7.287243 8.193723 C 7.258883 8.089856 7.244512 7.982669 7.244512 7.875 C 7.244512 7.206725 7.786253 6.665 8.454531 6.665 L 21.54549 6.665 C 21.65315 6.665 21.76034 6.679371 21.86421 6.707731 C 22.50888 6.883756 22.88879 7.54906 22.71275 8.193731 C 21.77125 11.64188 19.25935 13.335 15 13.335 Z M 15 25.665 C 17.57641 25.665 19.665 23.57641 19.665 21 C 19.665 18.42359 17.57641 16.335 15 16.335 C 12.42359 16.335 10.335 18.42359 10.335 21 C 10.335 23.57641 12.42359 25.665 15 25.665 Z M 15 24.335 C 13.15813 24.335 11.665 22.84187 11.665 21 C 11.665 19.15813 13.15813 17.665 15 17.665 C 16.84187 17.665 18.335 19.15813 18.335 21 C 18.335 22.84187 16.84187 24.335 15 24.335 Z "/>
</clipPath>
<g clip-path="url(#cp0)">
<path transform="matrix(1,0,0,-1,0,30)" d="M .9145121 30.665 L 29.08613 30.665 L 29.08613 .335 L .9145121 .335 Z "/>
</g>
</g>
</svg>
