<?xml version="1.0" encoding="UTF-8" standalone="no"?>
<!DOCTYPE svg PUBLIC "-//W3C//DTD SVG 1.1//EN" "http://www.w3.org/Graphics/SVG/1.1/DTD/svg11.dtd">
<svg xmlns="http://www.w3.org/2000/svg" xmlns:xlink="http://www.w3.org/1999/xlink" version="1.1" width="24pt" height="24pt" viewBox="0 0 24 24">
<g enable-background="new">
<clipPath id="cp0">
<path transform="matrix(1,0,0,-1,0,24)" d="M 12 3.335 C 16.78555 3.335 20.665 7.214453 20.665 12 C 20.665 16.78555 16.78555 20.665 12 20.665 C 7.214453 20.665 3.335 16.78555 3.335 12 C 3.335 7.214453 7.214453 3.335 12 3.335 Z M 12 4.665 C 7.948991 4.665 4.665 7.948991 4.665 12 C 4.665 16.05101 7.948991 19.335 12 19.335 C 16.05101 19.335 19.335 16.05101 19.335 12 C 19.335 7.948991 16.05101 4.665 12 4.665 Z M 14.97023 9.029774 C 15.20395 9.263503 15.22733 9.62793 15.04034 9.887798 L 14.97023 9.970226 L 11.105 13.835 L 14 13.835 C 14.33388 13.835 14.61029 14.08106 14.65779 14.40173 L 14.665 14.5 C 14.665 14.83388 14.41894 15.11029 14.09827 15.15779 L 14 15.165 L 9.5 15.165 C 9.166119 15.165 8.889708 14.91894 8.84221 14.59827 L 8.835 14.5 L 8.835 10 C 8.835 9.632731 9.132731 9.335 9.5 9.335 C 9.833881 9.335 10.11029 9.581058 10.15779 9.901731 L 10.165 10 L 10.164 12.894 L 14.02977 9.029774 C 14.28947 8.770075 14.71053 8.770075 14.97023 9.029774 Z " fill-rule="evenodd"/>
</clipPath>
<g clip-path="url(#cp0)">
<clipPath id="cp1">
<path transform="matrix(1,0,0,-1,0,24)" d="M 0 0 L 24 0 L 24 24 L 0 24 Z "/>
</clipPath>
<g clip-path="url(#cp1)">
<path transform="matrix(1,0,0,-1,0,24)" d="M -1.665 25.665 L 25.665 25.665 L 25.665 -1.665 L -1.665 -1.665 Z "/>
</g>
</g>
</g>
</svg>
