<?xml version="1.0" encoding="UTF-8" standalone="no"?>
<!DOCTYPE svg PUBLIC "-//W3C//DTD SVG 1.1//EN" "http://www.w3.org/Graphics/SVG/1.1/DTD/svg11.dtd">
<svg xmlns="http://www.w3.org/2000/svg" xmlns:xlink="http://www.w3.org/1999/xlink" version="1.1" width="30pt" height="30pt" viewBox="0 0 30 30">
<g enable-background="new">
<clipPath id="cp0">
<path transform="matrix(1,0,0,-1,0,30)" d="M 18.5 23.665 C 18.86727 23.665 19.165 23.36727 19.165 23 C 19.165 22.63273 18.86727 22.335 18.5 22.335 L 9 22.335 C 8.2627 22.335 7.665 21.7373 7.665 21 L 7.665 9 C 7.665 8.2627 8.2627 7.665 9 7.665 L 21 7.665 C 21.7373 7.665 22.335 8.2627 22.335 9 L 22.335 18.5 C 22.335 18.86727 22.63273 19.165 23 19.165 C 23.36727 19.165 23.665 18.86727 23.665 18.5 L 23.665 9 C 23.665 7.528161 22.47184 6.335 21 6.335 L 9 6.335 C 7.528161 6.335 6.335 7.528161 6.335 9 L 6.335 21 C 6.335 22.47184 7.528161 23.665 9 23.665 L 18.5 23.665 Z M 23.55918 24.4264 L 23.61109 24.38891 L 24.38891 23.61109 C 24.45139 23.54861 24.46389 23.45507 24.4264 23.38016 L 24.38891 23.32825 L 14.53033 13.46967 C 14.36081 13.30015 13.82076 13.02657 12.91016 12.64892 C 12.86116 12.6286 12.8061 12.6286 12.7571 12.64892 C 12.67216 12.68414 12.62443 12.77119 12.63534 12.8582 L 12.64909 12.90999 C 12.99752 13.75067 13.25744 14.27552 13.4287 14.48463 L 13.46967 14.53033 L 23.32825 24.38891 C 23.39073 24.45139 23.48427 24.46389 23.55918 24.4264 Z M 25.53033 25.53033 C 25.7966 25.26406 25.8208 24.8474 25.60295 24.55379 L 25.53033 24.46967 L 25.14191 24.08125 C 25.07951 24.01885 24.98612 24.00629 24.91125 24.04363 L 24.85934 24.08098 L 24.08004 24.85732 C 24.01734 24.92002 24.0048 25.0136 24.04228 25.08852 L 24.07977 25.14043 L 24.46967 25.53033 C 24.76256 25.82322 25.23744 25.82322 25.53033 25.53033 Z "/>
</clipPath>
<g clip-path="url(#cp0)">
<path transform="matrix(1,0,0,-1,0,30)" d="M 1.335 30.75 L 30.75 30.75 L 30.75 1.335 L 1.335 1.335 Z "/>
</g>
</g>
</svg>
