<?xml version="1.0" encoding="UTF-8" standalone="no"?>
<!DOCTYPE svg PUBLIC "-//W3C//DTD SVG 1.1//EN" "http://www.w3.org/Graphics/SVG/1.1/DTD/svg11.dtd">
<svg xmlns="http://www.w3.org/2000/svg" xmlns:xlink="http://www.w3.org/1999/xlink" version="1.1" width="24pt" height="24pt" viewBox="0 0 24 24">
<g enable-background="new">
<clipPath id="cp0">
<path transform="matrix(1,0,0,-1,0,24)" d="M 7.646447 16.85355 C 7.841709 17.04882 8.158291 17.04882 8.353553 16.85355 L 18.35355 6.853553 C 18.54882 6.658291 18.54882 6.341709 18.35355 6.146447 C 18.15829 5.951184 17.84171 5.951184 17.64645 6.146447 L 7.646447 16.14645 C 7.451184 16.34171 7.451184 16.65829 7.646447 16.85355 Z M 8.428189 14.30472 L 15.33267 7.399263 L 15.33333 6.979404 C 15.33333 6.834708 15.2915 6.693911 15.214 6.573499 L 15.14929 6.48727 C 14.9022 6.203117 14.48823 6.149971 14.18017 6.346862 L 14.0912 6.41345 L 11.01554 9.087939 C 10.86389 9.219809 10.67678 9.302308 10.47906 9.326145 L 10.35936 9.333333 L 8.666667 9.333333 C 8.153831 9.333333 7.73116 9.719374 7.673394 10.21671 L 7.666667 10.33333 L 7.666667 13.33333 C 7.666667 13.80343 7.991048 14.19777 8.428189 14.30472 Z M 14.4758 17.42952 L 14.58333 17.43726 C 14.96303 17.43726 15.27682 17.15511 15.32649 16.78903 L 15.33333 16.68726 L 15.33267 10.93526 L 11.37567 14.89226 L 14.0912 17.25322 C 14.20039 17.34816 14.33408 17.40898 14.4758 17.42952 L 14.58333 17.43726 L 14.4758 17.42952 Z " fill-rule="evenodd"/>
</clipPath>
<g clip-path="url(#cp0)">
<path transform="matrix(1,0,0,-1,0,24)" d="M 2.5 22.43726 L 23.5 22.43726 L 23.5 1 L 2.5 1 Z "/>
</g>
</g>
</svg>
