<?xml version="1.0" encoding="UTF-8" standalone="no"?>
<!DOCTYPE svg PUBLIC "-//W3C//DTD SVG 1.1//EN" "http://www.w3.org/Graphics/SVG/1.1/DTD/svg11.dtd">
<svg xmlns="http://www.w3.org/2000/svg" xmlns:xlink="http://www.w3.org/1999/xlink" version="1.1" width="30pt" height="30pt" viewBox="0 0 30 30">
<g enable-background="new">
<clipPath id="cp0">
<path transform="matrix(1,0,0,-1,0,30)" d="M 17.91217 18.49426 C 18.18594 18.73908 18.60634 18.71561 18.85116 18.44184 C 19.69173 17.50187 20.165 16.28687 20.165 15 C 20.165 12.14745 17.85255 9.835 15 9.835 C 12.14745 9.835 9.835 12.14745 9.835 15 C 9.835 16.28526 10.30708 17.49885 11.14576 18.43839 C 11.39033 18.71237 11.81071 18.73622 12.0847 18.49164 C 12.35869 18.24707 12.38253 17.82669 12.13796 17.5527 C 11.51479 16.85459 11.165 15.95537 11.165 15 C 11.165 12.88199 12.88199 11.165 15 11.165 C 17.11801 11.165 18.835 12.88199 18.835 15 C 18.835 15.95657 18.48433 16.85683 17.85975 17.55527 C 17.61493 17.82904 17.6384 18.24944 17.91217 18.49426 Z M 15 21.165 C 15.36727 21.165 15.665 20.86727 15.665 20.5 L 15.665 16.5 C 15.665 16.13273 15.36727 15.835 15 15.835 C 14.63273 15.835 14.335 16.13273 14.335 16.5 L 14.335 20.5 C 14.335 20.86727 14.63273 21.165 15 21.165 Z "/>
</clipPath>
<g clip-path="url(#cp0)">
<path transform="matrix(1,0,0,-1,0,30)" d="M 4.835 26.165 L 25.165 26.165 L 25.165 4.835 L 4.835 4.835 Z "/>
</g>
</g>
</svg>
