<?xml version="1.0" encoding="UTF-8" standalone="no"?>
<!DOCTYPE svg PUBLIC "-//W3C//DTD SVG 1.1//EN" "http://www.w3.org/Graphics/SVG/1.1/DTD/svg11.dtd">
<svg xmlns="http://www.w3.org/2000/svg" xmlns:xlink="http://www.w3.org/1999/xlink" version="1.1" width="30pt" height="30pt" viewBox="0 0 30 30">
<g enable-background="new">
<clipPath id="cp0">
<path transform="matrix(1,0,0,-1,0,30)" d="M 15.00488 5.11625 C 14.70131 5.11625 14.35066 5.228093 14.02407 5.412951 C 7.639902 9.16349 6.505 10.26983 6.505 13.61328 L 6.505 20.9668 C 6.505 22.23269 6.99663 22.85286 8.194257 23.31387 C 8.798603 23.55241 9.731203 23.90338 10.99709 24.37133 L 11.0997 24.40925 C 11.78021 24.66064 13.80417 25.40369 14.03835 25.48906 C 14.42786 25.60901 14.69482 25.665 15.00488 25.665 C 15.31177 25.665 15.5442 25.61579 15.99415 25.48161 C 17.36697 25.00411 20.41001 23.8687 21.80991 23.31221 C 23.02125 22.82461 23.495 22.22907 23.495 20.9668 L 23.495 13.61328 C 23.495 10.24896 22.29942 9.074489 15.97628 5.407528 C 15.6591 5.228093 15.30845 5.11625 15.00488 5.11625 Z M 15.00488 6.44625 C 15.05155 6.44625 15.18846 6.489919 15.31523 6.56159 C 21.23183 9.992829 22.165 10.90953 22.165 13.61328 L 22.165 20.9668 C 22.165 21.64079 22.05409 21.78021 21.31594 22.07735 C 19.93645 22.62571 16.91153 23.75436 15.58661 24.21596 C 15.28326 24.30592 15.14592 24.335 15.00488 24.335 C 14.86034 24.335 14.70195 24.30178 14.46435 24.22966 C 14.26321 24.15541 12.23946 23.41245 11.56057 23.16166 L 11.45825 23.12384 C 10.20117 22.65914 9.275138 22.31065 8.677316 22.07471 C 7.957863 21.79775 7.835 21.64276 7.835 20.9668 L 7.835 13.61328 C 7.835 10.93315 8.717246 10.07311 14.68835 6.565129 C 14.8213 6.489919 14.95821 6.44625 15.00488 6.44625 Z "/>
</clipPath>
<g clip-path="url(#cp0)">
<path transform="matrix(1,0,0,-1,0,30)" d="M 1.505 30.665 L 28.495 30.665 L 28.495 .11625 L 1.505 .11625 Z "/>
</g>
</g>
</svg>
