<?xml version="1.0" encoding="UTF-8" standalone="no"?>
<!DOCTYPE svg PUBLIC "-//W3C//DTD SVG 1.1//EN" "http://www.w3.org/Graphics/SVG/1.1/DTD/svg11.dtd">
<svg xmlns="http://www.w3.org/2000/svg" xmlns:xlink="http://www.w3.org/1999/xlink" version="1.1" width="16pt" height="16pt" viewBox="0 0 16 16">
<g enable-background="new">
<clipPath id="cp0">
<path transform="matrix(1,0,0,-1,0,16)" d="M 13 8.665 C 13.36727 8.665 13.665 8.367269 13.665 8 C 13.665 5.09614 11.48012 2.702585 8.6646 2.373572 L 8.665 1 C 8.665 .6327306 8.367269 .335 8 .335 C 7.666119 .335 7.389708 .5810584 7.34221 .9017312 L 7.335 1 L 7.3354 2.373572 C 4.519879 2.702585 2.335 5.09614 2.335 8 C 2.335 8.367269 2.632731 8.665 3 8.665 C 3.367269 8.665 3.665 8.367269 3.665 8 C 3.665 5.605846 5.605846 3.665 8 3.665 C 10.39415 3.665 12.335 5.605846 12.335 8 C 12.335 8.367269 12.63273 8.665 13 8.665 Z M 8 15.165 C 9.687706 15.165 11.06688 13.84402 11.15999 12.1796 L 11.165 12 L 11.165 8 C 11.165 6.252019 9.747981 4.835 8 4.835 C 6.312294 4.835 4.933119 6.155978 4.84001 7.820399 L 4.835 8 L 4.835 12 C 4.835 13.74798 6.252019 15.165 8 15.165 Z M 8 13.835 C 7.03723 13.835 6.247635 13.09354 6.171083 12.1505 L 6.165 12 L 6.165 8 C 6.165 6.986557 6.986557 6.165 8 6.165 C 8.96277 6.165 9.752365 6.906456 9.828917 7.849501 L 9.835 8 L 9.835 12 C 9.835 13.01344 9.013443 13.835 8 13.835 Z " fill-rule="evenodd"/>
</clipPath>
<g clip-path="url(#cp0)">
<path transform="matrix(1,0,0,-1,0,16)" d="M -2.665 20.165 L 18.665 20.165 L 18.665 -4.665 L -2.665 -4.665 Z "/>
</g>
</g>
</svg>
