<?xml version="1.0" encoding="UTF-8" standalone="no"?>
<!DOCTYPE svg PUBLIC "-//W3C//DTD SVG 1.1//EN" "http://www.w3.org/Graphics/SVG/1.1/DTD/svg11.dtd">
<svg xmlns="http://www.w3.org/2000/svg" xmlns:xlink="http://www.w3.org/1999/xlink" version="1.1" width="16pt" height="16pt" viewBox="0 0 16 16">
<g enable-background="new">
<clipPath id="cp0">
<path transform="matrix(1,0,0,-1,0,16)" d="M 8 15.665 C 12.23326 15.665 15.665 12.23326 15.665 8 C 15.665 3.766737 12.23326 .335 8 .335 C 3.766737 .335 .335 3.766737 .335 8 C .335 12.23326 3.766737 15.665 8 15.665 Z M 8 14.335 C 4.501276 14.335 1.665 11.49872 1.665 8 C 1.665 4.501276 4.501276 1.665 8 1.665 C 11.49872 1.665 14.335 4.501276 14.335 8 C 14.335 11.49872 11.49872 14.335 8 14.335 Z M 5.835 11 C 5.835 11.49794 6.355266 11.8075 6.784437 11.60149 L 6.868876 11.55331 L 11.36888 8.553313 C 11.73334 8.31034 11.76137 7.797292 11.45298 7.512768 L 11.36888 7.446687 L 6.868876 4.446687 C 6.454567 4.170481 5.908407 4.431656 5.841756 4.903021 L 5.835 5 L 5.835 11 Z M 7.165 9.758 L 7.165 6.243 L 9.801 8 L 7.165 9.758 Z "/>
</clipPath>
<g clip-path="url(#cp0)">
<clipPath id="cp1">
<path transform="matrix(1,0,0,-1,0,16)" d="M 0 0 L 16 0 L 16 16 L 0 16 Z "/>
</clipPath>
<g clip-path="url(#cp1)">
<path transform="matrix(1,0,0,-1,0,16)" d="M -4.665 20.665 L 20.665 20.665 L 20.665 -4.665 L -4.665 -4.665 Z "/>
</g>
</g>
</g>
</svg>
