<?xml version="1.0" encoding="UTF-8" standalone="no"?>
<!DOCTYPE svg PUBLIC "-//W3C//DTD SVG 1.1//EN" "http://www.w3.org/Graphics/SVG/1.1/DTD/svg11.dtd">
<svg xmlns="http://www.w3.org/2000/svg" xmlns:xlink="http://www.w3.org/1999/xlink" version="1.1" width="16pt" height="16pt" viewBox="0 0 16 16">
<g enable-background="new">
<clipPath id="cp0">
<path transform="matrix(1,0,0,-1,0,16)" d="M 8 7.522143 C 11.27884 7.522143 13.42901 6.269242 14.28581 3.777073 C 14.63608 2.75825 14.0941 1.648384 13.07528 1.298118 C 12.92222 1.245495 12.7634 1.212196 12.60251 1.198835 L 12.44107 1.192143 L 3.55891 1.192143 C 2.481569 1.192143 1.608215 2.065517 1.608215 3.142857 C 1.608215 3.358665 1.644026 3.572978 1.714189 3.777062 C 2.570981 6.269239 4.72116 7.522143 8 7.522143 Z M 8 6.192143 C 5.247239 6.192143 3.626127 5.247525 2.971936 3.344658 C 2.94961 3.279719 2.938215 3.211526 2.938215 3.142857 C 2.938215 2.831215 3.167886 2.573208 3.467197 2.528873 L 3.558919 2.522143 L 12.44107 2.522143 C 12.50974 2.522143 12.57793 2.533538 12.64287 2.555864 C 12.96706 2.667318 13.13952 3.020475 13.02806 3.344665 C 12.37387 5.247527 10.75276 6.192143 8 6.192143 Z M 8 14.665 C 9.747981 14.665 11.165 13.24798 11.165 11.5 C 11.165 9.752019 9.747981 8.335 8 8.335 C 6.252019 8.335 4.835 9.752019 4.835 11.5 C 4.835 13.24798 6.252019 14.665 8 14.665 Z M 8 13.335 C 6.986557 13.335 6.165 12.51344 6.165 11.5 C 6.165 10.48656 6.986557 9.665 8 9.665 C 9.013443 9.665 9.835 10.48656 9.835 11.5 C 9.835 12.51344 9.013443 13.335 8 13.335 Z "/>
</clipPath>
<g clip-path="url(#cp0)">
<clipPath id="cp1">
<path transform="matrix(1,0,0,-1,0,16)" d="M 0 0 L 16 0 L 16 16 L 0 16 Z "/>
</clipPath>
<g clip-path="url(#cp1)">
<path transform="matrix(1,0,0,-1,0,16)" d="M -3.391785 19.665 L 19.39232 19.665 L 19.39232 -3.807857 L -3.391785 -3.807857 Z "/>
</g>
</g>
</g>
</svg>
