<?xml version="1.0" encoding="UTF-8" standalone="no"?>
<!DOCTYPE svg PUBLIC "-//W3C//DTD SVG 1.1//EN" "http://www.w3.org/Graphics/SVG/1.1/DTD/svg11.dtd">
<svg xmlns="http://www.w3.org/2000/svg" xmlns:xlink="http://www.w3.org/1999/xlink" version="1.1" width="16pt" height="16pt" viewBox="0 0 16 16">
<g enable-background="new">
<clipPath id="cp0">
<path transform="matrix(1,0,0,-1,0,16)" d="M 12 14.665 C 13.41523 14.665 14.57281 13.56186 14.65976 12.16854 L 14.665 12 L 14.665 4 C 14.665 2.58477 13.56186 1.427194 12.16854 1.340243 L 12 1.335 L 4 1.335 C 2.58477 1.335 1.427194 2.438145 1.340243 3.831461 L 1.335 4 L 1.335 12 C 1.335 13.41523 2.438145 14.57281 3.831461 14.65976 L 4 14.665 L 12 14.665 Z M 5.322451 6.773788 L 5.265212 6.721807 L 2.684217 3.773022 C 2.7848 3.185781 3.268951 2.729513 3.869603 2.671287 L 4 2.665 L 9.487 2.666 L 5.764271 6.727575 C 5.755968 6.736634 5.747172 6.745229 5.737924 6.753321 C 5.618577 6.857749 5.446036 6.862302 5.322451 6.773788 Z M 10.31015 8.743079 L 10.25344 8.690516 L 8.086 6.163 L 11.292 2.666 L 12 2.665 C 12.69393 2.665 13.2642 3.19445 13.32889 3.871431 L 13.335 4 L 13.335 5.75 L 10.75991 8.6931 C 10.74936 8.705151 10.73797 8.716431 10.72581 8.726852 C 10.6054 8.830058 10.43282 8.832849 10.31015 8.743079 Z M 12 13.335 L 4 13.335 C 3.30607 13.335 2.735801 12.80555 2.671111 12.12857 L 2.665 12 L 2.665 5.771 L 4.264285 7.597618 C 4.869815 8.289653 5.9217 8.359778 6.613735 7.754248 L 6.680971 7.69207 L 6.744686 7.626289 L 7.181 7.15 L 9.243631 9.556069 C 9.842069 10.25425 10.89318 10.3351 11.59136 9.736664 L 11.6791 9.655825 L 11.76083 9.568911 L 13.335 7.769 L 13.335 12 C 13.335 12.69393 12.80555 13.2642 12.12857 13.32889 L 12 13.335 Z "/>
</clipPath>
<g clip-path="url(#cp0)">
<clipPath id="cp1">
<path transform="matrix(1,0,0,-1,0,16)" d="M 0 0 L 16 0 L 16 16 L 0 16 Z "/>
</clipPath>
<g clip-path="url(#cp1)">
<path transform="matrix(1,0,0,-1,0,16)" d="M -3.665 19.665 L 19.665 19.665 L 19.665 -3.665 L -3.665 -3.665 Z "/>
</g>
</g>
</g>
</svg>
