<?xml version="1.0" encoding="UTF-8" standalone="no"?>
<!DOCTYPE svg PUBLIC "-//W3C//DTD SVG 1.1//EN" "http://www.w3.org/Graphics/SVG/1.1/DTD/svg11.dtd">
<svg xmlns="http://www.w3.org/2000/svg" xmlns:xlink="http://www.w3.org/1999/xlink" version="1.1" width="16pt" height="16pt" viewBox="0 0 16 16">
<g enable-background="new">
<clipPath id="cp0">
<path transform="matrix(1,0,0,-1,0,16)" d="M 10.5 7.665 C 13.22156 7.665 15.03966 6.67641 15.80072 4.69358 C 16.1443 3.798275 15.69709 2.793943 14.8018 2.45031 C 14.65286 2.393142 14.49699 2.356864 14.33862 2.342298 L 14.17959 2.335 L 6.8205 2.335 C 5.861463 2.334945 5.084 3.112392 5.084 4.071429 C 5.084 4.284164 5.12309 4.495088 5.199324 4.693694 C 5.960391 6.676437 7.778476 7.665 10.5 7.665 Z M 4.5 7.665 C 4.68525 7.665 4.865166 7.659781 5.03977 7.649302 C 5.40638 7.627302 5.685741 7.312271 5.66374 6.945661 C 5.64174 6.579051 5.326709 6.29969 4.960099 6.321691 C 4.812464 6.330551 4.65909 6.335 4.5 6.335 C 2.826661 6.335 1.841069 5.85876 1.414408 4.937916 C 1.40268 4.912603 1.396605 4.88504 1.396605 4.857143 C 1.396605 4.768713 1.456344 4.694234 1.537662 4.671864 L 1.588737 4.665 L 4 4.665 C 4.367269 4.665 4.665 4.367269 4.665 4 C 4.665 3.666119 4.418942 3.389708 4.098269 3.34221 L 4 3.335 L 1.588737 3.335 C .7480859 3.335 .06660454 4.016493 .06660454 4.857143 C .06660454 5.078156 .1147344 5.296518 .2076489 5.497051 C .8821947 6.952895 2.355917 7.665 4.5 7.665 Z M 10.5 6.335 C 8.284052 6.335 6.982243 5.627156 6.440994 4.217085 C 6.42315 4.170597 6.414 4.121225 6.414 4.071429 C 6.414 3.87501 6.553318 3.711152 6.738542 3.673257 L 6.820462 3.665 L 14.17959 3.665 C 14.22937 3.665 14.27873 3.674148 14.32521 3.691988 C 14.53476 3.772416 14.63944 4.007499 14.55903 4.21703 C 14.01779 5.627139 12.71598 6.335 10.5 6.335 Z M 4.5 12.665 C 5.695696 12.665 6.665 11.6957 6.665 10.5 C 6.665 9.304304 5.695696 8.335 4.5 8.335 C 3.304304 8.335 2.335 9.304304 2.335 10.5 C 2.335 11.6957 3.304304 12.665 4.5 12.665 Z M 10.5 14.165 C 11.97184 14.165 13.165 12.97184 13.165 11.5 C 13.165 10.02816 11.97184 8.835 10.5 8.835 C 9.028161 8.835 7.835 10.02816 7.835 11.5 C 7.835 12.97184 9.028161 14.165 10.5 14.165 Z M 4.5 11.335 C 4.038842 11.335 3.665 10.96116 3.665 10.5 C 3.665 10.03884 4.038842 9.665 4.5 9.665 C 4.961158 9.665 5.335 10.03884 5.335 10.5 C 5.335 10.96116 4.961158 11.335 4.5 11.335 Z M 10.5 12.835 C 9.7627 12.835 9.165 12.2373 9.165 11.5 C 9.165 10.7627 9.7627 10.165 10.5 10.165 C 11.2373 10.165 11.835 10.7627 11.835 11.5 C 11.835 12.2373 11.2373 12.835 10.5 12.835 Z " fill-rule="evenodd"/>
</clipPath>
<g clip-path="url(#cp0)">
<path transform="matrix(1,0,0,-1,0,16)" d="M -4.933395 19.165 L 20.91646 19.165 L 20.91646 -2.665 L -4.933395 -2.665 Z "/>
</g>
</g>
</svg>
