<?xml version="1.0" encoding="UTF-8" standalone="no"?>
<!DOCTYPE svg PUBLIC "-//W3C//DTD SVG 1.1//EN" "http://www.w3.org/Graphics/SVG/1.1/DTD/svg11.dtd">
<svg xmlns="http://www.w3.org/2000/svg" xmlns:xlink="http://www.w3.org/1999/xlink" version="1.1" width="17pt" height="16pt" viewBox="0 0 17 16">
<g enable-background="new">
<clipPath id="cp0">
<path transform="matrix(1,0,0,-1,0,16)" d="M 12 15.165 C 12.33388 15.165 12.61029 14.91894 12.65779 14.59827 L 12.665 14.5 L 12.665 13.666 L 13 13.665 C 14.41523 13.665 15.57281 12.56186 15.65976 11.16854 L 15.665 11 L 15.665 4 C 15.665 2.58477 14.56186 1.427194 13.16854 1.340243 L 13 1.335 L 5 1.335 C 3.58477 1.335 2.427194 2.438145 2.340243 3.831461 L 2.335 4 L 2.335 11 C 2.335 12.41523 3.438145 13.57281 4.831461 13.65976 L 5 13.665 L 5.335 13.666 L 5.335 14.5 C 5.335 14.86727 5.632731 15.165 6 15.165 C 6.333881 15.165 6.610292 14.91894 6.65779 14.59827 L 6.665 14.5 L 6.665 13.666 L 11.335 13.666 L 11.335 14.5 C 11.335 14.86727 11.63273 15.165 12 15.165 Z M 5.335 12.336 L 5 12.335 C 4.30607 12.335 3.735801 11.80555 3.671111 11.12857 L 3.665 11 L 3.665 4 C 3.665 3.30607 4.19445 2.735801 4.871431 2.671111 L 5 2.665 L 13 2.665 C 13.69393 2.665 14.2642 3.19445 14.32889 3.871431 L 14.335 4 L 14.335 11 C 14.335 11.69393 13.80555 12.2642 13.12857 12.32889 L 13 12.335 L 12.665 12.336 L 12.665 11.5 C 12.665 11.13273 12.36727 10.835 12 10.835 C 11.66612 10.835 11.38971 11.08106 11.34221 11.40173 L 11.335 11.5 L 11.335 12.336 L 6.665 12.336 L 6.665 11.5 C 6.665 11.13273 6.367269 10.835 6 10.835 C 5.666119 10.835 5.389708 11.08106 5.34221 11.40173 L 5.335 11.5 L 5.335 12.336 Z M 12 9.665 C 12.36727 9.665 12.665 9.367269 12.665 9 C 12.665 8.666119 12.41894 8.389708 12.09827 8.34221 L 12 8.335 L 6 8.335 C 5.632731 8.335 5.335 8.632731 5.335 9 C 5.335 9.333881 5.581058 9.610292 5.901731 9.65779 L 6 9.665 L 12 9.665 Z "/>
</clipPath>
<g clip-path="url(#cp0)">
<clipPath id="cp1">
<path transform="matrix(1,0,0,-1,0,16)" d="M 1 0 L 17 0 L 17 16 L 1 16 Z "/>
</clipPath>
<g clip-path="url(#cp1)">
<path transform="matrix(1,0,0,-1,0,16)" d="M -2.665 20.165 L 20.665 20.165 L 20.665 -3.665 L -2.665 -3.665 Z "/>
</g>
</g>
</g>
</svg>
