<?xml version="1.0" encoding="UTF-8" standalone="no"?>
<!DOCTYPE svg PUBLIC "-//W3C//DTD SVG 1.1//EN" "http://www.w3.org/Graphics/SVG/1.1/DTD/svg11.dtd">
<svg xmlns="http://www.w3.org/2000/svg" xmlns:xlink="http://www.w3.org/1999/xlink" version="1.1" width="16pt" height="16pt" viewBox="0 0 16 16">
<g enable-background="new">
<clipPath id="cp0">
<path transform="matrix(1,0,0,-1,0,16)" d="M 9.464258 9.396113 C 9.671542 9.188829 9.854235 8.962035 10.01049 8.719053 C 10.20915 8.410146 10.11977 7.998687 9.810862 7.800033 C 9.501955 7.60138 9.090495 7.690758 8.891842 7.999665 C 8.786844 8.162936 8.663866 8.315601 8.523806 8.455661 C 7.502429 9.477038 5.872891 9.519596 4.800834 8.583334 L 4.664258 8.455661 L 3.064258 6.855661 C 1.998473 5.789877 1.998473 4.061898 3.064258 2.996113 C 4.085635 1.974736 5.715172 1.932179 6.787229 2.868441 L 6.923806 2.996113 L 8.523806 4.596113 C 8.783504 4.855812 9.204559 4.855812 9.464258 4.596113 C 9.697986 4.362385 9.721359 3.997957 9.534376 3.738089 L 9.464258 3.655661 L 7.864258 2.055661 C 6.279076 .4704794 3.708988 .4704794 2.123806 2.055661 C .591463 3.588004 .5403849 6.040687 1.970571 7.634385 L 2.123806 7.796113 L 3.723806 9.396113 C 5.308988 10.9813 7.879076 10.9813 9.464258 9.396113 Z M 13.94336 13.87611 C 15.4757 12.34377 15.52678 9.891088 14.0966 8.29739 L 13.94336 8.135661 L 12.34336 6.535661 C 10.75818 4.950479 8.188092 4.950479 6.60291 6.535661 C 6.395625 6.742946 6.212933 6.96974 6.056675 7.212722 C 5.858021 7.521629 5.947399 7.933088 6.256306 8.131741 C 6.565213 8.330395 6.976672 8.241017 7.175325 7.93211 C 7.280323 7.768838 7.403302 7.616173 7.543362 7.476113 C 8.564739 6.454736 10.19428 6.412179 11.26633 7.348441 L 11.40291 7.476113 L 13.00291 9.076113 C 14.06869 10.1419 14.06869 11.86988 13.00291 12.93566 C 11.98153 13.95704 10.35199 13.9996 9.279938 13.06333 L 9.143362 12.93566 L 7.543362 11.33566 C 7.283663 11.07596 6.862608 11.07596 6.60291 11.33566 C 6.369181 11.56939 6.345808 11.93382 6.532791 12.19369 L 6.60291 12.27611 L 8.20291 13.87611 C 9.788092 15.4613 12.35818 15.4613 13.94336 13.87611 Z "/>
</clipPath>
<g clip-path="url(#cp0)">
<clipPath id="cp1">
<path transform="matrix(1,0,0,-1,0,16)" d="M 0 0 L 16 0 L 16 16 L 0 16 Z "/>
</clipPath>
<g clip-path="url(#cp1)">
<path transform="matrix(1,0,0,-1,0,16)" d="M -4.065081 20.065 L 20.13225 20.065 L 20.13225 -4.133225 L -4.065081 -4.133225 Z "/>
</g>
</g>
</g>
</svg>
