<?xml version="1.0" encoding="UTF-8" standalone="no"?>
<!DOCTYPE svg PUBLIC "-//W3C//DTD SVG 1.1//EN" "http://www.w3.org/Graphics/SVG/1.1/DTD/svg11.dtd">
<svg xmlns="http://www.w3.org/2000/svg" xmlns:xlink="http://www.w3.org/1999/xlink" version="1.1" width="16pt" height="16pt" viewBox="0 0 16 16">
<g enable-background="new">
<clipPath id="cp0">
<path transform="matrix(1,0,0,-1,0,16)" d="M 14.665 4 C 14.665 2.58477 13.56186 1.427194 12.16854 1.340243 L 12 1.335 L 4 1.335 C 2.58477 1.335 1.427194 2.438145 1.340243 3.831461 L 1.335 4 L 1.335 12 C 1.335 13.41523 2.438145 14.57281 3.831461 14.65976 L 4 14.665 L 8.085786 14.665 C 8.472174 14.665 8.844714 14.53069 9.140993 14.28794 L 9.263119 14.17733 L 14.17733 9.263119 C 14.45055 8.989902 14.61901 8.631508 14.65685 8.250351 L 14.665 8.085786 L 14.665 4 Z M 4 13.335 C 3.30607 13.335 2.735801 12.80555 2.671111 12.12857 L 2.665 12 L 2.665 4 C 2.665 3.30607 3.19445 2.735801 3.871431 2.671111 L 4 2.665 L 12 2.665 C 12.69393 2.665 13.2642 3.19445 13.32889 3.871431 L 13.335 4 L 13.335 7 C 13.335 7.161888 13.22017 7.296956 13.06751 7.328194 L 13 7.335 L 9 7.335 C 8.128843 7.335 7.41395 8.004043 7.341112 8.856337 L 7.335 9 L 7.335 13 C 7.335 13.16189 7.220168 13.29696 7.067514 13.32819 L 7 13.335 L 4 13.335 Z M 12.893 8.666 L 8.665 12.894 L 8.665 9 C 8.665 8.838112 8.779832 8.703044 8.932486 8.671806 L 9 8.665 L 12.893 8.666 Z "/>
</clipPath>
<g clip-path="url(#cp0)">
<clipPath id="cp1">
<path transform="matrix(1,0,0,-1,0,16)" d="M 0 0 L 16 0 L 16 16 L 0 16 Z "/>
</clipPath>
<g clip-path="url(#cp1)">
<path transform="matrix(1,0,0,-1,0,16)" d="M -3.665 19.665 L 19.665 19.665 L 19.665 -3.665 L -3.665 -3.665 Z "/>
</g>
</g>
</g>
</svg>
