<?xml version="1.0" encoding="UTF-8" standalone="no"?>
<!DOCTYPE svg PUBLIC "-//W3C//DTD SVG 1.1//EN" "http://www.w3.org/Graphics/SVG/1.1/DTD/svg11.dtd">
<svg xmlns="http://www.w3.org/2000/svg" xmlns:xlink="http://www.w3.org/1999/xlink" version="1.1" width="16pt" height="16pt" viewBox="0 0 16 16">
<g enable-background="new">
<clipPath id="cp0">
<path transform="matrix(1,0,0,-1,0,16)" d="M 12.06667 15.12877 C 12.90036 15.12877 13.58497 14.49048 13.65847 13.67592 L 13.665 13.53044 L 13.665 3.46956 C 13.665 3.100597 13.53735 2.742996 13.30371 2.457435 C 12.77761 1.814424 11.85466 1.687399 11.17831 2.140707 L 11.05454 2.232518 L 7.664 5.006773 L 7.665 3.5 C 7.665 2.304304 6.695696 1.335 5.5 1.335 C 4.35629 1.335 3.419715 2.221849 3.340436 3.345385 L 3.335 3.5 L 3.334025 5.55669 C 2.278 5.97538 1.500865 6.945957 1.358476 8.112565 L 1.34001 8.320399 L 1.335 8.5 C 1.335 10.18771 2.655978 11.56688 4.320399 11.65999 L 4.5 11.665 L 7.261 11.665 L 11.05454 14.76748 C 11.25851 14.93437 11.49924 15.04718 11.75461 15.09802 L 11.90941 15.12102 L 12.06667 15.12877 Z M 4.665 3.5 C 4.665 3.038842 5.038842 2.665 5.5 2.665 C 5.925684 2.665 6.276969 2.98354 6.328494 3.395259 L 6.335 3.5 L 6.334 5.335773 L 4.664 5.335773 L 4.665 3.5 Z M 12.06667 13.79877 C 12.02537 13.79877 11.98492 13.78925 11.94834 13.77128 L 11.89675 13.73812 L 8.093007 10.62597 C 7.901359 10.46916 7.669421 10.37164 7.425473 10.34349 L 7.277889 10.335 L 4.5 10.335 C 3.486557 10.335 2.665 9.513443 2.665 8.5 C 2.665 7.53723 3.406456 6.747635 4.349501 6.671083 L 4.5 6.665 L 7.277889 6.665 C 7.525511 6.665 7.766777 6.593609 7.97341 6.460921 L 8.093007 6.374033 L 11.89675 3.261881 C 12.01145 3.168038 12.1805 3.184943 12.27435 3.299641 C 12.30049 3.331602 12.31874 3.368938 12.32799 3.40863 L 12.335 3.46956 L 12.335 13.53044 C 12.335 13.67864 12.21486 13.79877 12.06667 13.79877 Z " fill-rule="evenodd"/>
</clipPath>
<g clip-path="url(#cp0)">
<path transform="matrix(1,0,0,-1,0,16)" d="M -3.665 20.12877 L 18.665 20.12877 L 18.665 -3.665 L -3.665 -3.665 Z "/>
</g>
</g>
</svg>
