<?xml version="1.0" encoding="UTF-8" standalone="no"?>
<!DOCTYPE svg PUBLIC "-//W3C//DTD SVG 1.1//EN" "http://www.w3.org/Graphics/SVG/1.1/DTD/svg11.dtd">
<svg xmlns="http://www.w3.org/2000/svg" xmlns:xlink="http://www.w3.org/1999/xlink" version="1.1" width="30pt" height="30pt" viewBox="0 0 30 30">
<g enable-background="new">
<clipPath id="cp0">
<path transform="matrix(1,0,0,-1,0,30)" d="M 13.5 24.665 C 18.0094 24.665 21.665 21.0094 21.665 16.5 C 21.665 14.54407 20.97726 12.74877 19.8304 11.34273 L 25.0869 6.086899 C 25.41103 5.762763 25.41103 5.237237 25.0869 4.913101 C 24.76276 4.588966 24.23724 4.588966 23.9131 4.913101 L 18.65727 10.1696 C 17.25123 9.022744 15.45593 8.335 13.5 8.335 C 8.990595 8.335 5.335 11.9906 5.335 16.5 C 5.335 21.0094 8.990595 24.665 13.5 24.665 Z M 13.5 23.335 C 9.725134 23.335 6.665 20.27487 6.665 16.5 C 6.665 12.72513 9.725134 9.665 13.5 9.665 C 17.27487 9.665 20.335 12.72513 20.335 16.5 C 20.335 20.27487 17.27487 23.335 13.5 23.335 Z "/>
</clipPath>
<g clip-path="url(#cp0)">
<path transform="matrix(1,0,0,-1,0,30)" d="M .335 29.665 L 30.33 29.665 L 30.33 -.33 L .335 -.33 Z "/>
</g>
</g>
</svg>
