<?xml version="1.0" encoding="UTF-8" standalone="no"?>
<!DOCTYPE svg PUBLIC "-//W3C//DTD SVG 1.1//EN" "http://www.w3.org/Graphics/SVG/1.1/DTD/svg11.dtd">
<svg xmlns="http://www.w3.org/2000/svg" xmlns:xlink="http://www.w3.org/1999/xlink" version="1.1" width="30pt" height="30pt" viewBox="0 0 30 30">
<g enable-background="new">
<clipPath id="cp0">
<path transform="matrix(1,0,0,-1,0,30)" d="M 15 26.83 C 21.53353 26.83 26.83 21.53353 26.83 15 C 26.83 8.466471 21.53353 3.17 15 3.17 C 8.466471 3.17 3.17 8.466471 3.17 15 C 3.17 21.53353 8.466471 26.83 15 26.83 Z M 15 25.17 C 9.383264 25.17 4.83 20.61674 4.83 15 C 4.83 9.383264 9.383264 4.83 15 4.83 C 20.61674 4.83 25.17 9.383264 25.17 15 C 25.17 20.61674 20.61674 25.17 15 25.17 Z M 15 20.83 C 15.42314 20.83 15.77232 20.51337 15.82353 20.10411 L 15.83 20 L 15.829 15.831 L 20 15.83 C 20.4584 15.83 20.83 15.4584 20.83 15 C 20.83 14.57686 20.51337 14.22768 20.10411 14.17647 L 20 14.17 L 15.829 14.171 L 15.83 10 C 15.83 9.541604 15.4584 9.17 15 9.17 C 14.57686 9.17 14.22768 9.486633 14.17647 9.895887 L 14.17 10 L 14.169 14.171 L 10 14.17 C 9.541604 14.17 9.17 14.5416 9.17 15 C 9.17 15.42314 9.486633 15.77232 9.895887 15.82353 L 10 15.83 L 14.169 15.831 L 14.17 20 C 14.17 20.4584 14.5416 20.83 15 20.83 Z "/>
</clipPath>
<g clip-path="url(#cp0)">
<path transform="matrix(1,0,0,-1,0,30)" d="M -1.83 31.83 L 31.83 31.83 L 31.83 -1.83 L -1.83 -1.83 Z "/>
</g>
</g>
</svg>
