<?xml version="1.0" encoding="UTF-8" standalone="no"?>
<!DOCTYPE svg PUBLIC "-//W3C//DTD SVG 1.1//EN" "http://www.w3.org/Graphics/SVG/1.1/DTD/svg11.dtd">
<svg xmlns="http://www.w3.org/2000/svg" xmlns:xlink="http://www.w3.org/1999/xlink" version="1.1" width="30pt" height="30pt" viewBox="0 0 30 30">
<g enable-background="new">
<clipPath id="cp0">
<path transform="matrix(1,0,0,-1,0,30)" d="M 15 26.83 C 21.53353 26.83 26.83 21.53353 26.83 15 C 26.83 8.466471 21.53353 3.17 15 3.17 C 8.466471 3.17 3.17 8.466471 3.17 15 C 3.17 21.53353 8.466471 26.83 15 26.83 Z M 15 25.17 C 9.383264 25.17 4.83 20.61674 4.83 15 C 4.83 9.383264 9.383264 4.83 15 4.83 C 20.61674 4.83 25.17 9.383264 25.17 15 C 25.17 20.61674 20.61674 25.17 15 25.17 Z M 21.5 18.25 C 21.91421 18.25 22.25 17.91421 22.25 17.5 C 22.25 17.1203 21.96785 16.80651 21.60177 16.75685 L 21.5 16.75 L 19.75 16.75 L 19.749 15.751 L 21.5 15.75 C 21.91421 15.75 22.25 15.41421 22.25 15 C 22.25 14.6203 21.96785 14.30651 21.60177 14.25685 L 21.5 14.25 L 19.749 14.251 L 19.75 12.5 C 19.75 12.1203 19.46785 11.80651 19.10177 11.75685 L 19 11.75 C 18.6203 11.75 18.30651 12.03215 18.25685 12.39823 L 18.25 12.5 L 18.25 17 C 18.25 17.64721 18.74187 18.17953 19.37219 18.24355 L 19.5 18.25 L 21.5 18.25 Z M 16 18.25 C 16.3797 18.25 16.69349 17.96785 16.74315 17.60177 L 16.75 17.5 L 16.75 12.5 C 16.75 12.08579 16.41421 11.75 16 11.75 C 15.6203 11.75 15.30651 12.03215 15.25685 12.39823 L 15.25 12.5 L 15.25 17.5 C 15.25 17.91421 15.58579 18.25 16 18.25 Z M 11 18.25 C 11.52836 18.25 12.04013 18.12322 12.49959 17.88394 C 12.86697 17.69261 13.00968 17.23969 12.81835 16.87231 C 12.62702 16.50493 12.1741 16.36222 11.80672 16.55354 C 11.55997 16.68205 11.28569 16.75 11 16.75 C 10.0335 16.75 9.25 15.9665 9.25 15 C 9.25 14.0335 10.0335 13.25 11 13.25 C 11.63474 13.25 12.19273 13.61115 12.41535 14.14258 L 12.453 14.25 L 12 14.25 C 11.6203 14.25 11.30651 14.53215 11.25685 14.89823 L 11.25 15 C 11.25 15.3797 11.53215 15.69349 11.89823 15.74315 L 12 15.75 L 13.04022 15.74768 L 13.06543 15.74583 C 13.60453 15.69767 14.01191 15.25014 14.02188 14.72107 L 14.01784 14.60657 L 13.97718 14.1925 C 13.69682 12.71719 12.42912 11.75 11 11.75 C 9.205075 11.75 7.75 13.20507 7.75 15 C 7.75 16.79493 9.205075 18.25 11 18.25 Z "/>
</clipPath>
<g clip-path="url(#cp0)">
<path transform="matrix(1,0,0,-1,0,30)" d="M -1.83 31.83 L 31.83 31.83 L 31.83 -1.83 L -1.83 -1.83 Z "/>
</g>
</g>
</svg>
