<?xml version="1.0" encoding="UTF-8" standalone="no"?>
<!DOCTYPE svg PUBLIC "-//W3C//DTD SVG 1.1//EN" "http://www.w3.org/Graphics/SVG/1.1/DTD/svg11.dtd">
<svg xmlns="http://www.w3.org/2000/svg" xmlns:xlink="http://www.w3.org/1999/xlink" version="1.1" width="30pt" height="30pt" viewBox="0 0 30 30">
<g enable-background="new">
<clipPath id="cp0">
<path transform="matrix(1,0,0,-1,0,30)" d="M 15 26.83 C 21.53353 26.83 26.83 21.53353 26.83 15 C 26.83 8.466471 21.53353 3.17 15 3.17 C 8.466471 3.17 3.17 8.466471 3.17 15 C 3.17 21.53353 8.466471 26.83 15 26.83 Z M 15 25.17 C 9.383264 25.17 4.83 20.61674 4.83 15 C 4.83 9.383264 9.383264 4.83 15 4.83 C 20.61674 4.83 25.17 9.383264 25.17 15 C 25.17 20.61674 20.61674 25.17 15 25.17 Z M 15 21.83 C 15.42314 21.83 15.77232 21.51337 15.82353 21.10411 L 15.83 21 L 15.83 15.376 L 19.54656 12.12464 C 19.86279 11.84794 19.91852 11.38427 19.6931 11.04319 L 19.62464 10.95344 C 19.34794 10.63721 18.88427 10.58148 18.54319 10.8069 L 18.45344 10.87536 L 14.45344 14.37536 C 14.30334 14.5067 14.20657 14.68671 14.17849 14.88157 L 14.17 15 L 14.17 21 C 14.17 21.4584 14.5416 21.83 15 21.83 Z "/>
</clipPath>
<g clip-path="url(#cp0)">
<path transform="matrix(1,0,0,-1,0,30)" d="M -1.83 31.83 L 31.83 31.83 L 31.83 -1.83 L -1.83 -1.83 Z "/>
</g>
</g>
</svg>
