<?xml version="1.0" encoding="UTF-8" standalone="no"?>
<!DOCTYPE svg PUBLIC "-//W3C//DTD SVG 1.1//EN" "http://www.w3.org/Graphics/SVG/1.1/DTD/svg11.dtd">
<svg xmlns="http://www.w3.org/2000/svg" xmlns:xlink="http://www.w3.org/1999/xlink" version="1.1" width="30pt" height="30pt" viewBox="0 0 30 30">
<g enable-background="new">
<clipPath id="cp0">
<path transform="matrix(1,0,0,-1,0,30)" d="M 12.89192 26.63744 C 13.57683 26.75379 14.27891 26.649 14.90387 26.33778 L 15.1092 26.22641 L 15.28353 26.12091 C 16.53107 25.34635 18.24372 23.88435 20.44473 21.72335 L 21.0869 21.0869 L 21.41049 20.76187 C 23.85473 18.29558 25.45685 16.41746 26.23334 15.09328 C 26.58423 14.49488 26.73502 13.80235 26.66671 13.11208 L 26.6358 12.88221 L 26.58134 12.58302 L 26.53785 12.37586 L 26.46825 12.08567 C 25.15251 6.889356 20.4536 3.17 15 3.17 C 8.466471 3.17 3.17 8.466471 3.17 15 C 3.17 20.45541 6.891795 25.15543 12.09042 26.46936 L 12.53138 26.57101 L 12.89192 26.63744 Z M 10.79623 24.24736 L 10.69633 24.20906 L 10.46416 24.09994 C 7.089679 22.42373 4.83 18.94085 4.83 15 C 4.83 9.383264 9.383264 4.83 15 4.83 C 18.94033 4.83 22.42292 7.089095 24.10505 10.46101 L 24.09994 10.46416 L 24.20906 10.69633 C 24.25422 10.79242 24.27764 10.89729 24.27764 11.00347 C 24.27764 11.36903 24.00599 11.67115 23.65354 11.71896 L 23.55556 11.72556 L 22.33333 11.72556 C 16.57086 11.72556 11.88157 16.32038 11.72937 22.04612 L 11.72556 22.33333 L 11.72556 23.55556 C 11.72556 23.66173 11.70214 23.76661 11.65697 23.8627 C 11.50276 24.19081 11.13329 24.3488 10.79623 24.24736 Z M 14.25884 24.80079 C 13.9308 24.99375 13.54514 25.06462 13.16993 25.00088 L 13.04606 24.97925 L 12.93066 24.95639 C 13.01738 24.83681 13.09417 24.70741 13.15931 24.5688 C 13.27851 24.3152 13.35179 24.04306 13.37633 23.76501 L 13.38556 23.55556 L 13.38556 22.33333 C 13.38556 17.47986 17.24982 13.52893 22.06951 13.38937 L 22.33333 13.38556 L 23.55556 13.38556 C 24.0794 13.38556 24.56376 13.21646 24.95701 12.92988 L 25.00025 13.16602 C 25.06402 13.54065 24.9936 13.92577 24.80137 14.25359 C 24.14192 15.37819 22.71255 17.068 20.52769 19.29303 L 19.9131 19.9131 L 19.59958 20.22526 C 17.42813 22.3776 15.74482 23.84157 14.57918 24.60175 L 14.41619 24.70556 L 14.25884 24.80079 Z "/>
</clipPath>
<g clip-path="url(#cp0)">
<path transform="matrix(1,0,0,-1,0,30)" d="M -1.83 31.68362 L 31.68275 31.68362 L 31.68275 -1.83 L -1.83 -1.83 Z "/>
</g>
</g>
</svg>
