<?xml version="1.0" encoding="UTF-8" standalone="no"?>
<!DOCTYPE svg PUBLIC "-//W3C//DTD SVG 1.1//EN" "http://www.w3.org/Graphics/SVG/1.1/DTD/svg11.dtd">
<svg xmlns="http://www.w3.org/2000/svg" xmlns:xlink="http://www.w3.org/1999/xlink" version="1.1" width="30pt" height="30pt" viewBox="0 0 30 30">
<g enable-background="new">
<clipPath id="cp0">
<path transform="matrix(1,0,0,-1,0,30)" d="M 22.68551 23.9941 C 23.03371 23.69596 23.07429 23.172 22.77615 22.82381 C 22.47801 22.47561 21.95405 22.43503 21.60585 22.73317 C 17.58927 26.17235 11.57062 25.95315 7.80871 22.19124 C 3.837078 18.21961 3.837078 11.78032 7.80871 7.808689 C 11.78034 3.837057 18.21963 3.837057 22.19126 7.808689 C 23.2504 8.867825 24.04727 10.12219 24.55042 11.49684 C 24.62481 11.70009 24.69265 11.90565 24.75386 12.11319 C 24.88352 12.55286 25.34507 12.80417 25.78474 12.67451 C 26.22442 12.54484 26.47573 12.0833 26.34606 11.64362 C 26.27483 11.40209 26.19587 11.16286 26.10928 10.92627 C 25.52359 9.326086 24.59576 7.865595 23.36506 6.634892 C 18.74516 2.01499 11.25481 2.01499 6.634912 6.634892 C 2.01501 11.25479 2.01501 18.74514 6.634912 23.36504 C 11.01109 27.74122 18.01153 27.99617 22.68551 23.9941 Z M 25.5 20.99667 C 25.92314 20.99667 26.27232 20.68003 26.32353 20.27078 L 26.33 20.16667 L 26.33 15.16667 C 26.33 14.70827 25.9584 14.33667 25.5 14.33667 C 25.07686 14.33667 24.72768 14.6533 24.67647 15.06255 L 24.67 15.16667 L 24.66999 17.99715 L 19.5583 12.88451 C 19.01035 12.33655 18.14322 12.3023 17.55537 12.78176 L 17.4417 12.88451 L 14.499 15.827 L 9.586899 10.9131 C 9.289775 10.61598 8.823426 10.59122 8.498098 10.83882 L 8.413101 10.9131 C 8.115977 11.21023 8.091217 11.67657 8.33882 12.0019 L 8.413101 12.0869 L 13.4417 17.11549 C 13.98965 17.66345 14.85678 17.6977 15.44463 17.21824 L 15.5583 17.11549 L 18.5 14.174 L 23.66299 19.33715 L 20.5 19.33667 C 20.07686 19.33667 19.72768 19.6533 19.67647 20.06255 L 19.67 20.16667 C 19.67 20.5898 19.98663 20.93898 20.39589 20.9902 L 20.5 20.99667 L 25.5 20.99667 Z "/>
</clipPath>
<g clip-path="url(#cp0)">
<path transform="matrix(1,0,0,-1,0,30)" d="M -1.830014 31.83015 L 31.38017 31.83015 L 31.38017 -1.830035 L -1.830014 -1.830035 Z "/>
</g>
</g>
</svg>
