<?xml version="1.0" encoding="UTF-8" standalone="no"?>
<!DOCTYPE svg PUBLIC "-//W3C//DTD SVG 1.1//EN" "http://www.w3.org/Graphics/SVG/1.1/DTD/svg11.dtd">
<svg xmlns="http://www.w3.org/2000/svg" xmlns:xlink="http://www.w3.org/1999/xlink" version="1.1" width="20pt" height="20pt" viewBox="0 0 20 20">
<g enable-background="new">
<clipPath id="cp0">
<path transform="matrix(1,0,0,-1,0,20)" d="M 5.994 20 L 13.986 20 C 17.2964 20 19.98 17.31639 19.98 14.006 L 19.98 6.014 C 19.98 2.703605 17.2964 .01999974 13.986 .01999974 L 5.994 .01999974 C 2.683605 .01999974 0 2.703605 0 6.014 L 0 14.006 C 0 17.31639 2.683605 20 5.994 20 Z " fill-rule="evenodd"/>
</clipPath>
<g clip-path="url(#cp0)">
<path transform="matrix(.333,0,0,.333,0,0)" stroke-width="10" stroke-linecap="butt" stroke-miterlimit="10" stroke-linejoin="miter" fill="none" stroke="#000000" d="M 18 0 L 42 0 C 51.94113 0 60 8.058875 60 18 L 60 42 C 60 51.94113 51.94113 60 42 60 L 18 60 C 8.058875 60 0 51.94113 0 42 L 0 18 C 0 8.058875 8.058875 0 18 0 Z "/>
</g>
<clipPath id="cp1">
<path transform="matrix(1,0,0,-1,0,20)" d="M 6.8265 10.676 C 5.447169 10.676 4.329 11.79417 4.329 13.1735 C 4.329 14.55283 5.447169 15.671 6.8265 15.671 C 8.205831 15.671 9.324 14.55283 9.324 13.1735 C 9.324 11.79417 8.205831 10.676 6.8265 10.676 Z M 13.1535 10.676 C 11.77417 10.676 10.656 11.79417 10.656 13.1735 C 10.656 14.55283 11.77417 15.671 13.1535 15.671 C 14.53283 15.671 15.651 14.55283 15.651 13.1735 C 15.651 11.79417 14.53283 10.676 13.1535 10.676 Z M 6.8265 4.349 C 5.447169 4.349 4.329 5.467169 4.329 6.8465 C 4.329 8.225831 5.447169 9.344 6.8265 9.344 C 8.205831 9.344 9.324 8.225831 9.324 6.8465 C 9.324 5.467169 8.205831 4.349 6.8265 4.349 Z M 13.1535 4.349 C 11.77417 4.349 10.656 5.467169 10.656 6.8465 C 10.656 8.225831 11.77417 9.344 13.1535 9.344 C 14.53283 9.344 15.651 8.225831 15.651 6.8465 C 15.651 5.467169 14.53283 4.349 13.1535 4.349 Z " fill-rule="evenodd"/>
</clipPath>
<g clip-path="url(#cp1)">
<path transform="matrix(.333,0,0,.333,4.329,4.3290007)" stroke-width="9" stroke-linecap="butt" stroke-miterlimit="10" stroke-linejoin="miter" fill="none" stroke="#000000" d="M 7.5 15 C 3.357864 15 0 11.64214 0 7.5 C 0 3.357864 3.357864 0 7.5 0 C 11.64214 0 15 3.357864 15 7.5 C 15 11.64214 11.64214 15 7.5 15 Z M 26.5 15 C 22.35786 15 19 11.64214 19 7.5 C 19 3.357864 22.35786 0 26.5 0 C 30.64214 0 34 3.357864 34 7.5 C 34 11.64214 30.64214 15 26.5 15 Z M 7.5 34 C 3.357864 34 0 30.64214 0 26.5 C 0 22.35786 3.357864 19 7.5 19 C 11.64214 19 15 22.35786 15 26.5 C 15 30.64214 11.64214 34 7.5 34 Z M 26.5 34 C 22.35786 34 19 30.64214 19 26.5 C 19 22.35786 22.35786 19 26.5 19 C 30.64214 19 34 22.35786 34 26.5 C 34 30.64214 30.64214 34 26.5 34 Z "/>
</g>
</g>
</svg>
