<?xml version="1.0" encoding="UTF-8" standalone="no"?>
<!DOCTYPE svg PUBLIC "-//W3C//DTD SVG 1.1//EN" "http://www.w3.org/Graphics/SVG/1.1/DTD/svg11.dtd">
<svg xmlns="http://www.w3.org/2000/svg" xmlns:xlink="http://www.w3.org/1999/xlink" version="1.1" width="19pt" height="20pt" viewBox="0 0 19 20">
<g enable-background="new">
<clipPath id="cp0">
<path transform="matrix(1,0,0,-1,0,20)" d="M 3.225044 14.83392 L 4.653966 13.37854 C 4.651382 13.31765 4.649903 13.25647 4.649549 13.19501 C 4.643925 12.21828 4.628172 11.48263 4.601322 10.97687 C 4.637344 9.340351 4.037835 7.527287 2.856682 5.503672 C 2.826601 5.452135 2.810725 5.393289 2.810725 5.333333 C 2.810725 5.149238 2.957249 5 3.138 5 L 12.88017 5 L 14.51653 3.333333 L 3.138 3.333333 C 2.053512 3.333331 1.174361 4.228763 1.174361 5.333333 C 1.174361 5.693066 1.269621 6.04614 1.450107 6.355357 C 2.504666 8.162085 3.009176 9.7103 2.963636 11 C 2.990936 11.4708 3.007461 12.20573 3.013214 13.20479 C 3.016455 13.76775 3.089892 14.31366 3.225044 14.83392 Z M 5.961334 18.64662 C 6.952894 19.29244 8.131208 19.66667 9.394922 19.66667 L 9.614184 19.66667 C 13.12165 19.66667 15.97175 16.78367 15.99585 13.21134 C 16.00262 12.20894 16.02218 11.47183 16.05455 11 C 16.01152 9.96997 16.32284 8.775046 16.98852 7.415227 L 14.46523 9.985243 C 14.42441 10.32145 14.40797 10.65063 14.41635 10.97303 C 14.38462 11.48551 14.36612 12.22348 14.35953 13.19988 C 14.3416 15.85623 12.2223 18 9.614184 18 L 9.394922 18 C 8.585573 18 7.823333 17.79357 7.156355 17.42947 L 5.961334 18.64662 Z "/>
</clipPath>
<g clip-path="url(#cp0)">
<path transform="matrix(1,0,0,-1,0,20)" d="M -3.825639 -1.666667 L 21.98852 -1.666667 L 21.98852 24.666665 L -3.825639 24.666665 Z "/>
</g>
<clipPath id="cp1">
<path transform="matrix(1,0,0,-1,0,20)" d="M 6.720257 2 L 12.29792 2 C 11.87408 .8509714 10.78534 .03333333 9.509091 .03333333 C 8.232847 .03333333 7.1441 .8509714 6.720257 2 Z " fill-rule="evenodd"/>
</clipPath>
<g clip-path="url(#cp1)">
<path transform="matrix(1,0,0,-1,0,20)" d="M 1.720257 -4.966667 L 17.297928 -4.966667 L 17.297928 7.000003 L 1.720257 7.000003 Z "/>
</g>
<clipPath id="cp2">
<path transform="matrix(1,0,0,-1,0,20)" d="M 1.697822 18.51074 L 17.43964 2.477411 C 17.75916 2.151974 18.2772 2.151974 18.59672 2.477411 C 18.91624 2.802848 18.91624 3.330485 18.59672 3.655922 L 2.854906 19.68926 C 2.535386 20.01469 2.017342 20.01469 1.697822 19.68926 C 1.378302 19.36382 1.378302 18.83618 1.697822 18.51074 Z "/>
</clipPath>
<g clip-path="url(#cp2)">
<path transform="matrix(1,0,0,-1,0,20)" d="M -3.541818 -2.766667 L 23.83636 -2.766667 L 23.83636 24.933335 L -3.541818 24.933335 Z "/>
</g>
</g>
</svg>
