<?xml version="1.0" encoding="UTF-8" standalone="no"?>
<!DOCTYPE svg PUBLIC "-//W3C//DTD SVG 1.1//EN" "http://www.w3.org/Graphics/SVG/1.1/DTD/svg11.dtd">
<svg xmlns="http://www.w3.org/2000/svg" xmlns:xlink="http://www.w3.org/1999/xlink" version="1.1" width="19pt" height="20pt" viewBox="0 0 19 20">
<g enable-background="new">
<clipPath id="cp0">
<path transform="matrix(1,0,0,-1,0,20)" d="M 2.854699 5.417106 C 2.82465 5.367317 2.80879 5.310466 2.80879 5.252542 C 2.80879 5.074687 2.955158 4.930508 3.135715 4.930508 L 15.85575 4.930508 C 15.91467 4.930508 15.97248 4.94619 16.02309 4.975894 C 16.1782 5.066931 16.22902 5.264591 16.1366 5.41738 C 14.95614 7.368932 14.35953 9.119416 14.40202 10.70106 C 14.37032 11.19617 14.35184 11.90912 14.34525 12.85243 C 14.32735 15.41874 12.21031 17.48983 9.604981 17.48983 L 9.385953 17.48983 C 6.778761 17.48983 4.66094 15.41588 4.64565 12.84772 C 4.640032 11.9041 4.624295 11.19339 4.597474 10.70477 C 4.633457 9.123729 4.03459 7.372125 2.854699 5.417106 Z M 2.961538 10.72712 C 2.988809 11.18196 3.005317 11.89198 3.011063 12.85717 C 3.031625 16.31089 5.879729 19.1 9.385953 19.1 L 9.604981 19.1 C 13.1087 19.1 15.95575 16.31473 15.97983 12.8635 C 15.98659 11.89508 16.00613 11.18296 16.03846 10.72712 C 15.98466 9.481529 16.48546 7.986345 17.54085 6.241568 C 18.09536 5.324835 17.79045 4.138875 16.85979 3.592651 C 16.55614 3.414426 16.20923 3.320339 15.85575 3.320339 L 3.135715 3.320339 C 2.052386 3.320337 1.174175 4.185415 1.174175 5.252542 C 1.174175 5.600081 1.269333 5.941186 1.449626 6.239921 C 2.503058 7.985404 3.007029 9.481137 2.961538 10.72712 Z "/>
</clipPath>
<g clip-path="url(#cp0)">
<path transform="matrix(1,0,0,-1,0,20)" d="M -3.825825 -1.679661 L 22.817595 -1.679661 L 22.817595 24.099999 L -3.825825 24.099999 Z "/>
</g>
<clipPath id="cp1">
<path transform="matrix(1,0,0,-1,0,20)" d="M 6.714146 2.032203 L 12.28585 2.032203 C 11.86246 .9221249 10.77488 .1322034 9.5 .1322034 C 8.225119 .1322034 7.137536 .9221249 6.714146 2.032203 Z " fill-rule="evenodd"/>
</clipPath>
<g clip-path="url(#cp1)">
<path transform="matrix(1,0,0,-1,0,20)" d="M 1.714146 -4.867797 L 17.285857 -4.867797 L 17.285857 7.0322029 L 1.714146 7.0322029 Z "/>
</g>
</g>
</svg>
