<?xml version="1.0" encoding="UTF-8" standalone="no"?>
<!DOCTYPE svg PUBLIC "-//W3C//DTD SVG 1.1//EN" "http://www.w3.org/Graphics/SVG/1.1/DTD/svg11.dtd">
<svg xmlns="http://www.w3.org/2000/svg" xmlns:xlink="http://www.w3.org/1999/xlink" version="1.1" width="30pt" height="30pt" viewBox="0 0 30 30">
<g enable-background="new">
<clipPath id="cp0">
<path transform="matrix(1,0,0,-1,0,30)" d="M 7 11.665 C 7.367269 11.665 7.665 11.36727 7.665 11 L 7.665 7.665 L 11 7.665 C 11.36727 7.665 11.665 7.367269 11.665 7 C 11.665 6.666119 11.41894 6.389708 11.09827 6.34221 L 11 6.335 L 7.665 6.335 L 7.665 3 C 7.665 2.666119 7.418942 2.389708 7.098269 2.34221 L 7 2.335 C 6.632731 2.335 6.335 2.632731 6.335 3 L 6.335 6.335 L 3 6.335 C 2.632731 6.335 2.335 6.632731 2.335 7 C 2.335 7.333881 2.581058 7.610292 2.901731 7.65779 L 3 7.665 L 6.335 7.665 L 6.335 11 C 6.335 11.33388 6.581058 11.61029 6.901731 11.65779 L 7 11.665 Z M 15 15.665 C 19.8296 15.665 22.88722 13.60405 23.99578 9.544066 C 24.36531 8.190798 23.56781 6.794206 22.21454 6.424699 C 22.06918 6.38501 21.92073 6.358374 21.77094 6.345026 L 21.54549 6.335 L 14 6.335 C 13.63273 6.335 13.335 6.632731 13.335 7 C 13.335 7.333881 13.58106 7.610292 13.90173 7.65779 L 14 7.665 L 21.54549 7.665 C 21.65315 7.665 21.76034 7.679371 21.86421 7.707731 C 22.50888 7.883756 22.88879 8.54906 22.71275 9.193731 C 21.77125 12.64188 19.25935 14.335 15 14.335 C 12.52039 14.335 10.6346 13.75454 9.31615 12.61366 C 9.038423 12.37334 8.618462 12.40366 8.37814 12.68139 C 8.137818 12.95912 8.168141 13.37908 8.445868 13.6194 C 10.02958 14.98981 12.22311 15.665 15 15.665 Z M 15 26.665 C 17.57641 26.665 19.665 24.57641 19.665 22 C 19.665 19.42359 17.57641 17.335 15 17.335 C 12.42359 17.335 10.335 19.42359 10.335 22 C 10.335 24.57641 12.42359 26.665 15 26.665 Z M 15 25.335 C 13.15813 25.335 11.665 23.84187 11.665 22 C 11.665 20.15813 13.15813 18.665 15 18.665 C 16.84187 18.665 18.335 20.15813 18.335 22 C 18.335 23.84187 16.84187 25.335 15 25.335 Z "/>
</clipPath>
<g clip-path="url(#cp0)">
<path transform="matrix(1,0,0,-1,0,30)" d="M -2.665 31.665 L 29.08613 31.665 L 29.08613 -2.665 L -2.665 -2.665 Z "/>
</g>
</g>
</svg>
