<?xml version="1.0" encoding="UTF-8" standalone="no"?>
<!DOCTYPE svg PUBLIC "-//W3C//DTD SVG 1.1//EN" "http://www.w3.org/Graphics/SVG/1.1/DTD/svg11.dtd">
<svg xmlns="http://www.w3.org/2000/svg" xmlns:xlink="http://www.w3.org/1999/xlink" version="1.1" width="30pt" height="30pt" viewBox="0 0 30 30">
<g enable-background="new">
<clipPath id="cp0">
<path transform="matrix(1,0,0,-1,0,30)" d="M 18.5 25.98653 C 19.64371 25.98653 20.58028 25.09968 20.65956 23.97614 L 20.665 23.82153 L 20.665 8.178475 C 20.665 7.676326 20.49045 7.189793 20.17123 6.802169 C 19.44731 5.923127 18.17526 5.761502 17.25844 6.404717 L 17.12369 6.507246 L 11.664 11.00453 L 11.665 8.5 C 11.665 7.08477 10.56186 5.927194 9.168539 5.840243 L 9 5.835 C 7.58477 5.835 6.427194 6.938145 6.340243 8.331461 L 6.335 8.5 L 6.33471 11.38208 C 4.073433 11.70496 2.335 13.64946 2.335 16 C 2.335 18.50484 4.30917 20.54859 6.786463 20.6602 L 7 20.665 L 11.14123 20.665 C 11.19303 20.665 11.24376 20.677 11.28959 20.69964 L 11.3542 20.7414 L 17.12369 25.49275 C 17.51132 25.81197 17.99785 25.98653 18.5 25.98653 Z M 10.334 11.33553 L 7.664 11.33553 L 7.665 8.5 C 7.665 7.7627 8.2627 7.165 9 7.165 C 9.69393 7.165 10.2642 7.69445 10.32889 8.371431 L 10.335 8.5 L 10.334 11.33553 Z M 18.5 24.65653 C 18.34506 24.65653 18.19398 24.61344 18.0632 24.53317 L 17.96918 24.46609 L 12.19969 19.71474 C 11.94417 19.50431 11.63277 19.37562 11.30582 19.34315 L 11.14123 19.335 L 7 19.335 C 5.15813 19.335 3.665 17.84187 3.665 16 C 3.665 14.21953 5.060247 12.76493 6.817018 12.66993 L 7 12.665 L 11.14123 12.665 C 11.47225 12.665 11.79443 12.56638 12.06746 12.3836 L 12.19969 12.28526 L 17.96918 7.533913 C 18.32517 7.240752 18.8514 7.291678 19.14456 7.647659 C 19.24306 7.767259 19.30584 7.911273 19.32701 8.063253 L 19.335 8.178475 L 19.335 23.82153 C 19.335 24.28268 18.96116 24.65653 18.5 24.65653 Z M 22.38877 12.26196 C 22.53344 12.59953 22.92438 12.75591 23.26196 12.61123 L 26.76196 11.11123 C 27.09953 10.96656 27.25591 10.57562 27.11123 10.23804 C 26.96656 9.90047 26.57562 9.744094 26.23804 9.888769 L 22.73804 11.38877 C 22.40047 11.53344 22.24409 11.92438 22.38877 12.26196 Z M 27 16.665 C 27.36727 16.665 27.665 16.36727 27.665 16 C 27.665 15.66612 27.41894 15.38971 27.09827 15.34221 L 27 15.335 L 23 15.335 C 22.63273 15.335 22.335 15.63273 22.335 16 C 22.335 16.33388 22.58106 16.61029 22.90173 16.65779 L 23 16.665 L 27 16.665 Z M 27.11123 21.76196 C 27.24275 21.45507 27.12547 21.10408 26.84944 20.93411 L 26.76196 20.88877 L 23.26196 19.38877 C 22.92438 19.24409 22.53344 19.40047 22.38877 19.73804 C 22.25725 20.04493 22.37453 20.39592 22.65056 20.56589 L 22.73804 20.61123 L 26.23804 22.11123 C 26.57562 22.25591 26.96656 22.09953 27.11123 21.76196 Z "/>
</clipPath>
<g clip-path="url(#cp0)">
<path transform="matrix(1,0,0,-1,0,30)" d="M -2.665 30.98653 L 32.665 30.98653 L 32.665 .835 L -2.665 .835 Z "/>
</g>
</g>
</svg>
