<?xml version="1.0" encoding="UTF-8" standalone="no"?>
<!DOCTYPE svg PUBLIC "-//W3C//DTD SVG 1.1//EN" "http://www.w3.org/Graphics/SVG/1.1/DTD/svg11.dtd">
<svg xmlns="http://www.w3.org/2000/svg" xmlns:xlink="http://www.w3.org/1999/xlink" version="1.1" width="30pt" height="30pt" viewBox="0 0 30 30">
<g enable-background="new">
<clipPath id="cp0">
<path transform="matrix(1,0,0,-1,0,30)" d="M 18.5 15.665 C 23.24435 15.665 26.23189 13.56288 27.28517 9.436339 C 27.62476 8.105787 26.82145 6.751856 25.49091 6.412241 C 25.28995 6.360948 25.08337 6.335 24.87598 6.335 L 12.124 6.335 C 10.75079 6.335 9.637598 7.448228 9.637598 8.821429 C 9.637598 9.028825 9.663547 9.235406 9.714839 9.436359 C 10.76812 13.56289 13.75565 15.665 18.5 15.665 Z M 18.5 14.335 C 14.33936 14.335 11.89968 12.61837 11.00352 9.107428 C 10.97967 9.013966 10.9676 8.917887 10.9676 8.821429 C 10.9676 8.18276 11.48534 7.665 12.12401 7.665 L 24.87598 7.665 C 24.97243 7.665 25.06851 7.677068 25.16198 7.700924 C 25.78081 7.858877 26.15442 8.488588 25.99648 9.107418 C 25.10033 12.61837 22.66065 14.335 18.5 14.335 Z M 9 15.665 C 9.512472 15.665 10.00017 15.63829 10.46315 15.58464 C 10.82798 15.54236 11.08946 15.21234 11.04718 14.84751 C 11.0049 14.48268 10.67488 14.2212 10.31005 14.26348 C 9.899263 14.31108 9.462558 14.335 9 14.335 C 5.78661 14.335 3.860291 13.20242 3.06005 10.9187 C 3.024965 10.81857 3.007044 10.71324 3.007044 10.60714 C 3.007044 10.08682 3.428853 9.665 3.949165 9.665 L 7.5 9.665 C 7.867269 9.665 8.165 9.367269 8.165 9 C 8.165 8.632731 7.867269 8.335 7.5 8.335 L 3.949165 8.335 C 2.694308 8.335 1.677044 9.352284 1.677044 10.60714 C 1.677044 10.86301 1.720264 11.11705 1.80488 11.35852 C 2.808736 14.22332 5.260774 15.665 9 15.665 Z M 18.5 25.665 C 20.80027 25.665 22.665 23.80027 22.665 21.5 C 22.665 19.19973 20.80027 17.335 18.5 17.335 C 16.19973 17.335 14.335 19.19973 14.335 21.5 C 14.335 23.80027 16.19973 25.665 18.5 25.665 Z M 9.5 24.665 C 11.52412 24.665 13.165 23.02412 13.165 21 C 13.165 18.97588 11.52412 17.335 9.5 17.335 C 7.475876 17.335 5.835 18.97588 5.835 21 C 5.835 23.02412 7.475876 24.665 9.5 24.665 Z M 18.5 24.335 C 16.93427 24.335 15.665 23.06573 15.665 21.5 C 15.665 19.93427 16.93427 18.665 18.5 18.665 C 20.06573 18.665 21.335 19.93427 21.335 21.5 C 21.335 23.06573 20.06573 24.335 18.5 24.335 Z M 9.5 23.335 C 8.210415 23.335 7.165 22.28958 7.165 21 C 7.165 19.71042 8.210415 18.665 9.5 18.665 C 10.78958 18.665 11.835 19.71042 11.835 21 C 11.835 22.28958 10.78958 23.335 9.5 23.335 Z "/>
</clipPath>
<g clip-path="url(#cp0)">
<path transform="matrix(1,0,0,-1,0,30)" d="M -3.322956 30.665 L 32.363 30.665 L 32.363 1.335 L -3.322956 1.335 Z "/>
</g>
</g>
</svg>
