<?xml version="1.0" encoding="UTF-8" standalone="no"?>
<!DOCTYPE svg PUBLIC "-//W3C//DTD SVG 1.1//EN" "http://www.w3.org/Graphics/SVG/1.1/DTD/svg11.dtd">
<svg xmlns="http://www.w3.org/2000/svg" xmlns:xlink="http://www.w3.org/1999/xlink" version="1.1" width="30pt" height="30pt" viewBox="0 0 30 30">
<g enable-background="new">
<clipPath id="cp0">
<path transform="matrix(1,0,0,-1,0,30)" d="M 19.0851 23.7885 C 22.65375 23.7885 25.2885 21.06459 25.2885 17.30542 C 25.2885 13.26011 22.07032 9.175696 16.477 5.6985 C 16.01199 5.401293 15.4727 5.2115 15 5.2115 C 14.5273 5.2115 13.98801 5.401293 13.53133 5.693247 C 7.929678 9.175696 4.7115 13.26011 4.7115 17.30542 C 4.7115 21.06459 7.346249 23.7885 10.9149 23.7885 C 12.50855 23.7885 13.90372 23.16328 15.0017 21.92799 C 16.10398 23.16459 17.49356 23.7885 19.0851 23.7885 Z M 15 6.7885 C 15.1375 6.7885 15.39705 6.879843 15.63606 7.032533 C 20.82295 10.25713 23.7115 13.92319 23.7115 17.30542 C 23.7115 20.20516 21.77084 22.2115 19.0851 22.2115 C 17.698 22.2115 16.55767 21.57112 15.66029 20.19628 C 15.3484 19.71843 14.64792 19.71985 14.33796 20.19896 C 13.45171 21.56888 12.3054 22.2115 10.9149 22.2115 C 8.229163 22.2115 6.2885 20.20516 6.2885 17.30542 C 6.2885 13.92319 9.177047 10.25713 14.37227 7.02728 C 14.60295 6.879843 14.8625 6.7885 15 6.7885 Z "/>
</clipPath>
<g clip-path="url(#cp0)">
<path transform="matrix(1,0,0,-1,0,30)" d="M -.2885 28.7885 L 30.2885 28.7885 L 30.2885 .2115 L -.2885 .2115 Z "/>
</g>
</g>
</svg>
