<?xml version="1.0" encoding="UTF-8" standalone="no"?>
<!DOCTYPE svg PUBLIC "-//W3C//DTD SVG 1.1//EN" "http://www.w3.org/Graphics/SVG/1.1/DTD/svg11.dtd">
<svg xmlns="http://www.w3.org/2000/svg" xmlns:xlink="http://www.w3.org/1999/xlink" version="1.1" width="30pt" height="30pt" viewBox="0 0 30 30">
<g enable-background="new">
<clipPath id="cp0">
<path transform="matrix(1,0,0,-1,0,30)" d="M 15 26.665 C 19.79106 26.665 23.665 22.76685 23.665 17.95 C 23.665 14.14474 21.44631 9.621901 17.04657 4.34685 C 16.94383 4.223661 16.83016 4.11 16.70698 4.007252 C 15.57668 3.064512 13.89615 3.216557 12.95342 4.346854 C 8.553688 9.621903 6.335 14.14474 6.335 17.95 C 6.335 22.76685 10.20894 26.665 15 26.665 Z M 15 25.335 C 10.94534 25.335 7.665 22.03415 7.665 17.95 C 7.665 14.51915 9.755716 10.25719 13.97479 5.198738 C 14.44704 4.632529 15.28888 4.556364 15.85509 5.028618 C 15.9168 5.080089 15.97374 5.137026 16.02521 5.198736 C 20.24428 10.25718 22.335 14.51915 22.335 17.95 C 22.335 22.03415 19.05466 25.335 15 25.335 Z M 15 21.49 C 16.94534 21.49 18.52214 19.90335 18.52214 17.95 C 18.52214 15.99665 16.94534 14.41 15 14.41 C 13.05466 14.41 11.47786 15.99665 11.47786 17.95 C 11.47786 19.90335 13.05466 21.49 15 21.49 Z M 15 20.16 C 13.79106 20.16 12.80786 19.17065 12.80786 17.95 C 12.80786 16.72935 13.79106 15.74 15 15.74 C 16.20894 15.74 17.19214 16.72935 17.19214 17.95 C 17.19214 19.17065 16.20894 20.16 15 20.16 Z "/>
</clipPath>
<g clip-path="url(#cp0)">
<path transform="matrix(1,0,0,-1,0,30)" d="M 1.335 31.665 L 28.665 31.665 L 28.665 -1.611243 L 1.335 -1.611243 Z "/>
</g>
</g>
</svg>
