<?xml version="1.0" encoding="UTF-8" standalone="no"?>
<!DOCTYPE svg PUBLIC "-//W3C//DTD SVG 1.1//EN" "http://www.w3.org/Graphics/SVG/1.1/DTD/svg11.dtd">
<svg xmlns="http://www.w3.org/2000/svg" xmlns:xlink="http://www.w3.org/1999/xlink" version="1.1" width="30pt" height="30pt" viewBox="0 0 30 30">
<g enable-background="new">
<clipPath id="cp0">
<path transform="matrix(1,0,0,-1,0,30)" d="M 9.153821 16.82257 C 11.2653 18.93405 14.68868 18.93405 16.80016 16.82257 C 17.0764 16.54633 17.31978 16.2442 17.5279 15.92056 C 17.72655 15.61166 17.63718 15.2002 17.32827 15.00154 C 17.01936 14.80289 16.6079 14.89227 16.40925 15.20117 C 16.25238 15.4451 16.06872 15.6731 15.8597 15.88212 C 14.26762 17.4742 11.68635 17.4742 10.09427 15.88212 L 7.858979 13.64682 C 6.266899 12.05474 6.266899 9.473472 7.858979 7.881392 C 9.451058 6.289313 12.03233 6.289313 13.62441 7.881392 L 15.8597 10.11669 C 16.1194 10.37639 16.54046 10.37639 16.80016 10.11669 C 17.05985 9.856988 17.05985 9.435933 16.80016 9.176234 L 14.56486 6.94094 C 12.45338 4.829463 9.030004 4.829463 6.918527 6.94094 C 4.80705 9.052417 4.80705 12.4758 6.918527 14.58727 L 9.153821 16.82257 Z M 15.41136 23.08139 C 17.52284 25.19287 20.94622 25.19287 23.05769 23.08139 C 25.16917 20.96992 25.16917 17.54653 23.05769 15.43506 L 20.8224 13.19976 C 18.71092 11.08829 15.28754 11.08829 13.17607 13.19976 C 12.89982 13.47601 12.65645 13.77813 12.44832 14.10177 C 12.24967 14.41068 12.33905 14.82214 12.64795 15.02079 C 12.95686 15.21944 13.36832 15.13006 13.56697 14.82116 C 13.72384 14.57723 13.9075 14.34923 14.11652 14.14022 C 15.7086 12.54814 18.28987 12.54814 19.88195 14.14022 L 22.11724 16.37551 C 23.70932 17.96759 23.70932 20.54886 22.11724 22.14094 C 20.52516 23.73302 17.94389 23.73302 16.35181 22.14094 L 14.11652 19.90565 C 13.85682 19.64595 13.43577 19.64595 13.17607 19.90565 C 12.91637 20.16534 12.91637 20.5864 13.17607 20.8461 L 15.41136 23.08139 Z "/>
</clipPath>
<g clip-path="url(#cp0)">
<path transform="matrix(1,0,0,-1,0,30)" d="M .3349191 29.665 L 29.6413 29.665 L 29.6413 .3573326 L .3349191 .3573326 Z "/>
</g>
</g>
</svg>
