<?xml version="1.0" encoding="UTF-8" standalone="no"?>
<!DOCTYPE svg PUBLIC "-//W3C//DTD SVG 1.1//EN" "http://www.w3.org/Graphics/SVG/1.1/DTD/svg11.dtd">
<svg xmlns="http://www.w3.org/2000/svg" xmlns:xlink="http://www.w3.org/1999/xlink" version="1.1" width="30pt" height="30pt" viewBox="0 0 30 30">
<g enable-background="new">
<clipPath id="cp0">
<path transform="matrix(1,0,0,-1,0,30)" d="M 15 25.665 C 18.12869 25.665 20.665 23.12869 20.665 20 L 20.66533 17.58128 C 21.81523 17.28576 22.665 16.24212 22.665 15 L 22.665 8 C 22.665 6.528161 21.47184 5.335 20 5.335 L 10 5.335 C 8.528161 5.335 7.335 6.528161 7.335 8 L 7.335 15 C 7.335 16.24248 8.185272 17.28637 9.335687 17.58154 L 9.335 20 C 9.335 23.12869 11.87131 25.665 15 25.665 Z M 20 16.335 L 10 16.335 C 9.2627 16.335 8.665 15.7373 8.665 15 L 8.665 8 C 8.665 7.2627 9.2627 6.665 10 6.665 L 20 6.665 C 20.7373 6.665 21.335 7.2627 21.335 8 L 21.335 15 C 21.335 15.7373 20.7373 16.335 20 16.335 Z M 15 24.335 C 12.60585 24.335 10.665 22.39415 10.665 20 L 10.665 17.666 L 19.335 17.666 L 19.335 20 C 19.335 22.32374 17.50664 24.22044 15.21003 24.33 L 15 24.335 Z "/>
</clipPath>
<g clip-path="url(#cp0)">
<path transform="matrix(1,0,0,-1,0,30)" d="M 2.335 30.665 L 27.665 30.665 L 27.665 .335 L 2.335 .335 Z "/>
</g>
</g>
</svg>
