<?xml version="1.0" encoding="UTF-8" standalone="no"?>
<!DOCTYPE svg PUBLIC "-//W3C//DTD SVG 1.1//EN" "http://www.w3.org/Graphics/SVG/1.1/DTD/svg11.dtd">
<svg xmlns="http://www.w3.org/2000/svg" xmlns:xlink="http://www.w3.org/1999/xlink" version="1.1" width="30pt" height="30pt" viewBox="0 0 30 30">
<g enable-background="new">
<clipPath id="cp0">
<path transform="matrix(1,0,0,-1,0,30)" d="M 15 19.165 C 18.34118 19.165 20.27944 17.44287 20.61249 14.16843 C 20.70549 13.25361 20.03932 12.43659 19.12451 12.34355 L 19.04038 12.33714 L 18.95603 12.335 L 18.164 12.335 L 18.16384 11.48506 C 22.83366 10.94174 26.165 9.254094 26.165 7 C 26.165 4.298452 21.32325 2.404856 15.3339 2.336891 L 15 2.335 C 8.857737 2.335 3.835 4.248423 3.835 7 C 3.835 9.253586 7.164898 10.94099 11.83297 11.48469 L 11.834 12.335 L 11.04397 12.335 C 10.22406 12.335 9.542568 12.92765 9.404503 13.70793 L 9.385083 13.85634 L 9.378971 14 C 9.378971 14.05627 9.381824 14.11251 9.387518 14.16849 C 9.720575 17.44288 11.65883 19.165 15 19.165 Z M 13.5 6.335 C 12.62884 6.335 11.91395 7.004043 11.84111 7.856337 L 11.835 8 L 11.83422 10.1449 C 7.879516 9.653786 5.165 8.279444 5.165 7 C 5.165 5.366633 9.370864 3.731731 14.67398 3.666989 L 15 3.665 C 20.45572 3.665 24.835 5.333299 24.835 7 C 24.835 8.279458 22.12028 9.653935 18.16511 10.14499 L 18.165 8 C 18.165 7.180088 17.57235 6.498596 16.79207 6.360531 L 16.64366 6.341112 L 16.5 6.335 L 13.5 6.335 Z M 15 17.835 C 12.41977 17.835 11.06062 16.69905 10.73862 14.27274 L 10.71069 14.0339 L 10.70897 14 C 10.70897 13.83811 10.8238 13.70304 10.97646 13.67181 L 11.04397 13.665 L 12.5 13.665 C 12.83388 13.665 13.11029 13.41894 13.15779 13.09827 L 13.165 13 L 13.165 8 C 13.165 7.838112 13.27983 7.703044 13.43249 7.671806 L 13.5 7.665 L 14.334 7.665 L 14.335 10.5 C 14.335 10.86727 14.63273 11.165 15 11.165 C 15.33388 11.165 15.61029 10.91894 15.65779 10.59827 L 15.665 10.5 L 15.664 7.665 L 16.5 7.665 C 16.66189 7.665 16.79696 7.779832 16.82819 7.932486 L 16.835 8 L 16.835 13 C 16.835 13.33388 17.08106 13.61029 17.40173 13.65779 L 17.5 13.665 L 18.95603 13.665 L 18.98993 13.66672 C 19.17398 13.68544 19.30802 13.84983 19.28931 14.03387 C 19.02581 16.62457 17.66347 17.835 15 17.835 Z M 15 27.665 C 17.02412 27.665 18.665 26.02412 18.665 24 C 18.665 21.97588 17.02412 20.335 15 20.335 C 12.97588 20.335 11.335 21.97588 11.335 24 C 11.335 26.02412 12.97588 27.665 15 27.665 Z M 15 26.335 C 13.71042 26.335 12.665 25.28958 12.665 24 C 12.665 22.71042 13.71042 21.665 15 21.665 C 16.28958 21.665 17.335 22.71042 17.335 24 C 17.335 25.28958 16.28958 26.335 15 26.335 Z "/>
</clipPath>
<g clip-path="url(#cp0)">
<path transform="matrix(1,0,0,-1,0,30)" d="M -1.165 32.665 L 31.165 32.665 L 31.165 -2.665 L -1.165 -2.665 Z "/>
</g>
</g>
</svg>
