<?xml version="1.0" encoding="UTF-8" standalone="no"?>
<!DOCTYPE svg PUBLIC "-//W3C//DTD SVG 1.1//EN" "http://www.w3.org/Graphics/SVG/1.1/DTD/svg11.dtd">
<svg xmlns="http://www.w3.org/2000/svg" xmlns:xlink="http://www.w3.org/1999/xlink" version="1.1" width="30pt" height="30pt" viewBox="0 0 30 30">
<g enable-background="new">
<clipPath id="cp0">
<path transform="matrix(1,0,0,-1,0,30)" d="M 10.1199 16.70026 L 11.11203 15.70802 C 10.93438 15.29291 10.81059 14.81505 10.73862 14.27274 L 10.71069 14.0339 L 10.70897 14 C 10.70897 13.83811 10.8238 13.70304 10.97646 13.67181 L 11.04397 13.665 L 12.5 13.665 C 12.83388 13.665 13.11029 13.41894 13.15779 13.09827 L 13.165 13 L 13.165 8 C 13.165 7.838112 13.27983 7.703044 13.43249 7.671806 L 13.5 7.665 L 14.334 7.665 L 14.335 10.5 C 14.335 10.86727 14.63273 11.165 15 11.165 C 15.33388 11.165 15.61029 10.91894 15.65779 10.59827 L 15.665 10.5 L 15.664 7.665 L 16.5 7.665 C 16.66189 7.665 16.79696 7.779832 16.82819 7.932486 L 16.835 8 L 16.834 9.985 L 18.165 8.654 L 18.165 8 C 18.165 7.180088 17.57235 6.498596 16.79207 6.360531 L 16.64366 6.341112 L 16.5 6.335 L 13.5 6.335 C 12.62884 6.335 11.91395 7.004043 11.84111 7.856337 L 11.835 8 L 11.83422 10.1449 C 7.879516 9.653786 5.165 8.279444 5.165 7 C 5.165 5.366633 9.370864 3.731731 14.67398 3.666989 L 15 3.665 C 17.78449 3.665 20.28859 4.099573 22.07318 4.746709 L 23.09603 3.7235 C 21.12955 2.878295 18.38016 2.371459 15.3339 2.336891 L 15 2.335 C 8.857737 2.335 3.835 4.248423 3.835 7 C 3.835 9.253586 7.164898 10.94099 11.83297 11.48469 L 11.834 12.335 L 11.04397 12.335 C 10.22406 12.335 9.542568 12.92765 9.404503 13.70793 L 9.385083 13.85634 L 9.378971 14 C 9.378971 14.05627 9.381824 14.11251 9.387518 14.16849 C 9.487842 15.1548 9.733811 16.00027 10.1199 16.70026 Z M 5.387798 25.54034 L 5.470226 25.47023 L 25.47023 5.470226 C 25.72992 5.210527 25.72992 4.789473 25.47023 4.529774 C 25.2365 4.296045 24.87207 4.272672 24.6122 4.459655 L 24.52977 4.529774 L 4.529774 24.52977 C 4.270075 24.78947 4.270075 25.21053 4.529774 25.47023 C 4.763503 25.70395 5.12793 25.72733 5.387798 25.54034 Z M 15 19.165 C 18.34118 19.165 20.27944 17.44287 20.61249 14.16843 C 20.65932 13.70778 20.51366 13.27193 20.24069 12.94082 L 19.27689 13.90342 C 19.28927 13.94446 19.29392 13.98857 19.28931 14.03387 C 19.0378 16.50669 17.78517 17.72199 15.35552 17.82747 L 14.06477 19.11625 C 14.36311 19.1487 14.67491 19.165 15 19.165 Z M 15 27.665 C 17.02412 27.665 18.665 26.02412 18.665 24 C 18.665 21.97588 17.02412 20.335 15 20.335 C 12.97588 20.335 11.335 21.97588 11.335 24 C 11.335 26.02412 12.97588 27.665 15 27.665 Z M 15 26.335 C 13.71042 26.335 12.665 25.28958 12.665 24 C 12.665 22.71042 13.71042 21.665 15 21.665 C 16.28958 21.665 17.335 22.71042 17.335 24 C 17.335 25.28958 16.28958 26.335 15 26.335 Z "/>
</clipPath>
<g clip-path="url(#cp0)">
<path transform="matrix(1,0,0,-1,0,30)" d="M -1.165 32.665 L 30.665 32.665 L 30.665 -2.665 L -1.165 -2.665 Z "/>
</g>
</g>
</svg>
