<?xml version="1.0" encoding="UTF-8" standalone="no"?>
<!DOCTYPE svg PUBLIC "-//W3C//DTD SVG 1.1//EN" "http://www.w3.org/Graphics/SVG/1.1/DTD/svg11.dtd">
<svg xmlns="http://www.w3.org/2000/svg" xmlns:xlink="http://www.w3.org/1999/xlink" version="1.1" width="30pt" height="30pt" viewBox="0 0 30 30">
<g enable-background="new">
<clipPath id="cp0">
<path transform="matrix(1,0,0,-1,0,30)" d="M 6 11.665 C 6.333881 11.665 6.610292 11.41894 6.65779 11.09827 L 6.665 11 L 6.665 7.665525 L 10 7.665 C 10.33388 7.665 10.61029 7.418942 10.65779 7.098269 L 10.665 7 C 10.665 6.666119 10.41894 6.389708 10.09827 6.34221 L 10 6.335 L 6.665 6.335525 L 6.665 3 C 6.665 2.666119 6.418942 2.389708 6.098269 2.34221 L 6 2.335 C 5.666119 2.335 5.389708 2.581058 5.34221 2.901731 L 5.335 3 L 5.335 6.335525 L 2 6.335 C 1.666119 6.335 1.389708 6.581058 1.34221 6.901731 L 1.335 7 C 1.335 7.333881 1.581058 7.610292 1.901731 7.65779 L 2 7.665 L 5.335 7.665525 L 5.335 11 C 5.335 11.30049 5.534307 11.55444 5.807939 11.63684 L 5.901731 11.65779 L 6 11.665 Z M 24.5 25.98653 C 25.64371 25.98653 26.58028 25.09968 26.65956 23.97614 L 26.665 23.82153 L 26.665 8.178475 C 26.665 7.676326 26.49045 7.189793 26.17123 6.802169 C 25.44731 5.923127 24.17526 5.761502 23.25844 6.404717 L 23.12369 6.507246 L 17.664 11.00453 L 17.665 8.5 C 17.665 7.08477 16.56186 5.927194 15.16854 5.840243 L 15 5.835 C 13.52816 5.835 12.335 7.028161 12.335 8.5 L 12.33572 11.38194 C 10.07395 11.70438 8.335 13.64911 8.335 16 C 8.335 18.50484 10.30917 20.54859 12.78646 20.6602 L 13 20.665 L 17.14123 20.665 C 17.19303 20.665 17.24376 20.677 17.28959 20.69964 L 17.3542 20.7414 L 23.12369 25.49275 C 23.51132 25.81197 23.99785 25.98653 24.5 25.98653 Z M 13.665 8.5 C 13.665 7.7627 14.2627 7.165 15 7.165 C 15.7373 7.165 16.335 7.7627 16.335 8.5 L 16.335 11.33553 L 13.664 11.33553 L 13.665 8.5 Z M 24.5 24.65653 C 24.34506 24.65653 24.19398 24.61344 24.0632 24.53317 L 23.96918 24.46609 L 18.19969 19.71474 C 17.94417 19.50431 17.63277 19.37562 17.30582 19.34315 L 17.14123 19.335 L 13 19.335 C 11.15813 19.335 9.665 17.84187 9.665 16 C 9.665 14.21953 11.06025 12.76493 12.81702 12.66993 L 13 12.665 L 17.14123 12.665 C 17.47225 12.665 17.79443 12.56638 18.06746 12.3836 L 18.19969 12.28526 L 23.96918 7.533913 C 24.32517 7.240752 24.8514 7.291678 25.14456 7.647659 C 25.24306 7.767259 25.30584 7.911273 25.32701 8.063253 L 25.335 8.178475 L 25.335 23.82153 C 25.335 24.28268 24.96116 24.65653 24.5 24.65653 Z "/>
</clipPath>
<g clip-path="url(#cp0)">
<path transform="matrix(1,0,0,-1,0,30)" d="M -3.665 30.98653 L 31.665 30.98653 L 31.665 -2.665 L -3.665 -2.665 Z "/>
</g>
</g>
</svg>
